<svg width="3517" height="2308" viewBox="0 0 3517 2308" fill="none" xmlns="http://www.w3.org/2000/svg">
<rect width="3517" height="2308" fill="#09090B"/>
<g clip-path="url(#clip0_613_423)">
<g clip-path="url(#clip1_613_423)">
<path d="M977.517 600.495V638.043H971.467L953.774 612.467H953.462V638.043H946.661V600.495H952.747L970.422 626.09H970.752V600.495H977.517Z" fill="white"/>
<g clip-path="url(#clip2_613_423)">
<line x1="759.474" y1="689.556" x2="1171.64" y2="689.556" stroke="white" stroke-width="4.64849"/>
<circle cx="753.275" cy="688.781" r="21.6929" fill="black" stroke="white" stroke-width="3.09899"/>
<circle cx="823.002" cy="688.781" r="21.6929" fill="black" stroke="white" stroke-width="3.09899"/>
<circle cx="892.73" cy="688.781" r="21.6929" fill="black" stroke="white" stroke-width="3.09899"/>
<circle cx="962.456" cy="688.781" r="21.6929" fill="black" stroke="white" stroke-width="3.09899"/>
<circle cx="1032.18" cy="688.781" r="21.6929" fill="black" stroke="white" stroke-width="3.09899"/>
<circle cx="1101.91" cy="688.781" r="21.6929" fill="black" stroke="white" stroke-width="3.09899"/>
<circle cx="1171.64" cy="688.781" r="21.6929" fill="black" stroke="white" stroke-width="3.09899"/>
</g>
<g clip-path="url(#clip3_613_423)">
<line x1="934.565" y1="749.986" x2="998.095" y2="749.986" stroke="white" stroke-width="4.64849"/>
<circle cx="927.593" cy="750.761" r="21.6929" fill="white" stroke="black" stroke-width="3.09899"/>
<circle cx="997.321" cy="750.761" r="21.6929" fill="white" stroke="black" stroke-width="3.09899"/>
</g>
</g>
<g clip-path="url(#clip4_613_423)">
<g clip-path="url(#clip5_613_423)">
<g clip-path="url(#clip6_613_423)">
<line x1="544.902" y1="1088.92" x2="544.902" y2="1223.73" stroke="white" stroke-width="4.64849"/>
<circle cx="545.675" cy="1084.27" r="21.6929" transform="rotate(90 545.675 1084.27)" fill="black" stroke="white" stroke-width="3.09899"/>
<circle cx="545.675" cy="1154" r="21.6929" transform="rotate(90 545.675 1154)" fill="black" stroke="white" stroke-width="3.09899"/>
<circle cx="545.675" cy="1223.73" r="21.6929" transform="rotate(90 545.675 1223.73)" fill="black" stroke="white" stroke-width="3.09899"/>
</g>
<g clip-path="url(#clip7_613_423)">
<line x1="482.923" y1="915.378" x2="482.923" y2="1398.82" stroke="white" stroke-width="4.64849"/>
<circle cx="483.695" cy="909.954" r="21.6929" transform="rotate(90 483.695 909.954)" fill="white" stroke="black" stroke-width="3.09899"/>
<circle cx="483.695" cy="979.682" r="21.6929" transform="rotate(90 483.695 979.682)" fill="white" stroke="black" stroke-width="3.09899"/>
<circle cx="483.695" cy="1049.41" r="21.6929" transform="rotate(90 483.695 1049.41)" fill="white" stroke="black" stroke-width="3.09899"/>
<circle cx="483.695" cy="1119.14" r="21.6929" transform="rotate(90 483.695 1119.14)" fill="white" stroke="black" stroke-width="3.09899"/>
<circle cx="483.695" cy="1188.86" r="21.6929" transform="rotate(90 483.695 1188.86)" fill="white" stroke="black" stroke-width="3.09899"/>
<circle cx="483.695" cy="1258.59" r="21.6929" transform="rotate(90 483.695 1258.59)" fill="white" stroke="black" stroke-width="3.09899"/>
<circle cx="483.695" cy="1328.32" r="21.6929" transform="rotate(90 483.695 1328.32)" fill="white" stroke="black" stroke-width="3.09899"/>
<circle cx="483.695" cy="1398.05" r="21.6929" transform="rotate(90 483.695 1398.05)" fill="white" stroke="black" stroke-width="3.09899"/>
</g>
<path d="M423.384 1173H413.869V1167.11H423.054C425.67 1167.11 427.852 1166.64 429.6 1165.68C431.347 1164.72 432.661 1163.28 433.541 1161.38C434.422 1159.46 434.862 1157.06 434.862 1154.19C434.862 1151.32 434.422 1148.93 433.541 1147.04C432.661 1145.13 431.36 1143.71 429.636 1142.77C427.925 1141.81 425.798 1141.34 423.256 1141.34H413.667V1135.45H423.641C427.369 1135.45 430.571 1136.2 433.248 1137.71C435.937 1139.2 438.003 1141.34 439.445 1144.14C440.887 1146.94 441.608 1150.29 441.608 1154.19C441.608 1158.1 440.881 1161.46 439.427 1164.27C437.984 1167.08 435.9 1169.24 433.175 1170.74C430.461 1172.25 427.198 1173 423.384 1173ZM417.462 1135.45V1173H410.661V1135.45H417.462ZM405.234 1155.44V1151.26H422.816V1155.44H405.234Z" fill="white"/>
</g>
<line x1="1105.73" y1="1308.95" x2="1105.73" y2="999.05" stroke="white" stroke-width="4.64849"/>
<line x1="823.726" y1="1308.95" x2="823.726" y2="999.05" stroke="white" stroke-width="4.64849"/>
<g clip-path="url(#clip8_613_423)">
<line x1="830.702" y1="999.826" x2="1103.41" y2="999.826" stroke="white" stroke-width="4.64849"/>
<circle cx="824.502" cy="999.05" r="21.6929" fill="white" stroke="black" stroke-width="3.09899"/>
<circle cx="894.23" cy="999.05" r="21.6929" fill="white" stroke="black" stroke-width="3.09899"/>
<circle cx="963.957" cy="999.05" r="21.6929" fill="white" stroke="black" stroke-width="3.09899"/>
<circle cx="1033.68" cy="999.05" r="21.6929" fill="white" stroke="black" stroke-width="3.09899"/>
<circle cx="1103.41" cy="999.05" r="21.6929" fill="white" stroke="black" stroke-width="3.09899"/>
</g>
<g clip-path="url(#clip9_613_423)">
<line x1="964.734" y1="1237.67" x2="964.734" y2="1070.33" stroke="white" stroke-width="4.64849"/>
<line x1="880.283" y1="1154.78" x2="1047.63" y2="1154.78" stroke="white" stroke-width="4.64849"/>
<circle cx="892.739" cy="1155.1" r="21.6929" transform="rotate(-45 892.739 1155.1)" fill="black" stroke="white" stroke-width="3.09899"/>
<circle cx="965.052" cy="1082.78" r="21.6929" transform="rotate(-45 965.052 1082.78)" fill="black" stroke="white" stroke-width="3.09899"/>
<circle cx="962.861" cy="1225.22" r="21.6929" transform="rotate(-45 962.861 1225.22)" fill="black" stroke="white" stroke-width="3.09899"/>
<circle cx="1035.17" cy="1152.9" r="21.6929" transform="rotate(-45 1035.17 1152.9)" fill="black" stroke="white" stroke-width="3.09899"/>
<circle cx="963.954" cy="1154" r="21.6929" transform="rotate(-45 963.954 1154)" fill="black" stroke="white" stroke-width="3.09899"/>
</g>
<g clip-path="url(#clip10_613_423)">
<line x1="830.702" y1="1309.72" x2="1103.41" y2="1309.72" stroke="white" stroke-width="4.64849"/>
<circle cx="824.502" cy="1308.95" r="21.6929" fill="white" stroke="black" stroke-width="3.09899"/>
<circle cx="894.23" cy="1308.95" r="21.6929" fill="white" stroke="black" stroke-width="3.09899"/>
<circle cx="963.957" cy="1308.95" r="21.6929" fill="white" stroke="black" stroke-width="3.09899"/>
<circle cx="1033.68" cy="1308.95" r="21.6929" fill="white" stroke="black" stroke-width="3.09899"/>
<circle cx="1103.41" cy="1308.95" r="21.6929" fill="white" stroke="black" stroke-width="3.09899"/>
</g>
<g clip-path="url(#clip11_613_423)">
<path d="M1485.01 1141.15V1135.45H1514.97V1141.15H1503.36V1173H1496.62V1141.15H1485.01Z" fill="white"/>
<g clip-path="url(#clip12_613_423)">
<line x1="1443.45" y1="881.289" x2="1443.45" y2="1432.91" stroke="white" stroke-width="4.64849"/>
<circle cx="1444.22" cy="875.091" r="21.6929" transform="rotate(90 1444.22 875.091)" fill="black" stroke="white" stroke-width="3.09899"/>
<circle cx="1444.22" cy="944.818" r="21.6929" transform="rotate(90 1444.22 944.818)" fill="black" stroke="white" stroke-width="3.09899"/>
<circle cx="1444.22" cy="1014.55" r="21.6929" transform="rotate(90 1444.22 1014.55)" fill="black" stroke="white" stroke-width="3.09899"/>
<circle cx="1444.22" cy="1084.27" r="21.6929" transform="rotate(90 1444.22 1084.27)" fill="black" stroke="white" stroke-width="3.09899"/>
<circle cx="1444.22" cy="1154" r="21.6929" transform="rotate(90 1444.22 1154)" fill="black" stroke="white" stroke-width="3.09899"/>
<circle cx="1444.22" cy="1223.73" r="21.6929" transform="rotate(90 1444.22 1223.73)" fill="black" stroke="white" stroke-width="3.09899"/>
<circle cx="1444.22" cy="1293.45" r="21.6929" transform="rotate(90 1444.22 1293.45)" fill="black" stroke="white" stroke-width="3.09899"/>
<circle cx="1444.22" cy="1363.18" r="21.6929" transform="rotate(90 1444.22 1363.18)" fill="black" stroke="white" stroke-width="3.09899"/>
<circle cx="1444.22" cy="1432.91" r="21.6929" transform="rotate(90 1444.22 1432.91)" fill="black" stroke="white" stroke-width="3.09899"/>
</g>
<g clip-path="url(#clip13_613_423)">
<line x1="1381.47" y1="1056.38" x2="1381.47" y2="1257.82" stroke="white" stroke-width="4.64849"/>
<circle cx="1382.24" cy="1049.41" r="21.6929" transform="rotate(90 1382.24 1049.41)" fill="white" stroke="black" stroke-width="3.09899"/>
<circle cx="1382.24" cy="1119.14" r="21.6929" transform="rotate(90 1382.24 1119.14)" fill="white" stroke="black" stroke-width="3.09899"/>
<circle cx="1382.24" cy="1188.86" r="21.6929" transform="rotate(90 1382.24 1188.86)" fill="white" stroke="black" stroke-width="3.09899"/>
<circle cx="1382.24" cy="1258.59" r="21.6929" transform="rotate(90 1382.24 1258.59)" fill="white" stroke="black" stroke-width="3.09899"/>
</g>
</g>
</g>
<g clip-path="url(#clip14_613_423)">
<g clip-path="url(#clip15_613_423)">
<circle cx="962.457" cy="1557.24" r="21.6929" fill="black" stroke="white" stroke-width="3.09899"/>
</g>
<g clip-path="url(#clip16_613_423)">
<line x1="795.111" y1="1618.44" x2="1139.1" y2="1618.44" stroke="white" stroke-width="4.64849"/>
<circle cx="788.139" cy="1619.22" r="21.6929" fill="white" stroke="black" stroke-width="3.09899"/>
<circle cx="857.866" cy="1619.22" r="21.6929" fill="white" stroke="black" stroke-width="3.09899"/>
<circle cx="927.593" cy="1619.22" r="21.6929" fill="white" stroke="black" stroke-width="3.09899"/>
<circle cx="997.321" cy="1619.22" r="21.6929" fill="white" stroke="black" stroke-width="3.09899"/>
<circle cx="1067.05" cy="1619.22" r="21.6929" fill="white" stroke="black" stroke-width="3.09899"/>
<circle cx="1136.78" cy="1619.22" r="21.6929" fill="white" stroke="black" stroke-width="3.09899"/>
</g>
<path d="M949.161 1707.96V1670.41H963.534C966.248 1670.41 968.503 1670.84 970.3 1671.69C972.109 1672.53 973.459 1673.69 974.352 1675.16C975.256 1676.62 975.708 1678.29 975.708 1680.14C975.708 1681.67 975.415 1682.98 974.828 1684.07C974.242 1685.14 973.453 1686.02 972.463 1686.69C971.473 1687.36 970.367 1687.84 969.145 1688.14V1688.5C970.477 1688.58 971.754 1688.99 972.977 1689.73C974.211 1690.47 975.219 1691.5 976.002 1692.85C976.784 1694.19 977.175 1695.82 977.175 1697.73C977.175 1699.67 976.704 1701.42 975.763 1702.97C974.822 1704.51 973.404 1705.73 971.51 1706.62C969.615 1707.51 967.232 1707.96 964.359 1707.96H949.161ZM955.962 1702.27H963.278C965.747 1702.27 967.525 1701.8 968.613 1700.86C969.713 1699.91 970.263 1698.69 970.263 1697.19C970.263 1696.08 969.988 1695.08 969.438 1694.19C968.888 1693.28 968.106 1692.57 967.091 1692.06C966.077 1691.54 964.867 1691.27 963.461 1691.27H955.962V1702.27ZM955.962 1686.38H962.691C963.864 1686.38 964.922 1686.16 965.863 1685.74C966.804 1685.3 967.544 1684.68 968.081 1683.88C968.631 1683.08 968.906 1682.12 968.906 1681.02C968.906 1679.57 968.393 1678.37 967.366 1677.43C966.352 1676.49 964.842 1676.02 962.838 1676.02H955.962V1686.38Z" fill="white"/>
</g>
</g>
<g clip-path="url(#clip17_613_423)">
<g clip-path="url(#clip18_613_423)">
<path d="M2569.56 600.449V638H2563.51L2545.82 612.422H2545.51V638H2538.7V600.449H2544.79L2562.47 626.045H2562.8V600.449H2569.56Z" fill="white"/>
</g>
<g clip-path="url(#clip19_613_423)">
<g clip-path="url(#clip20_613_423)">
<path d="M2016.96 1175H2006.53V1168.55H2016.6C2019.46 1168.55 2021.85 1168.03 2023.77 1166.98C2025.68 1165.93 2027.12 1164.35 2028.09 1162.26C2029.05 1160.16 2029.53 1157.53 2029.53 1154.39C2029.53 1151.24 2029.05 1148.63 2028.09 1146.55C2027.12 1144.46 2025.7 1142.9 2023.81 1141.87C2021.93 1140.83 2019.6 1140.3 2016.82 1140.3H2006.31V1133.85H2017.24C2021.32 1133.85 2024.83 1134.68 2027.77 1136.33C2030.71 1137.96 2032.98 1140.31 2034.56 1143.38C2036.14 1146.44 2036.93 1150.11 2036.93 1154.39C2036.93 1158.67 2036.13 1162.36 2034.54 1165.44C2032.96 1168.52 2030.67 1170.88 2027.69 1172.53C2024.71 1174.18 2021.14 1175 2016.96 1175ZM2010.47 1133.85V1175H2003.02V1133.85H2010.47ZM1997.07 1155.75V1151.17H2016.34V1155.75H1997.07Z" fill="white"/>
</g>
<rect width="40.9923" height="24.3216" rx="3.28885" transform="matrix(-0.912598 0.408857 -0.420577 -0.907257 2725.3 1422.71)" fill="white"/>
<rect width="40.9923" height="24.3216" rx="3.28885" transform="matrix(-0.912598 0.408857 -0.420577 -0.907257 2740.3 1455.07)" fill="white"/>
<rect width="40.9923" height="24.3216" rx="3.28885" transform="matrix(-0.912598 0.408857 -0.420577 -0.907257 2710.29 1390.34)" fill="white"/>
<rect width="40.9923" height="24.3216" rx="3.28885" transform="matrix(-0.912598 0.408857 -0.420577 -0.907257 2672.92 1446.17)" fill="white"/>
<rect width="40.9923" height="24.3216" rx="3.28885" transform="matrix(-0.912598 0.408857 -0.420577 -0.907257 2687.93 1478.53)" fill="white"/>
<rect width="40.9923" height="24.3216" rx="3.28885" transform="matrix(-0.912598 0.408857 -0.420577 -0.907257 2657.92 1413.81)" fill="white"/>
<rect width="40.5181" height="24.606" rx="3.28885" transform="matrix(-0.388284 0.921539 -0.926158 -0.377136 2868.84 1230)" fill="white"/>
<rect width="40.5181" height="24.606" rx="3.28885" transform="matrix(-0.388284 0.921539 -0.926158 -0.377136 2835.42 1216.38)" fill="white"/>
<rect width="40.5181" height="24.606" rx="3.28885" transform="matrix(-0.388284 0.921539 -0.926158 -0.377136 2846.82 1282.27)" fill="white"/>
<rect width="40.5181" height="24.606" rx="3.28885" transform="matrix(-0.388284 0.921539 -0.926158 -0.377136 2813.39 1268.66)" fill="white"/>
<rect width="97.2422" height="24.6057" rx="3.28885" transform="matrix(-0.388285 0.921539 -0.926158 -0.377136 2902.27 1243.61)" fill="white"/>
<rect width="98.4228" height="24.3106" rx="3.28885" transform="matrix(0.926158 -0.377136 0.388285 0.921539 2376.25 849.824)" fill="white"/>
<rect width="98.4228" height="24.3106" rx="3.28885" transform="matrix(0.926158 -0.377136 0.388285 0.921539 2390.1 882.682)" fill="white"/>
<rect width="98.4228" height="24.3106" rx="3.28885" transform="matrix(0.926158 -0.377136 0.388284 0.92154 2403.94 915.54)" fill="white"/>
<rect width="40.5181" height="24.606" rx="3.28885" transform="matrix(0.388284 -0.92154 0.926158 0.377136 2209.74 1064.12)" fill="white"/>
<rect width="40.5181" height="24.606" rx="3.28885" transform="matrix(0.388284 -0.92154 0.926158 0.377136 2209.74 1064.12)" fill="white"/>
<rect width="40.5181" height="24.606" rx="3.28885" transform="matrix(0.388284 -0.92154 0.926158 0.377136 2231.76 1011.85)" fill="white"/>
<rect width="40.5181" height="24.606" rx="3.28885" transform="matrix(0.388284 -0.92154 0.926158 0.377136 2231.76 1011.85)" fill="white"/>
<rect width="97.2422" height="24.6057" rx="3.28885" transform="matrix(0.388284 -0.92154 0.926158 0.377136 2243.16 1077.73)" fill="white"/>
<rect width="97.2422" height="24.6057" rx="3.28885" transform="matrix(0.388284 -0.92154 0.926158 0.377136 2243.16 1077.73)" fill="white"/>
<rect width="97.2422" height="24.6057" rx="3.28885" transform="matrix(0.388285 -0.921539 0.926158 0.377136 2276.58 1091.34)" fill="white"/>
<rect width="97.2422" height="24.6057" rx="3.28885" transform="matrix(0.388285 -0.921539 0.926158 0.377136 2276.58 1091.34)" fill="white"/>
<rect width="41.01" height="24.3109" rx="3.28885" transform="matrix(0.926158 0.377136 -0.388285 0.921539 2617.15 878.422)" fill="white"/>
<rect width="41.01" height="24.3109" rx="3.28885" transform="matrix(0.926158 0.377136 -0.388285 0.921539 2670.32 900.074)" fill="white"/>
<rect width="98.4228" height="24.3106" rx="3.28885" transform="matrix(0.926158 0.377136 -0.388284 0.92154 2631 845.564)" fill="white"/>
<rect width="98.4228" height="24.3106" rx="3.28885" transform="matrix(0.926158 0.377136 -0.388284 0.92154 2644.84 812.706)" fill="white"/>
<rect width="97.2413" height="24.6057" rx="3.28885" transform="matrix(0.388284 0.92154 -0.926158 0.377136 2830.82 988.122)" fill="white"/>
<rect width="40.5166" height="24.606" rx="3.28885" transform="matrix(0.388285 0.921539 -0.926158 0.377136 2797.39 1001.73)" fill="white"/>
<rect width="40.5166" height="24.606" rx="3.28885" transform="matrix(0.388285 0.921539 -0.926158 0.377136 2819.25 1053.56)" fill="white"/>
<rect width="40.5166" height="24.606" rx="3.28885" transform="matrix(0.388285 0.921539 -0.926158 0.377136 2864.24 974.511)" fill="white"/>
<rect width="40.5166" height="24.606" rx="3.28885" transform="matrix(0.388284 0.92154 -0.926158 0.377136 2886.39 1026.34)" fill="white"/>
<rect width="40.5181" height="24.606" rx="3.28885" transform="matrix(-0.388284 -0.921539 0.926158 -0.377136 2280.92 1318.98)" fill="white"/>
<rect width="40.5181" height="24.606" rx="3.28885" transform="matrix(-0.388284 -0.921539 0.926158 -0.377136 2258.89 1266.7)" fill="white"/>
<rect width="97.2422" height="24.6057" rx="3.28885" transform="matrix(-0.388285 -0.921539 0.926158 -0.377136 2247.49 1332.59)" fill="white"/>
<rect width="97.2422" height="24.6057" rx="3.28885" transform="matrix(-0.388284 -0.921539 0.926158 -0.377136 2314.34 1305.37)" fill="white"/>
<rect width="40.9923" height="24.3216" rx="3.28885" transform="matrix(-0.912598 -0.408857 0.420577 -0.907257 2477.18 1462.93)" fill="white"/>
<rect width="40.9923" height="24.3216" rx="3.28885" transform="matrix(-0.912598 -0.408857 0.420577 -0.907257 2462.18 1495.29)" fill="white"/>
<rect width="40.9923" height="24.3216" rx="3.28885" transform="matrix(-0.912598 -0.408857 0.420577 -0.907257 2424.81 1439.47)" fill="white"/>
<rect width="40.9923" height="24.3216" rx="3.28885" transform="matrix(-0.912598 -0.408857 0.420577 -0.907257 2409.81 1471.83)" fill="white"/>
<rect width="98.3804" height="24.3213" rx="3.28885" transform="matrix(-0.912598 -0.408857 0.420577 -0.907257 2492.19 1430.57)" fill="white"/>
<g clip-path="url(#clip21_613_423)">
<path d="M3074.29 1140.1V1133.85H3107.12V1140.1H3094.4V1175H3087.01V1140.1H3074.29Z" fill="white"/>
</g>
</g>
<g clip-path="url(#clip22_613_423)">
<path d="M2541.2 1708V1670.45H2555.58C2558.29 1670.45 2560.55 1670.88 2562.34 1671.73C2564.15 1672.58 2565.5 1673.73 2566.4 1675.2C2567.3 1676.66 2567.75 1678.33 2567.75 1680.19C2567.75 1681.71 2567.46 1683.02 2566.87 1684.11C2566.29 1685.18 2565.5 1686.06 2564.51 1686.73C2563.52 1687.4 2562.41 1687.89 2561.19 1688.18V1688.55C2562.52 1688.62 2563.8 1689.03 2565.02 1689.77C2566.26 1690.51 2567.26 1691.55 2568.05 1692.89C2568.83 1694.24 2569.22 1695.86 2569.22 1697.77C2569.22 1699.71 2568.75 1701.46 2567.81 1703.01C2566.87 1704.55 2565.45 1705.77 2563.55 1706.66C2561.66 1707.55 2559.28 1708 2556.4 1708H2541.2ZM2548.01 1702.32H2555.32C2557.79 1702.32 2559.57 1701.85 2560.66 1700.9C2561.76 1699.95 2562.31 1698.73 2562.31 1697.24C2562.31 1696.12 2562.03 1695.12 2561.48 1694.23C2560.93 1693.33 2560.15 1692.62 2559.14 1692.1C2558.12 1691.58 2556.91 1691.31 2555.51 1691.31H2548.01V1702.32ZM2548.01 1686.42H2554.74C2555.91 1686.42 2556.97 1686.21 2557.91 1685.78C2558.85 1685.34 2559.59 1684.72 2560.13 1683.93C2560.68 1683.12 2560.95 1682.17 2560.95 1681.07C2560.95 1679.61 2560.44 1678.41 2559.41 1677.47C2558.4 1676.53 2556.89 1676.06 2554.88 1676.06H2548.01V1686.42Z" fill="white"/>
</g>
</g>
<defs>
<clipPath id="clip0_613_423">
<rect width="1111" height="1131.91" fill="white" transform="translate(406.957 588.043)"/>
</clipPath>
<clipPath id="clip1_613_423">
<rect width="464.849" height="185.96" fill="white" transform="translate(730.032 588.043)"/>
</clipPath>
<clipPath id="clip2_613_423">
<rect width="464.849" height="46.4849" fill="white" transform="translate(730.032 665.538)"/>
</clipPath>
<clipPath id="clip3_613_423">
<rect width="116.212" height="46.4849" fill="white" transform="translate(904.351 727.518)"/>
</clipPath>
<clipPath id="clip4_613_423">
<rect width="1111" height="684.899" fill="white" transform="translate(406.957 811.551)"/>
</clipPath>
<clipPath id="clip5_613_423">
<rect width="534.576" height="161.96" fill="white" transform="matrix(0 1 -1 0 568.917 886.712)"/>
</clipPath>
<clipPath id="clip6_613_423">
<rect width="185.94" height="46.4849" fill="white" transform="matrix(0 1 -1 0 568.917 1061.03)"/>
</clipPath>
<clipPath id="clip7_613_423">
<rect width="534.576" height="46.4849" fill="white" transform="matrix(0 1 -1 0 506.938 886.712)"/>
</clipPath>
<clipPath id="clip8_613_423">
<rect width="325.394" height="46.4849" fill="white" transform="translate(801.26 975.808)"/>
</clipPath>
<clipPath id="clip9_613_423">
<rect width="148.752" height="145.653" fill="white" transform="translate(859.869 1155.1) rotate(-45)"/>
</clipPath>
<clipPath id="clip10_613_423">
<rect width="325.394" height="46.4849" fill="white" transform="translate(801.26 1285.71)"/>
</clipPath>
<clipPath id="clip11_613_423">
<rect width="604.303" height="158.96" fill="white" transform="matrix(0 1 -1 0 1517.96 851.848)"/>
</clipPath>
<clipPath id="clip12_613_423">
<rect width="604.303" height="46.4849" fill="white" transform="matrix(0 1 -1 0 1467.46 851.848)"/>
</clipPath>
<clipPath id="clip13_613_423">
<rect width="255.667" height="46.4849" fill="white" transform="matrix(0 1 -1 0 1405.48 1026.17)"/>
</clipPath>
<clipPath id="clip14_613_423">
<rect width="395.121" height="185.96" fill="white" transform="translate(764.896 1534)"/>
</clipPath>
<clipPath id="clip15_613_423">
<rect width="46.4849" height="46.4849" fill="white" transform="translate(939.215 1534)"/>
</clipPath>
<clipPath id="clip16_613_423">
<rect width="395.121" height="46.4849" fill="white" transform="translate(764.896 1595.98)"/>
</clipPath>
<clipPath id="clip17_613_423">
<rect width="1111.09" height="1132" fill="white" transform="translate(1998.96 588)"/>
</clipPath>
<clipPath id="clip18_613_423">
<rect width="39" height="62" fill="white" transform="translate(2535 588)"/>
</clipPath>
<clipPath id="clip19_613_423">
<rect width="1111.09" height="750.507" fill="white" transform="translate(1998.96 778.747)"/>
</clipPath>
<clipPath id="clip20_613_423">
<rect width="68" height="41" fill="white" transform="matrix(0 1 -1 0 2039.96 1120)"/>
</clipPath>
<clipPath id="clip21_613_423">
<rect width="68" height="38" fill="white" transform="matrix(0 1 -1 0 3110.04 1120)"/>
</clipPath>
<clipPath id="clip22_613_423">
<rect width="34" height="62" fill="white" transform="translate(2537.5 1658)"/>
</clipPath>
</defs>
</svg>
