<svg width="3517" height="2308" viewBox="0 0 3517 2308" fill="none" xmlns="http://www.w3.org/2000/svg">
<g clip-path="url(#clip0_619_656)">
<rect width="3517" height="2308" fill="#09090B"/>
<g clip-path="url(#clip1_619_656)">
<g clip-path="url(#clip2_619_656)">
<path d="M1782.59 114.146V174H1772.95L1744.74 133.23H1744.25V174H1733.4V114.146H1743.11L1771.28 154.945H1771.81V114.146H1782.59Z" fill="white"/>
</g>
<g clip-path="url(#clip3_619_656)">
<path d="M347.692 1186.5H331.073V1176.22H347.116C351.685 1176.22 355.495 1175.39 358.548 1173.72C361.601 1172.04 363.896 1169.53 365.433 1166.2C366.97 1162.85 367.739 1158.66 367.739 1153.64C367.739 1148.63 366.97 1144.46 365.433 1141.16C363.896 1137.83 361.622 1135.34 358.612 1133.69C355.623 1132.03 351.909 1131.2 347.468 1131.2H330.72V1120.92H348.141C354.652 1120.92 360.245 1122.23 364.921 1124.86C369.617 1127.46 373.225 1131.21 375.744 1136.1C378.263 1140.98 379.523 1146.83 379.523 1153.64C379.523 1160.48 378.253 1166.35 375.712 1171.26C373.193 1176.17 369.553 1179.94 364.793 1182.56C360.053 1185.19 354.353 1186.5 347.692 1186.5ZM337.349 1120.92V1186.5H325.469V1120.92H337.349ZM315.99 1155.82V1148.52H346.7V1155.82H315.99Z" fill="white"/>
</g>
<g clip-path="url(#clip4_619_656)">
<path d="M3141.59 1130.88V1120.92H3193.91V1130.88H3173.64V1186.5H3161.86V1130.88H3141.59Z" fill="white"/>
</g>
<path d="M601 1154H2917" stroke="#DDDDDD" stroke-width="2" stroke-linecap="round" stroke-dasharray="7 7"/>
<path d="M1758 212L1758 2096" stroke="#DDDDDD" stroke-width="2" stroke-linecap="round" stroke-dasharray="7 7"/>
<g clip-path="url(#clip5_619_656)">
<path d="M1736.9 2194V2134.15H1759.82C1764.14 2134.15 1767.74 2134.83 1770.6 2136.19C1773.48 2137.54 1775.64 2139.38 1777.06 2141.72C1778.5 2144.05 1779.22 2146.7 1779.22 2149.66C1779.22 2152.1 1778.75 2154.18 1777.82 2155.92C1776.88 2157.63 1775.63 2159.03 1774.05 2160.1C1772.47 2161.17 1770.71 2161.94 1768.76 2162.41V2162.99C1770.88 2163.11 1772.92 2163.76 1774.87 2164.95C1776.84 2166.12 1778.44 2167.77 1779.69 2169.92C1780.94 2172.06 1781.56 2174.65 1781.56 2177.69C1781.56 2180.79 1780.81 2183.58 1779.31 2186.05C1777.81 2188.51 1775.55 2190.44 1772.53 2191.87C1769.51 2193.29 1765.71 2194 1761.13 2194H1736.9ZM1747.75 2184.94H1759.41C1763.34 2184.94 1766.18 2184.19 1767.91 2182.69C1769.67 2181.17 1770.54 2179.22 1770.54 2176.84C1770.54 2175.07 1770.1 2173.47 1769.23 2172.05C1768.35 2170.61 1767.1 2169.48 1765.49 2168.66C1763.87 2167.82 1761.94 2167.4 1759.7 2167.4H1747.75V2184.94ZM1747.75 2159.6H1758.47C1760.34 2159.6 1762.03 2159.26 1763.53 2158.58C1765.03 2157.88 1766.21 2156.89 1767.06 2155.63C1767.94 2154.34 1768.38 2152.82 1768.38 2151.07C1768.38 2148.75 1767.56 2146.84 1765.92 2145.34C1764.31 2143.84 1761.9 2143.09 1758.71 2143.09H1747.75V2159.6Z" fill="white"/>
</g>
</g>
<rect x="1684.61" y="255.72" width="61.2725" height="8.88007" rx="1.77603" transform="rotate(-2.725 1684.61 255.72)" fill="white"/>
<rect x="1685.24" y="269.025" width="61.2725" height="8.88007" rx="1.77603" transform="rotate(-2.725 1685.24 269.025)" fill="white"/>
<rect x="1685.87" y="282.33" width="61.2725" height="8.88007" rx="1.77603" transform="rotate(-2.725 1685.87 282.33)" fill="white"/>
<rect x="1686.72" y="300.07" width="61.2725" height="8.88007" rx="1.77603" transform="rotate(-2.72497 1686.72 300.07)" fill="white"/>
<rect width="61.2725" height="8.88007" rx="1.77603" transform="matrix(0.998869 -0.0475429 0.0475417 0.998869 1687.35 313.375)" fill="white"/>
<rect x="1687.99" y="326.681" width="61.2725" height="8.88007" rx="1.77603" transform="rotate(-2.72497 1687.99 326.681)" fill="white"/>
<rect x="1599.08" y="280.836" width="61.2725" height="8.88007" rx="1.77603" transform="rotate(-8.35 1599.08 280.836)" fill="white"/>
<rect x="1597.15" y="267.657" width="26.6388" height="8.87959" rx="1.77603" transform="rotate(-8.34998 1597.15 267.657)" fill="white"/>
<rect x="1631.41" y="262.627" width="26.6388" height="8.87959" rx="1.77603" transform="rotate(-8.35 1631.41 262.627)" fill="white"/>
<rect x="1601.02" y="294.015" width="61.2725" height="8.88007" rx="1.77603" transform="rotate(-8.35 1601.02 294.015)" fill="white"/>
<rect width="61.2725" height="8.88007" rx="1.77603" transform="matrix(0.989399 -0.145221 0.145218 0.9894 1603.6 311.587)" fill="white"/>
<rect x="1605.53" y="324.766" width="61.2725" height="8.88007" rx="1.77603" transform="rotate(-8.35 1605.53 324.766)" fill="white"/>
<rect x="1607.46" y="337.944" width="61.2725" height="8.88007" rx="1.77603" transform="rotate(-8.35 1607.46 337.944)" fill="white"/>
<rect x="1514.01" y="300.402" width="26.6388" height="8.87959" rx="1.77603" transform="rotate(-13.975 1514.01 300.402)" fill="white"/>
<rect x="1547.62" y="292.038" width="26.6388" height="8.87959" rx="1.77603" transform="rotate(-13.975 1547.62 292.038)" fill="white"/>
<rect x="1510.8" y="287.476" width="61.2725" height="8.88007" rx="1.77603" transform="rotate(-13.975 1510.8 287.476)" fill="white"/>
<rect x="1517.23" y="313.328" width="61.2725" height="8.88007" rx="1.77603" transform="rotate(-13.975 1517.23 313.328)" fill="white"/>
<rect x="1521.52" y="330.562" width="61.2725" height="8.88007" rx="1.77603" transform="rotate(-13.975 1521.52 330.562)" fill="white"/>
<rect x="1524.74" y="343.488" width="61.2725" height="8.88007" rx="1.77603" transform="rotate(-13.975 1524.74 343.488)" fill="white"/>
<rect x="1527.96" y="356.414" width="61.2725" height="8.88007" rx="1.77603" transform="rotate(-13.975 1527.96 356.414)" fill="white"/>
<rect x="1431.54" y="328.479" width="26.6388" height="8.87959" rx="1.77603" transform="rotate(-19.6 1431.54 328.479)" fill="white"/>
<rect x="1464.17" y="316.861" width="26.6388" height="8.87959" rx="1.77603" transform="rotate(-19.6 1464.17 316.861)" fill="white"/>
<rect x="1427.07" y="315.93" width="26.6388" height="8.87959" rx="1.77603" transform="rotate(-19.6 1427.07 315.93)" fill="white"/>
<rect width="26.6388" height="8.87959" rx="1.77603" transform="matrix(0.942058 -0.33545 0.335453 0.942057 1459.7 304.313)" fill="white"/>
<rect x="1436.01" y="341.027" width="61.2725" height="8.88007" rx="1.77603" transform="rotate(-19.6 1436.01 341.027)" fill="white"/>
<rect x="1441.97" y="357.758" width="61.2725" height="8.88007" rx="1.77603" transform="rotate(-19.6 1441.97 357.758)" fill="white"/>
<rect x="1446.44" y="370.307" width="61.2725" height="8.88007" rx="1.77603" transform="rotate(-19.6 1446.44 370.307)" fill="white"/>
<rect x="1450.9" y="382.855" width="61.2725" height="8.88007" rx="1.77603" transform="rotate(-19.6 1450.9 382.855)" fill="white"/>
<rect x="1352.33" y="364.486" width="61.2725" height="8.88007" rx="1.77603" transform="rotate(-25.225 1352.33 364.486)" fill="white"/>
<rect width="61.2725" height="8.88007" rx="1.77603" transform="matrix(0.904642 -0.426173 0.426175 0.904641 1346.65 352.436)" fill="white"/>
<rect x="1358" y="376.536" width="26.6388" height="8.87959" rx="1.77603" transform="rotate(-25.225 1358 376.536)" fill="white"/>
<rect x="1389.33" y="361.776" width="26.6388" height="8.87959" rx="1.77603" transform="rotate(-25.225 1389.33 361.776)" fill="white"/>
<rect x="1365.57" y="392.602" width="61.2725" height="8.88007" rx="1.77603" transform="rotate(-25.225 1365.57 392.602)" fill="white"/>
<rect x="1371.25" y="404.652" width="61.2725" height="8.88007" rx="1.77603" transform="rotate(-25.225 1371.25 404.652)" fill="white"/>
<rect x="1376.93" y="416.703" width="61.2725" height="8.88007" rx="1.77603" transform="rotate(-25.225 1376.93 416.703)" fill="white"/>
<rect width="61.2725" height="8.88007" rx="1.77603" transform="matrix(0.858514 -0.512791 0.512793 0.858512 1277.25 407.953)" fill="white"/>
<rect width="26.6388" height="8.87959" rx="1.77603" transform="matrix(0.858514 -0.51279 0.512794 0.858512 1270.42 396.518)" fill="white"/>
<rect x="1300.15" y="378.759" width="26.6388" height="8.87959" rx="1.77603" transform="rotate(-30.85 1300.15 378.759)" fill="white"/>
<rect width="26.6388" height="8.87959" rx="1.77603" transform="matrix(0.858514 -0.51279 0.512794 0.858512 1284.08 419.389)" fill="white"/>
<rect x="1313.81" y="401.63" width="26.6388" height="8.87959" rx="1.77603" transform="rotate(-30.85 1313.81 401.63)" fill="white"/>
<rect width="61.2725" height="8.88007" rx="1.77603" transform="matrix(0.858511 -0.512795 0.51279 0.858514 1293.19 434.636)" fill="white"/>
<rect x="1300.02" y="446.072" width="61.2725" height="8.88007" rx="1.77603" transform="rotate(-30.85 1300.02 446.072)" fill="white"/>
<rect x="1306.85" y="457.508" width="61.2725" height="8.88007" rx="1.77603" transform="rotate(-30.85 1306.85 457.508)" fill="white"/>
<rect x="1206.25" y="458.835" width="26.6388" height="8.87959" rx="1.77603" transform="rotate(-36.475 1206.25 458.835)" fill="white"/>
<rect x="1198.33" y="448.124" width="61.2725" height="8.88007" rx="1.77603" transform="rotate(-36.475 1198.33 448.124)" fill="white"/>
<rect x="1234.1" y="438.247" width="26.6388" height="8.87959" rx="1.77603" transform="rotate(-36.475 1234.1 438.247)" fill="white"/>
<rect x="1214.17" y="469.546" width="26.6388" height="8.87959" rx="1.77603" transform="rotate(-36.475 1214.17 469.546)" fill="white"/>
<rect x="1242.01" y="448.958" width="26.6388" height="8.87959" rx="1.77603" transform="rotate(-36.475 1242.01 448.958)" fill="white"/>
<rect x="1224.73" y="483.827" width="61.2725" height="8.88007" rx="1.77603" transform="rotate(-36.475 1224.73 483.827)" fill="white"/>
<rect width="61.2725" height="8.88007" rx="1.77603" transform="matrix(0.804117 -0.594471 0.594473 0.804116 1232.65 494.538)" fill="white"/>
<rect x="1240.56" y="505.249" width="61.2725" height="8.88007" rx="1.77603" transform="rotate(-36.475 1240.56 505.249)" fill="white"/>
<rect x="1140.76" y="516.097" width="26.6388" height="8.87959" rx="1.77603" transform="rotate(-42.1 1140.76 516.097)" fill="white"/>
<rect x="1131.83" y="506.214" width="26.6388" height="8.87959" rx="1.77603" transform="rotate(-42.1 1131.83 506.214)" fill="white"/>
<rect x="1157.53" y="482.995" width="26.6388" height="8.87959" rx="1.77603" transform="rotate(-42.1 1157.53 482.995)" fill="white"/>
<rect x="1166.46" y="492.878" width="26.6388" height="8.87959" rx="1.77603" transform="rotate(-42.1 1166.46 492.878)" fill="white"/>
<rect x="1149.69" y="525.98" width="26.6388" height="8.87959" rx="1.77603" transform="rotate(-42.1 1149.69 525.98)" fill="white"/>
<rect x="1175.39" y="502.762" width="26.6388" height="8.87959" rx="1.77603" transform="rotate(-42.1 1175.39 502.762)" fill="white"/>
<rect x="1161.6" y="539.158" width="61.2725" height="8.88007" rx="1.77603" transform="rotate(-42.1 1161.6 539.158)" fill="white"/>
<rect x="1170.53" y="549.041" width="61.2725" height="8.88007" rx="1.77603" transform="rotate(-42.1 1170.53 549.041)" fill="white"/>
<rect x="1179.46" y="558.924" width="61.2725" height="8.88007" rx="1.77603" transform="rotate(-42.1 1179.46 558.924)" fill="white"/>
<rect x="1140.76" y="516.097" width="26.6388" height="8.87959" rx="1.77603" transform="rotate(-42.1 1140.76 516.097)" fill="white"/>
<rect x="1131.83" y="506.214" width="26.6388" height="8.87959" rx="1.77603" transform="rotate(-42.1 1131.83 506.214)" fill="white"/>
<rect x="1157.53" y="482.995" width="26.6388" height="8.87959" rx="1.77603" transform="rotate(-42.1 1157.53 482.995)" fill="white"/>
<rect x="1166.46" y="492.878" width="26.6388" height="8.87959" rx="1.77603" transform="rotate(-42.1 1166.46 492.878)" fill="white"/>
<rect x="1149.69" y="525.98" width="26.6388" height="8.87959" rx="1.77603" transform="rotate(-42.1 1149.69 525.98)" fill="white"/>
<rect x="1175.39" y="502.762" width="26.6388" height="8.87959" rx="1.77603" transform="rotate(-42.1 1175.39 502.762)" fill="white"/>
<rect x="1161.6" y="539.158" width="61.2725" height="8.88007" rx="1.77603" transform="rotate(-42.1 1161.6 539.158)" fill="white"/>
<rect x="1170.53" y="549.041" width="61.2725" height="8.88007" rx="1.77603" transform="rotate(-42.1 1170.53 549.041)" fill="white"/>
<rect x="1179.46" y="558.924" width="61.2725" height="8.88007" rx="1.77603" transform="rotate(-42.1 1179.46 558.924)" fill="white"/>
<rect x="1071.42" y="571.43" width="61.2725" height="8.88007" rx="1.77603" transform="rotate(-47.725 1071.42 571.43)" fill="white"/>
<rect x="1081.28" y="580.39" width="61.2725" height="8.88007" rx="1.77603" transform="rotate(-47.725 1081.28 580.39)" fill="white"/>
<rect x="1091.13" y="589.35" width="61.2725" height="8.88007" rx="1.77603" transform="rotate(-47.725 1091.13 589.35)" fill="white"/>
<rect width="26.6388" height="8.87959" rx="1.77603" transform="matrix(0.672689 -0.739925 0.739924 0.67269 1104.27 601.298)" fill="white"/>
<rect x="1127.57" y="575.672" width="26.6388" height="8.87959" rx="1.77603" transform="rotate(-47.725 1127.57 575.672)" fill="white"/>
<rect width="61.2725" height="8.88007" rx="1.77603" transform="matrix(0.672689 -0.739926 0.739924 0.672691 1114.13 610.258)" fill="white"/>
<rect width="61.2725" height="8.88007" rx="1.77603" transform="matrix(0.672689 -0.739926 0.739924 0.672691 1123.99 619.218)" fill="white"/>
<rect x="1017.83" y="641.698" width="26.6388" height="8.87959" rx="1.77603" transform="rotate(-53.35 1017.83 641.698)" fill="white"/>
<rect width="26.6388" height="8.87959" rx="1.77603" transform="matrix(0.596922 -0.802299 0.802295 0.596928 1038.5 613.912)" fill="white"/>
<rect width="61.2725" height="8.88007" rx="1.77603" transform="matrix(0.596923 -0.802298 0.802296 0.596927 1028.52 649.649)" fill="white"/>
<rect x="1039.21" y="657.6" width="61.2725" height="8.88007" rx="1.77603" transform="rotate(-53.35 1039.21 657.6)" fill="white"/>
<rect x="1053.45" y="668.202" width="26.6388" height="8.87959" rx="1.77603" transform="rotate(-53.35 1053.45 668.202)" fill="white"/>
<rect x="1074.13" y="640.416" width="26.6388" height="8.87959" rx="1.77603" transform="rotate(-53.35 1074.13 640.416)" fill="white"/>
<rect width="61.2725" height="8.88007" rx="1.77603" transform="matrix(0.596924 -0.802298 0.802296 0.596926 1064.14 676.153)" fill="white"/>
<rect x="1074.83" y="684.104" width="61.2725" height="8.88007" rx="1.77603" transform="rotate(-53.35 1074.83 684.104)" fill="white"/>
<rect width="26.6388" height="8.87959" rx="1.77603" transform="matrix(0.515407 -0.856945 0.85694 0.515417 982.257 723.482)" fill="white"/>
<rect x="1000.11" y="693.804" width="26.6388" height="8.87959" rx="1.77603" transform="rotate(-58.975 1000.11 693.804)" fill="white"/>
<rect width="61.2725" height="8.88007" rx="1.77603" transform="matrix(0.515414 -0.856942 0.856943 0.515411 970.842 716.617)" fill="white"/>
<rect x="993.673" y="730.347" width="61.2725" height="8.88007" rx="1.77603" transform="rotate(-58.975 993.673 730.347)" fill="white"/>
<rect width="26.6388" height="8.87959" rx="1.77603" transform="matrix(0.515405 -0.856947 0.856938 0.515419 1008.89 739.501)" fill="white"/>
<rect width="26.6388" height="8.87959" rx="1.77603" transform="matrix(0.515407 -0.856945 0.85694 0.515417 1026.74 709.823)" fill="white"/>
<rect width="61.2725" height="8.88007" rx="1.77603" transform="matrix(0.515413 -0.856942 0.856943 0.515411 1020.3 746.366)" fill="white"/>
<rect width="61.2725" height="8.88007" rx="1.77603" transform="matrix(0.515415 -0.856941 0.856944 0.515409 1031.72 753.232)" fill="white"/>
<rect width="26.6388" height="8.87959" rx="1.77603" transform="matrix(0.428936 -0.903335 0.903336 0.428935 944.114 801.518)" fill="white"/>
<rect width="26.6388" height="8.87959" rx="1.77603" transform="matrix(0.428932 -0.903337 0.903334 0.428938 958.971 770.234)" fill="white"/>
<rect width="26.6388" height="8.87959" rx="1.77603" transform="matrix(0.428938 -0.903334 0.903337 0.428932 932.083 795.805)" fill="white"/>
<rect width="26.6388" height="8.87959" rx="1.77603" transform="matrix(0.428933 -0.903336 0.903334 0.428938 946.936 764.52)" fill="white"/>
<rect width="61.2725" height="8.88007" rx="1.77603" transform="matrix(0.428934 -0.903336 0.903335 0.428936 956.148 807.232)" fill="white"/>
<rect width="26.6388" height="8.87959" rx="1.77603" transform="matrix(0.428938 -0.903334 0.903337 0.428932 972.191 814.85)" fill="white"/>
<rect width="26.6388" height="8.87959" rx="1.77603" transform="matrix(0.428933 -0.903336 0.903334 0.428938 987.046 783.565)" fill="white"/>
<rect width="61.2725" height="8.88007" rx="1.77603" transform="matrix(0.428938 -0.903334 0.903337 0.428933 984.224 820.563)" fill="white"/>
<rect width="61.2725" height="8.88007" rx="1.77603" transform="matrix(0.428934 -0.903336 0.903335 0.428936 996.256 826.277)" fill="white"/>
<rect width="61.2725" height="8.88007" rx="1.77603" transform="matrix(0.338329 -0.941028 0.941029 0.338326 913.121 882.301)" fill="white"/>
<rect x="900.587" y="877.795" width="61.2725" height="8.88007" rx="1.77603" transform="rotate(-70.225 900.587 877.795)" fill="white"/>
<rect width="26.6388" height="8.87959" rx="1.77603" transform="matrix(0.338329 -0.941028 0.941029 0.338326 925.658 886.808)" fill="white"/>
<rect x="937.377" y="854.218" width="26.6388" height="8.87959" rx="1.77603" transform="rotate(-70.225 937.377 854.218)" fill="white"/>
<rect width="26.6388" height="8.87959" rx="1.77603" transform="matrix(0.338326 -0.941029 0.941028 0.338328 942.372 892.817)" fill="white"/>
<rect x="954.087" y="860.227" width="26.6388" height="8.87959" rx="1.77603" transform="rotate(-70.225 954.087 860.227)" fill="white"/>
<rect x="954.904" y="897.323" width="61.2725" height="8.88007" rx="1.77603" transform="rotate(-70.225 954.904 897.323)" fill="white"/>
<rect width="61.2725" height="8.88007" rx="1.77603" transform="matrix(0.338326 -0.941029 0.941028 0.338329 967.44 901.83)" fill="white"/>
<rect x="890.865" y="967.095" width="61.2725" height="8.88007" rx="1.77603" transform="rotate(-75.85 890.865 967.095)" fill="white"/>
<rect x="877.948" y="963.839" width="26.6388" height="8.87959" rx="1.77603" transform="rotate(-75.85 877.948 963.839)" fill="white"/>
<rect width="26.6388" height="8.87959" rx="1.77603" transform="matrix(0.244461 -0.969659 0.969659 0.244462 886.417 930.257)" fill="white"/>
<rect width="26.6388" height="8.87959" rx="1.77603" transform="matrix(0.244459 -0.96966 0.969658 0.244464 903.781 970.352)" fill="white"/>
<rect x="912.248" y="936.77" width="26.6388" height="8.87959" rx="1.77603" transform="rotate(-75.85 912.248 936.77)" fill="white"/>
<rect width="26.6388" height="8.87959" rx="1.77603" transform="matrix(0.244457 -0.96966 0.969658 0.244466 921.004 974.693)" fill="white"/>
<rect x="929.47" y="941.112" width="26.6388" height="8.87959" rx="1.77603" transform="rotate(-75.85 929.47 941.112)" fill="white"/>
<rect width="61.2725" height="8.88007" rx="1.77603" transform="matrix(0.244459 -0.96966 0.969659 0.244463 933.919 977.95)" fill="white"/>
<rect x="946.836" y="981.206" width="61.2725" height="8.88007" rx="1.77603" transform="rotate(-75.85 946.836 981.206)" fill="white"/>
<rect x="876.555" y="1052.52" width="26.6388" height="8.87959" rx="1.77603" transform="rotate(-81.475 876.555 1052.52)" fill="white"/>
<rect x="863.384" y="1050.55" width="61.2725" height="8.88007" rx="1.77603" transform="rotate(-81.475 863.384 1050.55)" fill="white"/>
<rect x="881.691" y="1018.27" width="26.6388" height="8.87959" rx="1.77603" transform="rotate(-81.475 881.691 1018.27)" fill="white"/>
<rect x="889.729" y="1054.49" width="26.6388" height="8.87959" rx="1.77603" transform="rotate(-81.475 889.729 1054.49)" fill="white"/>
<rect x="894.862" y="1020.24" width="26.6388" height="8.87959" rx="1.77603" transform="rotate(-81.475 894.862 1020.24)" fill="white"/>
<rect x="907.293" y="1057.13" width="26.6388" height="8.87959" rx="1.77603" transform="rotate(-81.475 907.293 1057.13)" fill="white"/>
<rect x="912.426" y="1022.88" width="26.6388" height="8.87959" rx="1.77603" transform="rotate(-81.475 912.426 1022.88)" fill="white"/>
<rect x="920.466" y="1059.1" width="61.2725" height="8.88007" rx="1.77603" transform="rotate(-81.475 920.466 1059.1)" fill="white"/>
<rect width="61.2725" height="8.88007" rx="1.77603" transform="matrix(0.148239 -0.988952 0.988951 0.148243 933.637 1061.08)" fill="white"/>
<rect width="26.6388" height="8.87959" rx="1.77603" transform="matrix(0.0505921 -0.99872 0.998719 0.0505938 870.931 1139.64)" fill="white"/>
<rect x="857.628" y="1138.97" width="26.6388" height="8.87959" rx="1.77603" transform="rotate(-87.1 857.628 1138.97)" fill="white"/>
<rect x="859.379" y="1104.38" width="26.6388" height="8.87959" rx="1.77603" transform="rotate(-87.1 859.379 1104.38)" fill="white"/>
<rect x="872.686" y="1105.05" width="26.6388" height="8.87959" rx="1.77603" transform="rotate(-87.1 872.686 1105.05)" fill="white"/>
<rect x="884.232" y="1140.31" width="26.6388" height="8.87959" rx="1.77603" transform="rotate(-87.1 884.232 1140.31)" fill="white"/>
<rect x="885.989" y="1105.73" width="26.6388" height="8.87959" rx="1.77603" transform="rotate(-87.1 885.989 1105.73)" fill="white"/>
<rect x="901.974" y="1141.21" width="26.6388" height="8.87959" rx="1.77603" transform="rotate(-87.1 901.974 1141.21)" fill="white"/>
<rect width="26.6388" height="8.87959" rx="1.77603" transform="matrix(0.050592 -0.99872 0.998719 0.0505939 903.725 1106.62)" fill="white"/>
<rect width="61.2725" height="8.88007" rx="1.77603" transform="matrix(0.0505937 -0.998719 0.99872 0.0505922 915.275 1141.89)" fill="white"/>
<rect x="928.578" y="1142.56" width="61.2725" height="8.88007" rx="1.77603" transform="rotate(-87.1 928.578 1142.56)" fill="white"/>
<rect x="860.735" y="1227.37" width="61.2725" height="8.88007" rx="1.77603" transform="rotate(-92.725 860.735 1227.37)" fill="white"/>
<rect x="874.041" y="1226.74" width="61.2725" height="8.88007" rx="1.77603" transform="rotate(-92.725 874.041 1226.74)" fill="white"/>
<rect x="887.347" y="1226.1" width="61.2725" height="8.88007" rx="1.77603" transform="rotate(-92.725 887.347 1226.1)" fill="white"/>
<rect x="905.086" y="1225.26" width="61.2725" height="8.88007" rx="1.77603" transform="rotate(-92.725 905.086 1225.26)" fill="white"/>
<rect x="918.392" y="1224.63" width="26.6388" height="8.87959" rx="1.77603" transform="rotate(-92.725 918.392 1224.63)" fill="white"/>
<rect x="916.744" y="1190.03" width="26.6388" height="8.87959" rx="1.77603" transform="rotate(-92.725 916.744 1190.03)" fill="white"/>
<rect x="931.697" y="1223.99" width="61.2725" height="8.88007" rx="1.77603" transform="rotate(-92.725 931.697 1223.99)" fill="white"/>
<rect width="26.6388" height="8.87959" rx="1.77603" transform="matrix(-0.145221 -0.989399 0.9894 -0.145218 872.63 1315.72)" fill="white"/>
<rect x="867.6" y="1281.45" width="26.6388" height="8.87959" rx="1.77603" transform="rotate(-98.35 867.6 1281.45)" fill="white"/>
<rect width="61.2725" height="8.88007" rx="1.77603" transform="matrix(-0.145218 -0.9894 0.989399 -0.145221 885.808 1313.78)" fill="white"/>
<rect x="898.986" y="1311.85" width="61.2725" height="8.88007" rx="1.77603" transform="rotate(-98.35 898.986 1311.85)" fill="white"/>
<rect x="916.56" y="1309.27" width="61.2725" height="8.88007" rx="1.77603" transform="rotate(-98.35 916.56 1309.27)" fill="white"/>
<rect x="929.737" y="1307.33" width="26.6388" height="8.87959" rx="1.77603" transform="rotate(-98.35 929.737 1307.33)" fill="white"/>
<rect width="26.6388" height="8.87959" rx="1.77603" transform="matrix(-0.145222 -0.989399 0.9894 -0.145218 924.71 1273.07)" fill="white"/>
<rect x="942.919" y="1305.4" width="61.2725" height="8.88007" rx="1.77603" transform="rotate(-98.35 942.919 1305.4)" fill="white"/>
<rect x="905.418" y="1397.97" width="26.6388" height="8.87959" rx="1.77603" transform="rotate(-103.975 905.418 1397.97)" fill="white"/>
<rect x="897.054" y="1364.36" width="26.6388" height="8.87959" rx="1.77603" transform="rotate(-103.975 897.054 1364.36)" fill="white"/>
<rect x="892.49" y="1401.18" width="61.2725" height="8.88007" rx="1.77603" transform="rotate(-103.975 892.49 1401.18)" fill="white"/>
<rect width="61.2725" height="8.88007" rx="1.77603" transform="matrix(-0.241499 -0.970401 0.970401 -0.241498 918.34 1394.75)" fill="white"/>
<rect x="935.578" y="1390.46" width="61.2725" height="8.88007" rx="1.77603" transform="rotate(-103.975 935.578 1390.46)" fill="white"/>
<rect width="26.6388" height="8.87959" rx="1.77603" transform="matrix(-0.241496 -0.970402 0.970401 -0.241501 948.502 1387.24)" fill="white"/>
<rect width="26.6388" height="8.87959" rx="1.77603" transform="matrix(-0.241496 -0.970402 0.970401 -0.241501 940.139 1353.64)" fill="white"/>
<rect width="61.2725" height="8.88007" rx="1.77603" transform="matrix(-0.241497 -0.970402 0.970401 -0.2415 961.431 1384.03)" fill="white"/>
<rect width="26.6388" height="8.87959" rx="1.77603" transform="matrix(-0.335447 -0.942059 0.942056 -0.335456 933.606 1480.91)" fill="white"/>
<rect x="921.987" y="1448.29" width="26.6388" height="8.87959" rx="1.77603" transform="rotate(-109.6 921.987 1448.29)" fill="white"/>
<rect x="921.054" y="1485.38" width="26.6388" height="8.87959" rx="1.77603" transform="rotate(-109.6 921.054 1485.38)" fill="white"/>
<rect width="26.6388" height="8.87959" rx="1.77603" transform="matrix(-0.335447 -0.942059 0.942056 -0.335456 909.437 1452.76)" fill="white"/>
<rect x="946.152" y="1476.44" width="61.2725" height="8.88007" rx="1.77603" transform="rotate(-109.6 946.152 1476.44)" fill="white"/>
<rect x="962.884" y="1470.49" width="61.2725" height="8.88007" rx="1.77603" transform="rotate(-109.6 962.884 1470.49)" fill="white"/>
<rect width="26.6388" height="8.87959" rx="1.77603" transform="matrix(-0.335446 -0.94206 0.942055 -0.335457 975.433 1466.02)" fill="white"/>
<rect x="963.813" y="1433.39" width="26.6388" height="8.87959" rx="1.77603" transform="rotate(-109.6 963.813 1433.39)" fill="white"/>
<rect x="987.979" y="1461.55" width="61.2725" height="8.88007" rx="1.77603" transform="rotate(-109.6 987.979 1461.55)" fill="white"/>
<rect width="61.2725" height="8.88007" rx="1.77603" transform="matrix(-0.426173 -0.904642 0.904641 -0.426175 969.501 1559.66)" fill="white"/>
<rect width="61.2725" height="8.88007" rx="1.77603" transform="matrix(-0.426173 -0.904642 0.904641 -0.426175 957.452 1565.33)" fill="white"/>
<rect width="26.6388" height="8.87959" rx="1.77603" transform="matrix(-0.426173 -0.904642 0.904641 -0.426175 981.554 1553.98)" fill="white"/>
<rect width="26.6388" height="8.87959" rx="1.77603" transform="matrix(-0.426175 -0.904641 0.904642 -0.426173 966.794 1522.65)" fill="white"/>
<rect width="61.2725" height="8.88007" rx="1.77603" transform="matrix(-0.426177 -0.90464 0.904642 -0.426172 997.62 1546.41)" fill="white"/>
<rect width="26.6388" height="8.87959" rx="1.77603" transform="matrix(-0.426175 -0.904641 0.904642 -0.426174 994.909 1509.4)" fill="white"/>
<rect width="26.6388" height="8.87959" rx="1.77603" transform="matrix(-0.426178 -0.90464 0.904643 -0.426171 1009.67 1540.73)" fill="white"/>
<rect x="1021.72" y="1535.06" width="61.2725" height="8.88007" rx="1.77603" transform="rotate(-115.225 1021.72 1535.06)" fill="white"/>
<rect width="61.2725" height="8.88007" rx="1.77603" transform="matrix(-0.51279 -0.858514 0.858512 -0.512794 1013 1635.84)" fill="white"/>
<rect width="26.6388" height="8.87959" rx="1.77603" transform="matrix(-0.512787 -0.858516 0.85851 -0.512798 1001.56 1642.67)" fill="white"/>
<rect x="983.802" y="1612.94" width="26.6388" height="8.87959" rx="1.77603" transform="rotate(-120.85 983.802 1612.94)" fill="white"/>
<rect x="1024.43" y="1629.01" width="26.6388" height="8.87959" rx="1.77603" transform="rotate(-120.85 1024.43 1629.01)" fill="white"/>
<rect x="1006.67" y="1599.28" width="26.6388" height="8.87959" rx="1.77603" transform="rotate(-120.85 1006.67 1599.28)" fill="white"/>
<rect width="61.2725" height="8.88007" rx="1.77603" transform="matrix(-0.51279 -0.858514 0.858511 -0.512795 1039.68 1619.91)" fill="white"/>
<rect x="1051.12" y="1613.07" width="26.6388" height="8.87959" rx="1.77603" transform="rotate(-120.85 1051.12 1613.07)" fill="white"/>
<rect x="1033.36" y="1583.34" width="26.6388" height="8.87959" rx="1.77603" transform="rotate(-120.85 1033.36 1583.34)" fill="white"/>
<rect width="61.2725" height="8.88007" rx="1.77603" transform="matrix(-0.51279 -0.858514 0.858512 -0.512794 1062.55 1606.24)" fill="white"/>
<rect width="26.6388" height="8.87959" rx="1.77603" transform="matrix(-0.594473 -0.804116 0.804117 -0.594471 1063.81 1706.62)" fill="white"/>
<rect x="1053.09" y="1714.53" width="61.2725" height="8.88007" rx="1.77603" transform="rotate(-126.475 1053.09 1714.53)" fill="white"/>
<rect x="1043.22" y="1678.77" width="26.6388" height="8.87959" rx="1.77603" transform="rotate(-126.475 1043.22 1678.77)" fill="white"/>
<rect width="26.6388" height="8.87959" rx="1.77603" transform="matrix(-0.59447 -0.804118 0.804115 -0.594474 1074.52 1698.7)" fill="white"/>
<rect width="26.6388" height="8.87959" rx="1.77603" transform="matrix(-0.59447 -0.804118 0.804115 -0.594474 1053.93 1670.85)" fill="white"/>
<rect x="1088.8" y="1688.14" width="61.2725" height="8.88007" rx="1.77603" transform="rotate(-126.475 1088.8 1688.14)" fill="white"/>
<rect width="26.6388" height="8.87959" rx="1.77603" transform="matrix(-0.594476 -0.804113 0.804119 -0.594468 1099.51 1680.22)" fill="white"/>
<rect x="1078.92" y="1652.37" width="26.6388" height="8.87959" rx="1.77603" transform="rotate(-126.475 1078.92 1652.37)" fill="white"/>
<rect x="1110.22" y="1672.3" width="61.2725" height="8.88007" rx="1.77603" transform="rotate(-126.475 1110.22 1672.3)" fill="white"/>
<rect width="26.6388" height="8.87959" rx="1.77603" transform="matrix(-0.670428 -0.741975 0.741977 -0.670426 1121.11 1771.22)" fill="white"/>
<rect width="26.6388" height="8.87959" rx="1.77603" transform="matrix(-0.67043 -0.741973 0.741979 -0.670423 1111.23 1780.15)" fill="white"/>
<rect width="26.6388" height="8.87959" rx="1.77603" transform="matrix(-0.670422 -0.74198 0.741972 -0.670431 1088.01 1754.45)" fill="white"/>
<rect x="1097.9" y="1745.52" width="26.6388" height="8.87959" rx="1.77603" transform="rotate(-132.1 1097.9 1745.52)" fill="white"/>
<rect width="26.6388" height="8.87959" rx="1.77603" transform="matrix(-0.670429 -0.741974 0.741978 -0.670424 1131 1762.29)" fill="white"/>
<rect width="26.6388" height="8.87959" rx="1.77603" transform="matrix(-0.670422 -0.74198 0.741972 -0.670431 1107.78 1736.59)" fill="white"/>
<rect x="1144.17" y="1750.38" width="61.2725" height="8.88007" rx="1.77603" transform="rotate(-132.1 1144.17 1750.38)" fill="white"/>
<rect width="26.6388" height="8.87959" rx="1.77603" transform="matrix(-0.670422 -0.74198 0.741972 -0.670431 1154.06 1741.45)" fill="white"/>
<rect width="26.6388" height="8.87959" rx="1.77603" transform="matrix(-0.670429 -0.741974 0.741978 -0.670424 1130.84 1715.76)" fill="white"/>
<rect x="1163.94" y="1732.52" width="61.2725" height="8.88007" rx="1.77603" transform="rotate(-132.1 1163.94 1732.52)" fill="white"/>
<rect x="1176.4" y="1841.44" width="61.2725" height="8.88007" rx="1.77603" transform="rotate(-137.725 1176.4 1841.44)" fill="white"/>
<rect width="61.2725" height="8.88007" rx="1.77603" transform="matrix(-0.739926 -0.672689 0.672691 -0.739924 1185.36 1831.59)" fill="white"/>
<rect width="61.2725" height="8.88007" rx="1.77603" transform="matrix(-0.739928 -0.672687 0.672693 -0.739922 1194.32 1821.73)" fill="white"/>
<rect width="26.6388" height="8.87959" rx="1.77603" transform="matrix(-0.739922 -0.672693 0.672687 -0.739927 1206.27 1808.59)" fill="white"/>
<rect width="26.6388" height="8.87959" rx="1.77603" transform="matrix(-0.739929 -0.672685 0.672695 -0.73992 1180.65 1785.29)" fill="white"/>
<rect x="1215.23" y="1798.73" width="26.6388" height="8.87959" rx="1.77603" transform="rotate(-137.725 1215.23 1798.73)" fill="white"/>
<rect x="1189.6" y="1775.44" width="26.6388" height="8.87959" rx="1.77603" transform="rotate(-137.725 1189.6 1775.44)" fill="white"/>
<rect width="61.2725" height="8.88007" rx="1.77603" transform="matrix(-0.739927 -0.672687 0.672692 -0.739922 1224.19 1788.88)" fill="white"/>
<rect x="1246.67" y="1895.04" width="26.6388" height="8.87959" rx="1.77603" transform="rotate(-143.35 1246.67 1895.04)" fill="white"/>
<rect width="26.6388" height="8.87959" rx="1.77603" transform="matrix(-0.802297 -0.596926 0.596925 -0.802297 1218.89 1874.36)" fill="white"/>
<rect x="1254.62" y="1884.35" width="61.2725" height="8.88007" rx="1.77603" transform="rotate(-143.35 1254.62 1884.35)" fill="white"/>
<rect width="61.2725" height="8.88007" rx="1.77603" transform="matrix(-0.802299 -0.596923 0.596928 -0.802295 1262.57 1873.66)" fill="white"/>
<rect x="1245.39" y="1838.74" width="26.6388" height="8.87959" rx="1.77603" transform="rotate(-143.35 1245.39 1838.74)" fill="white"/>
<rect x="1273.18" y="1859.41" width="26.6388" height="8.87959" rx="1.77603" transform="rotate(-143.35 1273.18 1859.41)" fill="white"/>
<rect x="1281.12" y="1848.73" width="26.6388" height="8.87959" rx="1.77603" transform="rotate(-143.35 1281.12 1848.73)" fill="white"/>
<rect x="1253.34" y="1828.05" width="26.6388" height="8.87959" rx="1.77603" transform="rotate(-143.35 1253.34 1828.05)" fill="white"/>
<rect x="1289.08" y="1838.04" width="61.2725" height="8.88007" rx="1.77603" transform="rotate(-143.35 1289.08 1838.04)" fill="white"/>
<rect x="1328.5" y="1929.72" width="26.6388" height="8.87959" rx="1.77603" transform="rotate(-148.975 1328.5 1929.72)" fill="white"/>
<rect width="26.6388" height="8.87959" rx="1.77603" transform="matrix(-0.856944 -0.515409 0.515415 -0.856941 1298.83 1911.87)" fill="white"/>
<rect x="1321.64" y="1941.13" width="61.2725" height="8.88007" rx="1.77603" transform="rotate(-148.975 1321.64 1941.13)" fill="white"/>
<rect x="1335.37" y="1918.3" width="61.2725" height="8.88007" rx="1.77603" transform="rotate(-148.975 1335.37 1918.3)" fill="white"/>
<rect width="26.6388" height="8.87959" rx="1.77603" transform="matrix(-0.856938 -0.515419 0.515405 -0.856947 1344.52 1903.09)" fill="white"/>
<rect width="26.6388" height="8.87959" rx="1.77603" transform="matrix(-0.856938 -0.515419 0.515405 -0.856947 1314.84 1885.23)" fill="white"/>
<rect width="26.6388" height="8.87959" rx="1.77603" transform="matrix(-0.856942 -0.515413 0.515411 -0.856943 1351.39 1891.67)" fill="white"/>
<rect x="1321.71" y="1873.82" width="26.6388" height="8.87959" rx="1.77603" transform="rotate(-148.975 1321.71 1873.82)" fill="white"/>
<rect x="1358.25" y="1880.26" width="61.2725" height="8.88007" rx="1.77603" transform="rotate(-148.975 1358.25 1880.26)" fill="white"/>
<rect width="26.6388" height="8.87959" rx="1.77603" transform="matrix(-0.903337 -0.428932 0.428939 -0.903334 1406.49 1968.75)" fill="white"/>
<rect width="26.6388" height="8.87959" rx="1.77603" transform="matrix(-0.903336 -0.428934 0.428936 -0.903335 1375.21 1953.9)" fill="white"/>
<rect width="26.6388" height="8.87959" rx="1.77603" transform="matrix(-0.903336 -0.428934 0.428936 -0.903335 1400.78 1980.78)" fill="white"/>
<rect width="26.6388" height="8.87959" rx="1.77603" transform="matrix(-0.903336 -0.428934 0.428936 -0.903335 1369.49 1965.93)" fill="white"/>
<rect width="61.2725" height="8.88007" rx="1.77603" transform="matrix(-0.903333 -0.42894 0.428931 -0.903337 1412.2 1956.72)" fill="white"/>
<rect width="26.6388" height="8.87959" rx="1.77603" transform="matrix(-0.903336 -0.428934 0.428936 -0.903335 1419.82 1940.67)" fill="white"/>
<rect width="26.6388" height="8.87959" rx="1.77603" transform="matrix(-0.903336 -0.428934 0.428936 -0.903335 1388.54 1925.82)" fill="white"/>
<rect width="26.6388" height="8.87959" rx="1.77603" transform="matrix(-0.903336 -0.428934 0.428936 -0.903335 1425.53 1928.64)" fill="white"/>
<rect width="26.6388" height="8.87959" rx="1.77603" transform="matrix(-0.903336 -0.428934 0.428936 -0.903335 1394.25 1913.79)" fill="white"/>
<rect width="61.2725" height="8.88007" rx="1.77603" transform="matrix(-0.903335 -0.428936 0.428935 -0.903336 1431.25 1916.61)" fill="white"/>
<rect x="1487.32" y="1998.86" width="61.2725" height="8.88007" rx="1.77603" transform="rotate(-160.225 1487.32 1998.86)" fill="white"/>
<rect x="1482.81" y="2011.4" width="61.2725" height="8.88007" rx="1.77603" transform="rotate(-160.225 1482.81 2011.4)" fill="white"/>
<rect width="26.6388" height="8.87959" rx="1.77603" transform="matrix(-0.941029 -0.338325 0.338329 -0.941028 1491.83 1986.33)" fill="white"/>
<rect width="26.6388" height="8.87959" rx="1.77603" transform="matrix(-0.941028 -0.338329 0.338326 -0.941029 1459.23 1974.61)" fill="white"/>
<rect x="1497.83" y="1969.61" width="26.6388" height="8.87959" rx="1.77603" transform="rotate(-160.225 1497.83 1969.61)" fill="white"/>
<rect x="1465.25" y="1957.9" width="26.6388" height="8.87959" rx="1.77603" transform="rotate(-160.225 1465.25 1957.9)" fill="white"/>
<rect width="26.6388" height="8.87959" rx="1.77603" transform="matrix(-0.941026 -0.338334 0.338321 -0.941031 1469.75 1945.36)" fill="white"/>
<rect x="1502.34" y="1957.08" width="26.6388" height="8.87959" rx="1.77603" transform="rotate(-160.225 1502.34 1957.08)" fill="white"/>
<rect x="1506.85" y="1944.54" width="61.2725" height="8.88007" rx="1.77603" transform="rotate(-160.225 1506.85 1944.54)" fill="white"/>
<rect x="1572.07" y="2022" width="61.2725" height="8.88007" rx="1.77603" transform="rotate(-165.85 1572.07 2022)" fill="white"/>
<rect x="1568.81" y="2034.92" width="26.6388" height="8.87959" rx="1.77603" transform="rotate(-165.85 1568.81 2034.92)" fill="white"/>
<rect width="26.6388" height="8.87959" rx="1.77603" transform="matrix(-0.969659 -0.244461 0.244462 -0.969659 1535.23 2026.45)" fill="white"/>
<rect x="1575.33" y="2009.08" width="26.6388" height="8.87959" rx="1.77603" transform="rotate(-165.85 1575.33 2009.08)" fill="white"/>
<rect width="26.6388" height="8.87959" rx="1.77603" transform="matrix(-0.96966 -0.244459 0.244464 -0.969658 1541.75 2000.62)" fill="white"/>
<rect x="1579.67" y="1991.86" width="26.6388" height="8.87959" rx="1.77603" transform="rotate(-165.85 1579.67 1991.86)" fill="white"/>
<rect width="26.6388" height="8.87959" rx="1.77603" transform="matrix(-0.969659 -0.24446 0.244463 -0.969659 1546.09 1983.4)" fill="white"/>
<rect x="1582.92" y="1978.95" width="26.6388" height="8.87959" rx="1.77603" transform="rotate(-165.85 1582.92 1978.95)" fill="white"/>
<rect width="26.6388" height="8.87959" rx="1.77603" transform="matrix(-0.96966 -0.244459 0.244464 -0.969658 1549.34 1970.48)" fill="white"/>
<rect x="1586.18" y="1966.03" width="61.2725" height="8.88007" rx="1.77603" transform="rotate(-165.85 1586.18 1966.03)" fill="white"/>
<rect width="26.6388" height="8.87959" rx="1.77603" transform="matrix(-0.988951 -0.148243 0.148239 -0.988952 1657.54 2035.43)" fill="white"/>
<rect x="1655.56" y="2048.6" width="61.2725" height="8.88007" rx="1.77603" transform="rotate(-171.475 1655.56 2048.6)" fill="white"/>
<rect x="1623.29" y="2030.29" width="26.6388" height="8.87959" rx="1.77603" transform="rotate(-171.475 1623.29 2030.29)" fill="white"/>
<rect width="26.6388" height="8.87959" rx="1.77603" transform="matrix(-0.988951 -0.148243 0.148239 -0.988952 1659.51 2022.25)" fill="white"/>
<rect width="26.6388" height="8.87959" rx="1.77603" transform="matrix(-0.988951 -0.148242 0.14824 -0.988952 1625.26 2017.12)" fill="white"/>
<rect width="26.6388" height="8.87959" rx="1.77603" transform="matrix(-0.988951 -0.148242 0.14824 -0.988952 1662.14 2004.69)" fill="white"/>
<rect x="1627.89" y="1999.56" width="26.6388" height="8.87959" rx="1.77603" transform="rotate(-171.475 1627.89 1999.56)" fill="white"/>
<rect width="26.6388" height="8.87959" rx="1.77603" transform="matrix(-0.988951 -0.148242 0.14824 -0.988952 1664.12 1991.52)" fill="white"/>
<rect width="26.6388" height="8.87959" rx="1.77603" transform="matrix(-0.988951 -0.148242 0.14824 -0.988952 1629.87 1986.38)" fill="white"/>
<rect x="1666.09" y="1978.34" width="61.2725" height="8.88007" rx="1.77603" transform="rotate(-171.475 1666.09 1978.34)" fill="white"/>
<rect x="1745.02" y="2041.24" width="26.6388" height="8.87959" rx="1.77603" transform="rotate(-177.1 1745.02 2041.24)" fill="white"/>
<rect width="26.6388" height="8.87959" rx="1.77603" transform="matrix(-0.998719 -0.0505946 0.0505913 -0.99872 1744.35 2054.55)" fill="white"/>
<rect width="26.6388" height="8.87959" rx="1.77603" transform="matrix(-0.998719 -0.0505946 0.0505913 -0.99872 1709.76 2052.79)" fill="white"/>
<rect x="1710.44" y="2039.49" width="26.6388" height="8.87959" rx="1.77603" transform="rotate(-177.1 1710.44 2039.49)" fill="white"/>
<rect x="1745.7" y="2027.94" width="26.6388" height="8.87959" rx="1.77603" transform="rotate(-177.1 1745.7 2027.94)" fill="white"/>
<rect x="1711.11" y="2026.19" width="26.6388" height="8.87959" rx="1.77603" transform="rotate(-177.1 1711.11 2026.19)" fill="white"/>
<rect width="26.6388" height="8.87959" rx="1.77603" transform="matrix(-0.99872 -0.0505921 0.0505938 -0.998719 1746.6 2010.2)" fill="white"/>
<rect x="1712.01" y="2008.45" width="26.6388" height="8.87959" rx="1.77603" transform="rotate(-177.1 1712.01 2008.45)" fill="white"/>
<rect x="1747.27" y="1996.9" width="26.6388" height="8.87959" rx="1.77603" transform="rotate(-177.1 1747.27 1996.9)" fill="white"/>
<rect x="1712.68" y="1995.15" width="26.6388" height="8.87959" rx="1.77603" transform="rotate(-177.1 1712.68 1995.15)" fill="white"/>
<rect x="1747.94" y="1983.6" width="61.2725" height="8.88007" rx="1.77603" transform="rotate(-177.1 1747.94 1983.6)" fill="white"/>
<rect x="2385.31" y="1800.48" width="61.2725" height="8.88007" rx="1.77603" transform="rotate(137.9 2385.31 1800.48)" fill="white"/>
<rect x="2376.38" y="1790.6" width="61.2725" height="8.88007" rx="1.77603" transform="rotate(137.9 2376.38 1790.6)" fill="white"/>
<rect x="2367.45" y="1780.71" width="61.2725" height="8.88007" rx="1.77603" transform="rotate(137.9 2367.45 1780.71)" fill="white"/>
<rect width="26.6388" height="8.87959" rx="1.77603" transform="matrix(-0.741978 0.670425 -0.670429 -0.741974 2337.68 1747.77)" fill="white"/>
<rect width="26.6388" height="8.87959" rx="1.77603" transform="matrix(-0.741981 0.670421 -0.670432 -0.741971 2311.98 1770.99)" fill="white"/>
<rect width="26.6388" height="8.87959" rx="1.77603" transform="matrix(-0.741975 0.670428 -0.670426 -0.741977 2320.86 1780.75)" fill="white"/>
<rect width="26.6388" height="8.87959" rx="1.77603" transform="matrix(-0.741975 0.670428 -0.670426 -0.741977 2329.75 1790.52)" fill="white"/>
<rect width="26.6388" height="8.87959" rx="1.77603" transform="matrix(-0.741975 0.670428 -0.670426 -0.741977 2346.62 1757.67)" fill="white"/>
<rect width="26.6388" height="8.87959" rx="1.77603" transform="matrix(-0.741975 0.670428 -0.670426 -0.741977 2355.45 1767.73)" fill="white"/>
<rect x="2319.55" y="1859.33" width="26.6388" height="8.87959" rx="1.77603" transform="rotate(143.52 2319.55 1859.33)" fill="white"/>
<rect x="2291.7" y="1879.92" width="26.6388" height="8.87959" rx="1.77603" transform="rotate(143.52 2291.7 1879.92)" fill="white"/>
<rect x="2311.63" y="1848.62" width="61.2725" height="8.88007" rx="1.77603" transform="rotate(143.52 2311.63 1848.62)" fill="white"/>
<rect width="61.2725" height="8.88007" rx="1.77603" transform="matrix(-0.804065 0.594541 -0.594544 -0.804064 2303.71 1837.91)" fill="white"/>
<rect x="2249.46" y="1822.8" width="26.6388" height="8.87959" rx="1.77603" transform="rotate(143.52 2249.46 1822.8)" fill="white"/>
<rect x="2257.46" y="1833.45" width="26.6388" height="8.87959" rx="1.77603" transform="rotate(143.52 2257.46 1833.45)" fill="white"/>
<rect width="26.6388" height="8.87959" rx="1.77603" transform="matrix(-0.80407 0.594535 -0.594549 -0.804059 2265.45 1844.11)" fill="white"/>
<rect x="2277.31" y="1802.2" width="26.6388" height="8.87959" rx="1.77603" transform="rotate(143.52 2277.31 1802.2)" fill="white"/>
<rect x="2285.3" y="1812.86" width="26.6388" height="8.87959" rx="1.77603" transform="rotate(143.52 2285.3 1812.86)" fill="white"/>
<rect x="2293.3" y="1823.52" width="26.6388" height="8.87959" rx="1.77603" transform="rotate(143.52 2293.3 1823.52)" fill="white"/>
<rect width="26.6388" height="8.87959" rx="1.77603" transform="matrix(-0.868781 0.495197 -0.495208 -0.868774 2239.57 1900.13)" fill="white"/>
<rect width="26.6388" height="8.87959" rx="1.77603" transform="matrix(-0.868779 0.495201 -0.495204 -0.868777 2209.48 1917.28)" fill="white"/>
<rect width="61.2725" height="8.88007" rx="1.77603" transform="matrix(-0.868777 0.495204 -0.495201 -0.868778 2246.16 1911.71)" fill="white"/>
<rect width="61.2725" height="8.88007" rx="1.77603" transform="matrix(-0.868776 0.495205 -0.4952 -0.868779 2232.97 1888.56)" fill="white"/>
<rect width="26.6388" height="8.87959" rx="1.77603" transform="matrix(-0.868779 0.495201 -0.495204 -0.868777 2210.98 1849.99)" fill="white"/>
<rect width="26.6388" height="8.87959" rx="1.77603" transform="matrix(-0.868778 0.495202 -0.495203 -0.868777 2217.2 1861.53)" fill="white"/>
<rect width="26.6388" height="8.87959" rx="1.77603" transform="matrix(-0.868778 0.495202 -0.495203 -0.868777 2223.42 1873.07)" fill="white"/>
<rect width="26.6388" height="8.87959" rx="1.77603" transform="matrix(-0.868779 0.495201 -0.495204 -0.868777 2180.9 1867.14)" fill="white"/>
<rect width="26.6388" height="8.87959" rx="1.77603" transform="matrix(-0.868778 0.495202 -0.495203 -0.868777 2187.11 1878.68)" fill="white"/>
<rect width="26.6388" height="8.87959" rx="1.77603" transform="matrix(-0.868778 0.495202 -0.495203 -0.868777 2193.33 1890.22)" fill="white"/>
<rect x="2165.65" y="1943.41" width="26.6388" height="8.87959" rx="1.77603" transform="rotate(154.78 2165.65 1943.41)" fill="white"/>
<rect x="2134.32" y="1958.16" width="26.6388" height="8.87959" rx="1.77603" transform="rotate(154.78 2134.32 1958.16)" fill="white"/>
<rect x="2171.33" y="1955.46" width="26.6388" height="8.87959" rx="1.77603" transform="rotate(154.78 2171.33 1955.46)" fill="white"/>
<rect x="2140" y="1970.21" width="26.6388" height="8.87959" rx="1.77603" transform="rotate(154.78 2140 1970.21)" fill="white"/>
<rect x="2159.98" y="1931.36" width="61.2725" height="8.88007" rx="1.77603" transform="rotate(154.78 2159.98 1931.36)" fill="white"/>
<rect x="2141.06" y="1891.19" width="26.6388" height="8.87959" rx="1.77603" transform="rotate(154.78 2141.06 1891.19)" fill="white"/>
<rect x="2147.27" y="1903.62" width="26.6388" height="8.87959" rx="1.77603" transform="rotate(154.78 2147.27 1903.62)" fill="white"/>
<rect x="2152.61" y="1915.16" width="26.6388" height="8.87959" rx="1.77603" transform="rotate(154.78 2152.61 1915.16)" fill="white"/>
<rect x="2109.73" y="1905.95" width="26.6388" height="8.87959" rx="1.77603" transform="rotate(154.78 2109.73 1905.95)" fill="white"/>
<rect x="2115.95" y="1918.38" width="26.6388" height="8.87959" rx="1.77603" transform="rotate(154.78 2115.95 1918.38)" fill="white"/>
<rect x="2121.27" y="1929.92" width="26.6388" height="8.87959" rx="1.77603" transform="rotate(154.78 2121.27 1929.92)" fill="white"/>
<rect width="61.2725" height="8.88007" rx="1.77603" transform="matrix(-0.942057 0.335453 -0.33545 -0.942058 2085.3 1979.39)" fill="white"/>
<rect width="61.2725" height="8.88007" rx="1.77603" transform="matrix(-0.942057 0.335453 -0.33545 -0.942058 2089.77 1991.94)" fill="white"/>
<rect width="26.6388" height="8.87959" rx="1.77603" transform="matrix(-0.942057 0.335455 -0.335449 -0.942059 2080.84 1966.84)" fill="white"/>
<rect width="26.6388" height="8.87959" rx="1.77603" transform="matrix(-0.942059 0.335448 -0.335455 -0.942056 2048.21 1978.46)" fill="white"/>
<rect x="2065.94" y="1925.01" width="26.6388" height="8.87959" rx="1.77603" transform="rotate(160.4 2065.94 1925.01)" fill="white"/>
<rect width="26.6388" height="8.87959" rx="1.77603" transform="matrix(-0.942059 0.335447 -0.335456 -0.942056 2070.38 1937.44)" fill="white"/>
<rect width="26.6388" height="8.87959" rx="1.77603" transform="matrix(-0.942059 0.335447 -0.335456 -0.942056 2074.82 1949.88)" fill="white"/>
<rect width="26.6388" height="8.87959" rx="1.77603" transform="matrix(-0.942059 0.335448 -0.335455 -0.942056 2033.31 1936.63)" fill="white"/>
<rect width="26.6388" height="8.87959" rx="1.77603" transform="matrix(-0.942059 0.335447 -0.335456 -0.942056 2037.75 1949.06)" fill="white"/>
<rect width="26.6388" height="8.87959" rx="1.77603" transform="matrix(-0.942059 0.335447 -0.335456 -0.942056 2042.19 1961.49)" fill="white"/>
<rect x="2003.91" y="2007.52" width="61.2725" height="8.88007" rx="1.77603" transform="rotate(165.989 2003.91 2007.52)" fill="white"/>
<rect width="26.6388" height="8.87959" rx="1.77603" transform="matrix(-0.97025 0.242106 -0.242094 -0.970253 2007.14 2020.44)" fill="white"/>
<rect width="26.6388" height="8.87959" rx="1.77603" transform="matrix(-0.97025 0.242106 -0.242094 -0.970253 1973.53 2028.83)" fill="white"/>
<rect width="26.6388" height="8.87959" rx="1.77603" transform="matrix(-0.970253 0.242096 -0.242105 -0.97025 2000.69 1994.59)" fill="white"/>
<rect width="26.6388" height="8.87959" rx="1.77603" transform="matrix(-0.970251 0.242102 -0.242098 -0.970252 1967.09 2002.98)" fill="white"/>
<rect width="26.6388" height="8.87959" rx="1.77603" transform="matrix(-0.970253 0.242096 -0.242105 -0.97025 1989.94 1951.51)" fill="white"/>
<rect width="26.6388" height="8.87959" rx="1.77603" transform="matrix(-0.970253 0.242096 -0.242105 -0.97025 1993.49 1964.83)" fill="white"/>
<rect width="26.6388" height="8.87959" rx="1.77603" transform="matrix(-0.970253 0.242096 -0.242105 -0.97025 1996.16 1977.27)" fill="white"/>
<rect width="26.6388" height="8.87959" rx="1.77603" transform="matrix(-0.970252 0.242097 -0.242103 -0.970251 1956.34 1959.9)" fill="white"/>
<rect width="26.6388" height="8.87959" rx="1.77603" transform="matrix(-0.970252 0.242099 -0.242101 -0.970251 1959.89 1973.22)" fill="white"/>
<rect width="26.6388" height="8.87959" rx="1.77603" transform="matrix(-0.970252 0.242099 -0.242101 -0.970251 1963.44 1985.65)" fill="white"/>
<rect width="26.6388" height="8.87959" rx="1.77603" transform="matrix(-0.989399 0.145223 -0.145216 -0.9894 1921.44 2027.45)" fill="white"/>
<rect x="1923.38" y="2040.63" width="61.2725" height="8.88007" rx="1.77603" transform="rotate(171.65 1923.38 2040.63)" fill="white"/>
<rect width="26.6388" height="8.87959" rx="1.77603" transform="matrix(-0.989399 0.145224 -0.145216 -0.9894 1887.18 2032.48)" fill="white"/>
<rect x="1919.51" y="2014.28" width="26.6388" height="8.87959" rx="1.77603" transform="rotate(171.65 1919.51 2014.28)" fill="white"/>
<rect x="1885.25" y="2019.3" width="26.6388" height="8.87959" rx="1.77603" transform="rotate(171.65 1885.25 2019.3)" fill="white"/>
<rect width="26.6388" height="8.87959" rx="1.77603" transform="matrix(-0.9894 0.145216 -0.145224 -0.989399 1913.06 1970.35)" fill="white"/>
<rect width="26.6388" height="8.87959" rx="1.77603" transform="matrix(-0.9894 0.145216 -0.145224 -0.989399 1914.84 1983.67)" fill="white"/>
<rect width="26.6388" height="8.87959" rx="1.77603" transform="matrix(-0.9894 0.145216 -0.145224 -0.989399 1916.61 1996.99)" fill="white"/>
<rect width="26.6388" height="8.87959" rx="1.77603" transform="matrix(-0.9894 0.145218 -0.145221 -0.989399 1878.8 1975.37)" fill="white"/>
<rect width="26.6388" height="8.87959" rx="1.77603" transform="matrix(-0.9894 0.145218 -0.145221 -0.989399 1880.84 1988.91)" fill="white"/>
<rect width="26.6388" height="8.87959" rx="1.77603" transform="matrix(-0.9894 0.145218 -0.145221 -0.989399 1882.89 2001.57)" fill="white"/>
<rect x="1835.24" y="2038.2" width="26.6388" height="8.87959" rx="1.77603" transform="rotate(177.27 1835.24 2038.2)" fill="white"/>
<rect x="1835.88" y="2051.51" width="26.6388" height="8.87959" rx="1.77603" transform="rotate(177.27 1835.88 2051.51)" fill="white"/>
<rect x="1801.28" y="2053.16" width="26.6388" height="8.87959" rx="1.77603" transform="rotate(177.27 1801.28 2053.16)" fill="white"/>
<rect width="26.6388" height="8.87959" rx="1.77603" transform="matrix(-0.998865 0.0476314 -0.0476276 -0.998865 1800.65 2039.85)" fill="white"/>
<rect x="1834.61" y="2024.9" width="26.6388" height="8.87959" rx="1.77603" transform="rotate(177.27 1834.61 2024.9)" fill="white"/>
<rect x="1800.01" y="2026.55" width="26.6388" height="8.87959" rx="1.77603" transform="rotate(177.27 1800.01 2026.55)" fill="white"/>
<rect x="1832.49" y="1980.55" width="26.6388" height="8.87959" rx="1.77603" transform="rotate(177.27 1832.49 1980.55)" fill="white"/>
<rect width="26.6388" height="8.87959" rx="1.77603" transform="matrix(-0.998865 0.047631 -0.0476279 -0.998865 1833.38 1993.87)" fill="white"/>
<rect width="26.6388" height="8.87959" rx="1.77603" transform="matrix(-0.998865 0.047631 -0.0476279 -0.998865 1834.27 2007.19)" fill="white"/>
<rect width="26.6388" height="8.87959" rx="1.77603" transform="matrix(-0.998865 0.0476313 -0.0476276 -0.998865 1797.9 1982.2)" fill="white"/>
<rect width="26.6388" height="8.87959" rx="1.77603" transform="matrix(-0.998865 0.047632 -0.047627 -0.998865 1798.78 1995.52)" fill="white"/>
<rect width="26.6388" height="8.87959" rx="1.77603" transform="matrix(-0.998865 0.047632 -0.047627 -0.998865 1799.67 2008.84)" fill="white"/>
<rect width="61.2725" height="8.88007" rx="1.77603" transform="matrix(-0.0505944 0.998719 -0.99872 -0.0505915 2660.08 1168.17)" fill="white"/>
<rect x="2646.78" y="1167.5" width="61.2725" height="8.88007" rx="1.77603" transform="rotate(92.9 2646.78 1167.5)" fill="white"/>
<rect x="2633.47" y="1166.82" width="61.2725" height="8.88007" rx="1.77603" transform="rotate(92.9 2633.47 1166.82)" fill="white"/>
<rect x="2615.71" y="1165.94" width="61.2725" height="8.88007" rx="1.77603" transform="rotate(92.9 2615.71 1165.94)" fill="white"/>
<rect width="26.6388" height="8.87959" rx="1.77603" transform="matrix(-0.0505917 0.99872 -0.998719 -0.0505942 2602.41 1165.04)" fill="white"/>
<rect x="2600.66" y="1199.63" width="26.6388" height="8.87959" rx="1.77603" transform="rotate(92.9 2600.66 1199.63)" fill="white"/>
<rect width="26.6388" height="8.87959" rx="1.77603" transform="matrix(-0.0505917 0.99872 -0.998719 -0.0505942 2589.13 1164.58)" fill="white"/>
<rect width="26.6388" height="8.87959" rx="1.77603" transform="matrix(-0.0505917 0.99872 -0.998719 -0.0505942 2587.38 1199.17)" fill="white"/>
<rect width="26.6388" height="8.87959" rx="1.77603" transform="matrix(-0.148324 0.988939 -0.988938 -0.14833 2654.1 1256.4)" fill="white"/>
<rect width="26.6388" height="8.87959" rx="1.77603" transform="matrix(-0.148323 0.988939 -0.988938 -0.148332 2648.96 1290.64)" fill="white"/>
<rect x="2640.93" y="1254.42" width="61.2725" height="8.88007" rx="1.77603" transform="rotate(98.53 2640.93 1254.42)" fill="white"/>
<rect width="61.2725" height="8.88007" rx="1.77603" transform="matrix(-0.148328 0.988938 -0.988939 -0.148326 2627.75 1252.44)" fill="white"/>
<rect x="2610" y="1249.78" width="61.2725" height="8.88007" rx="1.77603" transform="rotate(98.53 2610 1249.78)" fill="white"/>
<rect width="26.6388" height="8.87959" rx="1.77603" transform="matrix(-0.148329 0.988938 -0.988939 -0.148325 2583.84 1245.86)" fill="white"/>
<rect width="26.6388" height="8.87959" rx="1.77603" transform="matrix(-0.148329 0.988938 -0.988939 -0.148325 2578.71 1280.11)" fill="white"/>
<rect width="26.6388" height="8.87959" rx="1.77603" transform="matrix(-0.148329 0.988938 -0.988939 -0.148325 2596.87 1248.03)" fill="white"/>
<rect width="26.6388" height="8.87959" rx="1.77603" transform="matrix(-0.148329 0.988938 -0.988939 -0.148325 2591.74 1282.28)" fill="white"/>
<rect width="26.6388" height="8.87959" rx="1.77603" transform="matrix(-0.244466 0.969658 -0.96966 -0.244456 2626.25 1340.46)" fill="white"/>
<rect width="26.6388" height="8.87959" rx="1.77603" transform="matrix(-0.244459 0.96966 -0.969658 -0.244464 2617.78 1374.04)" fill="white"/>
<rect width="61.2725" height="8.88007" rx="1.77603" transform="matrix(-0.244461 0.969659 -0.969659 -0.244462 2639.16 1343.72)" fill="white"/>
<rect width="61.2725" height="8.88007" rx="1.77603" transform="matrix(-0.244459 0.96966 -0.969659 -0.244463 2613.33 1337.2)" fill="white"/>
<rect width="61.6314" height="8.88007" rx="1.77603" transform="matrix(-0.244461 0.969659 -0.969659 -0.244462 2596.46 1332.76)" fill="white"/>
<rect width="26.6388" height="8.87959" rx="1.77603" transform="matrix(-0.24446 0.969659 -0.969659 -0.244462 2570.28 1326.35)" fill="white"/>
<rect width="26.6388" height="8.87959" rx="1.77603" transform="matrix(-0.244459 0.96966 -0.969658 -0.244464 2561.81 1359.93)" fill="white"/>
<rect width="26.6388" height="8.87959" rx="1.77603" transform="matrix(-0.244461 0.969659 -0.969659 -0.244462 2583.68 1329.31)" fill="white"/>
<rect width="26.6388" height="8.87959" rx="1.77603" transform="matrix(-0.244465 0.969658 -0.96966 -0.244457 2575.21 1363.78)" fill="white"/>
<rect width="26.6388" height="8.87959" rx="1.77603" transform="matrix(-0.338253 0.941055 -0.941061 -0.338237 2604.06 1424.34)" fill="white"/>
<rect x="2592.35" y="1456.93" width="26.6388" height="8.87959" rx="1.77603" transform="rotate(109.77 2592.35 1456.93)" fill="white"/>
<rect width="26.6388" height="8.87959" rx="1.77603" transform="matrix(-0.338253 0.941055 -0.941061 -0.338237 2616.6 1428.85)" fill="white"/>
<rect width="26.6388" height="8.87959" rx="1.77603" transform="matrix(-0.338252 0.941055 -0.941061 -0.338238 2604.88 1461.44)" fill="white"/>
<rect x="2591.53" y="1419.84" width="61.2725" height="8.88007" rx="1.77603" transform="rotate(109.77 2591.53 1419.84)" fill="white"/>
<rect x="2574.66" y="1413.62" width="61.2725" height="8.88007" rx="1.77603" transform="rotate(109.77 2574.66 1413.62)" fill="white"/>
<rect width="26.6388" height="8.87959" rx="1.77603" transform="matrix(-0.338253 0.941055 -0.941061 -0.338237 2538.03 1437.41)" fill="white"/>
<rect width="26.6388" height="8.87959" rx="1.77603" transform="matrix(-0.338247 0.941057 -0.941059 -0.338243 2549.74 1404.82)" fill="white"/>
<rect width="26.6388" height="8.87959" rx="1.77603" transform="matrix(-0.338247 0.941057 -0.941059 -0.338243 2562.38 1409.39)" fill="white"/>
<rect width="26.6388" height="8.87959" rx="1.77603" transform="matrix(-0.33824 0.94106 -0.941056 -0.338251 2550.67 1441.98)" fill="white"/>
<rect width="61.2725" height="8.88007" rx="1.77603" transform="matrix(-0.428935 0.903336 -0.903335 -0.428936 2573.26 1506.23)" fill="white"/>
<rect width="61.2725" height="8.88007" rx="1.77603" transform="matrix(-0.428937 0.903334 -0.903336 -0.428933 2544.84 1492.91)" fill="white"/>
<rect width="61.2725" height="8.88007" rx="1.77603" transform="matrix(-0.428934 0.903336 -0.903335 -0.428936 2585.29 1511.94)" fill="white"/>
<rect width="26.6388" height="8.87959" rx="1.77603" transform="matrix(-0.428937 0.903334 -0.903336 -0.428933 2561.23 1500.51)" fill="white"/>
<rect x="2546.37" y="1531.8" width="26.6388" height="8.87959" rx="1.77603" transform="rotate(115.4 2546.37 1531.8)" fill="white"/>
<rect width="26.6388" height="8.87959" rx="1.77603" transform="matrix(-0.428937 0.903334 -0.903336 -0.428933 2521.12 1481.47)" fill="white"/>
<rect width="26.6388" height="8.87959" rx="1.77603" transform="matrix(-0.428942 0.903332 -0.903339 -0.428928 2506.26 1512.75)" fill="white"/>
<rect width="26.6388" height="8.87959" rx="1.77603" transform="matrix(-0.428937 0.903334 -0.903336 -0.428933 2532.75 1486.68)" fill="white"/>
<rect width="26.6388" height="8.87959" rx="1.77603" transform="matrix(-0.428942 0.903332 -0.903339 -0.428928 2517.9 1518.85)" fill="white"/>
<rect width="61.2725" height="8.88007" rx="1.77603" transform="matrix(-0.515339 0.856987 -0.856988 -0.515336 2535.45 1584.64)" fill="white"/>
<rect width="61.2725" height="8.88007" rx="1.77603" transform="matrix(-0.515339 0.856987 -0.856988 -0.515336 2508.81 1568.66)" fill="white"/>
<rect width="26.6388" height="8.87959" rx="1.77603" transform="matrix(-0.515334 0.856989 -0.856986 -0.51534 2546.87 1591.5)" fill="white"/>
<rect width="26.6388" height="8.87959" rx="1.77603" transform="matrix(-0.51533 0.856992 -0.856983 -0.515344 2529.02 1621.18)" fill="white"/>
<rect x="2524.04" y="1577.78" width="26.6388" height="8.87959" rx="1.77603" transform="rotate(121.02 2524.04 1577.78)" fill="white"/>
<rect x="2506.19" y="1607.46" width="26.6388" height="8.87959" rx="1.77603" transform="rotate(121.02 2506.19 1607.46)" fill="white"/>
<rect width="26.6388" height="8.87959" rx="1.77603" transform="matrix(-0.51533 0.856992 -0.856983 -0.515344 2485.99 1554.89)" fill="white"/>
<rect width="26.6388" height="8.87959" rx="1.77603" transform="matrix(-0.51533 0.856992 -0.856983 -0.515344 2468.14 1584.57)" fill="white"/>
<rect width="26.6388" height="8.87959" rx="1.77603" transform="matrix(-0.515344 0.856983 -0.856992 -0.51533 2497.27 1561.52)" fill="white"/>
<rect width="26.6388" height="8.87959" rx="1.77603" transform="matrix(-0.515341 0.856985 -0.85699 -0.515333 2479.42 1591.2)" fill="white"/>
<rect x="2488.83" y="1658.35" width="26.6388" height="8.87959" rx="1.77603" transform="rotate(126.65 2488.83 1658.35)" fill="white"/>
<rect width="61.2725" height="8.88007" rx="1.77603" transform="matrix(-0.596922 0.8023 -0.802294 -0.596929 2499.51 1666.3)" fill="white"/>
<rect width="61.2725" height="8.88007" rx="1.77603" transform="matrix(-0.596922 0.8023 -0.802294 -0.596929 2464 1639.66)" fill="white"/>
<rect x="2468.16" y="1686.13" width="26.6388" height="8.87959" rx="1.77603" transform="rotate(126.65 2468.16 1686.13)" fill="white"/>
<rect x="2478.14" y="1650.39" width="26.6388" height="8.87959" rx="1.77603" transform="rotate(126.65 2478.14 1650.39)" fill="white"/>
<rect width="26.6388" height="8.87959" rx="1.77603" transform="matrix(-0.596922 0.802299 -0.802295 -0.596928 2457.47 1678.18)" fill="white"/>
<rect x="2442.52" y="1623.89" width="26.6388" height="8.87959" rx="1.77603" transform="rotate(126.65 2442.52 1623.89)" fill="white"/>
<rect width="26.6388" height="8.87959" rx="1.77603" transform="matrix(-0.596933 0.802292 -0.802302 -0.596918 2421.85 1651.68)" fill="white"/>
<rect x="2453.1" y="1632.35" width="26.6388" height="8.87959" rx="1.77603" transform="rotate(126.65 2453.1 1632.35)" fill="white"/>
<rect x="2432.68" y="1659.88" width="26.6388" height="8.87959" rx="1.77603" transform="rotate(126.65 2432.68 1659.88)" fill="white"/>
<rect x="2435.8" y="1727.39" width="26.6388" height="8.87959" rx="1.77603" transform="rotate(132.28 2435.8 1727.39)" fill="white"/>
<rect width="26.6388" height="8.87959" rx="1.77603" transform="matrix(-0.672751 0.739869 -0.739863 -0.672758 2445.66 1736.35)" fill="white"/>
<rect width="26.6388" height="8.87959" rx="1.77603" transform="matrix(-0.672747 0.739872 -0.73986 -0.672761 2422.36 1761.97)" fill="white"/>
<rect width="26.6388" height="8.87959" rx="1.77603" transform="matrix(-0.672757 0.739864 -0.739868 -0.672752 2412.5 1753.01)" fill="white"/>
<rect width="26.6388" height="8.87959" rx="1.77603" transform="matrix(-0.672747 0.739872 -0.73986 -0.672761 2425.95 1718.43)" fill="white"/>
<rect x="2402.65" y="1744.05" width="26.6388" height="8.87959" rx="1.77603" transform="rotate(132.28 2402.65 1744.05)" fill="white"/>
<rect x="2393.09" y="1688.56" width="26.6388" height="8.87959" rx="1.77603" transform="rotate(132.28 2393.09 1688.56)" fill="white"/>
<rect width="26.6388" height="8.87959" rx="1.77603" transform="matrix(-0.672757 0.739864 -0.739868 -0.672752 2369.8 1714.18)" fill="white"/>
<rect width="61.2725" height="8.88007" rx="1.77603" transform="matrix(-0.672755 0.739865 -0.739867 -0.672754 2412.69 1706.43)" fill="white"/>
<rect width="26.6388" height="8.87959" rx="1.77603" transform="matrix(-0.672751 0.739869 -0.739863 -0.672758 2379.09 1723.6)" fill="white"/>
<rect width="26.6388" height="8.87959" rx="1.77603" transform="matrix(-0.672747 0.739872 -0.73986 -0.672761 2403.07 1696.96)" fill="white"/>
<rect x="2405.5" y="526.668" width="61.2725" height="8.88007" rx="1.77603" transform="rotate(47.9 2405.5 526.668)" fill="white"/>
<rect x="2395.62" y="535.598" width="61.2725" height="8.88007" rx="1.77603" transform="rotate(47.9 2395.62 535.598)" fill="white"/>
<rect x="2385.73" y="544.529" width="61.2725" height="8.88007" rx="1.77603" transform="rotate(47.9 2385.73 544.529)" fill="white"/>
<rect width="26.6388" height="8.87959" rx="1.77603" transform="matrix(0.670428 0.741975 -0.741977 0.670426 2372.55 556.436)" fill="white"/>
<rect width="26.6388" height="8.87959" rx="1.77603" transform="matrix(0.670428 0.741975 -0.741977 0.670426 2395.64 582.188)" fill="white"/>
<rect width="61.2725" height="8.88007" rx="1.77603" transform="matrix(0.670431 0.741972 -0.74198 0.670422 2362.67 565.366)" fill="white"/>
<rect width="26.6388" height="8.87959" rx="1.77603" transform="matrix(0.670424 0.741978 -0.741974 0.670429 2352.79 574.296)" fill="white"/>
<rect x="2376.01" y="599.993" width="26.6388" height="8.87959" rx="1.77603" transform="rotate(47.9 2376.01 599.993)" fill="white"/>
<rect x="2464.3" y="593.322" width="26.6388" height="8.87959" rx="1.77603" transform="rotate(53.52 2464.3 593.322)" fill="white"/>
<rect x="2484.89" y="621.169" width="26.6388" height="8.87959" rx="1.77603" transform="rotate(53.52 2484.89 621.169)" fill="white"/>
<rect width="61.2725" height="8.88007" rx="1.77603" transform="matrix(0.594541 0.804066 -0.804063 0.594544 2453.59 601.241)" fill="white"/>
<rect width="61.2725" height="8.88007" rx="1.77603" transform="matrix(0.594541 0.804066 -0.804063 0.594544 2442.88 609.161)" fill="white"/>
<rect x="2428.6" y="619.72" width="26.6388" height="8.87959" rx="1.77603" transform="rotate(53.52 2428.6 619.72)" fill="white"/>
<rect x="2449.02" y="647.248" width="26.6388" height="8.87959" rx="1.77603" transform="rotate(53.52 2449.02 647.248)" fill="white"/>
<rect x="2417.89" y="627.639" width="61.2725" height="8.88007" rx="1.77603" transform="rotate(53.52 2417.89 627.639)" fill="white"/>
<rect x="2427.77" y="663.405" width="26.6388" height="8.87959" rx="1.77603" transform="rotate(53.52 2427.77 663.405)" fill="white"/>
<rect x="2407.17" y="635.558" width="26.6388" height="8.87959" rx="1.77603" transform="rotate(53.52 2407.17 635.558)" fill="white"/>
<rect width="26.6388" height="8.87959" rx="1.77603" transform="matrix(0.51279 0.858514 -0.858512 0.512794 2504.44 672.074)" fill="white"/>
<rect width="26.6388" height="8.87959" rx="1.77603" transform="matrix(0.512798 0.85851 -0.858516 0.512787 2522.2 701.806)" fill="white"/>
<rect width="61.2725" height="8.88007" rx="1.77603" transform="matrix(0.512794 0.858512 -0.858514 0.512791 2515.88 665.243)" fill="white"/>
<rect x="2493.01" y="678.904" width="61.2725" height="8.88007" rx="1.77603" transform="rotate(59.15 2493.01 678.904)" fill="white"/>
<rect x="2477.76" y="688.011" width="26.6388" height="8.87959" rx="1.77603" transform="rotate(59.15 2477.76 688.011)" fill="white"/>
<rect width="61.2725" height="8.88007" rx="1.77603" transform="matrix(0.51279 0.858514 -0.858512 0.512794 2466.33 694.842)" fill="white"/>
<rect width="26.6388" height="8.87959" rx="1.77603" transform="matrix(0.51279 0.858514 -0.858512 0.512794 2494.74 718.358)" fill="white"/>
<rect width="26.6388" height="8.87959" rx="1.77603" transform="matrix(0.512798 0.85851 -0.858516 0.512787 2454.89 701.673)" fill="white"/>
<rect width="26.6388" height="8.87959" rx="1.77603" transform="matrix(0.51279 0.858514 -0.858512 0.512794 2472.65 731.405)" fill="white"/>
<rect width="26.6388" height="8.87959" rx="1.77603" transform="matrix(0.426101 0.904675 -0.904681 0.426089 2548.25 747.726)" fill="white"/>
<rect width="26.6388" height="8.87959" rx="1.77603" transform="matrix(0.426103 0.904675 -0.904682 0.426087 2563.01 779.057)" fill="white"/>
<rect x="2560.3" y="742.05" width="26.6388" height="8.87959" rx="1.77603" transform="rotate(64.78 2560.3 742.05)" fill="white"/>
<rect x="2575.06" y="773.382" width="26.6388" height="8.87959" rx="1.77603" transform="rotate(64.78 2575.06 773.382)" fill="white"/>
<rect x="2536.2" y="753.402" width="61.2725" height="8.88007" rx="1.77603" transform="rotate(64.78 2536.2 753.402)" fill="white"/>
<rect x="2520.13" y="760.969" width="26.6388" height="8.87959" rx="1.77603" transform="rotate(64.78 2520.13 760.969)" fill="white"/>
<rect x="2508.08" y="766.645" width="61.2725" height="8.88007" rx="1.77603" transform="rotate(64.78 2508.08 766.645)" fill="white"/>
<rect width="26.6388" height="8.87959" rx="1.77603" transform="matrix(0.426101 0.904675 -0.904681 0.426089 2534.9 792.317)" fill="white"/>
<rect x="2496.03" y="772.32" width="26.6388" height="8.87959" rx="1.77603" transform="rotate(64.78 2496.03 772.32)" fill="white"/>
<rect x="2510.79" y="803.651" width="26.6388" height="8.87959" rx="1.77603" transform="rotate(64.78 2510.79 803.651)" fill="white"/>
<rect width="61.2725" height="8.88007" rx="1.77603" transform="matrix(0.335453 0.942057 -0.942058 0.33545 2584.41 826.677)" fill="white"/>
<rect width="61.2725" height="8.88007" rx="1.77603" transform="matrix(0.335454 0.942057 -0.942058 0.335449 2596.95 822.209)" fill="white"/>
<rect width="26.6388" height="8.87959" rx="1.77603" transform="matrix(0.335453 0.942057 -0.942058 0.335451 2571.85 831.146)" fill="white"/>
<rect width="26.6388" height="8.87959" rx="1.77603" transform="matrix(0.335457 0.942056 -0.942059 0.335447 2583.47 863.771)" fill="white"/>
<rect width="26.6388" height="8.87959" rx="1.77603" transform="matrix(0.335454 0.942057 -0.942058 0.335449 2555.12 837.103)" fill="white"/>
<rect width="61.2725" height="8.88007" rx="1.77603" transform="matrix(0.335456 0.942056 -0.942059 0.335447 2542.57 841.571)" fill="white"/>
<rect width="26.6388" height="8.87959" rx="1.77603" transform="matrix(0.335453 0.942057 -0.942058 0.335451 2566.31 869.574)" fill="white"/>
<rect width="26.6388" height="8.87959" rx="1.77603" transform="matrix(0.335457 0.942056 -0.942059 0.335447 2530.03 846.04)" fill="white"/>
<rect width="26.6388" height="8.87959" rx="1.77603" transform="matrix(0.335457 0.942056 -0.942059 0.335447 2541.64 878.666)" fill="white"/>
<rect width="61.2725" height="8.88007" rx="1.77603" transform="matrix(0.241415 0.970422 -0.970423 0.241413 2612.66 909.559)" fill="white"/>
<rect width="26.6388" height="8.87959" rx="1.77603" transform="matrix(0.241411 0.970423 -0.970422 0.241416 2625.59 906.344)" fill="white"/>
<rect width="26.6388" height="8.87959" rx="1.77603" transform="matrix(0.241416 0.970422 -0.970423 0.241412 2633.95 939.952)" fill="white"/>
<rect width="26.6388" height="8.87959" rx="1.77603" transform="matrix(0.241411 0.970423 -0.970422 0.241416 2599.74 912.775)" fill="white"/>
<rect width="26.6388" height="8.87959" rx="1.77603" transform="matrix(0.241418 0.970421 -0.970423 0.24141 2608.1 946.383)" fill="white"/>
<rect width="26.6388" height="8.87959" rx="1.77603" transform="matrix(0.241412 0.970423 -0.970422 0.241415 2582.5 917.062)" fill="white"/>
<rect width="61.2725" height="8.88007" rx="1.77603" transform="matrix(0.241418 0.970421 -0.970424 0.241409 2569.57 920.278)" fill="white"/>
<rect width="26.6388" height="8.87959" rx="1.77603" transform="matrix(0.241412 0.970423 -0.970422 0.241415 2591.43 950.384)" fill="white"/>
<rect width="26.6388" height="8.87959" rx="1.77603" transform="matrix(0.241416 0.970422 -0.970423 0.241411 2556.65 923.494)" fill="white"/>
<rect width="26.6388" height="8.87959" rx="1.77603" transform="matrix(0.241416 0.970422 -0.970423 0.241412 2565.01 957.102)" fill="white"/>
<rect width="26.6388" height="8.87959" rx="1.77603" transform="matrix(0.145221 0.989399 -0.9894 0.145219 2632.43 994.089)" fill="white"/>
<rect x="2645.61" y="992.155" width="61.2725" height="8.88007" rx="1.77603" transform="rotate(81.65 2645.61 992.155)" fill="white"/>
<rect width="26.6388" height="8.87959" rx="1.77603" transform="matrix(0.145221 0.989399 -0.9894 0.145219 2637.46 1028.36)" fill="white"/>
<rect width="26.6388" height="8.87959" rx="1.77603" transform="matrix(0.145221 0.989399 -0.9894 0.145219 2619.25 996.024)" fill="white"/>
<rect x="2624.28" y="1030.29" width="26.6388" height="8.87959" rx="1.77603" transform="rotate(81.65 2624.28 1030.29)" fill="white"/>
<rect width="26.6388" height="8.87959" rx="1.77603" transform="matrix(0.145223 0.989399 -0.9894 0.145217 2601.68 998.603)" fill="white"/>
<rect x="2588.5" y="1000.54" width="61.2725" height="8.88007" rx="1.77603" transform="rotate(81.65 2588.5 1000.54)" fill="white"/>
<rect x="2606.7" y="1032.97" width="26.6388" height="8.87959" rx="1.77603" transform="rotate(81.65 2606.7 1032.97)" fill="white"/>
<rect x="2575.32" y="1002.47" width="26.6388" height="8.87959" rx="1.77603" transform="rotate(81.65 2575.32 1002.47)" fill="white"/>
<rect x="2580.35" y="1036.74" width="26.6388" height="8.87959" rx="1.77603" transform="rotate(81.65 2580.35 1036.74)" fill="white"/>
<rect x="2643.22" y="1080.29" width="26.6388" height="8.87959" rx="1.77603" transform="rotate(87.27 2643.22 1080.29)" fill="white"/>
<rect width="26.6388" height="8.87959" rx="1.77603" transform="matrix(0.0476307 0.998865 -0.998865 0.0476282 2656.53 1079.66)" fill="white"/>
<rect x="2658.18" y="1114.25" width="26.6388" height="8.87959" rx="1.77603" transform="rotate(87.27 2658.18 1114.25)" fill="white"/>
<rect x="2644.87" y="1114.89" width="26.6388" height="8.87959" rx="1.77603" transform="rotate(87.27 2644.87 1114.89)" fill="white"/>
<rect x="2629.92" y="1080.93" width="26.6388" height="8.87959" rx="1.77603" transform="rotate(87.27 2629.92 1080.93)" fill="white"/>
<rect x="2631.57" y="1115.52" width="26.6388" height="8.87959" rx="1.77603" transform="rotate(87.27 2631.57 1115.52)" fill="white"/>
<rect width="26.6388" height="8.87959" rx="1.77603" transform="matrix(0.0476288 0.998865 -0.998865 0.0476301 2612.18 1081.77)" fill="white"/>
<rect x="2598.87" y="1082.41" width="61.2725" height="8.88007" rx="1.77603" transform="rotate(87.27 2598.87 1082.41)" fill="white"/>
<rect x="2613.84" y="1116.11" width="26.6388" height="8.87959" rx="1.77603" transform="rotate(87.27 2613.84 1116.11)" fill="white"/>
<rect x="2585.57" y="1083.04" width="26.6388" height="8.87959" rx="1.77603" transform="rotate(87.27 2585.57 1083.04)" fill="white"/>
<rect x="2587.22" y="1117.63" width="26.6388" height="8.87959" rx="1.77603" transform="rotate(87.27 2587.22 1117.63)" fill="white"/>
<rect x="2332.38" y="476.522" width="26.6388" height="8.87959" rx="1.77603" transform="rotate(42.275 2332.38 476.522)" fill="white"/>
<rect x="2341.34" y="466.666" width="26.6388" height="8.87959" rx="1.77603" transform="rotate(42.275 2341.34 466.666)" fill="white"/>
<rect x="2366.97" y="489.963" width="26.6388" height="8.87959" rx="1.77603" transform="rotate(42.275 2366.97 489.963)" fill="white"/>
<rect x="2358.01" y="499.819" width="26.6388" height="8.87959" rx="1.77603" transform="rotate(42.275 2358.01 499.819)" fill="white"/>
<rect x="2323.42" y="486.378" width="26.6388" height="8.87959" rx="1.77603" transform="rotate(42.275 2323.42 486.378)" fill="white"/>
<rect x="2349.05" y="509.674" width="26.6388" height="8.87959" rx="1.77603" transform="rotate(42.275 2349.05 509.674)" fill="white"/>
<rect x="2311.47" y="499.519" width="61.2725" height="8.88007" rx="1.77603" transform="rotate(42.275 2311.47 499.519)" fill="white"/>
<rect width="61.2725" height="8.88007" rx="1.77603" transform="matrix(0.739922 0.672692 -0.672687 0.739927 2302.52 509.375)" fill="white"/>
<rect width="26.6388" height="8.87959" rx="1.77603" transform="matrix(0.739922 0.672692 -0.672687 0.739927 2293.55 519.231)" fill="white"/>
<rect x="2319.18" y="542.528" width="26.6388" height="8.87959" rx="1.77603" transform="rotate(42.275 2319.18 542.528)" fill="white"/>
<rect x="2263.21" y="423.546" width="26.6388" height="8.87959" rx="1.77603" transform="rotate(36.65 2263.21 423.546)" fill="white"/>
<rect width="61.2725" height="8.88007" rx="1.77603" transform="matrix(0.802296 0.596927 -0.596924 0.802298 2271.17 412.859)" fill="white"/>
<rect x="2291" y="444.219" width="26.6388" height="8.87959" rx="1.77603" transform="rotate(36.65 2291 444.219)" fill="white"/>
<rect x="2255.27" y="434.232" width="26.6388" height="8.87959" rx="1.77603" transform="rotate(36.65 2255.27 434.232)" fill="white"/>
<rect width="26.6388" height="8.87959" rx="1.77603" transform="matrix(0.802294 0.596929 -0.596922 0.8023 2283.05 454.906)" fill="white"/>
<rect x="2244.66" y="448.482" width="61.2725" height="8.88007" rx="1.77603" transform="rotate(36.65 2244.66 448.482)" fill="white"/>
<rect width="61.2725" height="8.88007" rx="1.77603" transform="matrix(0.802302 0.596919 -0.596932 0.802292 2236.71 459.168)" fill="white"/>
<rect x="2228.76" y="469.855" width="26.6388" height="8.87959" rx="1.77603" transform="rotate(36.65 2228.76 469.855)" fill="white"/>
<rect width="26.6388" height="8.87959" rx="1.77603" transform="matrix(0.802294 0.596929 -0.596922 0.8023 2256.54 490.528)" fill="white"/>
<rect width="61.2725" height="8.88007" rx="1.77603" transform="matrix(0.856942 0.515414 -0.515411 0.856943 2189.38 377.289)" fill="white"/>
<rect x="2196.25" y="365.874" width="26.6388" height="8.87959" rx="1.77603" transform="rotate(31.025 2196.25 365.874)" fill="white"/>
<rect x="2225.93" y="383.724" width="26.6388" height="8.87959" rx="1.77603" transform="rotate(31.025 2225.93 383.724)" fill="white"/>
<rect x="2182.52" y="388.704" width="26.6388" height="8.87959" rx="1.77603" transform="rotate(31.025 2182.52 388.704)" fill="white"/>
<rect x="2212.2" y="406.554" width="26.6388" height="8.87959" rx="1.77603" transform="rotate(31.025 2212.2 406.554)" fill="white"/>
<rect x="2173.37" y="403.924" width="61.2725" height="8.88007" rx="1.77603" transform="rotate(31.025 2173.37 403.924)" fill="white"/>
<rect x="2166.5" y="415.337" width="61.2725" height="8.88007" rx="1.77603" transform="rotate(31.025 2166.5 415.337)" fill="white"/>
<rect x="2159.63" y="426.753" width="26.6388" height="8.87959" rx="1.77603" transform="rotate(31.025 2159.63 426.753)" fill="white"/>
<rect x="2189.31" y="444.603" width="26.6388" height="8.87959" rx="1.77603" transform="rotate(31.025 2189.31 444.603)" fill="white"/>
<rect width="61.2725" height="8.88007" rx="1.77603" transform="matrix(0.903334 0.428937 -0.428933 0.903336 2111.35 339.143)" fill="white"/>
<rect width="61.2725" height="8.88007" rx="1.77603" transform="matrix(0.903334 0.428937 -0.428933 0.903336 2117.06 327.111)" fill="white"/>
<rect width="26.6388" height="8.87959" rx="1.77603" transform="matrix(0.903332 0.428941 -0.428929 0.903338 2105.63 351.176)" fill="white"/>
<rect x="2136.92" y="366.031" width="26.6388" height="8.87959" rx="1.77603" transform="rotate(25.4 2136.92 366.031)" fill="white"/>
<rect width="61.2725" height="8.88007" rx="1.77603" transform="matrix(0.903334 0.428937 -0.428933 0.903336 2098.02 367.22)" fill="white"/>
<rect width="61.2725" height="8.88007" rx="1.77603" transform="matrix(0.903334 0.428937 -0.428933 0.903336 2092.3 379.253)" fill="white"/>
<rect width="26.6388" height="8.87959" rx="1.77603" transform="matrix(0.903334 0.428937 -0.428933 0.903336 2086.59 391.285)" fill="white"/>
<rect x="2117.88" y="406.14" width="26.6388" height="8.87959" rx="1.77603" transform="rotate(25.4 2117.88 406.14)" fill="white"/>
<rect x="2029.68" y="308.101" width="26.6388" height="8.87959" rx="1.77603" transform="rotate(19.775 2029.68 308.101)" fill="white"/>
<rect x="2062.27" y="319.818" width="26.6388" height="8.87959" rx="1.77603" transform="rotate(19.775 2062.27 319.818)" fill="white"/>
<rect width="26.6388" height="8.87959" rx="1.77603" transform="matrix(0.941028 0.33833 -0.338325 0.94103 2034.18 295.566)" fill="white"/>
<rect width="26.6388" height="8.87959" rx="1.77603" transform="matrix(0.941029 0.338325 -0.338329 0.941028 2066.78 307.284)" fill="white"/>
<rect x="2025.17" y="320.636" width="61.2725" height="8.88007" rx="1.77603" transform="rotate(19.775 2025.17 320.636)" fill="white"/>
<rect x="2019.16" y="337.349" width="61.2725" height="8.88007" rx="1.77603" transform="rotate(19.775 2019.16 337.349)" fill="white"/>
<rect width="61.2725" height="8.88007" rx="1.77603" transform="matrix(0.941028 0.33833 -0.338325 0.94103 2014.66 349.883)" fill="white"/>
<rect width="26.6388" height="8.87959" rx="1.77603" transform="matrix(0.941029 0.338325 -0.338329 0.941028 2010.15 362.418)" fill="white"/>
<rect x="2042.74" y="374.135" width="26.6388" height="8.87959" rx="1.77603" transform="rotate(19.775 2042.74 374.135)" fill="white"/>
<rect width="26.6388" height="8.87959" rx="1.77603" transform="matrix(0.969659 0.24446 -0.244462 0.969659 1945.77 285.895)" fill="white"/>
<rect x="1979.35" y="294.361" width="26.6388" height="8.87959" rx="1.77603" transform="rotate(14.15 1979.35 294.361)" fill="white"/>
<rect x="1949.03" y="272.979" width="61.2725" height="8.88007" rx="1.77603" transform="rotate(14.15 1949.03 272.979)" fill="white"/>
<rect x="1942.51" y="298.811" width="61.2725" height="8.88007" rx="1.77603" transform="rotate(14.15 1942.51 298.811)" fill="white"/>
<rect width="61.2725" height="8.88007" rx="1.77603" transform="matrix(0.969659 0.24446 -0.244462 0.969659 1938.17 316.032)" fill="white"/>
<rect width="61.2725" height="8.88007" rx="1.77603" transform="matrix(0.969658 0.244464 -0.244459 0.96966 1934.92 328.949)" fill="white"/>
<rect width="26.6388" height="8.87959" rx="1.77603" transform="matrix(0.969658 0.244464 -0.244459 0.96966 1931.66 341.864)" fill="white"/>
<rect width="26.6388" height="8.87959" rx="1.77603" transform="matrix(0.969659 0.24446 -0.244462 0.969659 1965.24 350.331)" fill="white"/>
<rect x="1861.44" y="258.362" width="26.6388" height="8.87959" rx="1.77603" transform="rotate(8.525 1861.44 258.362)" fill="white"/>
<rect x="1895.69" y="263.497" width="26.6388" height="8.87959" rx="1.77603" transform="rotate(8.525 1895.69 263.497)" fill="white"/>
<rect width="61.2725" height="8.88007" rx="1.77603" transform="matrix(0.988951 0.148242 -0.14824 0.988952 1859.46 271.536)" fill="white"/>
<rect width="61.2725" height="8.88007" rx="1.77603" transform="matrix(0.988951 0.148242 -0.14824 0.988952 1857.49 284.708)" fill="white"/>
<rect x="1854.86" y="302.272" width="61.2725" height="8.88007" rx="1.77603" transform="rotate(8.525 1854.86 302.272)" fill="white"/>
<rect x="1852.88" y="315.446" width="61.2725" height="8.88007" rx="1.77603" transform="rotate(8.525 1852.88 315.446)" fill="white"/>
<rect width="26.6388" height="8.87959" rx="1.77603" transform="matrix(0.988952 0.148238 -0.148244 0.988951 1885.15 333.752)" fill="white"/>
<rect x="1850.91" y="328.618" width="26.6388" height="8.87959" rx="1.77603" transform="rotate(8.525 1850.91 328.618)" fill="white"/>
<rect width="61.2725" height="8.88007" rx="1.77603" transform="matrix(0.99872 0.0505924 -0.0505935 0.998719 1773.02 252.617)" fill="white"/>
<rect x="1772.34" y="265.92" width="61.2725" height="8.88007" rx="1.77603" transform="rotate(2.9 1772.34 265.92)" fill="white"/>
<rect x="1771.67" y="279.223" width="61.2725" height="8.88007" rx="1.77603" transform="rotate(2.9 1771.67 279.223)" fill="white"/>
<rect width="61.2725" height="8.88007" rx="1.77603" transform="matrix(0.998719 0.050594 -0.0505919 0.99872 1770.77 296.96)" fill="white"/>
<rect width="61.2725" height="8.88007" rx="1.77603" transform="matrix(0.99872 0.0505921 -0.0505938 0.998719 1770.1 310.264)" fill="white"/>
<rect width="26.6388" height="8.87959" rx="1.77603" transform="matrix(0.99872 0.0505921 -0.0505938 0.998719 1769.42 323.567)" fill="white"/>
<rect width="26.6388" height="8.87959" rx="1.77603" transform="matrix(0.998719 0.0505929 -0.0505947 0.998719 1804.05 325.343)" fill="white"/>
</g>
<defs>
<clipPath id="clip0_619_656">
<rect width="3517" height="2308" fill="white"/>
</clipPath>
<clipPath id="clip1_619_656">
<rect width="2879" height="2120" fill="white" transform="translate(319 94)"/>
</clipPath>
<clipPath id="clip2_619_656">
<rect width="62" height="100" fill="white" transform="translate(1727.5 94)"/>
</clipPath>
<clipPath id="clip3_619_656">
<rect width="109" height="66" fill="white" transform="matrix(0 1 -1 0 385 1099.5)"/>
</clipPath>
<clipPath id="clip4_619_656">
<rect width="109" height="60" fill="white" transform="matrix(0 1 -1 0 3198 1099.5)"/>
</clipPath>
<clipPath id="clip5_619_656">
<rect width="55" height="100" fill="white" transform="translate(1731 2114)"/>
</clipPath>
</defs>
</svg>
