<svg width="3517" height="2308" viewBox="0 0 3517 2308" fill="none" xmlns="http://www.w3.org/2000/svg">
<rect width="3517" height="2308" fill="#09090B"/>
<rect x="1621.15" y="484" width="268" height="670" fill="white"/>
<rect x="1621.65" y="1154.5" width="267" height="669" fill="black" stroke="white"/>
<path d="M1786.71 546.886V624.85H1774.14L1737.41 571.745H1736.76V624.85H1722.64V546.886H1735.28L1771.97 600.03H1772.66V546.886H1786.71Z" fill="black"/>
<path d="M1725.99 1790.65V1712.69H1755.83C1761.47 1712.69 1766.15 1713.57 1769.88 1715.35C1773.64 1717.1 1776.44 1719.5 1778.29 1722.55C1780.17 1725.59 1781.11 1729.04 1781.11 1732.9C1781.11 1736.07 1780.5 1738.79 1779.28 1741.05C1778.07 1743.28 1776.43 1745.09 1774.37 1746.49C1772.32 1747.89 1770.02 1748.89 1767.48 1749.5V1750.26C1770.25 1750.41 1772.9 1751.26 1775.44 1752.81C1778 1754.33 1780.1 1756.49 1781.72 1759.28C1783.34 1762.07 1784.16 1765.45 1784.16 1769.41C1784.16 1773.44 1783.18 1777.07 1781.23 1780.3C1779.27 1783.49 1776.33 1786.02 1772.39 1787.87C1768.46 1789.72 1763.51 1790.65 1757.55 1790.65H1725.99ZM1740.11 1778.85H1755.3C1760.43 1778.85 1764.12 1777.87 1766.38 1775.92C1768.66 1773.94 1769.81 1771.4 1769.81 1768.3C1769.81 1765.99 1769.23 1763.91 1768.09 1762.06C1766.95 1760.18 1765.33 1758.71 1763.22 1757.64C1761.11 1756.55 1758.6 1756.01 1755.68 1756.01H1740.11V1778.85ZM1740.11 1745.84H1754.08C1756.52 1745.84 1758.71 1745.4 1760.67 1744.51C1762.62 1743.6 1764.16 1742.32 1765.27 1740.67C1766.42 1738.99 1766.99 1737.01 1766.99 1734.73C1766.99 1731.71 1765.92 1729.22 1763.79 1727.27C1761.68 1725.31 1758.55 1724.34 1754.39 1724.34H1740.11V1745.84Z" fill="white"/>
<rect x="1174.76" y="1172.93" width="259.63" height="324.788" fill="white" stroke="white"/>
<rect x="1174.76" y="1498.71" width="259.63" height="324.788" fill="black" stroke="white"/>
<mask id="path-7-outside-1_629_2" maskUnits="userSpaceOnUse" x="1271.48" y="1232.26" width="65" height="78" fill="black">
<rect fill="white" x="1271.48" y="1232.26" width="65" height="78"/>
<path d="M1335.26 1233.44V1309.26H1323.05L1287.32 1257.62H1286.69V1309.26H1272.96V1233.44H1285.25L1320.94 1285.12H1321.6V1233.44H1335.26Z"/>
</mask>
<path d="M1335.26 1233.44V1309.26H1323.05L1287.32 1257.62H1286.69V1309.26H1272.96V1233.44H1285.25L1320.94 1285.12H1321.6V1233.44H1335.26Z" fill="black"/>
<path d="M1335.26 1233.44H1336.26V1232.44H1335.26V1233.44ZM1335.26 1309.26V1310.26H1336.26V1309.26H1335.26ZM1323.05 1309.26L1322.23 1309.83L1322.52 1310.26H1323.05V1309.26ZM1287.32 1257.62L1288.14 1257.05L1287.85 1256.62H1287.32V1257.62ZM1286.69 1257.62V1256.62H1285.69V1257.62H1286.69ZM1286.69 1309.26V1310.26H1287.69V1309.26H1286.69ZM1272.96 1309.26H1271.96V1310.26H1272.96V1309.26ZM1272.96 1233.44V1232.44H1271.96V1233.44H1272.96ZM1285.25 1233.44L1286.07 1232.87L1285.77 1232.44H1285.25V1233.44ZM1320.94 1285.12L1320.11 1285.69L1320.41 1286.12H1320.94V1285.12ZM1321.6 1285.12V1286.12H1322.6V1285.12H1321.6ZM1321.6 1233.44V1232.44H1320.6V1233.44H1321.6ZM1334.26 1233.44V1309.26H1336.26V1233.44H1334.26ZM1335.26 1308.26H1323.05V1310.26H1335.26V1308.26ZM1323.87 1308.69L1288.14 1257.05L1286.5 1258.19L1322.23 1309.83L1323.87 1308.69ZM1287.32 1256.62H1286.69V1258.62H1287.32V1256.62ZM1285.69 1257.62V1309.26H1287.69V1257.62H1285.69ZM1286.69 1308.26H1272.96V1310.26H1286.69V1308.26ZM1273.96 1309.26V1233.44H1271.96V1309.26H1273.96ZM1272.96 1234.44H1285.25V1232.44H1272.96V1234.44ZM1284.43 1234.01L1320.11 1285.69L1321.76 1284.56L1286.07 1232.87L1284.43 1234.01ZM1320.94 1286.12H1321.6V1284.12H1320.94V1286.12ZM1322.6 1285.12V1233.44H1320.6V1285.12H1322.6ZM1321.6 1234.44H1335.26V1232.44H1321.6V1234.44Z" fill="white" mask="url(#path-7-outside-1_629_2)"/>
<mask id="path-9-outside-2_629_2" maskUnits="userSpaceOnUse" x="1274.74" y="1699.77" width="60" height="78" fill="black">
<rect fill="white" x="1274.74" y="1699.77" width="60" height="78"/>
<path d="M1276.22 1776.77V1700.95H1305.24C1310.72 1700.95 1315.27 1701.81 1318.9 1703.54C1322.55 1705.24 1325.28 1707.57 1327.08 1710.54C1328.91 1713.5 1329.82 1716.85 1329.82 1720.61C1329.82 1723.69 1329.23 1726.33 1328.05 1728.53C1326.86 1730.7 1325.27 1732.46 1323.27 1733.82C1321.27 1735.18 1319.04 1736.15 1316.57 1736.75V1737.49C1319.26 1737.64 1321.84 1738.46 1324.31 1739.97C1326.8 1741.45 1328.84 1743.55 1330.41 1746.26C1331.99 1748.98 1332.78 1752.26 1332.78 1756.11C1332.78 1760.03 1331.83 1763.56 1329.93 1766.7C1328.03 1769.81 1325.17 1772.26 1321.34 1774.06C1317.52 1775.87 1312.71 1776.77 1306.91 1776.77H1276.22ZM1289.95 1765.29H1304.72C1309.71 1765.29 1313.3 1764.34 1315.5 1762.44C1317.72 1760.51 1318.83 1758.05 1318.83 1755.04C1318.83 1752.79 1318.27 1750.77 1317.16 1748.96C1316.05 1747.14 1314.47 1745.71 1312.42 1744.67C1310.37 1743.61 1307.93 1743.08 1305.09 1743.08H1289.95V1765.29ZM1289.95 1733.19H1303.54C1305.91 1733.19 1308.04 1732.76 1309.94 1731.9C1311.84 1731.01 1313.34 1729.76 1314.42 1728.16C1315.53 1726.53 1316.09 1724.6 1316.09 1722.38C1316.09 1719.45 1315.05 1717.03 1312.98 1715.13C1310.93 1713.23 1307.88 1712.28 1303.83 1712.28H1289.95V1733.19Z"/>
</mask>
<path d="M1276.22 1776.77V1700.95H1305.24C1310.72 1700.95 1315.27 1701.81 1318.9 1703.54C1322.55 1705.24 1325.28 1707.57 1327.08 1710.54C1328.91 1713.5 1329.82 1716.85 1329.82 1720.61C1329.82 1723.69 1329.23 1726.33 1328.05 1728.53C1326.86 1730.7 1325.27 1732.46 1323.27 1733.82C1321.27 1735.18 1319.04 1736.15 1316.57 1736.75V1737.49C1319.26 1737.64 1321.84 1738.46 1324.31 1739.97C1326.8 1741.45 1328.84 1743.55 1330.41 1746.26C1331.99 1748.98 1332.78 1752.26 1332.78 1756.11C1332.78 1760.03 1331.83 1763.56 1329.93 1766.7C1328.03 1769.81 1325.17 1772.26 1321.34 1774.06C1317.52 1775.87 1312.71 1776.77 1306.91 1776.77H1276.22ZM1289.95 1765.29H1304.72C1309.71 1765.29 1313.3 1764.34 1315.5 1762.44C1317.72 1760.51 1318.83 1758.05 1318.83 1755.04C1318.83 1752.79 1318.27 1750.77 1317.16 1748.96C1316.05 1747.14 1314.47 1745.71 1312.42 1744.67C1310.37 1743.61 1307.93 1743.08 1305.09 1743.08H1289.95V1765.29ZM1289.95 1733.19H1303.54C1305.91 1733.19 1308.04 1732.76 1309.94 1731.9C1311.84 1731.01 1313.34 1729.76 1314.42 1728.16C1315.53 1726.53 1316.09 1724.6 1316.09 1722.38C1316.09 1719.45 1315.05 1717.03 1312.98 1715.13C1310.93 1713.23 1307.88 1712.28 1303.83 1712.28H1289.95V1733.19Z" fill="white"/>
<path d="M1276.22 1776.77H1275.22V1777.77H1276.22V1776.77ZM1276.22 1700.95V1699.95H1275.22V1700.95H1276.22ZM1318.9 1703.54L1318.47 1704.44L1318.48 1704.45L1318.9 1703.54ZM1327.08 1710.54L1326.23 1711.06L1326.23 1711.06L1327.08 1710.54ZM1328.05 1728.53L1328.92 1729.01L1328.93 1729L1328.05 1728.53ZM1323.27 1733.82L1322.71 1733L1322.71 1733L1323.27 1733.82ZM1316.57 1736.75L1316.34 1735.77L1315.57 1735.96V1736.75H1316.57ZM1316.57 1737.49H1315.57V1738.43L1316.51 1738.49L1316.57 1737.49ZM1324.31 1739.97L1323.79 1740.82L1323.8 1740.83L1324.31 1739.97ZM1330.41 1746.26L1329.55 1746.76L1329.55 1746.76L1330.41 1746.26ZM1329.93 1766.7L1330.79 1767.22L1330.79 1767.22L1329.93 1766.7ZM1321.34 1774.06L1320.92 1773.16L1321.34 1774.06ZM1289.95 1765.29H1288.95V1766.29H1289.95V1765.29ZM1315.5 1762.44L1316.15 1763.2L1316.15 1763.2L1315.5 1762.44ZM1317.16 1748.96L1316.31 1749.48L1316.31 1749.49L1317.16 1748.96ZM1312.42 1744.67L1311.96 1745.56L1311.97 1745.56L1312.42 1744.67ZM1289.95 1743.08V1742.08H1288.95V1743.08H1289.95ZM1289.95 1733.19H1288.95V1734.19H1289.95V1733.19ZM1309.94 1731.9L1310.36 1732.81L1310.37 1732.8L1309.94 1731.9ZM1314.42 1728.16L1313.6 1727.59L1313.59 1727.6L1314.42 1728.16ZM1312.98 1715.13L1312.3 1715.86L1312.3 1715.86L1312.98 1715.13ZM1289.95 1712.28V1711.28H1288.95V1712.28H1289.95ZM1277.22 1776.77V1700.95H1275.22V1776.77H1277.22ZM1276.22 1701.95H1305.24V1699.95H1276.22V1701.95ZM1305.24 1701.95C1310.62 1701.95 1315.02 1702.8 1318.47 1704.44L1319.33 1702.64C1315.53 1700.83 1310.82 1699.95 1305.24 1699.95V1701.95ZM1318.48 1704.45C1321.98 1706.08 1324.55 1708.29 1326.23 1711.06L1327.94 1710.02C1326.02 1706.86 1323.13 1704.41 1319.32 1702.63L1318.48 1704.45ZM1326.23 1711.06C1327.95 1713.85 1328.82 1717.02 1328.82 1720.61H1330.82C1330.82 1716.68 1329.87 1713.14 1327.93 1710.01L1326.23 1711.06ZM1328.82 1720.61C1328.82 1723.56 1328.25 1726.03 1327.17 1728.05L1328.93 1729C1330.21 1726.63 1330.82 1723.82 1330.82 1720.61H1328.82ZM1327.17 1728.05C1326.06 1730.09 1324.57 1731.73 1322.71 1733L1323.83 1734.65C1325.97 1733.2 1327.66 1731.32 1328.92 1729.01L1327.17 1728.05ZM1322.71 1733C1320.81 1734.28 1318.69 1735.21 1316.34 1735.77L1316.8 1737.72C1319.38 1737.1 1321.73 1736.08 1323.83 1734.65L1322.71 1733ZM1315.57 1736.75V1737.49H1317.57V1736.75H1315.57ZM1316.51 1738.49C1319.03 1738.62 1321.45 1739.4 1323.79 1740.82L1324.83 1739.11C1322.23 1737.53 1319.49 1736.65 1316.62 1736.49L1316.51 1738.49ZM1323.8 1740.83C1326.13 1742.21 1328.05 1744.18 1329.55 1746.76L1331.28 1745.76C1329.62 1742.91 1327.47 1740.68 1324.82 1739.11L1323.8 1740.83ZM1329.55 1746.76C1331.02 1749.3 1331.78 1752.4 1331.78 1756.11H1333.78C1333.78 1752.12 1332.97 1748.66 1331.28 1745.76L1329.55 1746.76ZM1331.78 1756.11C1331.78 1759.86 1330.88 1763.21 1329.08 1766.18L1330.79 1767.22C1332.79 1763.91 1333.78 1760.2 1333.78 1756.11H1331.78ZM1329.08 1766.18C1327.3 1769.09 1324.6 1771.43 1320.92 1773.16L1321.77 1774.97C1325.74 1773.1 1328.77 1770.52 1330.79 1767.22L1329.08 1766.18ZM1320.92 1773.16C1317.27 1774.88 1312.61 1775.77 1306.91 1775.77V1777.77C1312.8 1777.77 1317.77 1776.85 1321.77 1774.97L1320.92 1773.16ZM1306.91 1775.77H1276.22V1777.77H1306.91V1775.77ZM1289.95 1766.29H1304.72V1764.29H1289.95V1766.29ZM1304.72 1766.29C1309.79 1766.29 1313.68 1765.33 1316.15 1763.2L1314.84 1761.68C1312.92 1763.35 1309.62 1764.29 1304.72 1764.29V1766.29ZM1316.15 1763.2C1318.6 1761.08 1319.83 1758.33 1319.83 1755.04H1317.83C1317.83 1757.76 1316.84 1759.95 1314.84 1761.68L1316.15 1763.2ZM1319.83 1755.04C1319.83 1752.62 1319.23 1750.41 1318.01 1748.44L1316.31 1749.49C1317.32 1751.12 1317.83 1752.96 1317.83 1755.04H1319.83ZM1318.02 1748.44C1316.8 1746.45 1315.08 1744.89 1312.87 1743.78L1311.97 1745.56C1313.87 1746.52 1315.3 1747.83 1316.31 1749.48L1318.02 1748.44ZM1312.88 1743.78C1310.66 1742.63 1308.05 1742.08 1305.09 1742.08V1744.08C1307.81 1744.08 1310.09 1744.58 1311.96 1745.56L1312.88 1743.78ZM1305.09 1742.08H1289.95V1744.08H1305.09V1742.08ZM1288.95 1743.08V1765.29H1290.95V1743.08H1288.95ZM1289.95 1734.19H1303.54V1732.19H1289.95V1734.19ZM1303.54 1734.19C1306.03 1734.19 1308.31 1733.74 1310.36 1732.81L1309.53 1730.99C1307.77 1731.78 1305.78 1732.19 1303.54 1732.19V1734.19ZM1310.37 1732.8C1312.42 1731.84 1314.05 1730.48 1315.25 1728.72L1313.59 1727.6C1312.62 1729.04 1311.27 1730.17 1309.52 1730.99L1310.37 1732.8ZM1315.25 1728.72C1316.49 1726.91 1317.09 1724.78 1317.09 1722.38H1315.09C1315.09 1724.43 1314.58 1726.15 1313.6 1727.59L1315.25 1728.72ZM1317.09 1722.38C1317.09 1719.18 1315.94 1716.49 1313.65 1714.39L1312.3 1715.86C1314.16 1717.57 1315.09 1719.71 1315.09 1722.38H1317.09ZM1313.66 1714.39C1311.36 1712.26 1308.02 1711.28 1303.83 1711.28V1713.28C1307.74 1713.28 1310.5 1714.19 1312.3 1715.86L1313.66 1714.39ZM1303.83 1711.28H1289.95V1713.28H1303.83V1711.28ZM1288.95 1712.28V1733.19H1290.95V1712.28H1288.95Z" fill="white" mask="url(#path-9-outside-2_629_2)"/>
<rect x="2075.07" y="484" width="260.63" height="325.788" fill="white"/>
<rect x="2075.57" y="810.288" width="259.63" height="324.788" fill="black" stroke="white"/>
<path d="M2236.08 545.017V620.836H2223.86L2188.14 569.192H2187.51V620.836H2173.77V545.017H2186.06L2221.75 596.699H2222.42V545.017H2236.08Z" fill="black"/>
<path d="M2177.03 1088.34V1012.52H2206.06C2211.53 1012.52 2216.09 1013.39 2219.72 1015.11C2223.37 1016.82 2226.1 1019.15 2227.9 1022.11C2229.72 1025.07 2230.64 1028.43 2230.64 1032.18C2230.64 1035.27 2230.05 1037.91 2228.86 1040.1C2227.68 1042.27 2226.08 1044.04 2224.09 1045.4C2222.09 1046.75 2219.85 1047.73 2217.38 1048.32V1049.06C2220.07 1049.21 2222.65 1050.04 2225.12 1051.54C2227.61 1053.02 2229.65 1055.12 2231.23 1057.84C2232.81 1060.55 2233.6 1063.83 2233.6 1067.68C2233.6 1071.61 2232.65 1075.14 2230.75 1078.27C2228.85 1081.38 2225.99 1083.84 2222.16 1085.64C2218.33 1087.44 2213.52 1088.34 2207.72 1088.34H2177.03ZM2190.77 1076.87H2205.54C2210.52 1076.87 2214.11 1075.91 2216.31 1074.01C2218.53 1072.09 2219.64 1069.62 2219.64 1066.61C2219.64 1064.36 2219.09 1062.34 2217.98 1060.54C2216.87 1058.71 2215.29 1057.28 2213.24 1056.24C2211.19 1055.18 2208.75 1054.65 2205.91 1054.65H2190.77V1076.87ZM2190.77 1044.77H2204.35C2206.72 1044.77 2208.86 1044.34 2210.76 1043.47C2212.66 1042.58 2214.15 1041.34 2215.24 1039.73C2216.35 1038.1 2216.9 1036.18 2216.9 1033.96C2216.9 1031.02 2215.87 1028.6 2213.79 1026.7C2211.74 1024.8 2208.7 1023.85 2204.65 1023.85H2190.77V1044.77Z" fill="white"/>
<rect x="2529" y="487.35" width="256.275" height="162.475" fill="white"/>
<rect x="2529.5" y="648.65" width="255.275" height="161.475" fill="black" stroke="white"/>
<path d="M2688.16 558.6V633.25H2676.13L2640.95 582.402H2640.34V633.25H2626.81V558.6H2638.91L2674.05 609.484H2674.71V558.6H2688.16Z" fill="black"/>
<path d="M2630.16 742.125V667.475H2658.74C2664.13 667.475 2668.62 668.325 2672.19 670.026C2675.79 671.703 2678.47 673.999 2680.24 676.915C2682.04 679.831 2682.94 683.136 2682.94 686.83C2682.94 689.867 2682.36 692.468 2681.19 694.63C2680.03 696.769 2678.46 698.506 2676.49 699.843C2674.52 701.179 2672.32 702.139 2669.89 702.722V703.451C2672.54 703.597 2675.08 704.411 2677.51 705.893C2679.97 707.351 2681.97 709.417 2683.52 712.09C2685.08 714.763 2685.86 717.995 2685.86 721.786C2685.86 725.649 2684.92 729.124 2683.05 732.211C2681.18 735.272 2678.36 737.69 2674.59 739.464C2670.83 741.238 2666.09 742.125 2660.38 742.125H2630.16ZM2643.68 730.825H2658.23C2663.14 730.825 2666.67 729.89 2668.84 728.019C2671.02 726.123 2672.12 723.693 2672.12 720.729C2672.12 718.517 2671.57 716.525 2670.48 714.751C2669.38 712.953 2667.83 711.543 2665.81 710.523C2663.79 709.478 2661.39 708.955 2658.59 708.955H2643.68V730.825ZM2643.68 699.223H2657.06C2659.39 699.223 2661.5 698.798 2663.37 697.947C2665.24 697.072 2666.71 695.845 2667.78 694.266C2668.87 692.662 2669.42 690.767 2669.42 688.58C2669.42 685.688 2668.4 683.306 2666.36 681.435C2664.34 679.564 2661.34 678.629 2657.35 678.629H2643.68V699.223Z" fill="white"/>
<rect x="731.725" y="1500.72" width="256.275" height="162.475" fill="white"/>
<rect x="732.225" y="1662.02" width="255.275" height="161.475" fill="black" stroke="white"/>
<path d="M890.884 1571.97V1646.62H878.855L843.68 1595.78H843.061V1646.62H829.538V1571.97H841.639L876.777 1622.86H877.433V1571.97H890.884Z" fill="black"/>
<path d="M832.887 1755.5V1680.85H861.464C866.859 1680.85 871.342 1681.7 874.915 1683.4C878.511 1685.08 881.196 1687.37 882.97 1690.29C884.768 1693.21 885.667 1696.51 885.667 1700.2C885.667 1703.24 885.084 1705.84 883.918 1708C882.751 1710.14 881.184 1711.88 879.216 1713.22C877.247 1714.55 875.048 1715.51 872.618 1716.1V1716.83C875.267 1716.97 877.806 1717.79 880.236 1719.27C882.691 1720.73 884.695 1722.79 886.251 1725.46C887.806 1728.14 888.583 1731.37 888.583 1735.16C888.583 1739.02 887.648 1742.5 885.777 1745.59C883.906 1748.65 881.087 1751.06 877.32 1752.84C873.554 1754.61 868.815 1755.5 863.105 1755.5H832.887ZM846.41 1744.2H860.954C865.863 1744.2 869.398 1743.26 871.561 1741.39C873.748 1739.5 874.842 1737.07 874.842 1734.1C874.842 1731.89 874.295 1729.9 873.201 1728.13C872.108 1726.33 870.553 1724.92 868.536 1723.9C866.519 1722.85 864.113 1722.33 861.319 1722.33H846.41V1744.2ZM846.41 1712.6H859.788C862.121 1712.6 864.222 1712.17 866.094 1711.32C867.965 1710.45 869.435 1709.22 870.504 1707.64C871.598 1706.04 872.144 1704.14 872.144 1701.95C872.144 1699.06 871.124 1696.68 869.083 1694.81C867.066 1692.94 864.065 1692 860.079 1692H846.41V1712.6Z" fill="white"/>
<path d="M1486.45 1507.2C1481.74 1504.68 1481.74 1497.92 1486.45 1495.39L1552.38 1460.08C1558.73 1456.68 1565.24 1464.33 1560.86 1470.06L1541.26 1495.67C1539.46 1498.02 1539.42 1501.26 1541.15 1503.66L1562.76 1533.65C1566.91 1539.41 1560.42 1546.82 1554.16 1543.47L1486.45 1507.2Z" fill="white"/>
<path d="M1040.9 1669.68C1036.19 1667.15 1036.19 1660.39 1040.9 1657.87L1106.83 1622.56C1113.18 1619.15 1119.69 1626.81 1115.31 1632.53L1095.71 1658.15C1093.92 1660.49 1093.87 1663.74 1095.6 1666.13L1117.21 1696.12C1121.36 1701.88 1114.87 1709.3 1108.61 1705.94L1040.9 1669.68Z" fill="white"/>
<path d="M2023.85 812.522C2028.56 815.047 2028.56 821.808 2023.85 824.334L1957.92 859.645C1951.57 863.048 1945.06 855.391 1949.44 849.667L1969.04 824.055C1970.83 821.708 1970.88 818.462 1969.15 816.065L1947.54 786.081C1943.39 780.319 1949.88 772.904 1956.14 776.257L2023.85 812.522Z" fill="white"/>
<path d="M2473.17 641.142C2477.88 643.668 2477.88 650.429 2473.17 652.954L2407.24 688.265C2400.89 691.668 2394.38 684.011 2398.76 678.287L2418.36 652.675C2420.15 650.328 2420.2 647.083 2418.47 644.686L2396.86 614.701C2392.71 608.939 2399.2 601.524 2405.46 604.878L2473.17 641.142Z" fill="white"/>
</svg>
