<svg width="3517" height="2308" viewBox="0 0 3517 2308" fill="none" xmlns="http://www.w3.org/2000/svg">
<g clip-path="url(#clip0_610_183)">
<rect width="3517" height="2308" fill="#09090B"/>
<g filter="url(#filter0_b_610_183)">
<g clip-path="url(#clip1_610_183)">
<g filter="url(#filter1_d_610_183)">
<path d="M1758.4 574.212C1758.4 563.166 1749.44 554.177 1738.4 554.545C1712.41 555.412 1686.5 557.968 1660.84 562.197C1649.94 563.993 1642.91 574.559 1645.07 585.392L1653.67 628.544C1655.82 639.377 1666.35 646.368 1677.26 644.632C1697.5 641.408 1717.92 639.394 1738.4 638.6C1749.44 638.171 1758.4 629.258 1758.4 618.212V574.212Z" fill="white"/>
<path d="M1645.25 585.357C1643.09 574.523 1632.55 567.454 1621.8 569.969C1596.47 575.89 1571.56 583.452 1547.22 592.606C1536.88 596.494 1532.04 608.228 1536.28 618.432L1553.21 659.27C1557.44 669.474 1569.12 674.278 1579.48 670.446C1598.7 663.34 1618.32 657.386 1638.24 652.613C1648.98 650.04 1656.03 639.55 1653.87 628.717L1645.25 585.357Z" fill="black"/>
<path d="M1536.44 618.362C1532.22 608.157 1520.5 603.28 1510.44 607.844C1486.76 618.593 1463.8 630.87 1441.71 644.597C1432.33 650.428 1429.88 662.879 1436.02 672.061L1460.59 708.812C1466.73 717.994 1479.13 720.425 1488.54 714.646C1506 703.929 1524.08 694.261 1542.69 685.694C1552.72 681.074 1557.59 669.411 1553.36 659.206L1536.44 618.362Z" fill="white"/>
<path d="M1436.17 671.96C1430.03 662.776 1417.59 660.277 1408.62 666.717C1387.48 681.879 1367.36 698.399 1348.37 716.173C1340.31 723.721 1340.34 736.411 1348.15 744.219L1379.42 775.47C1387.23 783.278 1399.87 783.243 1407.97 775.739C1423.01 761.821 1438.85 748.811 1455.43 736.779C1464.37 730.291 1466.87 717.903 1460.73 708.718L1436.17 671.96Z" fill="black"/>
<path d="M1348.28 744.09C1340.47 736.28 1327.78 736.257 1320.23 744.323C1302.46 763.317 1285.95 783.445 1270.79 804.582C1264.36 813.558 1266.86 825.999 1276.05 832.133L1312.81 856.683C1322 862.816 1334.39 860.317 1340.87 851.375C1352.9 834.793 1365.9 818.941 1379.82 803.906C1387.32 795.798 1387.35 783.161 1379.54 775.351L1348.28 744.09Z" fill="white"/>
<path d="M1276.15 831.981C1266.96 825.845 1254.51 828.298 1248.69 837.681C1234.96 859.776 1222.7 882.74 1211.95 906.427C1207.39 916.487 1212.27 928.2 1222.48 932.424L1263.33 949.329C1273.54 953.553 1285.2 948.685 1289.81 938.65C1298.37 920.04 1308.04 901.956 1318.75 884.495C1324.53 875.08 1322.09 862.679 1312.91 856.543L1276.15 831.981Z" fill="black"/>
<path d="M1222.55 932.256C1212.35 928.029 1200.61 932.864 1196.73 943.204C1187.58 967.551 1180.03 992.467 1174.11 1017.79C1171.6 1028.55 1178.67 1039.09 1189.51 1041.24L1232.87 1049.85C1243.71 1052 1254.19 1044.95 1256.76 1034.21C1261.53 1014.29 1267.48 994.664 1274.58 975.449C1278.41 965.088 1273.6 953.401 1263.39 949.174L1222.55 932.256Z" fill="white"/>
<path d="M1189.54 1041.06C1178.71 1038.9 1168.15 1045.94 1166.35 1056.83C1162.13 1082.5 1159.59 1108.41 1158.73 1134.4C1158.36 1145.44 1167.35 1154.4 1178.4 1154.39L1222.61 1154.38C1233.66 1154.38 1242.57 1145.42 1242.99 1134.38C1243.78 1113.91 1245.78 1093.5 1249 1073.27C1250.73 1062.36 1243.74 1051.84 1232.9 1049.68L1189.54 1041.06Z" fill="black"/>
<path d="M1178.4 1154.21C1167.35 1154.21 1158.37 1163.17 1158.73 1174.21C1159.6 1200.2 1162.16 1226.11 1166.39 1251.77C1168.18 1262.67 1178.75 1269.7 1189.58 1267.54L1232.94 1258.9C1243.77 1256.75 1250.76 1246.22 1249.02 1235.31C1245.8 1215.08 1243.79 1194.68 1243 1174.21C1242.57 1163.17 1233.66 1154.21 1222.61 1154.21H1178.4Z" fill="white"/>
<path d="M1189.54 1267.36C1178.71 1269.52 1171.64 1280.06 1174.16 1290.81C1180.08 1316.14 1187.64 1341.05 1196.79 1365.4C1200.68 1375.74 1212.42 1380.57 1222.62 1376.34L1263.46 1359.41C1273.66 1355.18 1278.47 1343.49 1274.63 1333.13C1267.53 1313.91 1261.57 1294.29 1256.8 1274.37C1254.23 1263.63 1243.74 1256.58 1232.9 1258.74L1189.54 1267.36Z" fill="black"/>
<path d="M1222.55 1376.17C1212.34 1380.4 1207.47 1392.11 1212.03 1402.17C1222.78 1425.85 1235.06 1448.81 1248.78 1470.9C1254.62 1480.28 1267.07 1482.73 1276.25 1476.59L1313 1452.02C1322.18 1445.88 1324.61 1433.48 1318.83 1424.07C1308.12 1406.61 1298.45 1388.53 1289.88 1369.92C1285.26 1359.89 1273.6 1355.02 1263.39 1359.25L1222.55 1376.17Z" fill="white"/>
<path d="M1276.15 1476.44C1266.96 1482.58 1264.46 1495.02 1270.9 1504C1286.07 1525.13 1302.59 1545.25 1320.36 1564.24C1327.91 1572.3 1340.6 1572.28 1348.41 1564.46L1379.66 1533.19C1387.47 1525.38 1387.43 1512.74 1379.93 1504.64C1366.01 1489.61 1353 1473.76 1340.97 1457.18C1334.48 1448.24 1322.09 1445.74 1312.91 1451.88L1276.15 1476.44Z" fill="black"/>
<path d="M1348.28 1564.33C1340.47 1572.14 1340.44 1584.83 1348.51 1592.38C1367.5 1610.15 1387.63 1626.66 1408.77 1641.82C1417.75 1648.25 1430.19 1645.75 1436.32 1636.57L1460.87 1599.8C1467 1590.61 1464.5 1578.23 1455.56 1571.74C1438.98 1559.71 1423.13 1546.71 1408.09 1532.8C1399.99 1525.29 1387.35 1525.26 1379.54 1533.07L1348.28 1564.33Z" fill="white"/>
<path d="M1436.17 1636.46C1430.03 1645.65 1432.49 1658.1 1441.87 1663.93C1463.96 1677.65 1486.93 1689.92 1510.61 1700.66C1520.67 1705.22 1532.39 1700.34 1536.61 1690.13L1553.52 1649.28C1557.74 1639.08 1552.87 1627.41 1542.84 1622.8C1524.23 1614.24 1506.14 1604.57 1488.68 1593.86C1479.27 1588.09 1466.87 1590.52 1460.73 1599.71L1436.17 1636.46Z" fill="black"/>
<path d="M1536.44 1690.06C1532.22 1700.27 1537.05 1712 1547.39 1715.88C1571.74 1725.03 1596.65 1732.58 1621.98 1738.5C1632.74 1741.01 1643.27 1733.94 1645.43 1723.1L1654.04 1679.74C1656.19 1668.91 1649.14 1658.42 1638.4 1655.85C1618.47 1651.08 1598.85 1645.13 1579.64 1638.03C1569.28 1634.21 1557.59 1639.01 1553.36 1649.22L1536.44 1690.06Z" fill="white"/>
<path d="M1645.25 1723.07C1643.09 1733.9 1650.12 1744.46 1661.02 1746.26C1686.69 1750.48 1712.6 1753.03 1738.59 1753.88C1749.63 1754.25 1758.59 1745.26 1758.58 1734.21L1758.57 1690C1758.56 1678.96 1749.6 1670.05 1738.57 1669.62C1718.1 1668.83 1697.69 1666.83 1677.46 1663.61C1666.55 1661.88 1656.03 1668.87 1653.87 1679.71L1645.25 1723.07Z" fill="black"/>
<path d="M1758.4 1734.21C1758.4 1745.26 1767.36 1754.25 1778.4 1753.88C1804.39 1753.01 1830.3 1750.46 1855.96 1746.23C1866.86 1744.43 1873.89 1733.86 1871.73 1723.03L1863.09 1679.67C1860.93 1668.84 1850.41 1661.85 1839.5 1663.59C1819.27 1666.81 1798.86 1668.82 1778.39 1669.61C1767.36 1670.04 1758.4 1678.96 1758.4 1690V1734.21Z" fill="black"/>
<path d="M1871.55 1723.07C1873.71 1733.9 1884.25 1740.97 1895 1738.46C1920.33 1732.53 1945.24 1724.97 1969.58 1715.82C1979.92 1711.93 1984.75 1700.2 1980.52 1689.99L1963.59 1649.15C1959.36 1638.95 1947.67 1634.15 1937.32 1637.98C1918.1 1645.08 1898.48 1651.04 1878.56 1655.81C1867.82 1658.38 1860.77 1668.87 1862.93 1679.71L1871.55 1723.07Z" fill="white"/>
<path d="M1980.36 1690.06C1984.58 1700.27 1996.3 1705.14 2006.36 1700.58C2030.04 1689.83 2053 1677.55 2075.09 1663.83C2084.47 1658 2086.92 1645.55 2080.78 1636.36L2056.21 1599.61C2050.07 1590.43 2037.67 1588 2028.26 1593.78C2010.8 1604.5 1992.72 1614.16 1974.11 1622.73C1964.08 1627.35 1959.21 1639.01 1963.44 1649.22L1980.36 1690.06Z" fill="black"/>
<path d="M2080.63 1636.46C2086.77 1645.65 2099.21 1648.15 2108.18 1641.71C2129.31 1626.55 2149.44 1610.02 2168.43 1592.25C2176.49 1584.7 2176.46 1572.01 2168.65 1564.21L2137.38 1532.95C2129.57 1525.15 2116.93 1525.18 2108.83 1532.69C2093.79 1546.6 2077.95 1559.61 2061.37 1571.65C2052.43 1578.13 2049.93 1590.52 2056.07 1599.71L2080.63 1636.46Z" fill="white"/>
<path d="M2168.52 1564.33C2176.33 1572.14 2189.02 1572.17 2196.57 1564.1C2214.34 1545.11 2230.85 1524.98 2246.01 1503.84C2252.44 1494.87 2249.94 1482.43 2240.75 1476.29L2203.99 1451.74C2194.8 1445.61 2182.41 1448.11 2175.93 1457.05C2163.9 1473.63 2150.9 1489.48 2136.98 1504.52C2129.48 1512.63 2129.45 1525.26 2137.26 1533.07L2168.52 1564.33Z" fill="black"/>
<path d="M2240.65 1476.44C2249.84 1482.58 2262.29 1480.13 2268.11 1470.74C2281.83 1448.65 2294.1 1425.68 2304.85 1402C2309.41 1391.94 2304.53 1380.22 2294.32 1376L2253.47 1359.09C2243.26 1354.87 2231.6 1359.74 2226.99 1369.77C2218.42 1388.38 2208.76 1406.47 2198.05 1423.93C2192.27 1433.34 2194.71 1445.74 2203.89 1451.88L2240.65 1476.44Z" fill="white"/>
<path d="M2294.25 1376.17C2304.45 1380.4 2316.19 1375.56 2320.07 1365.22C2329.22 1340.87 2336.77 1315.96 2342.69 1290.63C2345.2 1279.87 2338.12 1269.34 2327.29 1267.19L2283.93 1258.57C2273.09 1256.42 2262.61 1263.47 2260.04 1274.22C2255.27 1294.14 2249.32 1313.76 2242.22 1332.98C2238.39 1343.34 2243.2 1355.02 2253.41 1359.25L2294.25 1376.17Z" fill="black"/>
<path d="M2327.26 1267.36C2338.09 1269.52 2348.65 1262.49 2350.45 1251.59C2354.67 1225.93 2357.21 1200.01 2358.07 1174.02C2358.44 1162.98 2349.45 1154.03 2338.4 1154.03L2294.19 1154.04C2283.14 1154.05 2274.23 1163.01 2273.81 1174.05C2273.02 1194.52 2271.01 1214.92 2267.8 1235.15C2266.07 1246.06 2273.06 1256.58 2283.9 1258.74L2327.26 1267.36Z" fill="white"/>
<path d="M2338.4 1154.21C2349.45 1154.21 2358.43 1145.26 2358.07 1134.22C2357.2 1108.22 2354.64 1082.31 2350.41 1056.65C2348.62 1045.75 2338.05 1038.72 2327.22 1040.88L2283.86 1049.52C2273.03 1051.68 2266.04 1062.2 2267.77 1073.11C2271 1093.34 2273.01 1113.75 2273.8 1134.22C2274.23 1145.25 2283.14 1154.21 2294.19 1154.21L2338.4 1154.21Z" fill="black"/>
<path d="M2327.26 1041.06C2338.09 1038.9 2345.16 1028.37 2342.64 1017.61C2336.72 992.285 2329.16 967.372 2320.01 943.027C2316.12 932.688 2304.38 927.857 2294.18 932.087L2253.34 949.018C2243.14 953.249 2238.33 964.937 2242.17 975.297C2249.27 994.51 2255.23 1014.13 2260 1034.05C2262.57 1044.79 2273.06 1051.84 2283.9 1049.68L2327.26 1041.06Z" fill="white"/>
<path d="M2294.25 932.256C2304.46 928.029 2309.33 916.314 2304.77 906.255C2294.02 882.571 2281.74 859.612 2268.01 837.521C2262.18 828.139 2249.73 825.69 2240.55 831.83L2203.8 856.403C2194.62 862.542 2192.19 874.943 2197.97 884.357C2208.68 901.814 2218.35 919.895 2226.92 938.503C2231.54 948.536 2243.2 953.401 2253.41 949.174L2294.25 932.256Z" fill="black"/>
<path d="M2240.65 831.981C2249.84 825.845 2252.33 813.403 2245.9 804.429C2230.73 783.297 2214.21 763.174 2196.44 744.186C2188.89 736.122 2176.2 736.148 2168.39 743.961L2137.14 775.232C2129.33 783.045 2129.37 795.682 2136.87 803.787C2150.79 818.818 2163.8 834.666 2175.83 851.244C2182.32 860.184 2194.71 862.679 2203.89 856.543L2240.65 831.981Z" fill="white"/>
<path d="M2168.52 744.09C2176.33 736.28 2176.36 723.59 2168.29 716.044C2149.3 698.276 2129.17 681.762 2108.03 666.607C2099.05 660.17 2086.61 662.672 2080.48 671.858L2055.93 708.625C2049.8 717.811 2052.3 730.198 2061.24 736.684C2077.82 748.711 2093.67 761.716 2108.71 775.629C2116.81 783.13 2129.45 783.161 2137.26 775.351L2168.52 744.09Z" fill="black"/>
<path d="M2080.63 671.96C2086.77 662.775 2084.31 650.325 2074.93 644.498C2052.84 630.777 2029.87 618.507 2006.19 607.767C1996.13 603.205 1984.41 608.086 1980.19 618.292L1963.28 659.142C1959.06 669.348 1963.93 681.01 1973.96 685.626C1992.57 694.187 2010.66 703.849 2028.12 714.561C2037.53 720.337 2049.93 717.903 2056.07 708.718L2080.63 671.96Z" fill="white"/>
<path d="M1980.36 618.362C1984.58 608.157 1979.75 596.425 1969.41 592.54C1945.06 583.393 1920.15 575.839 1894.82 569.926C1884.06 567.415 1873.53 574.487 1871.37 585.321L1862.76 628.684C1860.61 639.518 1867.66 650.006 1878.4 652.576C1898.33 657.342 1917.95 663.29 1937.16 670.39C1947.52 674.218 1959.21 669.411 1963.44 659.206L1980.36 618.362Z" fill="black"/>
<path d="M1871.55 585.357C1873.71 574.523 1866.68 563.959 1855.78 562.167C1830.11 557.946 1804.2 555.398 1778.21 554.539C1767.17 554.174 1758.21 563.166 1758.22 574.212L1758.23 618.421C1758.24 629.467 1767.2 638.378 1778.23 638.803C1798.7 639.591 1819.11 641.597 1839.34 644.812C1850.25 646.545 1860.77 639.55 1862.93 628.717L1871.55 585.357Z" fill="white"/>
<path d="M1418.99 814.801C1411.18 806.99 1398.48 806.964 1390.99 815.08C1355.57 853.454 1326.38 897.141 1304.48 944.55C1299.85 954.578 1304.73 966.297 1314.94 970.524L1356.51 987.745C1366.72 991.972 1378.37 987.102 1383.09 977.112C1400.61 939.975 1423.55 905.642 1451.15 875.24C1458.58 867.063 1458.62 854.431 1450.81 846.621L1418.99 814.801Z" fill="white"/>
<path d="M1278.4 1154.21C1267.35 1154.21 1258.36 1163.17 1258.8 1174.21C1260.89 1226.39 1271.14 1277.92 1289.18 1326.93C1292.99 1337.29 1304.73 1342.13 1314.94 1337.9L1356.51 1320.68C1366.72 1316.45 1371.51 1304.77 1367.78 1294.37C1353.92 1255.72 1345.86 1215.22 1343.88 1174.2C1343.35 1163.17 1334.45 1154.21 1323.4 1154.21H1278.4Z" fill="white"/>
<path d="M1418.99 1493.62C1411.18 1501.43 1411.15 1514.13 1419.27 1521.62C1457.64 1557.04 1501.33 1586.23 1548.74 1608.13C1558.77 1612.76 1570.49 1607.88 1574.71 1597.67L1591.93 1556.1C1596.16 1545.9 1591.29 1534.24 1581.3 1529.53C1544.16 1512 1509.83 1489.06 1479.43 1461.46C1471.25 1454.03 1458.62 1453.99 1450.81 1461.8L1418.99 1493.62Z" fill="white"/>
<path d="M1574.71 710.75C1570.48 700.545 1558.77 695.662 1548.74 700.293C1501.33 722.191 1457.64 751.382 1419.27 786.803C1411.15 794.295 1411.18 806.99 1418.99 814.801L1450.81 846.62C1458.62 854.431 1471.25 854.392 1479.43 846.966C1509.83 819.362 1544.16 796.422 1581.3 778.898C1591.29 774.184 1596.16 762.529 1591.93 752.324L1574.71 710.75Z" fill="black"/>
<path d="M1314.94 970.524C1304.73 966.297 1292.99 971.131 1289.18 981.496C1271.14 1030.5 1260.89 1082.04 1258.8 1134.22C1258.36 1145.25 1267.35 1154.21 1278.4 1154.21L1323.4 1154.21C1334.45 1154.21 1343.35 1145.25 1343.88 1134.22C1345.86 1093.2 1353.92 1052.71 1367.78 1014.05C1371.51 1003.66 1366.72 991.972 1356.51 987.745L1314.94 970.524Z" fill="black"/>
<path d="M1314.94 1337.9C1304.73 1342.13 1299.85 1353.85 1304.48 1363.87C1326.38 1411.28 1355.57 1454.97 1390.99 1493.34C1398.48 1501.46 1411.18 1501.43 1418.99 1493.62L1450.81 1461.8C1458.62 1453.99 1458.58 1441.36 1451.15 1433.18C1423.55 1402.78 1400.61 1368.45 1383.09 1331.31C1378.37 1321.32 1366.72 1316.45 1356.51 1320.68L1314.94 1337.9Z" fill="black"/>
<path d="M1574.71 1597.67C1570.48 1607.88 1575.32 1619.62 1585.68 1623.43C1634.69 1641.47 1686.22 1651.72 1738.4 1653.81C1749.44 1654.25 1758.4 1645.26 1758.4 1634.21L1758.4 1589.21C1758.4 1578.17 1749.44 1569.26 1738.41 1568.73C1697.39 1566.75 1656.89 1558.7 1618.24 1544.83C1607.84 1541.1 1596.16 1545.9 1591.93 1556.1L1574.71 1597.67Z" fill="black"/>
<path d="M1758.4 674.212C1758.4 663.166 1749.44 654.17 1738.4 654.612C1686.22 656.7 1634.69 666.951 1585.68 684.99C1575.32 688.805 1570.48 700.545 1574.71 710.75L1591.93 752.324C1596.16 762.529 1607.84 767.327 1618.24 763.596C1656.89 749.727 1697.39 741.672 1738.41 739.694C1749.44 739.162 1758.4 730.258 1758.4 719.212V674.212Z" fill="white"/>
<path d="M2097.81 1493.62C2105.62 1501.43 2118.32 1501.46 2125.81 1493.34C2161.23 1454.97 2190.42 1411.28 2212.32 1363.87C2216.95 1353.85 2212.07 1342.13 2201.86 1337.9L2160.29 1320.68C2150.08 1316.45 2138.43 1321.32 2133.71 1331.31C2116.19 1368.45 2093.25 1402.78 2065.65 1433.18C2058.22 1441.36 2058.18 1453.99 2065.99 1461.8L2097.81 1493.62Z" fill="black"/>
<path d="M2238.4 1154.21C2249.45 1154.21 2258.44 1145.25 2258 1134.22C2255.91 1082.04 2245.66 1030.5 2227.62 981.497C2223.81 971.131 2212.07 966.297 2201.86 970.524L2160.29 987.745C2150.08 991.972 2145.29 1003.66 2149.02 1014.05C2162.89 1052.71 2170.94 1093.2 2172.92 1134.22C2173.45 1145.25 2182.36 1154.21 2193.4 1154.21H2238.4Z" fill="black"/>
<path d="M2097.81 814.801C2105.62 806.99 2105.65 794.295 2097.53 786.803C2059.16 751.383 2015.47 722.192 1968.06 700.294C1958.03 695.662 1946.32 700.545 1942.09 710.75L1924.87 752.325C1920.64 762.53 1925.51 774.184 1935.5 778.898C1972.64 796.422 2006.97 819.362 2037.37 846.967C2045.55 854.392 2058.18 854.431 2065.99 846.621L2097.81 814.801Z" fill="black"/>
<path d="M1942.09 1597.67C1946.32 1607.88 1958.03 1612.76 1968.06 1608.13C2015.47 1586.23 2059.16 1557.04 2097.53 1521.62C2105.65 1514.13 2105.62 1501.43 2097.81 1493.62L2065.99 1461.8C2058.18 1453.99 2045.55 1454.03 2037.37 1461.46C2006.97 1489.06 1972.64 1512 1935.5 1529.53C1925.51 1534.24 1920.64 1545.9 1924.87 1556.1L1942.09 1597.67Z" fill="white"/>
<path d="M2201.86 1337.9C2212.07 1342.13 2223.81 1337.29 2227.62 1326.93C2245.66 1277.92 2255.91 1226.39 2258 1174.21C2258.44 1163.17 2249.45 1154.21 2238.4 1154.21L2193.4 1154.21C2182.36 1154.21 2173.45 1163.17 2172.92 1174.21C2170.94 1215.22 2162.89 1255.72 2149.02 1294.37C2145.29 1304.77 2150.08 1316.45 2160.29 1320.68L2201.86 1337.9Z" fill="white"/>
<path d="M2201.86 970.524C2212.07 966.297 2216.95 954.578 2212.32 944.55C2190.42 897.141 2161.23 853.454 2125.81 815.08C2118.32 806.964 2105.62 806.99 2097.81 814.801L2065.99 846.621C2058.18 854.431 2058.22 867.063 2065.65 875.24C2093.25 905.642 2116.19 939.975 2133.71 977.112C2138.43 987.102 2150.08 991.972 2160.29 987.745L2201.86 970.524Z" fill="white"/>
<path d="M1942.09 710.75C1946.32 700.545 1941.48 688.806 1931.12 684.99C1882.11 666.951 1830.58 656.7 1778.4 654.612C1767.36 654.17 1758.4 663.167 1758.4 674.212L1758.4 719.212C1758.4 730.258 1767.36 739.162 1778.39 739.694C1819.41 741.672 1859.91 749.728 1898.56 763.597C1908.96 767.327 1920.64 762.53 1924.87 752.325L1942.09 710.75Z" fill="white"/>
<path d="M1758.4 1634.21C1758.4 1645.26 1767.36 1654.25 1778.4 1653.81C1830.58 1651.72 1882.11 1641.47 1931.12 1623.43C1941.48 1619.62 1946.32 1607.88 1942.09 1597.67L1924.87 1556.1C1920.64 1545.9 1908.96 1541.1 1898.56 1544.83C1859.91 1558.7 1819.41 1566.75 1778.39 1568.73C1767.36 1569.26 1758.4 1578.17 1758.4 1589.21V1634.21Z" fill="black"/>
<path d="M1758.4 774.212C1758.4 763.166 1749.44 754.16 1738.41 754.712C1692.71 756.999 1647.69 767.112 1605.33 784.66C1562.96 802.208 1523.98 826.89 1490.05 857.586C1481.86 864.997 1481.89 877.701 1489.7 885.511L1523.54 919.347C1531.35 927.158 1543.97 927.104 1552.26 919.81C1577.96 897.208 1607.24 878.956 1638.95 865.824C1670.65 852.692 1704.26 844.895 1738.41 842.703C1749.44 841.996 1758.4 833.109 1758.4 822.063V774.212Z" fill="white"/>
<path d="M1378.4 1154.21C1367.35 1154.21 1358.35 1163.17 1358.9 1174.2C1361.19 1219.9 1371.3 1264.92 1388.85 1307.29C1406.4 1349.65 1431.08 1388.63 1461.77 1422.57C1469.18 1430.76 1481.89 1430.72 1489.7 1422.91L1523.54 1389.08C1531.35 1381.27 1531.29 1368.64 1524 1360.35C1501.4 1334.65 1483.14 1305.37 1470.01 1273.67C1456.88 1241.96 1449.08 1208.35 1446.89 1174.2C1446.18 1163.18 1437.3 1154.21 1426.25 1154.21H1378.4Z" fill="white"/>
<path d="M2138.4 1154.21C2149.45 1154.21 2158.45 1145.25 2157.9 1134.22C2155.62 1088.52 2145.5 1043.5 2127.95 1001.14C2110.41 958.775 2085.72 919.79 2055.03 885.859C2047.62 877.668 2034.91 877.701 2027.1 885.512L1993.27 919.347C1985.46 927.158 1985.51 939.781 1992.8 948.075C2015.41 973.776 2033.66 1003.05 2046.79 1034.76C2059.92 1066.46 2067.72 1100.07 2069.91 1134.23C2070.62 1145.25 2079.51 1154.21 2090.55 1154.21H2138.4Z" fill="black"/>
<path d="M1758.4 1534.21C1758.4 1545.26 1767.36 1554.27 1778.39 1553.71C1824.09 1551.43 1869.11 1541.31 1911.47 1523.77C1953.84 1506.22 1992.82 1481.54 2026.75 1450.84C2034.94 1443.43 2034.91 1430.72 2027.1 1422.91L1993.27 1389.08C1985.46 1381.27 1972.83 1381.32 1964.54 1388.62C1938.84 1411.22 1909.56 1429.47 1877.86 1442.6C1846.15 1455.73 1812.54 1463.53 1778.39 1465.72C1767.36 1466.43 1758.4 1475.32 1758.4 1486.36V1534.21Z" fill="black"/>
<path d="M1489.7 885.511C1481.89 877.701 1469.18 877.668 1461.77 885.859C1431.08 919.79 1406.4 958.775 1388.85 1001.14C1371.3 1043.5 1361.19 1088.52 1358.9 1134.22C1358.35 1145.25 1367.35 1154.21 1378.4 1154.21L1426.25 1154.21C1437.3 1154.21 1446.18 1145.25 1446.89 1134.23C1449.08 1100.07 1456.88 1066.46 1470.01 1034.76C1483.14 1003.05 1501.4 973.776 1524 948.075C1531.29 939.78 1531.35 927.158 1523.54 919.347L1489.7 885.511Z" fill="black"/>
<path d="M1489.7 1422.91C1481.89 1430.72 1481.86 1443.43 1490.05 1450.84C1523.98 1481.53 1562.96 1506.22 1605.33 1523.76C1647.69 1541.31 1692.71 1551.43 1738.41 1553.71C1749.44 1554.26 1758.4 1545.26 1758.4 1534.21L1758.4 1486.36C1758.4 1475.32 1749.44 1466.43 1738.41 1465.72C1704.26 1463.53 1670.65 1455.73 1638.95 1442.6C1607.24 1429.47 1577.96 1411.22 1552.26 1388.61C1543.97 1381.32 1531.35 1381.27 1523.54 1389.08L1489.7 1422.91Z" fill="black"/>
<path d="M2027.1 885.512C2034.91 877.701 2034.95 864.997 2026.75 857.587C1992.82 826.89 1953.84 802.208 1911.47 784.66C1869.11 767.113 1824.09 756.999 1778.39 754.712C1767.36 754.16 1758.4 763.167 1758.4 774.212L1758.4 822.063C1758.4 833.109 1767.36 841.996 1778.39 842.704C1812.54 844.895 1846.15 852.692 1877.86 865.824C1909.56 878.956 1938.84 897.208 1964.54 919.81C1972.83 927.104 1985.46 927.158 1993.27 919.347L2027.1 885.512Z" fill="white"/>
<path d="M2027.1 1422.91C2034.91 1430.72 2047.62 1430.76 2055.03 1422.57C2085.72 1388.63 2110.41 1349.65 2127.95 1307.29C2145.5 1264.92 2155.61 1219.9 2157.9 1174.2C2158.45 1163.17 2149.45 1154.21 2138.4 1154.21L2090.55 1154.21C2079.5 1154.21 2070.62 1163.18 2069.91 1174.2C2067.72 1208.35 2059.92 1241.96 2046.79 1273.67C2033.66 1305.37 2015.41 1334.65 1992.8 1360.35C1985.51 1368.64 1985.46 1381.27 1993.27 1389.08L2027.1 1422.91Z" fill="white"/>
<path d="M1758.4 874.212C1758.4 863.166 1749.44 854.143 1738.41 854.878C1705.86 857.052 1673.82 864.527 1643.59 877.048C1607.2 892.124 1574.13 914.222 1546.27 942.08C1518.41 969.937 1496.31 1003.01 1481.24 1039.41C1468.71 1069.64 1461.24 1101.67 1459.07 1134.23C1458.33 1145.25 1467.35 1154.21 1478.4 1154.21H1522.4C1533.45 1154.21 1542.3 1145.24 1543.33 1134.24C1545.32 1112.72 1550.54 1091.59 1558.84 1071.55C1569.7 1045.35 1585.61 1021.53 1605.66 1001.48C1625.72 981.419 1649.53 965.509 1675.74 954.654C1695.78 946.355 1716.91 941.135 1738.43 939.137C1749.43 938.116 1758.4 929.258 1758.4 918.212V874.212Z" fill="white"/>
<path d="M1758.4 1434.21C1758.4 1445.26 1767.36 1454.28 1778.39 1453.55C1810.94 1451.37 1842.98 1443.9 1873.2 1431.38C1909.6 1416.3 1942.67 1394.2 1970.53 1366.34C1998.39 1338.49 2020.49 1305.41 2035.56 1269.02C2048.09 1238.79 2055.56 1206.76 2057.73 1174.2C2058.47 1163.18 2049.45 1154.21 2038.4 1154.21H1994.4C1983.35 1154.21 1974.5 1163.19 1973.47 1174.18C1971.48 1195.7 1966.26 1216.84 1957.96 1236.87C1947.1 1263.08 1931.19 1286.89 1911.13 1306.95C1891.08 1327 1867.27 1342.92 1841.06 1353.77C1821.02 1362.07 1799.89 1367.29 1778.37 1369.29C1767.37 1370.31 1758.4 1379.17 1758.4 1390.21V1434.21Z" fill="black"/>
<path d="M1478.4 1154.21C1467.35 1154.21 1458.33 1163.18 1459.07 1174.2C1461.24 1206.76 1468.71 1238.79 1481.24 1269.02C1496.31 1305.41 1518.41 1338.49 1546.27 1366.34C1574.13 1394.2 1607.2 1416.3 1643.59 1431.38C1673.82 1443.9 1705.86 1451.37 1738.41 1453.55C1749.44 1454.28 1758.4 1445.26 1758.4 1434.21V1390.21C1758.4 1379.17 1749.43 1370.31 1738.43 1369.29C1716.91 1367.29 1695.78 1362.07 1675.74 1353.77C1649.53 1342.92 1625.72 1327 1605.66 1306.95C1585.61 1286.89 1569.7 1263.08 1558.84 1236.87C1550.54 1216.84 1545.32 1195.7 1543.33 1174.18C1542.3 1163.19 1533.45 1154.21 1522.4 1154.21H1478.4Z" fill="black"/>
<path d="M2038.4 1154.21C2049.45 1154.21 2058.47 1145.25 2057.73 1134.23C2055.56 1101.67 2048.09 1069.64 2035.56 1039.41C2020.49 1003.01 1998.39 969.937 1970.53 942.08C1942.67 914.222 1909.6 892.124 1873.2 877.048C1842.98 864.527 1810.94 857.052 1778.39 854.878C1767.36 854.142 1758.4 863.166 1758.4 874.212V918.212C1758.4 929.258 1767.37 938.116 1778.37 939.137C1799.89 941.135 1821.02 946.355 1841.06 954.654C1867.27 965.509 1891.08 981.419 1911.13 1001.48C1931.19 1021.53 1947.1 1045.35 1957.96 1071.55C1966.26 1091.59 1971.48 1112.72 1973.47 1134.24C1974.5 1145.24 1983.35 1154.21 1994.4 1154.21H2038.4Z" fill="white"/>
<path d="M1758.4 974.212C1758.4 963.166 1749.42 954.108 1738.43 955.211C1719.02 957.159 1699.96 961.942 1681.86 969.436C1657.6 979.487 1635.55 994.219 1616.98 1012.79C1598.41 1031.36 1583.67 1053.41 1573.62 1077.68C1563.57 1101.94 1558.4 1127.95 1558.4 1154.21C1558.4 1180.48 1563.57 1206.48 1573.62 1230.75C1583.67 1255.01 1598.41 1277.06 1616.98 1295.63C1635.55 1314.2 1657.6 1328.94 1681.86 1338.99C1699.96 1346.48 1719.02 1351.26 1738.43 1353.21C1749.42 1354.32 1758.4 1345.26 1758.4 1334.21V1284.21C1758.4 1273.17 1749.37 1264.4 1738.51 1262.4C1730.92 1261 1723.47 1258.81 1716.3 1255.84C1702.96 1250.31 1690.83 1242.21 1680.62 1231.99C1670.4 1221.78 1662.3 1209.65 1656.77 1196.31C1651.25 1182.96 1648.4 1168.66 1648.4 1154.21C1648.4 1139.77 1651.25 1125.46 1656.77 1112.12C1662.3 1098.77 1670.4 1086.64 1680.62 1076.43C1690.83 1066.22 1702.96 1058.11 1716.3 1052.59C1723.47 1049.62 1730.92 1047.42 1738.51 1046.03C1749.37 1044.03 1758.4 1035.26 1758.4 1024.21V974.212Z" fill="white"/>
<path d="M1758.4 1334.21C1758.4 1345.26 1767.38 1354.32 1778.37 1353.21C1797.78 1351.26 1816.84 1346.48 1834.94 1338.99C1859.2 1328.94 1881.25 1314.2 1899.82 1295.63C1918.39 1277.06 1933.12 1255.01 1943.18 1230.75C1953.23 1206.48 1958.4 1180.48 1958.4 1154.21C1958.4 1127.95 1953.23 1101.94 1943.18 1077.68C1933.12 1053.41 1918.39 1031.36 1899.82 1012.79C1881.25 994.219 1859.2 979.487 1834.94 969.436C1816.84 961.942 1797.78 957.159 1778.37 955.211C1767.38 954.108 1758.4 963.166 1758.4 974.212V1024.21C1758.4 1035.26 1767.43 1044.03 1778.29 1046.03C1785.88 1047.42 1793.33 1049.62 1800.5 1052.59C1813.84 1058.11 1825.97 1066.22 1836.18 1076.43C1846.4 1086.64 1854.5 1098.77 1860.03 1112.12C1865.55 1125.46 1868.4 1139.77 1868.4 1154.21C1868.4 1168.66 1865.55 1182.96 1860.03 1196.31C1854.5 1209.65 1846.4 1221.78 1836.18 1231.99C1825.97 1242.21 1813.84 1250.31 1800.5 1255.84C1793.33 1258.81 1785.88 1261 1778.29 1262.4C1767.43 1264.4 1758.4 1273.17 1758.4 1284.21V1334.21Z" fill="black"/>
<circle cx="1758.4" cy="1154.21" r="100" fill="url(#paint0_radial_610_183)"/>
<path d="M1758.4 474.212C1758.4 463.166 1749.44 454.182 1738.4 454.498C1728.72 454.774 1719.05 455.252 1709.39 455.93C1698.37 456.703 1690.34 466.526 1691.43 477.518L1695.07 514.338C1696.16 525.33 1705.95 533.325 1716.97 532.591C1724.11 532.115 1731.25 531.763 1738.4 531.533C1749.44 531.178 1758.4 522.258 1758.4 511.212V474.212Z" fill="white"/>
<path d="M1691.77 477.245C1690.68 466.253 1680.89 458.189 1669.93 459.586C1660.33 460.81 1650.75 462.233 1641.2 463.855C1630.31 465.705 1623.28 476.267 1625.44 487.099L1632.73 523.629C1634.89 534.461 1645.41 541.458 1656.31 539.647C1663.36 538.476 1670.42 537.426 1677.51 536.498C1688.46 535.063 1696.5 525.307 1695.42 514.314L1691.77 477.245Z" fill="black"/>
<path d="M1625.79 487.276C1623.64 476.442 1613.1 469.378 1602.33 471.841C1592.89 474.001 1583.5 476.357 1574.16 478.907C1563.5 481.815 1557.54 493.015 1560.76 503.583L1571.51 538.985C1574.72 549.554 1585.89 555.485 1596.55 552.615C1603.46 550.756 1610.4 549.016 1617.36 547.396C1628.12 544.895 1635.17 534.398 1633.01 523.565L1625.79 487.276Z" fill="white"/>
<path d="M1561.02 503.251C1557.82 492.681 1546.64 486.684 1536.16 490.191C1526.98 493.266 1517.86 496.531 1508.82 499.984C1498.5 503.923 1493.66 515.652 1497.9 525.855L1512.18 560.3C1516.41 570.503 1528.11 575.312 1538.44 571.41C1545.12 568.886 1551.85 566.478 1558.61 564.186C1569.07 560.642 1575.05 549.506 1571.85 538.936L1561.02 503.251Z" fill="black"/>
<path d="M1498.19 525.733C1493.97 515.528 1482.25 510.655 1472.17 515.172C1463.34 519.132 1454.58 523.275 1445.92 527.598C1436.03 532.53 1432.37 544.676 1437.59 554.415L1455.18 587.294C1460.39 597.033 1472.5 600.672 1482.4 595.776C1488.8 592.61 1495.26 589.555 1501.77 586.611C1511.83 582.058 1516.69 570.389 1512.46 560.184L1498.19 525.733Z" fill="white"/>
<path d="M1437.87 554.264C1432.66 544.523 1420.53 540.821 1410.94 546.304C1402.53 551.112 1394.23 556.093 1386.02 561.245C1376.67 567.121 1374.22 579.568 1380.36 588.75L1401.1 619.745C1407.24 628.926 1419.64 631.362 1429.01 625.519C1435.08 621.741 1441.2 618.067 1447.39 614.499C1456.96 608.982 1460.65 596.892 1455.45 587.151L1437.87 554.264Z" fill="black"/>
<path d="M1380.63 588.571C1374.49 579.387 1362.06 576.893 1353.05 583.289C1345.15 588.898 1337.38 594.669 1329.72 600.6C1320.99 607.365 1319.77 619.992 1326.78 628.527L1350.45 657.341C1357.46 665.876 1370.05 667.084 1378.8 660.351C1384.47 655.996 1390.2 651.74 1396.01 647.583C1404.99 641.154 1407.48 628.761 1401.35 619.577L1380.63 588.571Z" fill="white"/>
<path d="M1327.03 628.324C1320.02 619.785 1307.4 618.522 1299.07 625.771C1291.76 632.126 1284.58 638.632 1277.55 645.284C1269.52 652.872 1269.54 665.558 1277.36 673.365L1303.74 699.72C1311.55 707.527 1324.19 707.496 1332.25 699.936C1337.46 695.048 1342.75 690.25 1348.12 685.543C1356.43 678.265 1357.69 665.688 1350.69 657.149L1327.03 628.324Z" fill="black"/>
<path d="M1277.74 673.321C1269.93 665.511 1257.25 665.491 1249.66 673.521C1243.01 680.562 1236.51 687.74 1230.16 695.051C1222.91 703.389 1224.18 716.011 1232.72 723.014L1261.34 746.473C1269.88 753.477 1282.46 752.206 1289.73 743.894C1294.44 738.511 1299.24 733.21 1304.13 727.993C1311.69 719.936 1311.72 707.295 1303.91 699.484L1277.74 673.321Z" fill="white"/>
<path d="M1232.77 722.584C1224.23 715.576 1211.6 716.8 1204.84 725.535C1198.92 733.194 1193.15 740.975 1187.54 748.872C1181.15 757.881 1183.65 770.317 1192.84 776.45L1223.82 797.13C1233.01 803.262 1245.4 800.765 1251.82 791.78C1255.98 785.968 1260.23 780.228 1264.59 774.563C1271.32 765.804 1270.1 753.221 1261.56 746.214L1232.77 722.584Z" fill="black"/>
<path d="M1193.21 776.326C1184.03 770.189 1171.58 772.644 1165.71 782C1160.56 790.203 1155.59 798.511 1150.78 806.921C1145.3 816.512 1149.01 828.644 1158.76 833.846L1191.39 851.272C1201.14 856.475 1213.23 852.775 1218.74 843.203C1222.31 837.005 1225.98 830.869 1229.76 824.798C1235.6 815.422 1233.16 803.018 1223.98 796.882L1193.21 776.326Z" fill="white"/>
<path d="M1158.71 833.421C1148.97 828.214 1136.82 831.878 1131.9 841.764C1127.58 850.432 1123.44 859.188 1119.48 868.028C1114.97 878.11 1119.85 889.82 1130.06 894.042L1164.51 908.296C1174.72 912.519 1186.39 907.652 1190.94 897.586C1193.88 891.077 1196.93 884.619 1200.09 878.214C1204.98 868.311 1201.34 856.207 1191.6 851L1158.71 833.421Z" fill="black"/>
<path d="M1130.18 893.746C1119.97 889.519 1108.25 894.356 1104.31 904.677C1100.86 913.726 1097.6 922.847 1094.53 932.031C1091.03 942.507 1097.03 953.683 1107.6 956.884L1143.29 967.692C1153.87 970.893 1165 964.907 1168.54 954.443C1170.83 947.677 1173.23 940.951 1175.75 934.268C1179.65 923.932 1174.84 912.243 1164.63 908.016L1130.18 893.746Z" fill="white"/>
<path d="M1107.7 956.577C1097.13 953.371 1085.93 959.333 1083.03 969.991C1080.48 979.335 1078.13 988.731 1075.98 998.172C1073.52 1008.94 1080.59 1019.47 1091.42 1021.62L1128 1028.88C1138.83 1031.03 1149.33 1023.98 1151.82 1013.22C1153.44 1006.26 1155.17 999.335 1157.02 992.437C1159.89 981.769 1153.95 970.608 1143.38 967.402L1107.7 956.577Z" fill="black"/>
<path d="M1091.48 1021.31C1080.65 1019.15 1070.09 1026.19 1068.25 1037.08C1066.63 1046.62 1065.21 1056.21 1063.99 1065.81C1062.6 1076.77 1070.67 1086.56 1081.66 1087.64L1118.77 1091.28C1129.77 1092.35 1139.52 1084.31 1140.95 1073.36C1141.87 1066.27 1142.92 1059.21 1144.09 1052.16C1145.89 1041.26 1138.89 1030.74 1128.06 1028.58L1091.48 1021.31Z" fill="white"/>
<path d="M1081.69 1087.32C1070.7 1086.24 1060.88 1094.27 1060.11 1105.29C1059.44 1114.95 1058.97 1124.62 1058.69 1134.3C1058.38 1145.34 1067.37 1154.3 1078.42 1154.29L1115.71 1154.27C1126.75 1154.27 1135.67 1145.31 1136.02 1134.27C1136.24 1127.13 1136.59 1119.99 1137.07 1112.87C1137.79 1101.84 1129.79 1092.06 1118.8 1090.97L1081.69 1087.32Z" fill="black"/>
<path d="M1078.66 1153.99C1067.61 1153.99 1058.63 1162.94 1058.94 1173.99C1059.22 1183.67 1059.7 1193.34 1060.38 1203C1061.15 1214.02 1070.97 1222.05 1081.96 1220.96L1118.78 1217.32C1129.78 1216.23 1137.77 1206.44 1137.04 1195.41C1136.56 1188.28 1136.21 1181.13 1135.98 1173.99C1135.63 1162.95 1126.7 1153.99 1115.66 1153.99H1078.66Z" fill="white"/>
<path d="M1081.69 1220.62C1070.7 1221.71 1062.64 1231.5 1064.03 1242.46C1065.26 1252.06 1066.68 1261.64 1068.3 1271.19C1070.15 1282.08 1080.71 1289.11 1091.55 1286.95L1128.08 1279.66C1138.91 1277.5 1145.91 1266.97 1144.09 1256.08C1142.92 1249.03 1141.87 1241.96 1140.94 1234.88C1139.51 1223.93 1129.75 1215.89 1118.76 1216.97L1081.69 1220.62Z" fill="black"/>
<path d="M1091.72 1286.59C1080.89 1288.75 1073.82 1299.29 1076.29 1310.05C1078.45 1319.49 1080.8 1328.89 1083.35 1338.23C1086.26 1348.89 1097.46 1354.85 1108.03 1351.63L1143.43 1340.88C1154 1337.67 1159.93 1326.5 1157.06 1315.84C1155.2 1308.93 1153.46 1301.99 1151.84 1295.02C1149.34 1284.27 1138.85 1277.22 1128.01 1279.38L1091.72 1286.59Z" fill="white"/>
<path d="M1107.7 1351.36C1097.13 1354.57 1091.13 1365.75 1094.64 1376.22C1097.71 1385.41 1100.98 1394.53 1104.43 1403.57C1108.37 1413.89 1120.1 1418.72 1130.3 1414.49L1164.75 1400.21C1174.95 1395.97 1179.76 1384.28 1175.86 1373.95C1173.33 1367.27 1170.93 1360.54 1168.63 1353.78C1165.09 1343.32 1153.95 1337.33 1143.38 1340.54L1107.7 1351.36Z" fill="black"/>
<path d="M1130.18 1414.2C1119.97 1418.42 1115.1 1430.14 1119.62 1440.22C1123.58 1449.05 1127.72 1457.81 1132.05 1466.47C1136.98 1476.36 1149.12 1480.02 1158.86 1474.8L1191.74 1457.21C1201.48 1452 1205.12 1439.89 1200.22 1429.99C1197.06 1423.59 1194 1417.13 1191.06 1410.62C1186.51 1400.56 1174.84 1395.7 1164.63 1399.93L1130.18 1414.2Z" fill="white"/>
<path d="M1158.71 1474.52C1148.97 1479.73 1145.27 1491.86 1150.75 1501.45C1155.56 1509.86 1160.54 1518.16 1165.69 1526.36C1171.57 1535.72 1184.02 1538.17 1193.2 1532.03L1224.19 1511.29C1233.37 1505.15 1235.81 1492.75 1229.97 1483.37C1226.19 1477.31 1222.51 1471.19 1218.95 1465C1213.43 1455.43 1201.34 1451.74 1191.6 1456.94L1158.71 1474.52Z" fill="black"/>
<path d="M1193.02 1531.76C1183.83 1537.9 1181.34 1550.33 1187.74 1559.34C1193.34 1567.23 1199.12 1575.01 1205.05 1582.67C1211.81 1591.4 1224.44 1592.62 1232.97 1585.61L1261.79 1561.94C1270.32 1554.92 1271.53 1542.34 1264.8 1533.59C1260.44 1527.92 1256.19 1522.19 1252.03 1516.38C1245.6 1507.4 1233.21 1504.9 1224.02 1511.04L1193.02 1531.76Z" fill="white"/>
<path d="M1232.77 1585.36C1224.23 1592.37 1222.97 1604.99 1230.22 1613.32C1236.57 1620.63 1243.08 1627.81 1249.73 1634.84C1257.32 1642.87 1270 1642.84 1277.81 1635.03L1304.17 1608.65C1311.97 1600.84 1311.94 1588.19 1304.38 1580.14C1299.49 1574.93 1294.7 1569.64 1289.99 1564.27C1282.71 1555.96 1270.13 1554.69 1261.6 1561.7L1232.77 1585.36Z" fill="black"/>
<path d="M1277.93 1634.7C1270.12 1642.51 1270.1 1655.2 1278.13 1662.78C1285.17 1669.43 1292.35 1675.94 1299.66 1682.29C1308 1689.53 1320.62 1688.26 1327.63 1679.72L1351.09 1651.11C1358.09 1642.57 1356.82 1629.99 1348.51 1622.72C1343.12 1618.01 1337.82 1613.2 1332.61 1608.31C1324.55 1600.76 1311.91 1600.73 1304.1 1608.54L1277.93 1634.7Z" fill="white"/>
<path d="M1327.2 1679.68C1320.19 1688.22 1321.41 1700.84 1330.15 1707.6C1337.81 1713.53 1345.59 1719.3 1353.48 1724.9C1362.49 1731.29 1374.93 1728.79 1381.06 1719.61L1401.74 1688.63C1407.87 1679.44 1405.38 1667.05 1396.39 1660.62C1390.58 1656.47 1384.84 1652.21 1379.18 1647.86C1370.42 1641.13 1357.83 1642.34 1350.83 1650.88L1327.2 1679.68Z" fill="black"/>
<path d="M1380.94 1719.23C1374.8 1728.42 1377.26 1740.86 1386.61 1746.73C1394.81 1751.88 1403.12 1756.86 1411.53 1761.66C1421.12 1767.14 1433.26 1763.44 1438.46 1753.69L1455.88 1721.05C1461.09 1711.31 1457.39 1699.22 1447.82 1693.71C1441.62 1690.14 1435.48 1686.46 1429.41 1682.68C1420.03 1676.84 1407.63 1679.28 1401.49 1688.47L1380.94 1719.23Z" fill="white"/>
<path d="M1438.03 1753.74C1432.83 1763.48 1436.49 1775.62 1446.38 1780.55C1455.04 1784.87 1463.8 1789.01 1472.64 1792.96C1482.72 1797.48 1494.43 1792.6 1498.65 1782.39L1512.91 1747.93C1517.13 1737.73 1512.26 1726.06 1502.2 1721.51C1495.69 1718.57 1489.23 1715.52 1482.83 1712.35C1472.92 1707.46 1460.82 1711.11 1455.61 1720.85L1438.03 1753.74Z" fill="black"/>
<path d="M1498.36 1782.27C1494.13 1792.47 1498.97 1804.2 1509.29 1808.13C1518.34 1811.58 1527.46 1814.84 1536.64 1817.91C1547.12 1821.42 1558.29 1815.41 1561.5 1804.84L1572.3 1769.15C1575.5 1758.58 1569.52 1747.45 1559.06 1743.91C1552.29 1741.62 1545.56 1739.21 1538.88 1736.69C1528.54 1732.8 1516.86 1737.61 1512.63 1747.82L1498.36 1782.27Z" fill="white"/>
<path d="M1561.19 1804.75C1557.98 1815.32 1563.95 1826.52 1574.6 1829.42C1583.95 1831.96 1593.34 1834.32 1602.78 1836.47C1613.55 1838.93 1624.09 1831.86 1626.24 1821.03L1633.49 1784.45C1635.64 1773.61 1628.59 1763.12 1617.83 1760.62C1610.88 1759.01 1603.95 1757.28 1597.05 1755.42C1586.38 1752.56 1575.22 1758.49 1572.01 1769.06L1561.19 1804.75Z" fill="black"/>
<path d="M1625.92 1820.96C1623.77 1831.8 1630.8 1842.36 1641.69 1844.2C1651.24 1845.82 1660.82 1847.24 1670.42 1848.46C1681.38 1849.85 1691.17 1841.78 1692.25 1830.79L1695.89 1793.67C1696.96 1782.68 1688.92 1772.93 1677.97 1771.5C1670.89 1770.57 1663.82 1769.53 1656.77 1768.36C1645.88 1766.55 1635.35 1773.56 1633.2 1784.39L1625.92 1820.96Z" fill="white"/>
<path d="M1691.93 1830.75C1690.85 1841.75 1698.88 1851.57 1709.9 1852.33C1719.56 1853.01 1729.23 1853.48 1738.91 1853.75C1749.96 1854.06 1758.91 1845.07 1758.9 1834.03L1758.89 1796.74C1758.88 1785.69 1749.92 1776.78 1738.88 1776.43C1731.74 1776.2 1724.61 1775.85 1717.48 1775.38C1706.46 1774.65 1696.67 1782.65 1695.59 1793.64L1691.93 1830.75Z" fill="black"/>
<path d="M1758.6 1833.79C1758.6 1844.83 1767.56 1853.82 1778.6 1853.5C1788.28 1853.23 1797.95 1852.75 1807.61 1852.07C1818.63 1851.3 1826.66 1841.47 1825.57 1830.48L1821.93 1793.66C1820.84 1782.67 1811.05 1774.67 1800.03 1775.41C1792.89 1775.88 1785.75 1776.24 1778.6 1776.47C1767.56 1776.82 1758.6 1785.74 1758.6 1796.79V1833.79Z" fill="black"/>
<path d="M1825.23 1830.75C1826.32 1841.75 1836.11 1849.81 1847.07 1848.41C1856.67 1847.19 1866.25 1845.77 1875.8 1844.15C1886.69 1842.3 1893.72 1831.73 1891.56 1820.9L1884.27 1784.37C1882.11 1773.54 1871.59 1766.54 1860.69 1768.35C1853.64 1769.52 1846.58 1770.57 1839.49 1771.5C1828.54 1772.94 1820.5 1782.69 1821.58 1793.69L1825.23 1830.75Z" fill="white"/>
<path d="M1891.21 1820.72C1893.36 1831.56 1903.9 1838.62 1914.67 1836.16C1924.11 1834 1933.5 1831.64 1942.84 1829.09C1953.5 1826.19 1959.46 1814.99 1956.24 1804.42L1945.49 1769.02C1942.28 1758.45 1931.11 1752.51 1920.45 1755.39C1913.54 1757.24 1906.6 1758.98 1899.64 1760.6C1888.88 1763.11 1881.83 1773.6 1883.99 1784.44L1891.21 1820.72Z" fill="black"/>
<path d="M1955.98 1804.75C1959.18 1815.32 1970.36 1821.32 1980.84 1817.81C1990.02 1814.73 1999.14 1811.47 2008.18 1808.02C2018.5 1804.08 2023.34 1792.35 2019.1 1782.14L2004.82 1747.7C2000.59 1737.5 1988.89 1732.69 1978.56 1736.59C1971.88 1739.11 1965.15 1741.52 1958.39 1743.81C1947.93 1747.36 1941.95 1758.49 1945.15 1769.06L1955.98 1804.75Z" fill="white"/>
<path d="M2018.81 1782.27C2023.03 1792.47 2034.75 1797.35 2044.83 1792.83C2053.66 1788.87 2062.42 1784.73 2071.08 1780.4C2080.97 1775.47 2084.63 1763.32 2079.41 1753.58L2061.82 1720.71C2056.61 1710.97 2044.5 1707.33 2034.6 1712.22C2028.2 1715.39 2021.74 1718.45 2015.23 1721.39C2005.17 1725.94 2000.31 1737.61 2004.54 1747.82L2018.81 1782.27Z" fill="black"/>
<path d="M2079.13 1753.74C2084.34 1763.48 2096.47 1767.18 2106.06 1761.7C2114.47 1756.89 2122.77 1751.91 2130.98 1746.76C2140.33 1740.88 2142.78 1728.43 2136.64 1719.25L2115.9 1688.25C2109.76 1679.07 2097.36 1676.64 2087.99 1682.48C2081.92 1686.26 2075.8 1689.93 2069.61 1693.5C2060.04 1699.02 2056.35 1711.11 2061.55 1720.85L2079.13 1753.74Z" fill="white"/>
<path d="M2136.37 1719.43C2142.51 1728.61 2154.94 1731.11 2163.95 1724.71C2171.85 1719.1 2179.62 1713.33 2187.28 1707.4C2196.01 1700.64 2197.23 1688.01 2190.22 1679.47L2166.55 1650.66C2159.54 1642.12 2146.95 1640.92 2138.2 1647.65C2132.53 1652 2126.8 1656.26 2120.99 1660.42C2112.01 1666.85 2109.52 1679.24 2115.65 1688.42L2136.37 1719.43Z" fill="black"/>
<path d="M2189.97 1679.68C2196.98 1688.21 2209.6 1689.48 2217.93 1682.23C2225.24 1675.87 2232.42 1669.37 2239.45 1662.72C2247.48 1655.13 2247.46 1642.44 2239.64 1634.64L2213.26 1608.28C2205.45 1600.47 2192.81 1600.5 2184.75 1608.06C2179.54 1612.95 2174.25 1617.75 2168.88 1622.46C2160.57 1629.73 2159.31 1642.31 2166.31 1650.85L2189.97 1679.68Z" fill="white"/>
<path d="M2239.26 1634.68C2247.07 1642.49 2259.75 1642.51 2267.34 1634.48C2273.99 1627.44 2280.49 1620.26 2286.84 1612.95C2294.09 1604.61 2292.82 1591.99 2284.28 1584.99L2255.66 1561.53C2247.12 1554.52 2234.54 1555.79 2227.27 1564.11C2222.56 1569.49 2217.76 1574.79 2212.87 1580.01C2205.31 1588.06 2205.28 1600.71 2213.09 1608.52L2239.26 1634.68Z" fill="black"/>
<path d="M2284.23 1585.42C2292.77 1592.42 2305.4 1591.2 2312.16 1582.46C2318.08 1574.81 2323.85 1567.03 2329.46 1559.13C2335.85 1550.12 2333.35 1537.68 2324.16 1531.55L2293.18 1510.87C2283.99 1504.74 2271.6 1507.23 2265.18 1516.22C2261.02 1522.03 2256.77 1527.77 2252.41 1533.44C2245.68 1542.2 2246.9 1554.78 2255.44 1561.79L2284.23 1585.42Z" fill="white"/>
<path d="M2323.79 1531.67C2332.97 1537.81 2345.42 1535.36 2351.29 1526C2356.44 1517.8 2361.41 1509.49 2366.22 1501.08C2371.7 1491.49 2367.99 1479.36 2358.24 1474.15L2325.61 1456.73C2315.86 1451.53 2303.77 1455.22 2298.26 1464.8C2294.69 1470.99 2291.02 1477.13 2287.24 1483.2C2281.4 1492.58 2283.84 1504.98 2293.02 1511.12L2323.79 1531.67Z" fill="black"/>
<path d="M2358.29 1474.58C2368.03 1479.79 2380.18 1476.12 2385.1 1466.24C2389.42 1457.57 2393.56 1448.81 2397.52 1439.97C2402.03 1429.89 2397.15 1418.18 2386.94 1413.96L2352.49 1399.7C2342.28 1395.48 2330.61 1400.35 2326.06 1410.41C2323.12 1416.92 2320.07 1423.38 2316.91 1429.79C2312.02 1439.69 2315.66 1451.79 2325.4 1457L2358.29 1474.58Z" fill="white"/>
<path d="M2386.82 1414.25C2397.03 1418.48 2408.75 1413.64 2412.69 1403.32C2416.14 1394.27 2419.4 1385.15 2422.47 1375.97C2425.97 1365.49 2419.97 1354.32 2409.4 1351.12L2373.71 1340.31C2363.13 1337.11 2352 1343.09 2348.46 1353.56C2346.17 1360.32 2343.77 1367.05 2341.25 1373.73C2337.35 1384.07 2342.16 1395.76 2352.37 1399.98L2386.82 1414.25Z" fill="black"/>
<path d="M2409.3 1351.42C2419.87 1354.63 2431.07 1348.67 2433.97 1338.01C2436.52 1328.67 2438.87 1319.27 2441.02 1309.83C2443.48 1299.06 2436.41 1288.53 2425.58 1286.38L2389 1279.12C2378.17 1276.97 2367.67 1284.02 2365.18 1294.78C2363.56 1301.74 2361.83 1308.67 2359.98 1315.56C2357.11 1326.23 2363.05 1337.39 2373.62 1340.6L2409.3 1351.42Z" fill="white"/>
<path d="M2425.52 1286.69C2436.35 1288.85 2446.91 1281.81 2448.75 1270.92C2450.37 1261.38 2451.79 1251.79 2453.01 1242.19C2454.4 1231.23 2446.33 1221.44 2435.34 1220.36L2398.23 1216.72C2387.23 1215.65 2377.48 1223.69 2376.05 1234.64C2375.13 1241.73 2374.08 1248.79 2372.91 1255.84C2371.11 1266.74 2378.11 1277.26 2388.94 1279.42L2425.52 1286.69Z" fill="black"/>
<path d="M2435.31 1220.68C2446.3 1221.76 2456.12 1213.73 2456.89 1202.71C2457.56 1193.05 2458.03 1183.38 2458.31 1173.7C2458.62 1162.66 2449.63 1153.7 2438.58 1153.71L2401.29 1153.73C2390.25 1153.73 2381.33 1162.69 2380.98 1173.73C2380.76 1180.87 2380.41 1188.01 2379.93 1195.13C2379.21 1206.16 2387.21 1215.94 2398.2 1217.03L2435.31 1220.68Z" fill="white"/>
<path d="M2438.34 1154.01C2449.39 1154.01 2458.37 1145.06 2458.06 1134.01C2457.78 1124.33 2457.3 1114.66 2456.62 1105C2455.85 1093.98 2446.03 1085.95 2435.04 1087.04L2398.22 1090.68C2387.22 1091.77 2379.23 1101.56 2379.96 1112.59C2380.44 1119.72 2380.79 1126.87 2381.02 1134.01C2381.37 1145.05 2390.3 1154.01 2401.34 1154.01H2438.34Z" fill="black"/>
<path d="M2435.31 1087.38C2446.3 1086.29 2454.36 1076.5 2452.97 1065.54C2451.74 1055.94 2450.32 1046.36 2448.7 1036.81C2446.85 1025.92 2436.29 1018.89 2425.45 1021.05L2388.92 1028.34C2378.09 1030.5 2371.09 1041.03 2372.91 1051.92C2374.08 1058.97 2375.13 1066.04 2376.06 1073.12C2377.49 1084.07 2387.25 1092.11 2398.24 1091.03L2435.31 1087.38Z" fill="white"/>
<path d="M2425.28 1021.41C2436.11 1019.25 2443.18 1008.71 2440.71 997.946C2438.55 988.506 2436.2 979.111 2433.65 969.768C2430.74 959.112 2419.54 953.155 2408.97 956.366L2373.57 967.124C2363 970.335 2357.07 981.498 2359.94 992.164C2361.8 999.071 2363.54 1006.01 2365.16 1012.98C2367.66 1023.73 2378.15 1030.78 2388.99 1028.62L2425.28 1021.41Z" fill="black"/>
<path d="M2409.3 956.635C2419.87 953.429 2425.87 942.25 2422.36 931.776C2419.29 922.593 2416.02 913.474 2412.57 904.426C2408.63 894.107 2396.9 889.276 2386.7 893.508L2352.25 907.794C2342.05 912.026 2337.24 923.717 2341.14 934.051C2343.67 940.733 2346.07 947.458 2348.37 954.223C2351.91 964.685 2363.05 970.666 2373.62 967.46L2409.3 956.635Z" fill="white"/>
<path d="M2386.82 893.804C2397.03 889.577 2401.9 877.865 2397.38 867.785C2393.42 858.947 2389.28 850.192 2384.95 841.527C2380.02 831.643 2367.88 827.985 2358.14 833.196L2325.26 850.79C2315.52 856.002 2311.88 868.108 2316.78 878.009C2319.94 884.412 2323 890.869 2325.94 897.376C2330.49 907.44 2342.16 912.301 2352.37 908.074L2386.82 893.804Z" fill="black"/>
<path d="M2358.29 833.479C2368.03 828.272 2371.73 816.138 2366.25 806.55C2361.44 798.143 2356.46 789.836 2351.31 781.636C2345.43 772.283 2332.98 769.834 2323.8 775.975L2292.81 796.706C2283.63 802.847 2281.19 815.252 2287.03 824.626C2290.81 830.687 2294.49 836.813 2298.05 843.001C2303.57 852.571 2315.66 856.264 2325.4 851.057L2358.29 833.479Z" fill="white"/>
<path d="M2323.98 776.241C2333.17 770.105 2335.66 757.667 2329.26 748.661C2323.66 740.766 2317.88 732.988 2311.95 725.332C2305.19 716.6 2292.56 715.383 2284.03 722.394L2255.21 746.064C2246.68 753.075 2245.47 765.659 2252.2 774.415C2256.56 780.077 2260.81 785.813 2264.97 791.622C2271.4 800.604 2283.79 803.095 2292.98 796.958L2323.98 776.241Z" fill="black"/>
<path d="M2284.23 722.642C2292.77 715.634 2294.03 703.012 2286.78 694.677C2280.43 687.369 2273.92 680.194 2267.27 673.157C2259.68 665.13 2247 665.156 2239.19 672.97L2212.83 699.35C2205.03 707.165 2205.06 719.806 2212.62 727.859C2217.51 733.067 2222.3 738.359 2227.01 743.732C2234.29 752.041 2246.87 753.305 2255.4 746.298L2284.23 722.642Z" fill="white"/>
<path d="M2239.07 673.296C2246.88 665.486 2246.9 652.8 2238.87 645.216C2231.83 638.566 2224.65 632.064 2217.34 625.712C2209 618.468 2196.38 619.737 2189.37 628.278L2165.91 656.891C2158.91 665.433 2160.18 678.01 2168.49 685.284C2173.88 689.994 2179.18 694.796 2184.39 699.689C2192.45 707.244 2205.09 707.27 2212.9 699.459L2239.07 673.296Z" fill="black"/>
<path d="M2189.8 628.323C2196.81 619.785 2195.59 607.158 2186.85 600.398C2179.19 594.47 2171.41 588.703 2163.52 583.098C2154.51 576.706 2142.07 579.206 2135.94 588.393L2115.26 619.374C2109.13 628.561 2111.62 640.953 2120.61 647.377C2126.42 651.532 2132.16 655.787 2137.82 660.14C2146.58 666.869 2159.17 665.655 2166.17 657.117L2189.8 628.323Z" fill="white"/>
<path d="M2136.06 588.767C2142.2 579.583 2139.74 567.137 2130.39 561.265C2122.19 556.117 2113.88 551.14 2105.47 546.336C2095.88 540.858 2083.74 544.565 2078.54 554.309L2061.12 586.948C2055.91 596.692 2059.61 608.78 2069.18 614.292C2075.38 617.861 2081.52 621.537 2087.59 625.318C2096.97 631.157 2109.37 628.715 2115.51 619.531L2136.06 588.767Z" fill="black"/>
<path d="M2078.97 554.264C2084.17 544.523 2080.51 532.377 2070.62 527.451C2061.96 523.132 2053.2 518.993 2044.36 515.036C2034.28 510.524 2022.57 515.403 2018.35 525.61L2004.09 560.068C1999.87 570.275 2004.74 581.942 2014.8 586.49C2021.31 589.43 2027.77 592.483 2034.17 595.646C2044.08 600.537 2056.18 596.892 2061.39 587.151L2078.97 554.264Z" fill="white"/>
<path d="M2018.64 525.732C2022.87 515.528 2018.03 503.8 2007.71 499.866C1998.66 496.417 1989.54 493.156 1980.36 490.086C1969.88 486.584 1958.71 492.587 1955.5 503.158L1944.7 538.848C1941.5 549.419 1947.48 560.553 1957.94 564.092C1964.71 566.381 1971.44 568.786 1978.12 571.306C1988.46 575.203 2000.14 570.389 2004.37 560.184L2018.64 525.732Z" fill="black"/>
<path d="M1955.81 503.251C1959.02 492.681 1953.05 481.484 1942.4 478.581C1933.05 476.036 1923.66 473.684 1914.22 471.529C1903.45 469.07 1892.91 476.14 1890.76 486.974L1883.51 523.551C1881.36 534.385 1888.41 544.879 1899.17 547.375C1906.12 548.99 1913.05 550.724 1919.95 552.577C1930.62 555.442 1941.78 549.505 1944.99 538.935L1955.81 503.251Z" fill="white"/>
<path d="M1891.08 487.037C1893.23 476.203 1886.2 465.644 1875.31 463.8C1865.76 462.183 1856.18 460.764 1846.58 459.544C1835.62 458.153 1825.83 466.221 1824.75 477.214L1821.11 514.326C1820.04 525.319 1828.08 535.071 1839.03 536.501C1846.11 537.425 1853.18 538.472 1860.23 539.64C1871.12 541.446 1881.65 534.444 1883.8 523.61L1891.08 487.037Z" fill="black"/>
<path d="M1825.07 477.245C1826.15 466.253 1818.12 456.434 1807.1 455.666C1797.44 454.992 1787.77 454.519 1778.09 454.247C1767.04 453.937 1758.09 462.925 1758.1 473.971L1758.11 511.261C1758.12 522.307 1767.08 531.223 1778.12 531.573C1785.26 531.799 1792.39 532.147 1799.52 532.619C1810.54 533.348 1820.33 525.348 1821.41 514.356L1825.07 477.245Z" fill="white"/>
</g>
</g>
</g>
</g>
<defs>
<filter id="filter0_b_610_183" x="-9" y="-9" width="3535" height="2326" filterUnits="userSpaceOnUse" color-interpolation-filters="sRGB">
<feFlood flood-opacity="0" result="BackgroundImageFix"/>
<feGaussianBlur in="BackgroundImageFix" stdDeviation="4.5"/>
<feComposite in2="SourceAlpha" operator="in" result="effect1_backgroundBlur_610_183"/>
<feBlend mode="normal" in="SourceGraphic" in2="effect1_backgroundBlur_610_183" result="shape"/>
</filter>
<filter id="filter1_d_610_183" x="1033.69" y="429.239" width="1449.63" height="1449.52" filterUnits="userSpaceOnUse" color-interpolation-filters="sRGB">
<feFlood flood-opacity="0" result="BackgroundImageFix"/>
<feColorMatrix in="SourceAlpha" type="matrix" values="0 0 0 0 0 0 0 0 0 0 0 0 0 0 0 0 0 0 127 0" result="hardAlpha"/>
<feOffset/>
<feGaussianBlur stdDeviation="12.5"/>
<feComposite in2="hardAlpha" operator="out"/>
<feColorMatrix type="matrix" values="0 0 0 0 0.517057 0 0 0 0 0.517057 0 0 0 0 0.517057 0 0 0 1 0"/>
<feBlend mode="normal" in2="BackgroundImageFix" result="effect1_dropShadow_610_183"/>
<feBlend mode="normal" in="SourceGraphic" in2="effect1_dropShadow_610_183" result="shape"/>
</filter>
<radialGradient id="paint0_radial_610_183" cx="0" cy="0" r="1" gradientUnits="userSpaceOnUse" gradientTransform="translate(1758.4 1154.21) rotate(180) scale(100)">
<stop stop-color="white"/>
<stop offset="1"/>
</radialGradient>
<clipPath id="clip0_610_183">
<rect width="3517" height="2308" fill="white"/>
</clipPath>
<clipPath id="clip1_610_183">
<rect width="3517" height="2308" rx="29.3077" fill="white"/>
</clipPath>
</defs>
</svg>
