<svg width="790" height="640" viewBox="0 0 790 640" fill="none" xmlns="http://www.w3.org/2000/svg">
<g clip-path="url(#clip0_718_3)">
<mask id="mask0_718_3" style="mask-type:alpha" maskUnits="userSpaceOnUse" x="43" y="-128" width="835" height="768">
<path d="M460.402 640C690.609 640 877.228 468.211 877.228 256.299C877.228 44.3872 690.609 -127.401 460.402 -127.401C230.195 -127.401 43.5757 44.3872 43.5757 256.299C43.5757 468.211 230.195 640 460.402 640Z" fill="url(#paint0_radial_718_3)"/>
</mask>
<g mask="url(#mask0_718_3)">
<path d="M494.315 251.235L440.831 265.565V320.789L494.315 306.371V251.235Z" fill="#89B5FA" fill-opacity="0.05"/>
<path d="M385.879 168.247L332.396 182.577V237.799L385.879 223.382V168.247Z" fill="#89B5FA" fill-opacity="0.05"/>
<path d="M277.897 309.305L224.413 323.634V378.857L277.897 364.439V309.305Z" fill="#89B5FA" fill-opacity="0.05"/>
<path d="M386.165 392.286L332.682 406.616V461.838L386.165 447.421V392.286Z" fill="#89B5FA" fill-opacity="0.05"/>
<path d="M602.47 110.107L548.986 124.437V179.661L602.47 165.243V110.107Z" fill="#89B5FA" fill-opacity="0.05"/>
<path d="M439.853 41.8203L386.37 56.1499V111.373L439.853 96.9548V41.8203Z" fill="#89B5FA" fill-opacity="0.05"/>
<path d="M710.714 249.217L657.23 263.546V318.769L710.714 304.351V249.217Z" fill="#89B5FA" fill-opacity="0.05"/>
<path d="M602.603 390.339L549.119 404.668V459.891L602.603 445.473V390.339Z" fill="#89B5FA" fill-opacity="0.05"/>
<path d="M223.404 156.573L169.92 170.903V226.126L223.404 211.709V156.573Z" fill="#89B5FA" fill-opacity="0.05"/>
<path fill-rule="evenodd" clip-rule="evenodd" d="M440.941 -70.5771L889.295 -190.713L889.064 -191.574L440.941 -71.5V-78.4401H440.049V-71.2611L386.828 -57.0004V-78.4401H385.936V-56.7615L332.715 -42.5008V-78.4401H331.823V-42.262L278.602 -28.0014V-78.4401H277.71V-27.7625L224.489 -13.5018V-78.4401H223.597V-13.263L170.376 0.997738V-78.4401H169.484V1.23657L-29.1582 54.4626L-28.9274 55.3237L169.484 2.15937V57.2577L-15.1532 106.731L-14.9225 107.592L169.484 58.1804V113.279L-1.14768 159L-0.91691 159.861L169.484 114.201V169.302L12.8577 211.27L13.0885 212.131L169.484 170.225V225.325L26.8637 263.54L27.0944 264.401L169.484 226.248V281.346L40.8687 315.809L41.0994 316.67L169.484 282.269V337.367L54.8742 368.077L55.1049 368.938L169.484 338.29V393.39L68.8796 420.347L69.1103 421.208L169.484 394.313V449.412L82.8852 472.616L83.1159 473.477L169.484 450.334V505.432L96.8908 524.884L97.1215 525.745L169.484 506.356V561.454L110.896 577.152L111.127 578.013L169.484 562.377V617.477L124.902 629.423L125.132 630.284L169.484 618.399V622.547H170.376V618.16L223.597 603.9V622.547H224.489V603.661L277.71 589.401V622.547H278.602V589.162L331.823 574.901V622.547H332.715V574.662L385.936 560.402V615.5L138.907 681.692L139.137 682.552L385.936 616.422V622.547H386.828V616.183L440.049 601.923V622.547H440.941V601.684L494.162 587.423V622.547H495.054V587.185L548.275 572.924V622.547H549.167V572.685L602.388 558.425V613.524L152.913 733.961L153.143 734.822L602.388 614.448V622.547H603.28V614.209L656.501 599.948V622.547H657.393V599.709L710.614 585.448V622.547H711.506V585.209L764.727 570.949V622.547H765.619V570.71L818.84 556.449V622.547H819.732V556.211L872.953 541.95V622.547H873.845V541.711L1071.37 488.786L1071.14 487.925L873.845 540.788V485.688L1057.36 436.515L1057.13 435.654L873.845 484.765V429.667L1043.35 384.247L1043.12 383.386L873.845 428.744V373.644L1029.35 331.977L1029.12 331.116L873.845 372.721V317.622L1015.35 279.708L1015.11 278.847L873.845 316.7V261.601L1001.34 227.439L1001.11 226.578L873.845 260.679V205.581L987.33 175.172L987.098 174.311L873.845 204.657V149.557L973.326 122.901L973.094 122.04L873.845 148.635V93.536L959.323 70.6326L959.091 69.7717L873.845 92.6134V37.5149L945.32 18.3642L945.088 17.5032L873.845 36.5922V-18.5081L931.311 -33.9059L931.08 -34.767L873.845 -19.4309V-74.5311L917.305 -86.1762L917.074 -87.0372L873.845 -75.4539V-78.4401H872.953V-75.215L819.732 -60.9543V-78.4401H818.84V-60.7155L765.619 -46.4548V-78.4401H764.727V-46.216L711.506 -31.9553V-78.4401H710.614V-31.7164L657.393 -17.4557V-72.5541L903.3 -138.444L903.069 -139.305L657.393 -73.4769V-78.4401H656.501V-73.2381L603.28 -58.9774V-78.4401H602.388V-58.7386L549.167 -44.4779V-78.4401H548.275V-44.239L495.054 -29.9783V-78.4401H494.162V-29.7395L440.941 -15.4788V-70.5771ZM440.049 -70.3383L386.828 -56.0776V-0.979285L440.049 -15.24V-70.3383ZM385.936 -55.8388L332.715 -41.5781V13.5203L385.936 -0.740435V-55.8388ZM331.823 -41.3392L278.602 -27.0785V28.0198L331.823 13.7591V-41.3392ZM277.71 -26.8396L224.489 -12.579V42.5193L277.71 28.2587V-26.8396ZM223.597 -12.3402L170.376 1.92053V57.0188L223.597 42.7581V-12.3402ZM603.28 -58.0546L656.501 -72.3153V-17.2169L603.28 -2.9562V-58.0546ZM549.167 -43.5551L602.388 -57.8157V-2.71736L549.167 11.5433V-43.5551ZM495.054 -29.0556L548.275 -43.3162V11.7821L495.054 26.0429V-29.0556ZM440.941 -14.556L494.162 -28.8167V26.2817L440.941 40.5424V-14.556ZM386.828 -0.0564874L440.049 -14.3172V40.7812L386.828 55.0419V-0.0564874ZM332.715 14.443L385.936 0.182362V55.2807L332.715 69.5414V14.443ZM278.602 28.9426L331.823 14.6819V69.7803L278.602 84.041V28.9426ZM224.489 43.4421L277.71 29.1814V84.2798L224.489 98.5401V43.4421ZM170.376 57.9416L223.597 43.681V98.779L170.376 113.04V57.9416ZM872.953 -74.2923L819.732 -60.0315V-4.93138L872.953 -19.1921V-74.2923ZM818.84 -59.7927L765.619 -45.532V9.56816L818.84 -4.69253V-59.7927ZM764.727 -45.2931L711.506 -31.0325V24.0677L764.727 9.80696V-45.2931ZM710.614 -30.7936L657.393 -16.533V38.5672L710.614 24.3065V-30.7936ZM656.501 -16.2941L603.28 -2.0334V53.0668L656.501 38.8061V-16.2941ZM602.388 -1.79456L549.167 12.4662V67.5663L602.388 53.3056V-1.79456ZM548.275 12.705L495.054 26.9656V82.0658L548.275 67.8051V12.705ZM494.162 27.2045L440.941 41.4652V96.5657L494.162 82.3046V27.2045ZM440.049 41.704L386.828 55.9647V111.065L440.049 96.8046V41.704ZM385.936 56.2036L332.715 70.4642V125.564L385.936 111.304V56.2036ZM331.823 70.7031L278.602 84.9637V140.064L331.823 125.803V70.7031ZM277.71 85.2026L224.489 99.4636V154.563L277.71 140.302V85.2026ZM223.597 99.7024L170.376 113.962V169.063L223.597 154.802V99.7024ZM819.732 -4.00855L872.953 -18.2693V36.831L819.732 51.0917V-4.00855ZM765.619 10.491L818.84 -3.76971V51.3306L765.619 65.5913V10.491ZM711.506 24.9905L764.727 10.7298V65.83L711.506 80.0907V24.9905ZM657.393 39.49L710.614 25.2294V80.3296L657.393 94.5905V39.49ZM603.28 53.9896L656.501 39.7288V94.8293L603.28 109.089V53.9896ZM549.167 68.4891L602.388 54.2284V109.328L549.167 123.589V68.4891ZM495.054 82.9886L548.275 68.728V123.828L495.054 138.089V82.9886ZM440.941 97.4883L494.162 83.2274V138.328L440.941 152.588V97.4883ZM386.828 111.987L440.049 97.7272V152.827L386.828 167.088V111.987ZM332.715 126.487L385.936 112.226V167.327L332.715 181.588V126.487ZM278.602 140.987L331.823 126.726V181.827L278.602 196.087V140.987ZM224.489 155.486L277.71 141.226V196.326L224.489 210.586V155.486ZM170.376 169.986L223.597 155.725V210.825L170.376 225.086V169.986ZM170.376 226.009V281.107L223.597 266.847V211.748L170.376 226.009ZM224.489 211.509V266.608L277.71 252.347V197.249L224.489 211.509ZM278.602 197.01V252.108L331.823 237.847V182.749L278.602 197.01ZM332.715 182.51V237.608L385.936 223.348V168.249L332.715 182.51ZM386.828 168.01V223.109L440.049 208.848V153.75L386.828 168.01ZM440.941 153.511V208.609L494.162 194.348V139.251L440.941 153.511ZM495.054 139.012V194.11L548.275 179.85V124.751L495.054 139.012ZM549.167 124.512V179.611L602.388 165.35V110.252L549.167 124.512ZM603.28 110.013V165.111L656.501 150.85V95.7519L603.28 110.013ZM657.393 95.513V150.611L710.614 136.351V81.2524L657.393 95.513ZM711.506 81.0135V136.112L764.727 121.851V66.7529L711.506 81.0135ZM765.619 66.5141V121.612L818.84 107.351V52.2533L765.619 66.5141ZM819.732 52.0145V107.112L872.953 92.8523V37.7538L819.732 52.0145ZM819.732 108.036L872.953 93.7749V148.874L819.732 163.134V108.036ZM765.619 122.535L818.84 108.275V163.373L765.619 177.634V122.535ZM711.506 137.035L764.727 122.774V177.872L711.506 192.133V137.035ZM657.393 151.534L710.614 137.273V192.372L657.393 206.632V151.534ZM603.28 166.033L656.501 151.773V206.871L603.28 221.132V166.033ZM549.167 180.533L602.388 166.272V221.371L549.167 235.632V180.533ZM495.054 195.033L548.275 180.772V235.87L495.054 250.131V195.033ZM440.941 209.532L494.162 195.272V250.37L440.941 264.631V209.532ZM386.828 224.032L440.049 209.771V264.87L386.828 279.131V224.032ZM332.715 238.532L385.936 224.271V279.369L332.715 293.63V238.532ZM278.602 253.031L331.823 238.771V293.868L278.602 308.129V253.031ZM224.489 267.53L277.71 253.269V308.368L224.489 322.629V267.53ZM170.376 282.03L223.597 267.769V322.867L170.376 337.128V282.03ZM170.376 338.051V393.151L223.597 378.89V323.791L170.376 338.051ZM224.489 323.552V378.652L277.71 364.391V309.291L224.489 323.552ZM278.602 309.052V364.153L331.823 349.892V294.791L278.602 309.052ZM332.715 294.552V349.653L385.936 335.392V280.292L332.715 294.552ZM386.828 280.053V335.153L440.049 320.893V265.792L386.828 280.053ZM440.941 265.553V320.654L494.162 306.393V251.292L440.941 265.553ZM495.054 251.054V306.154L548.275 291.893V236.793L495.054 251.054ZM549.167 236.555V291.654L602.388 277.394V222.294L549.167 236.555ZM603.28 222.055V277.155L656.501 262.894V207.794L603.28 222.055ZM657.393 207.556V262.656L710.614 248.395V193.295L657.393 207.556ZM711.506 193.056V248.156L764.727 233.896V178.795L711.506 193.056ZM765.619 178.556V233.657L818.84 219.396V164.295L765.619 178.556ZM819.732 164.057V219.157L872.953 204.896V149.796L819.732 164.057ZM819.732 220.079L872.953 205.819V260.917L819.732 275.178V220.079ZM765.619 234.579L818.84 220.318V275.417L765.619 289.677V234.579ZM711.506 249.079L764.727 234.818V289.916L711.506 304.177V249.079ZM657.393 263.578L710.614 249.318V304.416L657.393 318.677V263.578ZM603.28 278.078L656.501 263.817V318.916L603.28 333.176V278.078ZM549.167 292.578L602.388 278.317V333.415L549.167 347.676V292.578ZM495.054 307.077L548.275 292.817V347.915L495.054 362.176V307.077ZM440.941 321.577L494.162 307.316V362.414L440.941 376.675V321.577ZM386.828 336.076L440.049 321.815V376.913L386.828 391.174V336.076ZM332.715 350.575L385.936 336.315V391.413L332.715 405.674V350.575ZM278.602 365.075L331.823 350.814V405.913L278.602 420.173V365.075ZM224.489 379.575L277.71 365.314V420.412L224.489 434.673V379.575ZM170.376 394.074L223.597 379.814V434.912L170.376 449.173V394.074ZM170.376 450.095V505.194L223.597 490.933V435.834L170.376 450.095ZM224.489 435.595V490.694L277.71 476.433V421.335L224.489 435.595ZM278.602 421.097V476.195L331.823 461.934V406.836L278.602 421.097ZM332.715 406.597V461.696L385.936 447.435V392.336L332.715 406.597ZM386.828 392.097V447.196L440.049 432.935V377.837L386.828 392.097ZM440.941 377.598V432.696L494.162 418.436V363.337L440.941 377.598ZM495.054 363.098V418.197L548.275 403.936V348.837L495.054 363.098ZM549.167 348.598V403.697L602.388 389.436V334.338L549.167 348.598ZM603.28 334.099V389.197L656.501 374.937V319.838L603.28 334.099ZM657.393 319.6V374.698L710.614 360.437V305.339L657.393 319.6ZM711.506 305.1V360.199L764.727 345.938V290.84L711.506 305.1ZM765.619 290.601V345.699L818.84 331.439V276.34L765.619 290.601ZM819.732 276.101V331.2L872.953 316.939V261.84L819.732 276.101ZM819.732 332.122L872.953 317.861V372.96L819.732 387.22V332.122ZM765.619 346.622L818.84 332.361V387.459L765.619 401.72V346.622ZM711.506 361.121L764.727 346.861V401.959L711.506 416.22V361.121ZM657.393 375.621L710.614 361.36V416.459L657.393 430.719V375.621ZM603.28 390.121L656.501 375.86V430.958L603.28 445.219V390.121ZM549.167 404.62L602.388 390.36V445.458L549.167 459.719V404.62ZM495.054 419.12L548.275 404.859V459.957L495.054 474.217V419.12ZM440.941 433.619L494.162 419.358V474.456L440.941 488.717V433.619ZM386.828 448.118L440.049 433.857V488.956L386.828 503.217V448.118ZM332.715 462.618L385.936 448.357V503.456L332.715 517.716V462.618ZM278.602 477.118L331.823 462.857V517.955L278.602 532.216V477.118ZM224.489 491.617L277.71 477.356V532.455L224.489 546.716V491.617ZM170.376 506.117L223.597 491.856V546.955L170.376 561.215V506.117ZM170.376 562.138V617.238L223.597 602.977V547.877L170.376 562.138ZM224.489 547.638V602.738L277.71 588.478V533.377L224.489 547.638ZM278.602 533.138V588.239L331.823 573.978V518.878L278.602 533.138ZM332.715 518.64V573.739L385.936 559.478V504.379L332.715 518.64ZM386.828 504.14V559.239L440.049 544.979V489.879L386.828 504.14ZM440.941 489.64V544.74L494.162 530.48V475.38L440.941 489.64ZM495.054 475.141V530.241L548.275 515.98V460.88L495.054 475.141ZM549.167 460.641V515.741L602.388 501.481V446.38L549.167 460.641ZM603.28 446.141V501.242L656.501 486.981V431.881L603.28 446.141ZM657.393 431.642V486.742L710.614 472.481V417.381L657.393 431.642ZM711.506 417.142V472.242L764.727 457.982V402.882L711.506 417.142ZM765.619 402.643V457.743L818.84 443.482V388.383L765.619 402.643ZM819.732 388.144V443.243L872.953 428.982V373.883L819.732 388.144ZM386.828 615.261V560.163L440.049 545.902V601L386.828 615.261ZM440.941 600.761V545.663L494.162 531.402V586.501L440.941 600.761ZM495.054 586.262V531.163L548.275 516.903V572.001L495.054 586.262ZM549.167 571.762V516.664L602.388 502.403V557.501L549.167 571.762ZM603.28 557.263V502.164L656.501 487.903V543.002L603.28 557.263ZM657.393 542.763V487.665L710.614 473.405V528.502L657.393 542.763ZM711.506 528.264V473.166L764.727 458.905V514.003L711.506 528.264ZM765.619 513.765V458.666L818.84 444.405V499.504L765.619 513.765ZM819.732 499.265V444.166L872.953 429.906V485.004L819.732 499.265ZM603.28 558.186V613.286L656.501 599.025V543.925L603.28 558.186ZM657.393 543.686V598.787L710.614 584.526V529.425L657.393 543.686ZM711.506 529.186V584.287L764.727 570.026V514.926L711.506 529.186ZM765.619 514.687V569.787L818.84 555.527V500.426L765.619 514.687ZM819.732 500.187V555.288L872.953 541.027V485.926L819.732 500.187Z" fill="#89B5FA" fill-opacity="0.1"/>
</g>
</g>
<defs>
<radialGradient id="paint0_radial_718_3" cx="0" cy="0" r="1" gradientUnits="userSpaceOnUse" gradientTransform="translate(460.402 256.299) rotate(90) scale(383.701 416.826)">
<stop stop-color="#D9D9D9"/>
<stop offset="1" stop-opacity="0"/>
</radialGradient>
<clipPath id="clip0_718_3">
<rect width="790" height="640" fill="white"/>
</clipPath>
</defs>
</svg>
