<svg width="1346" height="314" viewBox="0 0 1346 314" fill="none" xmlns="http://www.w3.org/2000/svg">
<g clip-path="url(#clip0_34_3)">
<g opacity="0.5">
<path d="M76.8231 239C58.6402 239 44.8893 234.568 35.5706 225.704C26.4791 216.84 21.9334 203.543 21.9334 185.815V106.378H0.113892V69.8986H21.9334V28.6461H65.5724V69.8986H104.098V106.378H65.5724V186.156C65.5724 192.52 67.2771 196.838 70.6864 199.111C74.0957 201.384 78.5278 202.52 83.9826 202.52H104.098V239H76.8231ZM129.867 239V0.348877H173.165V89.6726C179.075 81.7175 186.916 75.8081 196.689 71.9442C206.69 67.853 216.691 65.8075 226.691 65.8075C246.238 65.8075 262.262 72.1715 274.762 84.8995C287.263 97.4003 293.514 115.583 293.514 139.448V239H250.215V145.244C250.215 132.516 246.92 122.288 240.328 114.561C233.964 106.606 224.532 102.628 212.031 102.628C199.53 102.628 189.871 106.606 183.052 114.561C176.461 122.288 173.165 132.516 173.165 145.244V239H129.867ZM402.108 243.091C384.379 243.091 369.038 239.227 356.082 231.5C343.354 223.772 333.467 213.203 326.421 199.793C319.375 186.383 315.852 171.269 315.852 154.449C315.852 136.494 319.489 120.925 326.762 107.742C334.035 94.5592 344.15 84.3313 357.105 77.0581C370.06 69.5577 385.061 65.8075 402.108 65.8075C418.927 65.8075 433.587 69.444 446.088 76.7172C458.816 83.9904 468.703 93.991 475.749 106.719C483.022 119.447 486.658 134.107 486.658 150.699C486.658 153.654 486.545 156.609 486.317 159.563C486.09 162.291 485.749 164.905 485.295 167.405H359.832C360.514 175.36 362.56 182.406 365.969 188.542C369.606 194.452 374.379 199.111 380.288 202.52C386.425 205.703 393.357 207.294 401.085 207.294C409.04 207.294 415.859 205.589 421.541 202.18C427.45 198.77 432.11 193.543 435.519 186.497H482.226C479.044 196.497 473.93 205.816 466.884 214.453C459.839 223.09 450.861 230.022 439.951 235.25C429.268 240.477 416.654 243.091 402.108 243.091ZM360.173 138.426H441.656C441.428 127.061 437.224 118.083 429.041 111.492C421.086 104.901 411.654 101.605 400.744 101.605C391.425 101.605 382.788 104.56 374.833 110.469C366.878 116.152 361.992 125.47 360.173 138.426ZM657.534 243.091C644.805 243.091 632.873 240.818 621.736 236.273C610.599 231.5 601.394 224.795 594.121 216.158C587.075 207.521 583.211 197.407 582.529 185.815H626.168C627.304 193.088 630.827 198.77 636.737 202.861C642.874 206.953 649.692 208.998 657.193 208.998C663.557 208.998 669.466 207.634 674.921 204.907C680.603 201.952 683.444 197.407 683.444 191.27C683.444 186.497 681.399 182.747 677.307 180.019C673.216 177.292 668.443 175.132 662.988 173.541C657.534 171.95 652.533 170.587 647.988 169.45C636.623 166.723 626.282 163.541 616.963 159.904C607.644 156.04 600.257 150.813 594.802 144.221C589.348 137.403 586.62 128.425 586.62 117.288C586.62 106.378 589.688 97.0594 595.825 89.3316C602.189 81.6039 610.485 75.8081 620.713 71.9442C631.168 67.853 642.419 65.8075 654.465 65.8075C673.33 65.8075 689.24 70.5805 702.195 80.1265C715.151 89.6726 722.197 103.764 723.333 122.402H682.081C681.399 115.129 678.33 109.674 672.875 106.037C667.648 102.173 661.056 100.241 653.101 100.241C646.737 100.241 641.055 101.378 636.055 103.651C631.055 105.924 628.554 110.242 628.554 116.606C628.554 121.152 630.6 124.902 634.691 127.857C638.782 130.584 643.669 132.857 649.351 134.675C655.033 136.266 660.034 137.63 664.352 138.767C676.171 141.721 686.513 145.131 695.377 148.994C704.468 152.858 711.628 158.086 716.855 164.677C722.083 171.269 724.81 180.133 725.038 191.27C725.038 202.407 721.856 211.839 715.492 219.567C709.355 227.295 701.173 233.204 690.945 237.295C680.717 241.159 669.58 243.091 657.534 243.091ZM814.617 239C796.434 239 782.683 234.568 773.364 225.704C764.273 216.84 759.727 203.543 759.727 185.815V106.378H737.908V69.8986H759.727V28.6461H803.366V69.8986H841.891V106.378H803.366V186.156C803.366 192.52 805.071 196.838 808.48 199.111C811.89 201.384 816.322 202.52 821.777 202.52H841.891V239H814.617ZM945.838 243.091C928.791 243.091 913.563 239.455 900.153 232.181C886.971 224.681 876.629 214.226 869.129 200.816C861.628 187.406 857.878 171.95 857.878 154.449C857.878 136.039 861.855 120.243 869.81 107.06C877.993 93.6501 888.789 83.4222 902.199 76.3763C915.836 69.3304 930.837 65.8075 947.201 65.8075C964.248 65.8075 979.476 69.5577 992.886 77.0581C1006.3 84.3313 1016.86 94.5592 1024.59 107.742C1032.55 120.925 1036.53 136.494 1036.53 154.449C1036.53 171.496 1032.66 186.724 1024.93 200.134C1017.21 213.544 1006.52 224.113 992.886 231.84C979.476 239.341 963.793 243.091 945.838 243.091ZM946.52 205.248C955.611 205.248 963.452 202.975 970.044 198.429C976.862 193.656 982.204 187.406 986.068 179.678C989.931 171.723 991.863 163.086 991.863 153.768C991.863 143.085 989.704 133.994 985.386 126.493C981.294 118.993 975.84 113.31 969.021 109.447C962.202 105.583 954.702 103.651 946.52 103.651C937.655 103.651 929.814 105.81 922.995 110.128C916.404 114.447 911.177 120.47 907.313 128.198C903.676 135.698 901.858 144.449 901.858 154.449C901.858 164.45 903.79 173.314 907.654 181.042C911.745 188.77 917.2 194.793 924.018 199.111C930.837 203.202 938.337 205.248 946.52 205.248ZM1061.76 239V69.8986H1105.06V95.1274C1110.97 85.5814 1118.47 78.3082 1127.56 73.3079C1136.66 68.3076 1146.77 65.8075 1157.91 65.8075V111.492H1146.32C1132.45 111.492 1122.11 114.788 1115.29 121.379C1108.47 127.97 1105.06 138.994 1105.06 154.449V239H1061.76ZM1193.98 314.005L1231.14 231.159L1162.61 69.8986H1211.36L1255 185.133L1299.66 69.8986H1345.69L1240 314.005H1193.98Z" fill="url(#paint0_linear_34_3)" fill-opacity="0.1"/>
<mask id="mask0_34_3" style="mask-type:luminance" maskUnits="userSpaceOnUse" x="-1" y="-1" width="1349" height="317">
<g opacity="0.5">
<path d="M1348 -1H-1V316H1348V-1Z" fill="white"/>
<path d="M76.8231 239C58.6402 239 44.8893 234.568 35.5706 225.704C26.4791 216.84 21.9334 203.543 21.9334 185.815V106.378H0.113892V69.8986H21.9334V28.6461H65.5724V69.8986H104.098V106.378H65.5724V186.156C65.5724 192.52 67.2771 196.838 70.6864 199.111C74.0957 201.384 78.5278 202.52 83.9826 202.52H104.098V239H76.8231ZM129.867 239V0.348877H173.165V89.6726C179.075 81.7175 186.916 75.8081 196.689 71.9442C206.69 67.853 216.691 65.8075 226.691 65.8075C246.238 65.8075 262.262 72.1715 274.762 84.8995C287.263 97.4003 293.514 115.583 293.514 139.448V239H250.215V145.244C250.215 132.516 246.92 122.288 240.328 114.561C233.964 106.606 224.532 102.628 212.031 102.628C199.53 102.628 189.871 106.606 183.052 114.561C176.461 122.288 173.165 132.516 173.165 145.244V239H129.867ZM402.108 243.091C384.379 243.091 369.038 239.227 356.082 231.5C343.354 223.772 333.467 213.203 326.421 199.793C319.375 186.383 315.852 171.269 315.852 154.449C315.852 136.494 319.489 120.925 326.762 107.742C334.035 94.5592 344.15 84.3313 357.105 77.0581C370.06 69.5577 385.061 65.8075 402.108 65.8075C418.927 65.8075 433.587 69.444 446.088 76.7172C458.816 83.9904 468.703 93.991 475.749 106.719C483.022 119.447 486.658 134.107 486.658 150.699C486.658 153.654 486.545 156.609 486.317 159.563C486.09 162.291 485.749 164.905 485.295 167.405H359.832C360.514 175.36 362.56 182.406 365.969 188.542C369.606 194.452 374.379 199.111 380.288 202.52C386.425 205.703 393.357 207.294 401.085 207.294C409.04 207.294 415.859 205.589 421.541 202.18C427.45 198.77 432.11 193.543 435.519 186.497H482.226C479.044 196.497 473.93 205.816 466.884 214.453C459.839 223.09 450.861 230.022 439.951 235.25C429.268 240.477 416.654 243.091 402.108 243.091ZM360.173 138.426H441.656C441.428 127.061 437.224 118.083 429.041 111.492C421.086 104.901 411.654 101.605 400.744 101.605C391.425 101.605 382.788 104.56 374.833 110.469C366.878 116.152 361.992 125.47 360.173 138.426ZM657.534 243.091C644.805 243.091 632.873 240.818 621.736 236.273C610.599 231.5 601.394 224.795 594.121 216.158C587.075 207.521 583.211 197.407 582.529 185.815H626.168C627.304 193.088 630.827 198.77 636.737 202.861C642.874 206.953 649.692 208.998 657.193 208.998C663.557 208.998 669.466 207.634 674.921 204.907C680.603 201.952 683.444 197.407 683.444 191.27C683.444 186.497 681.399 182.747 677.307 180.019C673.216 177.292 668.443 175.132 662.988 173.541C657.534 171.95 652.533 170.587 647.988 169.45C636.623 166.723 626.282 163.541 616.963 159.904C607.644 156.04 600.257 150.813 594.802 144.221C589.348 137.403 586.62 128.425 586.62 117.288C586.62 106.378 589.688 97.0594 595.825 89.3316C602.189 81.6039 610.485 75.8081 620.713 71.9442C631.168 67.853 642.419 65.8075 654.465 65.8075C673.33 65.8075 689.24 70.5805 702.195 80.1265C715.151 89.6726 722.197 103.764 723.333 122.402H682.081C681.399 115.129 678.33 109.674 672.875 106.037C667.648 102.173 661.056 100.241 653.101 100.241C646.737 100.241 641.055 101.378 636.055 103.651C631.055 105.924 628.554 110.242 628.554 116.606C628.554 121.152 630.6 124.902 634.691 127.857C638.782 130.584 643.669 132.857 649.351 134.675C655.033 136.266 660.034 137.63 664.352 138.767C676.171 141.721 686.513 145.131 695.377 148.994C704.468 152.858 711.628 158.086 716.855 164.677C722.083 171.269 724.81 180.133 725.038 191.27C725.038 202.407 721.856 211.839 715.492 219.567C709.355 227.295 701.173 233.204 690.945 237.295C680.717 241.159 669.58 243.091 657.534 243.091ZM814.617 239C796.434 239 782.683 234.568 773.364 225.704C764.273 216.84 759.727 203.543 759.727 185.815V106.378H737.908V69.8986H759.727V28.6461H803.366V69.8986H841.891V106.378H803.366V186.156C803.366 192.52 805.071 196.838 808.48 199.111C811.89 201.384 816.322 202.52 821.777 202.52H841.891V239H814.617ZM945.838 243.091C928.791 243.091 913.563 239.455 900.153 232.181C886.971 224.681 876.629 214.226 869.129 200.816C861.628 187.406 857.878 171.95 857.878 154.449C857.878 136.039 861.855 120.243 869.81 107.06C877.993 93.6501 888.789 83.4222 902.199 76.3763C915.836 69.3304 930.837 65.8075 947.201 65.8075C964.248 65.8075 979.476 69.5577 992.886 77.0581C1006.3 84.3313 1016.86 94.5592 1024.59 107.742C1032.55 120.925 1036.53 136.494 1036.53 154.449C1036.53 171.496 1032.66 186.724 1024.93 200.134C1017.21 213.544 1006.52 224.113 992.886 231.84C979.476 239.341 963.793 243.091 945.838 243.091ZM946.52 205.248C955.611 205.248 963.452 202.975 970.044 198.429C976.862 193.656 982.204 187.406 986.068 179.678C989.931 171.723 991.863 163.086 991.863 153.768C991.863 143.085 989.704 133.994 985.386 126.493C981.294 118.993 975.84 113.31 969.021 109.447C962.202 105.583 954.702 103.651 946.52 103.651C937.655 103.651 929.814 105.81 922.995 110.128C916.404 114.447 911.177 120.47 907.313 128.198C903.676 135.698 901.858 144.449 901.858 154.449C901.858 164.45 903.79 173.314 907.654 181.042C911.745 188.77 917.2 194.793 924.018 199.111C930.837 203.202 938.337 205.248 946.52 205.248ZM1061.76 239V69.8986H1105.06V95.1274C1110.97 85.5814 1118.47 78.3082 1127.56 73.3079C1136.66 68.3076 1146.77 65.8075 1157.91 65.8075V111.492H1146.32C1132.45 111.492 1122.11 114.788 1115.29 121.379C1108.47 127.97 1105.06 138.994 1105.06 154.449V239H1061.76ZM1193.98 314.005L1231.14 231.159L1162.61 69.8986H1211.36L1255 185.133L1299.66 69.8986H1345.69L1240 314.005H1193.98Z" fill="black"/>
</g>
</mask>
<g mask="url(#mask0_34_3)">
<path d="M35.5706 225.704L34.8724 226.42L34.8814 226.428L35.5706 225.704ZM21.9334 106.378H22.9334V105.378H21.9334V106.378ZM0.113892 106.378H-0.886108V107.378H0.113892V106.378ZM0.113892 69.8986V68.8986H-0.886108V69.8986H0.113892ZM21.9334 69.8986V70.8986H22.9334V69.8986H21.9334ZM21.9334 28.6461V27.6461H20.9334V28.6461H21.9334ZM65.5724 28.6461H66.5724V27.6461H65.5724V28.6461ZM65.5724 69.8986H64.5724V70.8986H65.5724V69.8986ZM104.098 69.8986H105.098V68.8986H104.098V69.8986ZM104.098 106.378V107.378H105.098V106.378H104.098ZM65.5724 106.378V105.378H64.5724V106.378H65.5724ZM104.098 202.52H105.098V201.52H104.098V202.52ZM104.098 239V240H105.098V239H104.098ZM76.8231 238C58.7902 238 45.3276 233.605 36.2598 224.979L34.8814 226.428C44.451 235.531 58.4901 240 76.8231 240V238ZM36.2687 224.988C27.4363 216.376 22.9334 203.383 22.9334 185.815H20.9334C20.9334 203.704 25.5218 217.303 34.8724 226.42L36.2687 224.988ZM22.9334 185.815V106.378H20.9334V185.815H22.9334ZM21.9334 105.378H0.113892V107.378H21.9334V105.378ZM1.11389 106.378V69.8986H-0.886108V106.378H1.11389ZM0.113892 70.8986H21.9334V68.8986H0.113892V70.8986ZM22.9334 69.8986V28.6461H20.9334V69.8986H22.9334ZM21.9334 29.6461H65.5724V27.6461H21.9334V29.6461ZM64.5724 28.6461V69.8986H66.5724V28.6461H64.5724ZM65.5724 70.8986H104.098V68.8986H65.5724V70.8986ZM103.098 69.8986V106.378H105.098V69.8986H103.098ZM104.098 105.378H65.5724V107.378H104.098V105.378ZM64.5724 106.378V186.156H66.5724V106.378H64.5724ZM64.5724 186.156C64.5724 192.661 66.3149 197.399 70.1317 199.943L71.2411 198.279C68.2392 196.278 66.5724 192.379 66.5724 186.156H64.5724ZM70.1317 199.943C73.7515 202.356 78.3945 203.52 83.9826 203.52V201.52C78.661 201.52 74.4398 200.412 71.2411 198.279L70.1317 199.943ZM83.9826 203.52H104.098V201.52H83.9826V203.52ZM103.098 202.52V239H105.098V202.52H103.098ZM104.098 238H76.8231V240H104.098V238ZM129.867 239H128.867V240H129.867V239ZM129.867 0.348877V-0.651123H128.867V0.348877H129.867ZM173.165 0.348877H174.165V-0.651123H173.165V0.348877ZM173.165 89.6726H172.165V92.6956L173.968 90.2689L173.165 89.6726ZM196.689 71.9442L197.057 72.8742L197.068 72.8697L196.689 71.9442ZM274.762 84.8995L274.049 85.6003L274.055 85.6066L274.762 84.8995ZM293.514 239V240H294.514V239H293.514ZM250.215 239H249.215V240H250.215V239ZM240.328 114.561L239.548 115.185L239.557 115.198L239.568 115.209L240.328 114.561ZM183.052 114.561L182.293 113.91L182.291 113.912L183.052 114.561ZM173.165 239V240H174.165V239H173.165ZM130.867 239V0.348877H128.867V239H130.867ZM129.867 1.34888H173.165V-0.651123H129.867V1.34888ZM172.165 0.348877V89.6726H174.165V0.348877H172.165ZM173.968 90.2689C179.759 82.4726 187.446 76.6739 197.057 72.8742L196.322 71.0142C186.386 74.9423 178.39 80.9624 172.362 89.0762L173.968 90.2689ZM197.068 72.8697C206.958 68.8238 216.831 66.8075 226.691 66.8075V64.8075C216.551 64.8075 206.422 66.8823 196.311 71.0187L197.068 72.8697ZM226.691 66.8075C245.998 66.8075 261.755 73.083 274.049 85.6003L275.476 84.1988C262.768 71.26 246.478 64.8075 226.691 64.8075V66.8075ZM274.055 85.6066C286.31 97.8617 292.514 115.753 292.514 139.448H294.514C294.514 115.414 288.216 96.9389 275.469 84.1924L274.055 85.6066ZM292.514 139.448V239H294.514V139.448H292.514ZM293.514 238H250.215V240H293.514V238ZM251.215 239V145.244H249.215V239H251.215ZM251.215 145.244C251.215 132.34 247.871 121.863 241.089 113.912L239.568 115.209C245.969 122.714 249.215 132.692 249.215 145.244H251.215ZM241.109 113.936C234.513 105.69 224.76 101.628 212.031 101.628V103.628C224.304 103.628 233.416 107.521 239.548 115.185L241.109 113.936ZM212.031 101.628C199.301 101.628 189.338 105.69 182.293 113.91L183.811 115.211C190.403 107.521 199.76 103.628 212.031 103.628V101.628ZM182.291 113.912C175.51 121.863 172.165 132.34 172.165 145.244H174.165C174.165 132.692 177.412 122.714 183.813 115.209L182.291 113.912ZM172.165 145.244V239H174.165V145.244H172.165ZM173.165 238H129.867V240H173.165V238ZM356.082 231.5L355.563 232.354L355.57 232.358L356.082 231.5ZM357.105 77.0581L357.595 77.9302L357.606 77.9236L357.105 77.0581ZM446.088 76.7172L445.585 77.5816L445.592 77.5855L446.088 76.7172ZM475.749 106.719L474.874 107.204L474.88 107.215L475.749 106.719ZM486.317 159.563L487.314 159.646V159.64L486.317 159.563ZM485.295 167.405V168.405H486.129L486.279 167.584L485.295 167.405ZM359.832 167.405V166.405H358.743L358.836 167.49L359.832 167.405ZM365.969 188.542L365.095 189.028L365.106 189.047L365.117 189.066L365.969 188.542ZM380.288 202.52L379.788 203.387L379.808 203.398L379.828 203.408L380.288 202.52ZM421.541 202.18L421.041 201.313L421.034 201.318L421.026 201.322L421.541 202.18ZM435.519 186.497V185.497H434.892L434.619 186.061L435.519 186.497ZM482.226 186.497L483.179 186.8L483.594 185.497H482.226V186.497ZM439.951 235.25L439.519 234.348L439.511 234.352L439.951 235.25ZM360.173 138.426L359.183 138.287L359.023 139.426H360.173V138.426ZM441.656 138.426V139.426H442.676L442.655 138.406L441.656 138.426ZM429.041 111.492L428.403 112.262L428.414 112.271L429.041 111.492ZM374.833 110.469L375.415 111.283L375.422 111.278L375.43 111.272L374.833 110.469ZM402.108 242.091C384.528 242.091 369.37 238.261 356.594 230.641L355.57 232.358C368.705 240.194 384.231 244.091 402.108 244.091V242.091ZM356.601 230.645C344.031 223.013 334.269 212.58 327.306 199.328L325.536 200.258C332.665 213.826 342.677 224.531 355.563 232.354L356.601 230.645ZM327.306 199.328C320.344 186.077 316.852 171.125 316.852 154.449H314.852C314.852 171.412 318.407 186.69 325.536 200.258L327.306 199.328ZM316.852 154.449C316.852 136.63 320.461 121.234 327.638 108.225L325.887 107.259C318.517 120.615 314.852 136.357 314.852 154.449H316.852ZM327.638 108.225C334.822 95.203 344.804 85.1109 357.594 77.9301L356.615 76.1862C343.495 83.5518 333.248 93.9154 325.887 107.259L327.638 108.225ZM357.606 77.9236C370.389 70.5229 385.212 66.8075 402.108 66.8075V64.8075C384.91 64.8075 369.732 68.5924 356.604 76.1927L357.606 77.9236ZM402.108 66.8075C418.779 66.8075 433.26 70.4108 445.585 77.5816L446.591 75.8529C433.914 68.4773 419.074 64.8075 402.108 64.8075V66.8075ZM445.592 77.5855C458.162 84.7685 467.917 94.6379 474.874 107.204L476.623 106.235C469.488 93.3451 459.47 83.2123 446.584 75.849L445.592 77.5855ZM474.88 107.215C482.056 119.773 485.658 134.258 485.658 150.699H487.658C487.658 133.957 483.987 119.121 476.617 106.223L474.88 107.215ZM485.658 150.699C485.658 153.628 485.546 156.557 485.32 159.487L487.314 159.64C487.544 156.66 487.658 153.68 487.658 150.699H485.658ZM485.321 159.48C485.096 162.178 484.759 164.76 484.311 167.226L486.279 167.584C486.739 165.049 487.084 162.403 487.314 159.646L485.321 159.48ZM485.295 166.405H359.832V168.405H485.295V166.405ZM358.836 167.49C359.528 175.566 361.608 182.752 365.095 189.028L366.843 188.057C363.511 182.059 361.5 175.153 360.829 167.319L358.836 167.49ZM365.117 189.066C368.84 195.115 373.733 199.893 379.788 203.387L380.788 201.654C375.025 198.329 370.372 193.789 366.821 188.018L365.117 189.066ZM379.828 203.408C386.123 206.672 393.216 208.294 401.085 208.294V206.294C393.498 206.294 386.727 204.733 380.749 201.633L379.828 203.408ZM401.085 208.294C409.185 208.294 416.189 206.557 422.055 203.037L421.026 201.322C415.528 204.621 408.895 206.294 401.085 206.294V208.294ZM422.04 203.046C428.148 199.522 432.936 194.131 436.419 186.932L434.619 186.061C431.283 192.954 426.752 198.018 421.041 201.313L422.04 203.046ZM435.519 187.497H482.226V185.497H435.519V187.497ZM481.273 186.194C478.132 196.067 473.081 205.275 466.11 213.821L467.659 215.085C474.78 206.357 479.957 196.928 483.179 186.8L481.273 186.194ZM466.11 213.821C459.164 222.334 450.307 229.178 439.519 234.348L440.383 236.152C451.414 230.866 460.513 223.846 467.659 215.085L466.11 213.821ZM439.511 234.352C428.993 239.499 416.535 242.091 402.108 242.091V244.091C416.773 244.091 429.544 241.456 440.39 236.148L439.511 234.352ZM360.173 139.426H441.656V137.426H360.173V139.426ZM442.655 138.406C442.423 126.773 438.102 117.507 429.669 110.713L428.414 112.271C436.345 118.66 440.434 127.349 440.656 138.446L442.655 138.406ZM429.679 110.722C421.534 103.973 411.873 100.605 400.744 100.605V102.605C411.435 102.605 420.638 105.828 428.403 112.262L429.679 110.722ZM400.744 100.605C391.196 100.605 382.353 103.638 374.237 109.667L375.43 111.272C383.224 105.482 391.654 102.605 400.744 102.605V100.605ZM374.252 109.656C366.006 115.546 361.026 125.155 359.183 138.287L361.164 138.565C362.957 125.785 367.75 116.757 375.415 111.283L374.252 109.656ZM621.736 236.273L621.342 237.192L621.35 237.195L621.358 237.198L621.736 236.273ZM594.121 216.158L593.346 216.79L593.351 216.796L593.356 216.802L594.121 216.158ZM582.529 185.815V184.815H581.468L581.531 185.874L582.529 185.815ZM626.168 185.815L627.156 185.661L627.024 184.815H626.168V185.815ZM636.737 202.861L636.168 203.684L636.175 203.689L636.182 203.693L636.737 202.861ZM674.921 204.907L675.368 205.801L675.375 205.798L675.382 205.794L674.921 204.907ZM647.988 169.45L648.23 168.48L648.221 168.478L647.988 169.45ZM616.963 159.904L616.58 160.828L616.59 160.832L616.599 160.836L616.963 159.904ZM594.802 144.221L594.022 144.846L594.027 144.853L594.032 144.859L594.802 144.221ZM595.825 89.3316L595.053 88.6959L595.048 88.7028L595.042 88.7097L595.825 89.3316ZM620.713 71.9442L621.067 72.8797L621.078 72.8754L620.713 71.9442ZM723.333 122.402V123.402H724.396L724.331 122.341L723.333 122.402ZM682.081 122.402L681.085 122.495L681.17 123.402H682.081V122.402ZM672.875 106.037L672.281 106.841L672.301 106.856L672.321 106.869L672.875 106.037ZM634.691 127.857L634.106 128.667L634.121 128.678L634.137 128.689L634.691 127.857ZM649.351 134.675L649.046 135.628L649.064 135.633L649.082 135.638L649.351 134.675ZM664.352 138.767L664.098 139.734L664.11 139.737L664.352 138.767ZM695.377 148.994L694.977 149.911L694.986 149.915L695.377 148.994ZM725.038 191.27H726.038V191.26L726.037 191.249L725.038 191.27ZM715.492 219.567L714.72 218.931L714.714 218.938L714.709 218.945L715.492 219.567ZM690.945 237.295L691.298 238.231L691.307 238.227L691.316 238.224L690.945 237.295ZM657.534 242.091C644.927 242.091 633.124 239.841 622.114 235.347L621.358 237.198C632.622 241.796 644.684 244.091 657.534 244.091V242.091ZM622.13 235.353C611.125 230.637 602.051 224.022 594.885 215.514L593.356 216.802C600.737 225.567 610.072 232.362 621.342 237.192L622.13 235.353ZM594.895 215.526C587.988 207.059 584.197 197.147 583.527 185.756L581.531 185.874C582.224 197.666 586.161 207.983 593.346 216.79L594.895 215.526ZM582.529 186.815H626.168V184.815H582.529V186.815ZM625.18 185.969C626.358 193.506 630.027 199.432 636.168 203.684L637.306 202.039C631.628 198.108 628.251 192.671 627.156 185.661L625.18 185.969ZM636.182 203.693C642.486 207.896 649.498 209.998 657.193 209.998V207.998C649.886 207.998 643.261 206.009 637.292 202.029L636.182 203.693ZM657.193 209.998C663.705 209.998 669.768 208.601 675.368 205.801L674.474 204.013C669.164 206.668 663.408 207.998 657.193 207.998V209.998ZM675.382 205.794C678.351 204.251 680.629 202.263 682.161 199.812C683.695 197.358 684.444 194.498 684.444 191.27H682.444C682.444 194.179 681.773 196.66 680.465 198.752C679.156 200.846 677.173 202.609 674.46 204.02L675.382 205.794ZM684.444 191.27C684.444 186.15 682.221 182.093 677.862 179.187L676.753 180.851C680.576 183.4 682.444 186.843 682.444 191.27H684.444ZM677.862 179.187C673.675 176.395 668.806 174.197 663.268 172.581L662.708 174.501C668.081 176.068 672.758 178.188 676.753 180.851L677.862 179.187ZM663.268 172.581C657.804 170.988 652.791 169.62 648.23 168.48L647.745 170.42C652.276 171.553 657.263 172.913 662.708 174.501L663.268 172.581ZM648.221 168.478C636.894 165.759 626.596 162.59 617.326 158.973L616.599 160.836C625.967 164.491 636.353 167.686 647.754 170.423L648.221 168.478ZM617.346 158.98C608.151 155.168 600.907 150.029 595.573 143.584L594.032 144.859C599.608 151.597 607.138 156.913 616.58 160.828L617.346 158.98ZM595.583 143.597C590.305 136.999 587.62 128.262 587.62 117.288H585.62C585.62 128.589 588.39 137.806 594.022 144.846L595.583 143.597ZM587.62 117.288C587.62 106.579 590.627 97.4855 596.608 89.9535L595.042 88.7097C588.75 96.6332 585.62 106.178 585.62 117.288H587.62ZM596.597 89.9673C602.84 82.3865 610.986 76.6877 621.067 72.8797L620.36 71.0087C609.984 74.9284 601.538 80.8212 595.053 88.6959L596.597 89.9673ZM621.078 72.8754C631.408 68.8329 642.535 66.8075 654.465 66.8075V64.8075C642.303 64.8075 630.928 66.8731 620.349 71.013L621.078 72.8754ZM654.465 66.8075C673.155 66.8075 688.847 71.533 701.602 80.9316L702.789 79.3215C689.633 69.628 673.505 64.8075 654.465 64.8075V66.8075ZM701.602 80.9316C714.279 90.2727 721.213 104.068 722.335 122.463L724.331 122.341C723.18 103.461 716.022 89.0725 702.789 79.3215L701.602 80.9316ZM723.333 121.402H682.081V123.402H723.333V121.402ZM683.076 122.309C682.37 114.774 679.167 109.03 673.43 105.205L672.321 106.869C677.494 110.318 680.428 115.483 681.085 122.495L683.076 122.309ZM673.47 105.233C668.035 101.216 661.222 99.2414 653.101 99.2414V101.241C660.891 101.241 667.261 103.131 672.281 106.841L673.47 105.233ZM653.101 99.2414C646.617 99.2414 640.79 100.4 635.641 102.74L636.469 104.561C641.32 102.356 646.858 101.241 653.101 101.241V99.2414ZM635.641 102.74C632.972 103.954 630.929 105.736 629.564 108.093C628.205 110.441 627.554 113.296 627.554 116.606H629.554C629.554 113.552 630.154 111.066 631.295 109.095C632.43 107.134 634.138 105.621 636.469 104.561L635.641 102.74ZM627.554 116.606C627.554 121.512 629.788 125.549 634.106 128.667L635.277 127.046C631.413 124.255 629.554 120.792 629.554 116.606H627.554ZM634.137 128.689C638.319 131.477 643.294 133.787 649.046 135.628L649.656 133.723C644.044 131.927 639.245 129.691 635.246 127.025L634.137 128.689ZM649.082 135.638C654.767 137.23 659.773 138.596 664.098 139.734L664.607 137.8C660.295 136.665 655.299 135.302 649.621 133.712L649.082 135.638ZM664.11 139.737C675.888 142.681 686.175 146.074 694.977 149.911L695.776 148.078C686.85 144.187 676.454 140.761 664.595 137.796L664.11 139.737ZM694.986 149.915C703.95 153.725 710.965 158.859 716.072 165.299L717.639 164.056C712.291 157.313 704.986 151.992 695.768 148.074L694.986 149.915ZM716.072 165.299C721.125 171.671 723.814 180.301 724.038 191.29L726.037 191.249C725.807 179.964 723.041 170.867 717.639 164.056L716.072 165.299ZM724.038 191.27C724.038 202.203 720.92 211.403 714.72 218.931L716.264 220.203C722.792 212.276 726.038 202.611 726.038 191.27H724.038ZM714.709 218.945C708.692 226.521 700.659 232.333 690.573 236.367L691.316 238.224C701.686 234.076 710.018 228.068 716.275 220.189L714.709 218.945ZM690.591 236.36C680.487 240.177 669.471 242.091 657.534 242.091V244.091C669.688 244.091 680.946 242.141 691.298 238.231L690.591 236.36ZM773.364 225.704L772.666 226.42L772.675 226.428L773.364 225.704ZM759.727 106.378H760.727V105.378H759.727V106.378ZM737.908 106.378H736.908V107.378H737.908V106.378ZM737.908 69.8986V68.8986H736.908V69.8986H737.908ZM759.727 69.8986V70.8986H760.727V69.8986H759.727ZM759.727 28.6461V27.6461H758.727V28.6461H759.727ZM803.366 28.6461H804.366V27.6461H803.366V28.6461ZM803.366 69.8986H802.366V70.8986H803.366V69.8986ZM841.891 69.8986H842.891V68.8986H841.891V69.8986ZM841.891 106.378V107.378H842.891V106.378H841.891ZM803.366 106.378V105.378H802.366V106.378H803.366ZM841.891 202.52H842.891V201.52H841.891V202.52ZM841.891 239V240H842.891V239H841.891ZM814.617 238C796.584 238 783.122 233.605 774.054 224.979L772.675 226.428C782.245 235.531 796.284 240 814.617 240V238ZM774.063 224.988C765.23 216.376 760.727 203.383 760.727 185.815H758.727C758.727 203.704 763.316 217.303 772.666 226.42L774.063 224.988ZM760.727 185.815V106.378H758.727V185.815H760.727ZM759.727 105.378H737.908V107.378H759.727V105.378ZM738.908 106.378V69.8986H736.908V106.378H738.908ZM737.908 70.8986H759.727V68.8986H737.908V70.8986ZM760.727 69.8986V28.6461H758.727V69.8986H760.727ZM759.727 29.6461H803.366V27.6461H759.727V29.6461ZM802.366 28.6461V69.8986H804.366V28.6461H802.366ZM803.366 70.8986H841.891V68.8986H803.366V70.8986ZM840.891 69.8986V106.378H842.891V69.8986H840.891ZM841.891 105.378H803.366V107.378H841.891V105.378ZM802.366 106.378V186.156H804.366V106.378H802.366ZM802.366 186.156C802.366 192.661 804.109 197.399 807.926 199.943L809.035 198.279C806.033 196.278 804.366 192.379 804.366 186.156H802.366ZM807.926 199.943C811.545 202.356 816.188 203.52 821.777 203.52V201.52C816.455 201.52 812.234 200.412 809.035 198.279L807.926 199.943ZM821.777 203.52H841.891V201.52H821.777V203.52ZM840.891 202.52V239H842.891V202.52H840.891ZM841.891 238H814.617V240H841.891V238ZM900.153 232.181L899.659 233.051L899.667 233.056L899.676 233.06L900.153 232.181ZM869.81 107.06L868.957 106.539L868.954 106.543L869.81 107.06ZM902.199 76.3763L901.74 75.4878L901.734 75.491L902.199 76.3763ZM992.886 77.0581L992.398 77.931L992.409 77.9372L992.886 77.0581ZM1024.59 107.742L1023.73 108.248L1023.74 108.259L1024.59 107.742ZM992.886 231.84L993.374 232.713L993.379 232.71L992.886 231.84ZM970.044 198.429L970.612 199.253L970.617 199.249L970.044 198.429ZM986.068 179.678L986.962 180.125L986.967 180.115L986.068 179.678ZM985.386 126.493L984.508 126.972L984.513 126.982L984.519 126.992L985.386 126.493ZM922.995 110.128L922.46 109.284L922.454 109.288L922.447 109.292L922.995 110.128ZM907.313 128.198L906.418 127.75L906.413 127.761L907.313 128.198ZM907.654 181.042L906.759 181.489L906.764 181.5L906.77 181.51L907.654 181.042ZM924.018 199.111L923.483 199.956L923.493 199.962L923.504 199.969L924.018 199.111ZM945.838 242.091C928.938 242.091 913.877 238.487 900.63 231.302L899.676 233.06C913.249 240.422 928.645 244.091 945.838 244.091V242.091ZM900.648 231.312C887.626 223.903 877.414 213.581 870.001 200.328L868.256 201.304C875.844 214.871 886.315 225.459 899.659 233.051L900.648 231.312ZM870.001 200.328C862.595 187.087 858.878 171.804 858.878 154.449H856.878C856.878 172.097 860.661 187.725 868.256 201.304L870.001 200.328ZM858.878 154.449C858.878 136.185 862.823 120.575 870.667 107.577L868.954 106.543C860.888 119.91 856.878 135.893 856.878 154.449H858.878ZM870.664 107.581C878.756 94.3193 889.42 84.2201 902.664 77.2615L901.734 75.491C888.158 82.6242 877.23 92.9808 868.957 106.539L870.664 107.581ZM902.658 77.2647C916.144 70.297 930.986 66.8075 947.201 66.8075V64.8075C930.688 64.8075 915.528 68.3637 901.74 75.4878L902.658 77.2647ZM947.201 66.8075C964.096 66.8075 979.153 70.5228 992.398 77.931L993.374 76.1854C979.799 68.5926 964.4 64.8075 947.201 64.8075V66.8075ZM992.409 77.9372C1005.66 85.1233 1016.09 95.222 1023.73 108.248L1025.46 107.236C1017.64 93.8965 1006.93 83.5394 993.363 76.1791L992.409 77.9372ZM1023.74 108.259C1031.58 121.261 1035.53 136.645 1035.53 154.449H1037.53C1037.53 136.342 1033.51 120.588 1025.45 107.225L1023.74 108.259ZM1035.53 154.449C1035.53 171.339 1031.7 186.392 1024.07 199.635L1025.8 200.633C1033.62 187.056 1037.53 171.653 1037.53 154.449H1035.53ZM1024.07 199.635C1016.43 212.888 1005.88 223.33 992.393 230.97L993.379 232.71C1007.17 224.896 1017.98 214.2 1025.8 200.633L1024.07 199.635ZM992.398 230.968C979.161 238.372 963.651 242.091 945.838 242.091V244.091C963.935 244.091 979.792 240.31 993.374 232.713L992.398 230.968ZM946.52 206.248C955.785 206.248 963.831 203.929 970.612 199.253L969.476 197.606C963.074 202.022 955.437 204.248 946.52 204.248V206.248ZM970.617 199.249C977.577 194.376 983.027 187.996 986.962 180.125L985.173 179.231C981.381 186.816 976.147 192.936 969.47 197.61L970.617 199.249ZM986.967 180.115C990.901 172.017 992.863 163.229 992.863 153.768H990.863C990.863 162.943 988.962 171.43 985.168 179.241L986.967 180.115ZM992.863 153.768C992.863 142.951 990.676 133.678 986.252 125.994L984.519 126.992C988.732 134.309 990.863 143.219 990.863 153.768H992.863ZM986.264 126.014C982.091 118.365 976.509 112.541 969.514 108.577L968.528 110.317C975.17 114.08 980.498 119.62 984.508 126.972L986.264 126.014ZM969.514 108.577C962.538 104.624 954.867 102.651 946.52 102.651V104.651C954.537 104.651 961.866 106.542 968.528 110.317L969.514 108.577ZM946.52 102.651C937.485 102.651 929.455 104.854 922.46 109.284L923.53 110.973C930.173 106.766 937.826 104.651 946.52 104.651V102.651ZM922.447 109.292C915.694 113.716 910.353 119.879 906.418 127.75L908.207 128.645C912 121.06 917.114 115.177 923.543 110.965L922.447 109.292ZM906.413 127.761C902.698 135.422 900.858 144.327 900.858 154.449H902.858C902.858 144.57 904.654 135.974 908.212 128.634L906.413 127.761ZM900.858 154.449C900.858 164.581 902.816 173.602 906.759 181.489L908.548 180.595C904.764 173.026 902.858 164.319 902.858 154.449H900.858ZM906.77 181.51C910.935 189.378 916.505 195.537 923.483 199.956L924.553 198.266C917.894 194.049 912.554 188.161 908.537 180.574L906.77 181.51ZM923.504 199.969C930.482 204.156 938.162 206.248 946.52 206.248V204.248C938.513 204.248 931.191 202.249 924.533 198.254L923.504 199.969ZM1061.76 239H1060.76V240H1061.76V239ZM1061.76 69.8986V68.8986H1060.76V69.8986H1061.76ZM1105.06 69.8986H1106.06V68.8986H1105.06V69.8986ZM1105.06 95.1274H1104.06V98.6427L1105.91 95.6538L1105.06 95.1274ZM1157.91 65.8075H1158.91V64.8075H1157.91V65.8075ZM1157.91 111.492V112.492H1158.91V111.492H1157.91ZM1105.06 239V240H1106.06V239H1105.06ZM1062.76 239V69.8986H1060.76V239H1062.76ZM1061.76 70.8986H1105.06V68.8986H1061.76V70.8986ZM1104.06 69.8986V95.1274H1106.06V69.8986H1104.06ZM1105.91 95.6538C1111.74 86.2418 1119.12 79.0947 1128.05 74.1841L1127.08 72.4317C1117.83 77.5217 1110.2 84.921 1104.21 94.6011L1105.91 95.6538ZM1128.05 74.1841C1136.98 69.271 1146.93 66.8075 1157.91 66.8075V64.8075C1146.61 64.8075 1136.33 67.3443 1127.08 72.4317L1128.05 74.1841ZM1156.91 65.8075V111.492H1158.91V65.8075H1156.91ZM1157.91 110.492H1146.32V112.492H1157.91V110.492ZM1146.32 110.492C1132.31 110.492 1121.67 113.82 1114.6 120.66L1115.99 122.098C1122.55 115.756 1132.59 112.492 1146.32 112.492V110.492ZM1114.6 120.66C1107.49 127.529 1104.06 138.887 1104.06 154.449H1106.06C1106.06 139.101 1109.45 128.411 1115.99 122.098L1114.6 120.66ZM1104.06 154.449V239H1106.06V154.449H1104.06ZM1105.06 238H1061.76V240H1105.06V238ZM1193.98 314.005L1193.06 313.595L1192.43 315.005H1193.98V314.005ZM1231.14 231.159L1232.05 231.568L1232.23 231.169L1232.06 230.768L1231.14 231.159ZM1162.61 69.8986V68.8986H1161.1L1161.69 70.2897L1162.61 69.8986ZM1211.36 69.8986L1212.3 69.5445L1212.05 68.8986H1211.36V69.8986ZM1255 185.133L1254.07 185.487L1254.99 187.928L1255.94 185.494L1255 185.133ZM1299.66 69.8986V68.8986H1298.98L1298.73 69.5372L1299.66 69.8986ZM1345.69 69.8986L1346.61 70.2959L1347.21 68.8986H1345.69V69.8986ZM1240 314.005V315.005H1240.66L1240.92 314.402L1240 314.005ZM1194.89 314.414L1232.05 231.568L1230.23 230.749L1193.06 313.595L1194.89 314.414ZM1232.06 230.768L1163.53 69.5075L1161.69 70.2897L1230.22 231.55L1232.06 230.768ZM1162.61 70.8986H1211.36V68.8986H1162.61V70.8986ZM1210.43 70.2528L1254.07 185.487L1255.94 184.779L1212.3 69.5445L1210.43 70.2528ZM1255.94 185.494L1300.6 70.26L1298.73 69.5372L1254.07 184.772L1255.94 185.494ZM1299.66 70.8986H1345.69V68.8986H1299.66V70.8986ZM1344.77 69.5013L1239.08 313.607L1240.92 314.402L1346.61 70.2959L1344.77 69.5013ZM1240 313.005H1193.98V315.005H1240V313.005Z" fill="url(#paint1_linear_34_3)"/>
</g>
</g>
</g>
<defs>
<linearGradient id="paint0_linear_34_3" x1="670.5" y1="-55.0001" x2="673.464" y2="301.975" gradientUnits="userSpaceOnUse">
<stop stop-color="#707070"/>
<stop offset="1" stop-color="#0A0A0A"/>
</linearGradient>
<linearGradient id="paint1_linear_34_3" x1="3.82756" y1="-53.7301" x2="685.004" y2="823.433" gradientUnits="userSpaceOnUse">
<stop stop-color="#171717"/>
<stop offset="0.62" stop-color="#525252"/>
<stop offset="1" stop-color="#171717"/>
</linearGradient>
<clipPath id="clip0_34_3">
<rect width="1346" height="314" fill="white"/>
</clipPath>
</defs>
</svg>
