<svg width="1073" height="219" viewBox="0 0 1073 219" fill="none" xmlns="http://www.w3.org/2000/svg">
<g opacity="0.25" filter="url(#filter0_d_43_25)">
<mask id="path-1-inside-1_43_25" fill="white">
<path d="M48.1165 4.01229V212H4.14249V4.01229H48.1165ZM126.747 121.818V212H83.4835V56.0092H124.715V83.531H126.543C129.996 74.4586 135.785 67.282 143.91 62.001C152.034 56.6524 161.885 53.9781 173.463 53.9781C184.295 53.9781 193.74 56.3477 201.797 61.087C209.854 65.8263 216.116 72.5968 220.585 81.3983C225.053 90.1322 227.288 100.559 227.288 112.678V212H184.024V120.396C184.092 110.85 181.655 103.402 176.712 98.0536C171.77 92.6373 164.966 89.9291 156.3 89.9291C150.477 89.9291 145.331 91.1816 140.863 93.6867C136.462 96.1917 133.009 99.8478 130.504 104.655C128.067 109.394 126.814 115.115 126.747 121.818ZM344.357 56.0092V88.5073H250.417V56.0092H344.357ZM271.744 18.6364H315.007V164.065C315.007 168.06 315.616 171.174 316.835 173.409C318.054 175.575 319.746 177.098 321.913 177.979C324.147 178.859 326.72 179.299 329.631 179.299C331.662 179.299 333.693 179.13 335.724 178.791C337.756 178.385 339.313 178.08 340.396 177.877L347.2 210.07C345.034 210.747 341.987 211.526 338.06 212.406C334.133 213.354 329.36 213.93 323.741 214.133C313.314 214.539 304.174 213.151 296.321 209.969C288.535 206.787 282.475 201.844 278.142 195.142C273.809 188.439 271.676 179.976 271.744 169.752V18.6364ZM441.953 215.047C425.907 215.047 412.095 211.797 400.517 205.297C389.008 198.73 380.138 189.454 373.91 177.471C367.681 165.419 364.566 151.168 364.566 134.716C364.566 118.67 367.681 104.587 373.91 92.468C380.138 80.3489 388.906 70.9042 400.213 64.1337C411.587 57.3633 424.925 53.9781 440.226 53.9781C450.517 53.9781 460.097 55.6368 468.967 58.9544C477.904 62.2042 485.69 67.1127 492.325 73.68C499.027 80.2474 504.241 88.5073 507.964 98.4598C511.688 108.345 513.55 119.922 513.55 133.192V145.074H381.831V118.263H472.826C472.826 112.035 471.472 106.517 468.763 101.71C466.055 96.9026 462.298 93.145 457.491 90.4369C452.751 87.661 447.233 86.2731 440.937 86.2731C434.37 86.2731 428.547 87.7964 423.469 90.8431C418.459 93.8221 414.532 97.8505 411.689 102.928C408.845 107.938 407.389 113.524 407.322 119.685V145.176C407.322 152.894 408.744 159.563 411.587 165.182C414.498 170.802 418.595 175.135 423.875 178.182C429.156 181.228 435.419 182.752 442.663 182.752C447.47 182.752 451.871 182.075 455.866 180.721C459.86 179.367 463.279 177.335 466.123 174.627C468.967 171.919 471.133 168.602 472.623 164.675L512.636 167.315C510.605 176.929 506.441 185.324 500.144 192.501C493.916 199.61 485.859 205.162 475.974 209.156C466.157 213.083 454.816 215.047 441.953 215.047ZM541.783 212V56.0092H583.725V83.2264H585.35C588.194 73.5446 592.967 66.2326 599.67 61.2902C606.373 56.28 614.091 53.775 622.825 53.775C624.991 53.775 627.327 53.9104 629.832 54.1812C632.337 54.452 634.538 54.8244 636.433 55.2983V93.6867C634.402 93.0773 631.592 92.5357 628.004 92.0618C624.416 91.5878 621.132 91.3509 618.153 91.3509C611.789 91.3509 606.102 92.7388 601.092 95.5147C596.149 98.2229 592.222 102.014 589.311 106.889C586.467 111.764 585.046 117.383 585.046 123.747V212H541.783ZM722.629 215.047C706.583 215.047 692.772 211.797 681.194 205.297C669.685 198.73 660.815 189.454 654.586 177.471C648.358 165.419 645.243 151.168 645.243 134.716C645.243 118.67 648.358 104.587 654.586 92.468C660.815 80.3489 669.583 70.9042 680.89 64.1337C692.264 57.3633 705.602 53.9781 720.903 53.9781C731.194 53.9781 740.774 55.6368 749.643 58.9544C758.58 62.2042 766.366 67.1127 773.001 73.68C779.704 80.2474 784.917 88.5073 788.641 98.4598C792.365 108.345 794.227 119.922 794.227 133.192V145.074H662.508V118.263H753.502C753.502 112.035 752.148 106.517 749.44 101.71C746.732 96.9026 742.974 93.145 738.167 90.4369C733.428 87.661 727.91 86.2731 721.614 86.2731C715.046 86.2731 709.224 87.7964 704.146 90.8431C699.136 93.8221 695.209 97.8505 692.365 102.928C689.522 107.938 688.066 113.524 687.999 119.685V145.176C687.999 152.894 689.42 159.563 692.264 165.182C695.175 170.802 699.271 175.135 704.552 178.182C709.833 181.228 716.096 182.752 723.34 182.752C728.147 182.752 732.548 182.075 736.543 180.721C740.537 179.367 743.956 177.335 746.8 174.627C749.643 171.919 751.81 168.602 753.299 164.675L793.313 167.315C791.281 176.929 787.118 185.324 780.821 192.501C774.592 199.61 766.536 205.162 756.651 209.156C746.834 213.083 735.493 215.047 722.629 215.047ZM952.249 100.491L912.642 102.928C911.964 99.5431 910.509 96.4964 908.275 93.7882C906.04 91.0124 903.095 88.812 899.439 87.1871C895.851 85.4945 891.552 84.6482 886.542 84.6482C879.839 84.6482 874.185 86.0699 869.582 88.9135C864.978 91.6894 862.676 95.4131 862.676 100.085C862.676 103.808 864.165 106.957 867.144 109.529C870.123 112.102 875.235 114.167 882.479 115.724L910.712 121.412C925.878 124.526 937.184 129.536 944.632 136.442C952.079 143.348 955.803 152.42 955.803 163.659C955.803 173.882 952.79 182.853 946.765 190.572C940.807 198.29 932.614 204.316 922.188 208.649C911.829 212.914 899.879 215.047 886.338 215.047C865.689 215.047 849.236 210.747 836.982 202.149C824.795 193.483 817.652 181.702 815.554 166.807L858.106 164.573C859.392 170.87 862.506 175.677 867.449 178.994C872.391 182.244 878.722 183.869 886.44 183.869C894.023 183.869 900.116 182.413 904.72 179.502C909.392 176.523 911.761 172.698 911.829 168.026C911.761 164.099 910.103 160.883 906.853 158.378C903.603 155.805 898.593 153.842 891.822 152.488L864.808 147.105C849.575 144.059 838.234 138.778 830.787 131.263C823.407 123.747 819.717 114.167 819.717 102.522C819.717 92.5019 822.426 83.8695 827.842 76.6252C833.326 69.3808 841.01 63.7952 850.895 59.8684C860.848 55.9415 872.493 53.9781 885.831 53.9781C905.533 53.9781 921.037 58.1419 932.343 66.4695C943.718 74.7972 950.353 86.1376 952.249 100.491ZM1066.02 56.0092V88.5073H972.077V56.0092H1066.02ZM993.404 18.6364H1036.67V164.065C1036.67 168.06 1037.28 171.174 1038.5 173.409C1039.71 175.575 1041.41 177.098 1043.57 177.979C1045.81 178.859 1048.38 179.299 1051.29 179.299C1053.32 179.299 1055.35 179.13 1057.38 178.791C1059.42 178.385 1060.97 178.08 1062.06 177.877L1068.86 210.07C1066.69 210.747 1063.65 211.526 1059.72 212.406C1055.79 213.354 1051.02 213.93 1045.4 214.133C1034.97 214.539 1025.83 213.151 1017.98 209.969C1010.19 206.787 1004.14 201.844 999.802 195.142C995.469 188.439 993.337 179.976 993.404 169.752V18.6364Z"/>
</mask>
<path d="M48.1165 4.01229V212H4.14249V4.01229H48.1165ZM126.747 121.818V212H83.4835V56.0092H124.715V83.531H126.543C129.996 74.4586 135.785 67.282 143.91 62.001C152.034 56.6524 161.885 53.9781 173.463 53.9781C184.295 53.9781 193.74 56.3477 201.797 61.087C209.854 65.8263 216.116 72.5968 220.585 81.3983C225.053 90.1322 227.288 100.559 227.288 112.678V212H184.024V120.396C184.092 110.85 181.655 103.402 176.712 98.0536C171.77 92.6373 164.966 89.9291 156.3 89.9291C150.477 89.9291 145.331 91.1816 140.863 93.6867C136.462 96.1917 133.009 99.8478 130.504 104.655C128.067 109.394 126.814 115.115 126.747 121.818ZM344.357 56.0092V88.5073H250.417V56.0092H344.357ZM271.744 18.6364H315.007V164.065C315.007 168.06 315.616 171.174 316.835 173.409C318.054 175.575 319.746 177.098 321.913 177.979C324.147 178.859 326.72 179.299 329.631 179.299C331.662 179.299 333.693 179.13 335.724 178.791C337.756 178.385 339.313 178.08 340.396 177.877L347.2 210.07C345.034 210.747 341.987 211.526 338.06 212.406C334.133 213.354 329.36 213.93 323.741 214.133C313.314 214.539 304.174 213.151 296.321 209.969C288.535 206.787 282.475 201.844 278.142 195.142C273.809 188.439 271.676 179.976 271.744 169.752V18.6364ZM441.953 215.047C425.907 215.047 412.095 211.797 400.517 205.297C389.008 198.73 380.138 189.454 373.91 177.471C367.681 165.419 364.566 151.168 364.566 134.716C364.566 118.67 367.681 104.587 373.91 92.468C380.138 80.3489 388.906 70.9042 400.213 64.1337C411.587 57.3633 424.925 53.9781 440.226 53.9781C450.517 53.9781 460.097 55.6368 468.967 58.9544C477.904 62.2042 485.69 67.1127 492.325 73.68C499.027 80.2474 504.241 88.5073 507.964 98.4598C511.688 108.345 513.55 119.922 513.55 133.192V145.074H381.831V118.263H472.826C472.826 112.035 471.472 106.517 468.763 101.71C466.055 96.9026 462.298 93.145 457.491 90.4369C452.751 87.661 447.233 86.2731 440.937 86.2731C434.37 86.2731 428.547 87.7964 423.469 90.8431C418.459 93.8221 414.532 97.8505 411.689 102.928C408.845 107.938 407.389 113.524 407.322 119.685V145.176C407.322 152.894 408.744 159.563 411.587 165.182C414.498 170.802 418.595 175.135 423.875 178.182C429.156 181.228 435.419 182.752 442.663 182.752C447.47 182.752 451.871 182.075 455.866 180.721C459.86 179.367 463.279 177.335 466.123 174.627C468.967 171.919 471.133 168.602 472.623 164.675L512.636 167.315C510.605 176.929 506.441 185.324 500.144 192.501C493.916 199.61 485.859 205.162 475.974 209.156C466.157 213.083 454.816 215.047 441.953 215.047ZM541.783 212V56.0092H583.725V83.2264H585.35C588.194 73.5446 592.967 66.2326 599.67 61.2902C606.373 56.28 614.091 53.775 622.825 53.775C624.991 53.775 627.327 53.9104 629.832 54.1812C632.337 54.452 634.538 54.8244 636.433 55.2983V93.6867C634.402 93.0773 631.592 92.5357 628.004 92.0618C624.416 91.5878 621.132 91.3509 618.153 91.3509C611.789 91.3509 606.102 92.7388 601.092 95.5147C596.149 98.2229 592.222 102.014 589.311 106.889C586.467 111.764 585.046 117.383 585.046 123.747V212H541.783ZM722.629 215.047C706.583 215.047 692.772 211.797 681.194 205.297C669.685 198.73 660.815 189.454 654.586 177.471C648.358 165.419 645.243 151.168 645.243 134.716C645.243 118.67 648.358 104.587 654.586 92.468C660.815 80.3489 669.583 70.9042 680.89 64.1337C692.264 57.3633 705.602 53.9781 720.903 53.9781C731.194 53.9781 740.774 55.6368 749.643 58.9544C758.58 62.2042 766.366 67.1127 773.001 73.68C779.704 80.2474 784.917 88.5073 788.641 98.4598C792.365 108.345 794.227 119.922 794.227 133.192V145.074H662.508V118.263H753.502C753.502 112.035 752.148 106.517 749.44 101.71C746.732 96.9026 742.974 93.145 738.167 90.4369C733.428 87.661 727.91 86.2731 721.614 86.2731C715.046 86.2731 709.224 87.7964 704.146 90.8431C699.136 93.8221 695.209 97.8505 692.365 102.928C689.522 107.938 688.066 113.524 687.999 119.685V145.176C687.999 152.894 689.42 159.563 692.264 165.182C695.175 170.802 699.271 175.135 704.552 178.182C709.833 181.228 716.096 182.752 723.34 182.752C728.147 182.752 732.548 182.075 736.543 180.721C740.537 179.367 743.956 177.335 746.8 174.627C749.643 171.919 751.81 168.602 753.299 164.675L793.313 167.315C791.281 176.929 787.118 185.324 780.821 192.501C774.592 199.61 766.536 205.162 756.651 209.156C746.834 213.083 735.493 215.047 722.629 215.047ZM952.249 100.491L912.642 102.928C911.964 99.5431 910.509 96.4964 908.275 93.7882C906.04 91.0124 903.095 88.812 899.439 87.1871C895.851 85.4945 891.552 84.6482 886.542 84.6482C879.839 84.6482 874.185 86.0699 869.582 88.9135C864.978 91.6894 862.676 95.4131 862.676 100.085C862.676 103.808 864.165 106.957 867.144 109.529C870.123 112.102 875.235 114.167 882.479 115.724L910.712 121.412C925.878 124.526 937.184 129.536 944.632 136.442C952.079 143.348 955.803 152.42 955.803 163.659C955.803 173.882 952.79 182.853 946.765 190.572C940.807 198.29 932.614 204.316 922.188 208.649C911.829 212.914 899.879 215.047 886.338 215.047C865.689 215.047 849.236 210.747 836.982 202.149C824.795 193.483 817.652 181.702 815.554 166.807L858.106 164.573C859.392 170.87 862.506 175.677 867.449 178.994C872.391 182.244 878.722 183.869 886.44 183.869C894.023 183.869 900.116 182.413 904.72 179.502C909.392 176.523 911.761 172.698 911.829 168.026C911.761 164.099 910.103 160.883 906.853 158.378C903.603 155.805 898.593 153.842 891.822 152.488L864.808 147.105C849.575 144.059 838.234 138.778 830.787 131.263C823.407 123.747 819.717 114.167 819.717 102.522C819.717 92.5019 822.426 83.8695 827.842 76.6252C833.326 69.3808 841.01 63.7952 850.895 59.8684C860.848 55.9415 872.493 53.9781 885.831 53.9781C905.533 53.9781 921.037 58.1419 932.343 66.4695C943.718 74.7972 950.353 86.1376 952.249 100.491ZM1066.02 56.0092V88.5073H972.077V56.0092H1066.02ZM993.404 18.6364H1036.67V164.065C1036.67 168.06 1037.28 171.174 1038.5 173.409C1039.71 175.575 1041.41 177.098 1043.57 177.979C1045.81 178.859 1048.38 179.299 1051.29 179.299C1053.32 179.299 1055.35 179.13 1057.38 178.791C1059.42 178.385 1060.97 178.08 1062.06 177.877L1068.86 210.07C1066.69 210.747 1063.65 211.526 1059.72 212.406C1055.79 213.354 1051.02 213.93 1045.4 214.133C1034.97 214.539 1025.83 213.151 1017.98 209.969C1010.19 206.787 1004.14 201.844 999.802 195.142C995.469 188.439 993.337 179.976 993.404 169.752V18.6364Z" fill="url(#paint0_linear_43_25)" shape-rendering="crispEdges"/>
<path d="M48.1165 4.01229H49.0627V3.06605H48.1165V4.01229ZM48.1165 212V212.946H49.0627V212H48.1165ZM4.14249 212H3.19625V212.946H4.14249V212ZM4.14249 4.01229V3.06605H3.19625V4.01229H4.14249ZM47.1702 4.01229V212H49.0627V4.01229H47.1702ZM48.1165 211.054H4.14249V212.946H48.1165V211.054ZM5.08872 212V4.01229H3.19625V212H5.08872ZM4.14249 4.95853H48.1165V3.06605H4.14249V4.95853ZM126.747 121.818L125.8 121.808V121.818H126.747ZM126.747 212V212.946H127.693V212H126.747ZM83.4835 212H82.5373V212.946H83.4835V212ZM83.4835 56.0092V55.063H82.5373V56.0092H83.4835ZM124.715 56.0092H125.662V55.063H124.715V56.0092ZM124.715 83.531H123.769V84.4773H124.715V83.531ZM126.543 83.531V84.4773H127.196L127.428 83.8676L126.543 83.531ZM143.91 62.001L144.425 62.7944L144.43 62.7914L143.91 62.001ZM220.585 81.3983L219.741 81.8267L219.742 81.8293L220.585 81.3983ZM227.288 212V212.946H228.234V212H227.288ZM184.024 212H183.078V212.946H184.024V212ZM184.024 120.396L183.078 120.389V120.396H184.024ZM176.712 98.0536L176.013 98.6914L176.017 98.6958L176.712 98.0536ZM140.863 93.6867L140.4 92.8613L140.395 92.8643L140.863 93.6867ZM130.504 104.655L129.665 104.217L129.663 104.222L130.504 104.655ZM125.8 121.818V212H127.693V121.818H125.8ZM126.747 211.054H83.4835V212.946H126.747V211.054ZM84.4297 212V56.0092H82.5373V212H84.4297ZM83.4835 56.9555H124.715V55.063H83.4835V56.9555ZM123.769 56.0092V83.531H125.662V56.0092H123.769ZM124.715 84.4773H126.543V82.5848H124.715V84.4773ZM127.428 83.8676C130.81 74.9824 136.469 67.9658 144.425 62.7944L143.394 61.2077C135.101 66.5982 129.183 73.9349 125.659 83.1945L127.428 83.8676ZM144.43 62.7914C152.373 57.5625 162.034 54.9243 173.463 54.9243V53.0319C161.736 53.0319 151.696 55.7424 143.389 61.2107L144.43 62.7914ZM173.463 54.9243C184.154 54.9243 193.427 57.2617 201.317 61.9026L202.277 60.2714C194.053 55.4338 184.437 53.0319 173.463 53.0319V54.9243ZM201.317 61.9026C209.209 66.545 215.35 73.1769 219.741 81.8267L221.429 80.97C216.883 72.0167 210.498 65.1077 202.277 60.2714L201.317 61.9026ZM219.742 81.8293C224.128 90.402 226.341 100.674 226.341 112.678H228.234C228.234 100.443 225.978 89.8624 221.427 80.9674L219.742 81.8293ZM226.341 112.678V212H228.234V112.678H226.341ZM227.288 211.054H184.024V212.946H227.288V211.054ZM184.971 212V120.396H183.078V212H184.971ZM184.971 120.403C185.04 110.693 182.558 102.986 177.407 97.4114L176.017 98.6958C180.751 103.819 183.145 111.006 183.078 120.389L184.971 120.403ZM177.411 97.4158C172.257 91.7671 165.179 88.9829 156.3 88.9829V90.8753C164.752 90.8753 171.283 93.5074 176.013 98.6914L177.411 97.4158ZM156.3 88.9829C150.337 88.9829 145.028 90.2667 140.4 92.8613L141.326 94.5121C145.634 92.0965 150.617 90.8753 156.3 90.8753V88.9829ZM140.395 92.8643C135.825 95.4658 132.248 99.261 129.665 104.217L131.343 105.092C133.77 100.435 137.1 96.9177 141.331 94.509L140.395 92.8643ZM129.663 104.222C127.143 109.122 125.869 114.995 125.8 121.808L127.693 121.827C127.759 115.235 128.991 109.666 131.346 105.088L129.663 104.222ZM344.357 56.0092H345.303V55.063H344.357V56.0092ZM344.357 88.5073V89.4535H345.303V88.5073H344.357ZM250.417 88.5073H249.471V89.4535H250.417V88.5073ZM250.417 56.0092V55.063H249.471V56.0092H250.417ZM271.744 18.6364V17.6902H270.798V18.6364H271.744ZM315.007 18.6364H315.953V17.6902H315.007V18.6364ZM316.835 173.409L316.004 173.862L316.01 173.872L316.835 173.409ZM321.913 177.979L321.557 178.855L321.566 178.859L321.913 177.979ZM335.724 178.791L335.88 179.724L335.895 179.722L335.91 179.719L335.724 178.791ZM340.396 177.877L341.322 177.681L341.131 176.777L340.222 176.947L340.396 177.877ZM347.2 210.07L347.483 210.974L348.304 210.717L348.126 209.875L347.2 210.07ZM338.06 212.406L337.853 211.483L337.846 211.485L337.838 211.486L338.06 212.406ZM323.741 214.133L323.707 213.187L323.704 213.187L323.741 214.133ZM296.321 209.969L295.963 210.845L295.965 210.846L296.321 209.969ZM278.142 195.142L278.937 194.628L278.937 194.628L278.142 195.142ZM271.744 169.752L272.69 169.759V169.752H271.744ZM343.411 56.0092V88.5073H345.303V56.0092H343.411ZM344.357 87.5611H250.417V89.4535H344.357V87.5611ZM251.363 88.5073V56.0092H249.471V88.5073H251.363ZM250.417 56.9555H344.357V55.063H250.417V56.9555ZM271.744 19.5827H315.007V17.6902H271.744V19.5827ZM314.061 18.6364V164.065H315.953V18.6364H314.061ZM314.061 164.065C314.061 168.137 314.678 171.431 316.004 173.862L317.666 172.955C316.554 170.918 315.953 167.983 315.953 164.065H314.061ZM316.01 173.872C317.327 176.213 319.179 177.889 321.557 178.855L322.269 177.102C320.314 176.308 318.78 174.937 317.66 172.945L316.01 173.872ZM321.566 178.859C323.931 179.791 326.626 180.245 329.631 180.245V178.353C326.814 178.353 324.363 177.927 322.26 177.098L321.566 178.859ZM329.631 180.245C331.715 180.245 333.798 180.071 335.88 179.724L335.569 177.858C333.588 178.188 331.609 178.353 329.631 178.353V180.245ZM335.91 179.719C337.94 179.313 339.493 179.009 340.57 178.807L340.222 176.947C339.133 177.151 337.571 177.457 335.539 177.863L335.91 179.719ZM339.47 178.073L346.275 210.266L348.126 209.875L341.322 177.681L339.47 178.073ZM346.918 209.167C344.788 209.833 341.771 210.605 337.853 211.483L338.267 213.33C342.203 212.447 345.279 211.662 347.483 210.974L346.918 209.167ZM337.838 211.486C333.992 212.415 329.285 212.985 323.707 213.187L323.775 215.078C329.435 214.874 334.275 214.293 338.282 213.326L337.838 211.486ZM323.704 213.187C313.381 213.589 304.38 212.213 296.676 209.092L295.965 210.846C303.969 214.089 313.247 215.488 323.778 215.078L323.704 213.187ZM296.679 209.093C289.061 205.98 283.159 201.159 278.937 194.628L277.347 195.655C281.791 202.53 288.008 207.594 295.963 210.845L296.679 209.093ZM278.937 194.628C274.728 188.118 272.623 179.849 272.69 169.759L270.798 169.746C270.729 180.103 272.889 188.76 277.347 195.655L278.937 194.628ZM272.69 169.752V18.6364H270.798V169.752H272.69ZM400.517 205.297L400.049 206.119L400.054 206.122L400.517 205.297ZM373.91 177.471L373.069 177.905L373.07 177.907L373.91 177.471ZM373.91 92.468L373.068 92.0355L373.068 92.0355L373.91 92.468ZM400.213 64.1337L399.729 63.3206L399.727 63.3219L400.213 64.1337ZM468.967 58.9544L468.635 59.8407L468.643 59.8436L468.967 58.9544ZM492.325 73.68L491.659 74.3526L491.662 74.3559L492.325 73.68ZM507.964 98.4598L507.078 98.7914L507.079 98.7934L507.964 98.4598ZM513.55 145.074V146.021H514.496V145.074H513.55ZM381.831 145.074H380.885V146.021H381.831V145.074ZM381.831 118.263V117.317H380.885V118.263H381.831ZM472.826 118.263V119.21H473.772V118.263H472.826ZM468.763 101.71L467.939 102.174L467.939 102.174L468.763 101.71ZM457.491 90.4369L457.012 91.2534L457.019 91.2574L457.026 91.2613L457.491 90.4369ZM423.469 90.8431L423.953 91.6564L423.956 91.6545L423.469 90.8431ZM411.689 102.928L412.512 103.395L412.514 103.391L411.689 102.928ZM407.322 119.685L406.376 119.675V119.685H407.322ZM411.587 165.182L410.743 165.61L410.747 165.618L411.587 165.182ZM455.866 180.721L455.562 179.824L455.562 179.824L455.866 180.721ZM466.123 174.627L465.47 173.942L465.47 173.942L466.123 174.627ZM472.623 164.675L472.685 163.73L471.986 163.684L471.738 164.339L472.623 164.675ZM512.636 167.315L513.562 167.511L513.787 166.443L512.698 166.371L512.636 167.315ZM500.144 192.501L499.433 191.877L499.433 191.878L500.144 192.501ZM475.974 209.156L476.325 210.035L476.328 210.034L475.974 209.156ZM441.953 214.1C426.035 214.1 412.39 210.877 400.981 204.472L400.054 206.122C411.8 212.716 425.778 215.993 441.953 215.993V214.1ZM400.986 204.475C389.638 198 380.896 188.86 374.749 177.034L373.07 177.907C379.381 190.049 388.378 199.46 400.049 206.119L400.986 204.475ZM374.75 177.036C368.604 165.145 365.513 151.048 365.513 134.716H363.62C363.62 151.287 366.758 165.694 373.069 177.905L374.75 177.036ZM365.513 134.716C365.513 118.793 368.602 104.864 374.751 92.9006L373.068 92.0355C366.759 104.31 363.62 118.546 363.62 134.716H365.513ZM374.751 92.9006C380.902 80.933 389.549 71.622 400.699 64.9455L399.727 63.3219C388.263 70.1863 379.375 79.7649 373.068 92.0355L374.751 92.9006ZM400.697 64.9468C411.903 58.2764 425.068 54.9243 440.226 54.9243V53.0319C424.782 53.0319 411.271 56.4502 399.729 63.3206L400.697 64.9468ZM440.226 54.9243C450.414 54.9243 459.881 56.5661 468.635 59.8406L469.298 58.0681C460.314 54.7076 450.62 53.0319 440.226 53.0319V54.9243ZM468.643 59.8436C477.454 63.0476 485.123 67.8832 491.659 74.3526L492.99 73.0075C486.256 66.3423 478.353 61.3607 469.29 58.0651L468.643 59.8436ZM491.662 74.3559C498.254 80.8142 503.396 88.9514 507.078 98.7914L508.851 98.1282C505.085 88.0632 499.801 79.6806 492.987 73.0042L491.662 74.3559ZM507.079 98.7934C510.754 108.548 512.604 120.008 512.604 133.192H514.496C514.496 119.836 512.622 108.141 508.85 98.1263L507.079 98.7934ZM512.604 133.192V145.074H514.496V133.192H512.604ZM513.55 144.128H381.831V146.021H513.55V144.128ZM382.777 145.074V118.263H380.885V145.074H382.777ZM381.831 119.21H472.826V117.317H381.831V119.21ZM473.772 118.263C473.772 111.893 472.386 106.211 469.588 101.245L467.939 102.174C470.557 106.822 471.879 112.176 471.879 118.263H473.772ZM469.588 101.245C466.795 96.2876 462.913 92.4055 457.955 89.6125L457.026 91.2613C461.683 93.8846 465.316 97.5177 467.939 102.174L469.588 101.245ZM457.969 89.6204C453.064 86.7477 447.377 85.3268 440.937 85.3268V87.2193C447.09 87.2193 452.438 88.5743 457.012 91.2534L457.969 89.6204ZM440.937 85.3268C434.217 85.3268 428.223 86.8874 422.982 90.0317L423.956 91.6545C428.871 88.7054 434.522 87.2193 440.937 87.2193V85.3268ZM422.986 90.0298C417.833 93.0936 413.788 97.2429 410.863 102.466L412.514 103.391C415.277 98.4581 419.085 94.5506 423.953 91.6564L422.986 90.0298ZM410.866 102.461C407.938 107.62 406.445 113.365 406.376 119.675L408.268 119.696C408.334 113.683 409.753 108.257 412.512 103.395L410.866 102.461ZM406.376 119.685V145.176H408.268V119.685H406.376ZM406.376 145.176C406.376 153.01 407.819 159.831 410.743 165.61L412.431 164.755C409.668 159.295 408.268 152.779 408.268 145.176H406.376ZM410.747 165.618C413.738 171.391 417.959 175.861 423.403 179.001L424.348 177.362C419.23 174.409 415.259 170.212 412.427 164.747L410.747 165.618ZM423.403 179.001C428.852 182.145 435.284 183.698 442.663 183.698V181.805C435.554 181.805 429.461 180.311 424.348 177.362L423.403 179.001ZM442.663 183.698C447.56 183.698 452.065 183.008 456.17 181.617L455.562 179.824C451.678 181.141 447.381 181.805 442.663 181.805V183.698ZM456.17 181.617C460.285 180.222 463.825 178.122 466.776 175.312L465.47 173.942C462.734 176.548 459.436 178.511 455.562 179.824L456.17 181.617ZM466.776 175.312C469.729 172.5 471.971 169.06 473.507 165.01L471.738 164.339C470.295 168.143 468.204 171.338 465.47 173.942L466.776 175.312ZM472.56 165.619L512.574 168.259L512.698 166.371L472.685 163.73L472.56 165.619ZM511.71 167.12C509.711 176.58 505.619 184.826 499.433 191.877L500.856 193.125C507.263 185.823 511.498 177.279 513.562 167.511L511.71 167.12ZM499.433 191.878C493.313 198.862 485.385 204.333 475.619 208.279L476.328 210.034C486.333 205.991 494.518 200.359 500.856 193.125L499.433 191.878ZM475.623 208.278C465.939 212.151 454.721 214.1 441.953 214.1V215.993C454.911 215.993 466.375 214.015 476.325 210.035L475.623 208.278ZM541.783 212H540.836V212.946H541.783V212ZM541.783 56.0092V55.063H540.836V56.0092H541.783ZM583.725 56.0092H584.672V55.063H583.725V56.0092ZM583.725 83.2264H582.779V84.1726H583.725V83.2264ZM585.35 83.2264V84.1726H586.059L586.258 83.493L585.35 83.2264ZM599.67 61.2902L600.231 62.0518L600.236 62.0481L599.67 61.2902ZM629.832 54.1812L629.934 53.2404L629.934 53.2404L629.832 54.1812ZM636.433 55.2983H637.38V54.5595L636.663 54.3803L636.433 55.2983ZM636.433 93.6867L636.161 94.593L637.38 94.9584V93.6867H636.433ZM601.092 95.5147L601.546 96.3445L601.55 96.3424L601.092 95.5147ZM589.311 106.889L588.499 106.404L588.494 106.412L589.311 106.889ZM585.046 212V212.946H585.992V212H585.046ZM542.729 212V56.0092H540.836V212H542.729ZM541.783 56.9555H583.725V55.063H541.783V56.9555ZM582.779 56.0092V83.2264H584.672V56.0092H582.779ZM583.725 84.1726H585.35V82.2801H583.725V84.1726ZM586.258 83.493C589.056 73.9665 593.728 66.8472 600.231 62.0517L599.108 60.5286C592.206 65.6179 587.332 73.1227 584.442 82.9597L586.258 83.493ZM600.236 62.0481C606.768 57.1658 614.286 54.7212 622.825 54.7212V52.8287C613.896 52.8287 605.977 55.3943 599.103 60.5323L600.236 62.0481ZM622.825 54.7212C624.952 54.7212 627.254 54.8542 629.73 55.122L629.934 53.2404C627.4 52.9665 625.03 52.8287 622.825 52.8287V54.7212ZM629.73 55.122C632.204 55.3894 634.36 55.7554 636.204 56.2163L636.663 54.3803C634.715 53.8934 632.47 53.5147 629.934 53.2404L629.73 55.122ZM635.487 55.2983V93.6867H637.38V55.2983H635.487ZM636.705 92.7803C634.604 92.1499 631.737 91.6003 628.128 91.1237L627.88 92.9999C631.448 93.4711 634.201 94.0048 636.161 94.593L636.705 92.7803ZM628.128 91.1237C624.507 90.6454 621.181 90.4046 618.153 90.4046V92.2971C621.083 92.2971 624.325 92.5303 627.88 92.9999L628.128 91.1237ZM618.153 90.4046C611.647 90.4046 605.799 91.825 600.633 94.687L601.55 96.3424C606.405 93.6526 611.931 92.2971 618.153 92.2971V90.4046ZM600.637 94.6849C595.546 97.4747 591.496 101.386 588.499 106.404L590.123 107.374C592.949 102.643 596.753 98.9711 601.546 96.3445L600.637 94.6849ZM588.494 106.412C585.555 111.449 584.099 117.238 584.099 123.747H585.992C585.992 117.529 587.38 112.078 590.128 107.366L588.494 106.412ZM584.099 123.747V212H585.992V123.747H584.099ZM585.046 211.054H541.783V212.946H585.046V211.054ZM681.194 205.297L680.725 206.119L680.731 206.122L681.194 205.297ZM654.586 177.471L653.746 177.905L653.747 177.907L654.586 177.471ZM654.586 92.468L653.745 92.0355L653.745 92.0355L654.586 92.468ZM680.89 64.1337L680.406 63.3206L680.403 63.3219L680.89 64.1337ZM749.643 58.9544L749.312 59.8407L749.32 59.8436L749.643 58.9544ZM773.001 73.68L772.336 74.3526L772.339 74.3559L773.001 73.68ZM788.641 98.4598L787.755 98.7914L787.756 98.7934L788.641 98.4598ZM794.227 145.074V146.021H795.173V145.074H794.227ZM662.508 145.074H661.562V146.021H662.508V145.074ZM662.508 118.263V117.317H661.562V118.263H662.508ZM753.502 118.263V119.21H754.449V118.263H753.502ZM749.44 101.71L748.616 102.174L748.616 102.174L749.44 101.71ZM738.167 90.4369L737.689 91.2534L737.696 91.2574L737.703 91.2613L738.167 90.4369ZM704.146 90.8431L704.63 91.6564L704.633 91.6545L704.146 90.8431ZM692.365 102.928L693.188 103.395L693.191 103.391L692.365 102.928ZM687.999 119.685L687.052 119.675V119.685H687.999ZM692.264 165.182L691.42 165.61L691.424 165.618L692.264 165.182ZM736.543 180.721L736.239 179.824L736.239 179.824L736.543 180.721ZM746.8 174.627L746.147 173.942L746.147 173.942L746.8 174.627ZM753.299 164.675L753.362 163.73L752.663 163.684L752.415 164.339L753.299 164.675ZM793.313 167.315L794.238 167.511L794.464 166.443L793.375 166.371L793.313 167.315ZM780.821 192.501L780.11 191.877L780.109 191.878L780.821 192.501ZM756.651 209.156L757.002 210.035L757.005 210.034L756.651 209.156ZM722.629 214.1C706.712 214.1 693.067 210.877 681.657 204.472L680.731 206.122C692.477 212.716 706.455 215.993 722.629 215.993V214.1ZM681.663 204.475C670.315 198 661.573 188.86 655.426 177.034L653.747 177.907C660.058 190.049 669.054 199.46 680.725 206.119L681.663 204.475ZM655.427 177.036C649.281 165.145 646.189 151.048 646.189 134.716H644.297C644.297 151.287 647.434 165.694 653.746 177.905L655.427 177.036ZM646.189 134.716C646.189 118.793 649.279 104.864 655.428 92.9006L653.745 92.0355C647.436 104.31 644.297 118.546 644.297 134.716H646.189ZM655.428 92.9006C661.579 80.933 670.226 71.622 681.376 64.9455L680.403 63.3219C668.94 70.1863 660.052 79.7649 653.745 92.0355L655.428 92.9006ZM681.374 64.9468C692.58 58.2764 705.745 54.9243 720.903 54.9243V53.0319C705.458 53.0319 691.948 56.4502 680.406 63.3206L681.374 64.9468ZM720.903 54.9243C731.091 54.9243 740.557 56.5661 749.312 59.8406L749.975 58.0681C740.991 54.7076 731.297 53.0319 720.903 53.0319V54.9243ZM749.32 59.8436C758.131 63.0476 765.8 67.8832 772.336 74.3526L773.667 73.0075C766.933 66.3423 759.03 61.3607 749.967 58.0651L749.32 59.8436ZM772.339 74.3559C778.93 80.8142 784.073 88.9514 787.755 98.7914L789.527 98.1282C785.761 88.0632 780.478 79.6806 773.664 73.0042L772.339 74.3559ZM787.756 98.7934C791.43 108.548 793.28 120.008 793.28 133.192H795.173C795.173 119.836 793.299 108.141 789.527 98.1263L787.756 98.7934ZM793.28 133.192V145.074H795.173V133.192H793.28ZM794.227 144.128H662.508V146.021H794.227V144.128ZM663.454 145.074V118.263H661.562V145.074H663.454ZM662.508 119.21H753.502V117.317H662.508V119.21ZM754.449 118.263C754.449 111.893 753.063 106.211 750.265 101.245L748.616 102.174C751.234 106.822 752.556 112.176 752.556 118.263H754.449ZM750.265 101.245C747.472 96.2876 743.59 92.4055 738.632 89.6125L737.703 91.2613C742.359 93.8846 745.992 97.5177 748.616 102.174L750.265 101.245ZM738.646 89.6204C733.741 86.7477 728.053 85.3268 721.614 85.3268V87.2193C727.767 87.2193 733.115 88.5743 737.689 91.2534L738.646 89.6204ZM721.614 85.3268C714.894 85.3268 708.9 86.8874 703.659 90.0317L704.633 91.6545C709.548 88.7054 715.199 87.2193 721.614 87.2193V85.3268ZM703.662 90.0298C698.51 93.0936 694.465 97.2429 691.54 102.466L693.191 103.391C695.953 98.4581 699.762 94.5506 704.63 91.6564L703.662 90.0298ZM691.543 102.461C688.614 107.62 687.122 113.365 687.052 119.675L688.945 119.696C689.011 113.683 690.429 108.257 693.188 103.395L691.543 102.461ZM687.052 119.685V145.176H688.945V119.685H687.052ZM687.052 145.176C687.052 153.01 688.496 159.831 691.42 165.61L693.108 164.755C690.345 159.295 688.945 152.779 688.945 145.176H687.052ZM691.424 165.618C694.415 171.391 698.636 175.861 704.079 179.001L705.025 177.362C699.907 174.409 695.936 170.212 693.104 164.747L691.424 165.618ZM704.079 179.001C709.529 182.145 715.961 183.698 723.34 183.698V181.805C716.23 181.805 710.137 180.311 705.025 177.362L704.079 179.001ZM723.34 183.698C728.236 183.698 732.741 183.008 736.846 181.617L736.239 179.824C732.355 181.141 728.058 181.805 723.34 181.805V183.698ZM736.846 181.617C740.961 180.222 744.502 178.122 747.452 175.312L746.147 173.942C743.41 176.548 740.113 178.511 736.239 179.824L736.846 181.617ZM747.452 175.312C750.406 172.5 752.648 169.06 754.184 165.01L752.415 164.339C750.972 168.143 748.881 171.338 746.147 173.942L747.452 175.312ZM753.237 165.619L793.25 168.259L793.375 166.371L753.362 163.73L753.237 165.619ZM792.387 167.12C790.388 176.58 786.296 184.826 780.11 191.877L781.532 193.125C787.939 185.823 792.175 177.279 794.238 167.511L792.387 167.12ZM780.109 191.878C773.99 198.862 766.061 204.333 756.296 208.279L757.005 210.034C767.01 205.991 775.195 200.359 781.533 193.125L780.109 191.878ZM756.299 208.278C746.615 212.151 735.398 214.1 722.629 214.1V215.993C735.588 215.993 747.052 214.015 757.002 210.035L756.299 208.278ZM952.249 100.491L952.307 101.435L953.32 101.373L953.187 100.367L952.249 100.491ZM912.642 102.928L911.714 103.114L911.876 103.923L912.7 103.873L912.642 102.928ZM908.275 93.7882L907.537 94.3816L907.545 94.3904L908.275 93.7882ZM899.439 87.1871L899.036 88.0429L899.045 88.0474L899.055 88.0517L899.439 87.1871ZM869.582 88.9135L870.07 89.7239L870.079 89.7186L869.582 88.9135ZM867.144 109.529L866.526 110.246L866.526 110.246L867.144 109.529ZM882.479 115.724L882.28 116.65L882.292 116.652L882.479 115.724ZM910.712 121.412L910.902 120.485L910.899 120.484L910.712 121.412ZM944.632 136.442L943.988 137.136L943.988 137.136L944.632 136.442ZM946.765 190.572L946.019 189.989L946.015 189.993L946.765 190.572ZM922.188 208.649L922.548 209.524L922.551 209.522L922.188 208.649ZM836.982 202.149L836.434 202.92L836.438 202.924L836.982 202.149ZM815.554 166.807L815.504 165.862L814.472 165.917L814.617 166.939L815.554 166.807ZM858.106 164.573L859.033 164.384L858.87 163.585L858.056 163.628L858.106 164.573ZM867.449 178.994L866.922 179.78L866.929 179.785L867.449 178.994ZM904.72 179.502L905.226 180.302L905.229 180.3L904.72 179.502ZM911.829 168.026L912.775 168.04L912.775 168.025L912.775 168.01L911.829 168.026ZM906.853 158.378L906.265 159.12L906.275 159.128L906.853 158.378ZM891.822 152.488L892.008 151.56L892.007 151.56L891.822 152.488ZM864.808 147.105L864.623 148.033L864.624 148.033L864.808 147.105ZM830.787 131.263L830.112 131.926L830.115 131.929L830.787 131.263ZM827.842 76.6252L827.087 76.0541L827.084 76.0586L827.842 76.6252ZM850.895 59.8684L850.548 58.9882L850.546 58.989L850.895 59.8684ZM932.343 66.4695L931.782 67.2314L931.785 67.233L932.343 66.4695ZM952.19 99.5465L912.583 101.984L912.7 103.873L952.307 101.435L952.19 99.5465ZM913.569 102.743C912.861 99.2018 911.336 96.0125 909.005 93.1861L907.545 94.3904C909.681 96.9803 911.068 99.8844 911.714 103.114L913.569 102.743ZM909.012 93.1949C906.672 90.2881 903.6 88.0008 899.823 86.3224L899.055 88.0517C902.59 89.6231 905.409 91.7366 907.537 94.3815L909.012 93.1949ZM899.843 86.3313C896.1 84.5656 891.656 83.7019 886.542 83.7019V85.5944C891.448 85.5944 895.602 86.4233 899.036 88.0429L899.843 86.3313ZM886.542 83.7019C879.705 83.7019 873.87 85.1528 869.084 88.1085L870.079 89.7186C874.501 86.987 879.973 85.5944 886.542 85.5944V83.7019ZM869.093 88.1032C864.256 91.0197 861.73 95.0262 861.73 100.085H863.622C863.622 95.8001 865.699 92.3591 870.07 89.7239L869.093 88.1032ZM861.73 100.085C861.73 104.101 863.352 107.505 866.526 110.246L867.763 108.813C864.978 106.409 863.622 103.516 863.622 100.085H861.73ZM866.526 110.246C869.69 112.978 874.995 115.084 882.28 116.65L882.678 114.799C875.474 113.251 870.556 111.226 867.763 108.813L866.526 110.246ZM882.292 116.652L910.525 122.339L910.899 120.484L882.666 114.797L882.292 116.652ZM910.522 122.338C925.6 125.435 936.718 130.394 943.988 137.136L945.275 135.748C937.651 128.678 926.155 123.617 910.902 120.485L910.522 122.338ZM943.988 137.136C951.221 143.842 954.857 152.652 954.857 163.659H956.749C956.749 152.188 952.938 142.853 945.275 135.748L943.988 137.136ZM954.857 163.659C954.857 173.681 951.908 182.445 946.019 189.989L947.51 191.154C953.672 183.262 956.749 174.083 956.749 163.659H954.857ZM946.015 189.993C940.173 197.562 932.123 203.495 921.825 207.775L922.551 209.522C933.105 205.136 941.44 199.018 947.514 191.15L946.015 189.993ZM921.828 207.774C911.604 211.983 899.781 214.1 886.338 214.1V215.993C899.978 215.993 912.054 213.845 922.548 209.524L921.828 207.774ZM886.338 214.1C865.811 214.1 849.571 209.826 837.525 201.374L836.438 202.924C848.902 211.669 865.566 215.993 886.338 215.993V214.1ZM837.53 201.378C825.557 192.863 818.553 181.315 816.491 166.675L814.617 166.939C816.751 182.09 824.034 194.102 836.434 202.92L837.53 201.378ZM815.603 167.752L858.155 165.518L858.056 163.628L815.504 165.862L815.603 167.752ZM857.179 164.763C858.51 171.281 861.755 176.312 866.922 179.78L867.976 178.208C863.258 175.041 860.274 170.458 859.033 164.384L857.179 164.763ZM866.929 179.785C872.066 183.163 878.592 184.815 886.44 184.815V182.923C878.851 182.923 872.716 181.325 867.969 178.204L866.929 179.785ZM886.44 184.815C894.134 184.815 900.422 183.339 905.226 180.302L904.214 178.702C899.81 181.487 893.911 182.923 886.44 182.923V184.815ZM905.229 180.3C910.111 177.186 912.702 173.092 912.775 168.04L910.883 168.012C910.821 172.303 908.672 175.859 904.211 178.704L905.229 180.3ZM912.775 168.01C912.702 163.781 910.896 160.3 907.431 157.629L906.275 159.128C909.309 161.466 910.821 164.418 910.883 168.042L912.775 168.01ZM907.44 157.636C904.02 154.928 898.839 152.926 892.008 151.56L891.637 153.416C898.346 154.758 903.186 156.682 906.265 159.12L907.44 157.636ZM892.007 151.56L864.993 146.177L864.624 148.033L891.638 153.416L892.007 151.56ZM864.994 146.178C849.863 143.151 838.725 137.929 831.459 130.597L830.115 131.929C837.743 139.627 849.287 144.966 864.623 148.033L864.994 146.178ZM831.462 130.6C824.275 123.281 820.664 113.948 820.664 102.522H818.771C818.771 114.387 822.539 124.214 830.112 131.926L831.462 130.6ZM820.664 102.522C820.664 92.6829 823.319 84.2549 828.6 77.1918L827.084 76.0586C821.532 83.4842 818.771 92.3208 818.771 102.522H820.664ZM828.596 77.1963C833.959 70.1118 841.493 64.6218 851.245 60.7477L850.546 58.989C840.528 62.9686 832.692 68.6499 827.087 76.0541L828.596 77.1963ZM851.242 60.7486C861.061 56.8746 872.583 54.9243 885.831 54.9243V53.0319C872.402 53.0319 860.635 55.0084 850.548 58.9882L851.242 60.7486ZM885.831 54.9243C905.41 54.9243 920.692 59.0632 931.782 67.2314L932.905 65.7076C921.382 57.2206 905.655 53.0319 885.831 53.0319V54.9243ZM931.785 67.233C942.944 75.4035 949.448 86.5097 951.31 100.615L953.187 100.367C951.258 85.7656 944.491 74.1908 932.902 65.706L931.785 67.233ZM1066.02 56.0092H1066.96V55.063H1066.02V56.0092ZM1066.02 88.5073V89.4535H1066.96V88.5073H1066.02ZM972.077 88.5073H971.131V89.4535H972.077V88.5073ZM972.077 56.0092V55.063H971.131V56.0092H972.077ZM993.404 18.6364V17.6902H992.458V18.6364H993.404ZM1036.67 18.6364H1037.61V17.6902H1036.67V18.6364ZM1038.5 173.409L1037.66 173.862L1037.67 173.872L1038.5 173.409ZM1043.57 177.979L1043.22 178.855L1043.23 178.859L1043.57 177.979ZM1057.38 178.791L1057.54 179.724L1057.56 179.722L1057.57 179.719L1057.38 178.791ZM1062.06 177.877L1062.98 177.681L1062.79 176.777L1061.88 176.947L1062.06 177.877ZM1068.86 210.07L1069.14 210.974L1069.96 210.717L1069.79 209.875L1068.86 210.07ZM1059.72 212.406L1059.51 211.483L1059.51 211.485L1059.5 211.486L1059.72 212.406ZM1045.4 214.133L1045.37 213.187L1045.36 213.187L1045.4 214.133ZM1017.98 209.969L1017.62 210.845L1017.63 210.846L1017.98 209.969ZM999.802 195.142L1000.6 194.628L1000.6 194.628L999.802 195.142ZM993.404 169.752L994.351 169.759V169.752H993.404ZM1065.07 56.0092V88.5073H1066.96V56.0092H1065.07ZM1066.02 87.5611H972.077V89.4535H1066.02V87.5611ZM973.024 88.5073V56.0092H971.131V88.5073H973.024ZM972.077 56.9555H1066.02V55.063H972.077V56.9555ZM993.404 19.5827H1036.67V17.6902H993.404V19.5827ZM1035.72 18.6364V164.065H1037.61V18.6364H1035.72ZM1035.72 164.065C1035.72 168.137 1036.34 171.431 1037.66 173.862L1039.33 172.955C1038.21 170.918 1037.61 167.983 1037.61 164.065H1035.72ZM1037.67 173.872C1038.99 176.213 1040.84 177.889 1043.22 178.855L1043.93 177.102C1041.97 176.308 1040.44 174.937 1039.32 172.945L1037.67 173.872ZM1043.23 178.859C1045.59 179.791 1048.29 180.245 1051.29 180.245V178.353C1048.47 178.353 1046.02 177.927 1043.92 177.098L1043.23 178.859ZM1051.29 180.245C1053.38 180.245 1055.46 180.071 1057.54 179.724L1057.23 177.858C1055.25 178.188 1053.27 178.353 1051.29 178.353V180.245ZM1057.57 179.719C1059.6 179.313 1061.15 179.009 1062.23 178.807L1061.88 176.947C1060.79 177.151 1059.23 177.457 1057.2 177.863L1057.57 179.719ZM1061.13 178.073L1067.94 210.266L1069.79 209.875L1062.98 177.681L1061.13 178.073ZM1068.58 209.167C1066.45 209.833 1063.43 210.605 1059.51 211.483L1059.93 213.33C1063.86 212.447 1066.94 211.662 1069.14 210.974L1068.58 209.167ZM1059.5 211.486C1055.65 212.415 1050.95 212.985 1045.37 213.187L1045.44 215.078C1051.1 214.874 1055.94 214.293 1059.94 213.326L1059.5 211.486ZM1045.36 213.187C1035.04 213.589 1026.04 212.213 1018.34 209.092L1017.63 210.846C1025.63 214.089 1034.91 215.488 1045.44 215.078L1045.36 213.187ZM1018.34 209.093C1010.72 205.98 1004.82 201.159 1000.6 194.628L999.008 195.655C1003.45 202.53 1009.67 207.594 1017.62 210.845L1018.34 209.093ZM1000.6 194.628C996.389 188.118 994.284 179.849 994.351 169.759L992.458 169.746C992.39 180.103 994.55 188.76 999.008 195.655L1000.6 194.628ZM994.351 169.752V18.6364H992.458V169.752H994.351Z" fill="url(#paint1_linear_43_25)" fill-opacity="0.25" mask="url(#path-1-inside-1_43_25)"/>
</g>
<defs>
<filter id="filter0_d_43_25" x="0.329348" y="0.199099" width="1072.34" height="218.661" filterUnits="userSpaceOnUse" color-interpolation-filters="sRGB">
<feFlood flood-opacity="0" result="BackgroundImageFix"/>
<feColorMatrix in="SourceAlpha" type="matrix" values="0 0 0 0 0 0 0 0 0 0 0 0 0 0 0 0 0 0 127 0" result="hardAlpha"/>
<feOffset/>
<feGaussianBlur stdDeviation="1.90655"/>
<feComposite in2="hardAlpha" operator="out"/>
<feColorMatrix type="matrix" values="0 0 0 0 1 0 0 0 0 1 0 0 0 0 1 0 0 0 0.06 0"/>
<feBlend mode="normal" in2="BackgroundImageFix" result="effect1_dropShadow_43_25"/>
<feBlend mode="normal" in="SourceGraphic" in2="effect1_dropShadow_43_25" result="shape"/>
</filter>
<linearGradient id="paint0_linear_43_25" x1="531.5" y1="-73" x2="531.5" y2="290" gradientUnits="userSpaceOnUse">
<stop stop-color="#D9D9D9" stop-opacity="0.1"/>
<stop offset="1" stop-color="#737373" stop-opacity="0"/>
</linearGradient>
<linearGradient id="paint1_linear_43_25" x1="531.5" y1="-73" x2="531.5" y2="290" gradientUnits="userSpaceOnUse">
<stop offset="0.33217" stop-color="#A4A4A4" stop-opacity="0"/>
<stop offset="1" stop-color="white"/>
</linearGradient>
</defs>
</svg>
