<svg width="1153" height="444" viewBox="0 0 1153 444" fill="none" xmlns="http://www.w3.org/2000/svg">
<g clip-path="url(#clip0_44_26)">
<mask id="mask0_44_26" style="mask-type:luminance" maskUnits="userSpaceOnUse" x="31" y="32" width="1120" height="346">
<path d="M1151 32.0001H31V377.573H1151V32.0001Z" fill="white"/>
</mask>
<g mask="url(#mask0_44_26)">
<g opacity="0.76">
<path d="M110.076 157.517C110.516 158.289 186.261 112.068 186.866 113.115C188.133 115.32 132.984 147.457 134.36 149.827C135.737 152.198 192.015 116.34 192.18 116.477C192.648 117.304 130.588 157.82 130.809 158.289C131.029 158.758 181.8 128.687 181.855 128.77C183.232 131.168 139.344 158.592 139.812 159.419C140.28 160.246 201.707 120.557 203.056 122.955C204.047 124.636 144.162 158.785 146.145 162.203C146.778 163.305 203.607 128.853 203.689 128.963C204.598 130.534 164.289 155.312 165.5 157.379C165.693 157.738 196.531 137.838 197.219 139.051C197.907 140.263 164.179 162.644 165.005 164.022C165.198 164.298 209.416 136.956 209.967 137.948C209.967 137.948 173.072 165.152 173.292 165.51C174.394 167.44 206.47 144.646 207.213 145.914C207.957 147.182 167.648 173.145 168.667 174.661C168.86 175.019 221.696 143.406 221.944 143.847C222.192 144.288 180.809 171.822 181.718 173.393C182.323 174.44 223.018 149.386 223.018 149.497C224.945 152.859 166.877 187.532 167.208 188.084C167.538 188.635 220.787 155.616 221.448 156.773C222.687 158.923 183.425 184.335 183.838 184.886C184.251 185.438 224.146 160.081 224.835 161.211C225.523 162.341 172.962 195.415 173.871 197.041C174.173 197.372 229.515 162.368 230.589 164.298C231.388 165.648 185.324 195.388 185.93 196.462C187.087 198.474 217.208 175.57 218.419 177.693C218.805 178.354 181.58 203.877 182.213 204.979C182.846 206.082 218.227 181.717 219.328 183.591C219.961 184.638 176.707 211.566 178.028 213.909C178.882 215.37 231.36 182.654 231.553 182.985C233.232 185.906 177.395 216.638 179.24 219.642C179.24 219.642 221.393 193.541 222.136 194.836C223.486 197.151 178.606 224.273 179.515 225.844C179.79 226.312 239.042 190.013 239.675 191.06C239.675 191.06 176.349 231.025 177.615 233.285C178.882 235.545 223.733 204.924 224.284 206.054C225.193 207.625 173.155 238.164 174.724 241.03C175.22 241.912 235.683 202.443 237.087 205.007" stroke="#262626" stroke-width="0.287179" stroke-linecap="round" stroke-linejoin="round"/>
<path d="M72.8784 273.774C73.1538 274.27 111.783 250.457 112.141 251.091C112.141 251.091 76.9809 275.262 78.0547 277.137C78.0547 277.302 127.835 247.425 128.248 248.141C128.248 248.417 92.1517 274.353 92.5923 275.097C93.0328 275.841 129.487 252.221 130.12 253.406C131.222 255.252 85.7089 282.814 86.8378 284.799C86.8378 284.799 138.132 254.178 138.545 254.922C139.234 256.079 92.2619 287.996 92.3445 287.996C92.8401 288.851 137.857 261.068 138.105 261.537C138.766 262.667 106.855 283.586 107.818 285.378C108.094 285.791 168.887 248.638 169.52 249.74C171.42 253.048 106.992 287.996 108.947 291.083C112.471 297.202 233.343 211.429 236.702 217.244C237.72 219.036 115.885 288.41 118.061 292.158C119.658 294.914 222.412 227.966 224.091 230.888C225.165 232.734 117.62 293.205 120.043 297.395C120.897 298.883 219.163 235.794 220.953 239.074C221.558 240.066 116.326 298.332 119.63 304.01C121.089 306.545 220.898 244.173 221.503 245.137C223.238 248.141 135.847 294.749 138.6 299.434C138.6 299.434 219.108 251.228 219.824 252.579C220.237 253.296 144.685 302.191 144.768 302.191C146.392 304.947 215.942 260.848 216.052 261.013C217.511 263.493 164.454 294.363 165.666 296.485C165.666 296.485 193.199 280.334 193.199 280.499" stroke="#262626" stroke-width="0.287179" stroke-linecap="round" stroke-linejoin="round"/>
<path d="M104.597 127.557C104.597 127.557 125.219 115.485 125.274 115.623C125.825 116.56 81.2206 143.902 82.7073 146.575C83.3131 147.76 129.817 115.926 131.304 118.489" stroke="#262626" stroke-width="0.287179" stroke-linecap="round" stroke-linejoin="round"/>
<path d="M33.368 127.943C33.368 127.943 51.6776 117.442 51.7051 117.442C51.7327 117.442 49.7503 124.856 49.7778 124.911C49.8053 124.967 58.0378 119.813 58.0378 120.061C58.9189 121.576 32.4594 139.354 33.2578 140.76C33.7534 141.449 69.5467 119.537 69.5467 119.702C69.5467 119.868 39.618 142.248 40.1962 143.102C40.7744 143.957 87.526 115.155 87.7738 115.54C88.0216 115.926 41.7931 147.76 42.1511 148.339C42.509 148.918 88.6548 119.73 89.4258 120.998C90.1967 122.266 45.3725 149.387 46.7491 152.033C46.7491 152.281 93.5558 124.884 93.5558 124.939C94.4368 126.427 42.2337 160.163 42.5641 160.77C42.8945 161.376 87.9114 132.656 88.82 134.117C89.7286 135.578 43.3075 165.786 43.7205 166.53C44.1335 167.274 87.7738 140.484 87.994 140.925C89.3707 143.35 41.5453 171.243 42.8119 173.421C44.0784 175.598 155.258 106.142 156.222 107.851C158.287 111.406 32.2391 180.835 34.3867 184.638C36.1763 187.78 160.407 107.851 162.059 110.855C165.693 117.139 36.0662 185.41 38.1587 188.883C38.7369 189.93 166.602 107.244 169.796 112.784C172.99 118.324 43.8857 186.347 46.3361 190.482C46.7216 191.143 183.122 110.717 183.425 111.241C186.013 115.706 42.8394 187.863 47.5201 196.104C47.5201 196.27 106.056 162.175 106.111 162.258C107.846 165.262 42.3163 203.353 43.2524 204.952C43.748 205.834 100.632 169.81 101.486 171.298C103.193 174.137 32.6521 214.736 33.7534 216.665C33.9462 216.969 102.036 175.874 102.587 176.866C103.138 177.858 32.6521 221.985 33.4506 223.363C34.7997 225.706 88.1042 189.489 89.0954 191.226C89.6736 192.246 38.7094 222.757 40.4165 225.706C40.9671 226.643 99.3928 188.69 100.66 190.895C101.926 193.1 40.9396 229.785 41.7931 231.273C43.1423 233.589 95.5657 197.317 96.8598 199.467C97.7408 201.093 42.0134 233.01 44.0509 236.345C45.1797 238.329 93.1152 205.475 94.189 207.35C94.3267 207.791 48.9243 238.715 49.4474 239.597C49.6677 239.955 95.0976 213 95.1802 213.138C95.2628 213.275 36.5067 250.76 37.7457 252.717C38.9847 254.674 99.5305 215.232 100.302 216.665C100.412 216.665 41.27 255.941 41.7381 256.768C43.1698 259.249 100.88 220.938 101.568 222.178C102.587 223.832 39.0123 264.403 39.2601 264.651C39.6731 265.34 95.0426 230.419 95.8961 231.907C96.3366 232.679 34.249 271.955 35.075 273.416C36.6444 276.172 94.547 237.585 95.0976 238.715C95.6483 239.845 42.0134 274.794 42.3713 275.51C44.1335 278.57 94.6846 245.192 94.6846 245.192C96.4743 248.224 41.0497 282.318 41.1874 282.539C41.3251 282.759 106.001 243.538 106.689 244.696C107.378 245.854 48.0432 280.968 49.7778 283.944C51.5124 286.921 101.375 251.118 102.587 253.378C104.487 256.52 46.8042 290.587 47.5201 291.689C48.5388 293.453 83.0931 271.073 83.1206 271.1C84.69 273.857 33.5607 304.864 34.0012 305.856C34.4418 306.848 92.3718 269.805 93.3906 271.541C93.3906 271.541 44.2711 303.651 45.4275 305.636C46.1434 306.876 80.4224 283.586 81.2208 284.937C82.0193 286.287 41.4627 313.684 41.7105 314.07C42.7843 315.971 89.178 286.315 89.3156 286.508C90.9401 289.374 32.1014 324.157 32.8448 325.563C33.01 325.839 86.8927 292.075 87.9114 293.756C89.178 295.961 33.9737 329.752 34.662 330.91C35.3504 332.068 86.6174 299.903 86.9753 300.592C88.82 303.761 33.0926 333.997 34.9098 337.112C35.8184 338.683 94.1064 301.694 94.6296 302.576C95.6758 304.395 32.3492 340.254 34.3867 343.919C34.9649 344.939 94.96 306.959 95.7584 308.447C95.9236 308.75 43.7205 343.368 44.3537 344.498C44.3537 344.691 82.9004 320.822 83.5887 321.842C85.4059 324.984 30.532 355.826 31.8536 358.114C31.8536 358.114 83.8916 326.528 84.5524 327.796C84.5524 327.796 46.4738 353.373 47.6853 355.358C48.8967 357.342 86.4522 332.288 86.755 332.784C87.6086 334.273 47.8505 358.72 49.117 360.898C49.117 361.146 80.8629 341.301 81.4136 342.238C81.5512 342.486 35.5706 371.647 37.0574 374.238C37.2226 374.513 82.9554 345.794 83.864 347.227C84.7726 348.66 54.6512 369.276 55.2294 370.158C56.138 371.729 91.7661 348.632 91.9313 348.936C93.2254 351.196 54.4309 376.801 54.5135 376.939C55.0091 377.793 91.7386 355.33 91.7661 355.413C92.482 356.653 68.0324 373.907 68.7207 375.092C68.7207 375.257 93.1978 360.512 93.5007 360.815" stroke="#262626" stroke-width="0.287179" stroke-linecap="round" stroke-linejoin="round"/>
<path d="M305.067 169.231C305.507 169.975 356.94 137.948 357.38 138.913C357.38 138.913 323.955 162.203 324.973 163.994C324.973 163.994 367.595 138.72 367.87 139.189C368.146 139.657 347.661 156.635 347.909 157.076C348.157 157.517 363.52 147.76 363.658 147.981" stroke="#262626" stroke-width="0.287179" stroke-linecap="round" stroke-linejoin="round"/>
<path d="M314.841 127.254C314.841 127.254 334.638 115.678 334.693 115.789C335.188 116.615 295.595 141.559 296.972 143.957C297.55 144.949 340.062 115.899 341.411 118.269" stroke="#262626" stroke-width="0.287179" stroke-linecap="round" stroke-linejoin="round"/>
<path d="M244.081 127.861C244.081 127.861 262.418 117.249 262.418 117.277C262.418 117.304 260.49 124.691 260.518 124.746C260.793 125.215 268.778 119.675 268.778 119.895C269.632 121.439 243.227 139.189 243.998 140.594C244.439 141.366 280.149 119.509 280.232 119.647C280.314 119.785 250.276 142.028 250.854 143.02C251.432 144.012 298.073 115.155 298.376 115.596C298.679 116.037 252.533 147.76 252.891 148.257C253.249 148.753 299.505 119.564 300.249 120.86C300.992 122.155 255.947 149.304 257.489 151.95C257.489 152.198 304.296 124.829 304.296 124.856C305.177 126.345 252.946 160.081 253.304 160.687C253.662 161.293 298.569 132.629 299.395 133.979C300.221 135.33 254.02 165.703 254.461 166.447C254.901 167.192 298.266 140.539 298.514 140.98C299.891 143.378 252.286 171.298 253.525 173.338C254.764 175.378 366.714 105.646 367.705 107.355C369.66 110.938 243.007 180.835 245.127 184.556C246.751 187.312 361.73 113.528 363.327 116.257C366.686 122.073 246.944 185.603 248.789 188.8C249.312 189.682 358.922 119.041 361.51 123.671C364.098 128.302 255.011 186.816 257.076 190.399C257.379 190.923 367.512 126.014 367.76 126.4C369.853 130.038 254.488 189.352 258.315 196.022C258.315 196.214 323.266 158.372 323.321 158.455C325.221 161.762 253.029 203.133 254.02 204.869C254.543 205.751 310.656 170.196 311.51 171.795C313.134 174.551 243.42 214.819 244.576 216.831C244.741 217.134 312.226 176.425 312.804 177.417C313.382 178.409 243.392 221.93 244.191 223.28C245.512 225.596 298.652 189.517 299.643 191.226C300.249 192.246 249.45 222.674 251.157 225.623C251.68 226.56 310.105 188.607 311.372 190.812C312.639 193.017 251.68 229.702 252.533 231.191C253.882 233.506 306.471 197.124 307.6 199.301C308.536 200.928 252.754 232.9 254.681 236.262C255.81 238.219 303.277 205.696 304.241 207.542C304.461 207.983 259.444 238.605 259.967 239.514C260.16 239.873 304.489 213.551 304.571 213.716C304.654 213.882 247.385 250.705 248.513 252.634C249.642 254.563 307.903 216.665 308.619 217.878C308.619 217.878 252.01 255.914 252.478 256.686C253.772 258.918 307.38 223.611 308.013 224.603C308.894 226.119 249.752 264.348 249.89 264.568C250.028 264.789 299.45 234.25 300.331 235.408C300.827 236.097 244.962 272.01 245.76 273.333C247.027 275.51 296.119 243.015 296.559 243.979C297 244.944 252.781 274.849 253.112 275.428C254.461 277.743 293.145 252.193 293.173 252.276C294.522 254.618 251.873 282.291 251.873 282.594C251.873 282.897 300.827 253.047 301.432 253.874C302.038 254.701 259.251 281.657 260.518 283.862C261.785 286.067 292.181 263.521 293.035 265.092C294.219 267.132 257.765 290.89 258.178 291.579C259.196 293.371 293.971 270.88 293.971 270.908C295.21 273.03 255.259 298.47 255.727 299.379C256.195 300.289 303.58 270.081 304.213 271.349C304.213 271.349 277.534 291.634 278.167 292.764C278.497 293.288 291.713 284.11 291.933 284.716C292.154 285.322 285.436 294.721 285.491 294.804C285.546 294.887 300.111 286.315 300.138 286.342" stroke="#262626" stroke-width="0.287179" stroke-linecap="round" stroke-linejoin="round"/>
<path d="M429.875 157.573C430.894 159.309 504.215 111.709 505.509 113.859C506.198 115.072 448.103 148.835 450.085 152.253C450.663 153.3 494.303 123.478 495.68 125.904C495.68 125.904 456.638 153.025 457.409 154.375C458.18 155.726 508.813 123.313 509.419 124.333C510.025 125.353 464.072 156.498 464.237 156.801C465.091 158.234 517.184 123.726 518.202 125.601C518.753 126.565 471.699 158.344 471.919 158.675C472.139 159.006 526.132 126.29 526.6 127.117C527.343 128.412 483.813 154.927 485.3 157.435C485.465 157.71 529.849 131.168 530.069 131.582C530.289 131.995 485.3 163.636 485.3 163.664C486.043 164.987 520.625 142.579 520.928 143.075C521.231 143.571 490.642 164.628 491.66 166.365C492.679 168.101 528.087 144.315 528.445 145.087C528.445 145.087 490.559 171.106 491.55 172.649C491.963 173.366 535.989 144.453 537.09 146.327C537.668 147.347 485.713 181.524 486.071 182.158C486.429 182.792 529.821 155.974 530.124 156.635C530.427 157.297 503.527 176.783 504.215 177.968C504.904 179.154 543.12 155.588 543.12 155.698C543.836 156.939 496.313 186.017 497.497 188.442C498.131 189.517 549.343 156.911 550.031 158.124C550.279 158.565 507.657 186.072 508.896 188.277C508.896 188.47 554.161 160.301 554.959 161.652C556.804 164.877 503.389 196.132 504.105 197.482C504.821 198.833 553.555 167.826 554.133 168.597C555.014 170.113 509.171 199.136 510.08 200.487C510.989 201.837 551.38 175.102 551.986 176.26C552.591 177.417 495.377 214.598 495.708 215.15C496.396 216.362 549.232 183.646 549.48 184.087C549.728 184.528 499.149 216.996 500.223 218.898C501.297 220.8 554.133 186.127 554.739 187.257C555.345 188.387 499.342 223.501 500.278 225.1C500.278 225.1 558.649 191.033 558.786 191.253C560.741 194.616 503.885 225.513 505.537 228.407C506.336 229.758 550.829 199.853 551.848 201.644C553.142 203.877 491.275 240.452 492.376 242.381C493.863 244.972 542.404 210.905 543.505 212.834C543.836 213.386 480.179 251.421 482.161 254.646C483.758 257.402 558.594 206.991 560.081 209.61" stroke="#262626" stroke-width="0.287179" stroke-linecap="round" stroke-linejoin="round"/>
<path d="M395.927 136.515C395.927 136.708 418.504 123.203 418.614 123.423C419.385 124.719 389.87 146.107 390.007 146.327C391.246 148.477 439.237 116.34 439.898 117.47C442.293 121.659 363.988 162.975 366.026 166.53C367.485 169.011 453.224 115.43 453.527 115.981C453.829 116.533 367.237 168.625 368.779 171.298C369.66 172.842 470.652 110.882 471.341 112.04C472.249 113.611 366.907 176.921 367.705 178.189C368.504 179.457 476.489 110.827 478.472 114.273C480.041 117.029 366.742 176.645 370.431 183.178C370.872 183.894 490.256 113.804 490.311 113.887C492.376 117.47 364.098 191.253 364.924 192.714C366.604 195.47 490.284 114.135 492.927 118.738C495.845 123.781 364.346 196.766 365.475 198.667C366.301 200.101 421.313 165.593 421.643 166.199C423.405 169.259 362.474 203.105 364.071 205.861C364.759 207.046 427.039 168.404 427.397 169.204C428.609 171.326 354.352 214.791 355.646 217.024C356.361 218.264 419.303 178.63 419.991 179.843C421.973 182.985 358.895 219.422 359.886 220.993C360.106 221.351 415.283 186.43 416.384 188.359C417.485 190.289 367.623 220.634 368.614 222.316C368.614 222.536 421.891 191.308 421.973 191.474C422.992 193.21 369.192 224.107 371.037 227.304C371.037 227.304 413.851 202.499 413.879 202.499C415.173 204.731 367.43 234.14 368.091 235.325C368.504 236.042 416.522 205.778 417.183 206.964C418.587 209.389 359.005 244.641 359.996 246.377C360.161 246.625 421.533 209.692 422.001 210.547C422.469 211.401 361.152 250.512 361.841 251.697C362.997 253.709 410.877 221.379 411.731 222.867C412.227 223.721 369.66 250.208 371.092 252.717C371.56 253.516 424.837 219.118 425.938 221.02C427.04 222.922 374.093 255.611 374.836 256.851C375.993 258.863 423.653 226.147 424.727 228.021C425.525 229.399 378.608 257.264 380.233 260.103C381.197 261.784 423.322 233.12 424.286 234.691C424.479 235.022 388.493 260.792 388.851 261.536C389.044 261.84 427.755 238.88 427.81 239.018C427.865 239.156 379.655 271.073 380.673 272.699C381.692 274.325 434.529 240.148 435.134 241.223C435.134 241.223 388.328 273.746 388.713 274.298C389.759 276.365 438.493 244.227 439.044 245.275C439.595 246.322 389.98 279.727 390.09 280.058C390.2 280.389 435.327 252.496 435.988 253.543C436.318 254.122 390.117 284.937 390.778 286.039C391.935 288.051 438.08 257.705 438.493 258.477C438.906 259.249 402.975 284.744 403.251 285.212C404.545 287.472 441.797 262.832 441.797 262.887C442.926 264.871 407.326 288.961 407.408 289.126C407.491 289.291 458.538 258.422 459.033 259.304C459.529 260.186 421.12 284.937 422.249 286.866C423.378 288.795 462.392 261.261 463.549 263.052C464.705 264.844 425.938 290.173 426.379 290.918C429.545 296.43 543.643 223.005 543.698 223.115C547.47 229.62 419.193 298.194 420.597 300.619C422.717 304.285 549.425 219.504 552.316 224.493C552.316 224.493 437.42 291.331 439.98 295.768C441.88 299.048 536.154 235.132 538.302 238.963C539.623 241.251 445.624 297.725 446.12 298.607C448.571 302.852 542.762 241.995 543.092 242.546C545.846 247.177 447.111 301.529 448.35 303.679C448.653 304.202 535.548 249.051 537.365 252.22C539.183 255.39 462.53 299.71 463.439 301.308C464.099 302.411 528.61 262.308 529.188 263.328" stroke="#262626" stroke-width="0.287179" stroke-linecap="round" stroke-linejoin="round"/>
<path d="M535.107 342.431C535.107 342.431 552.123 332.564 552.123 332.591C552.123 332.619 536.126 346.924 536.677 347.888C536.677 347.888 573.627 326.087 573.819 326.417C574.012 326.748 547.222 347.365 547.552 347.943C548.186 349.046 628.225 297.147 630.152 300.289C632.3 304.01 535.52 355.964 537.833 360.016C537.833 360.016 629.464 304.891 630.428 306.49C631.722 308.723 538.329 365.748 538.466 365.997C539.458 367.705 619.662 317.818 620.213 318.755C621.645 321.263 546.892 362.276 549.149 366.189C549.507 366.823 631.942 316.192 632.878 317.791C635.356 322.118 550.278 366.327 552.729 370.489C554.684 373.824 627.619 323 629.437 326.169C629.987 327.107 566.11 366.465 567.239 368.477C567.955 369.717 615.229 338.958 616 340.281C616.441 341.053 573.682 368.808 574.7 370.599C574.948 371.04 608.429 349.79 609.007 350.782" stroke="#262626" stroke-width="0.287179" stroke-linecap="round" stroke-linejoin="round"/>
<path d="M577.399 122.21C577.399 122.21 595.075 111.93 595.102 111.93C595.35 112.371 576.132 127.557 576.848 128.825C577.013 129.101 589.651 120.557 590.009 121.218C590.009 121.218 573.709 136.157 574.067 136.791C574.425 137.425 608.346 116.229 608.676 116.808C609.007 117.387 572.443 143.791 572.58 144.04C573.351 145.362 622.443 113.06 623.379 114.658C623.985 115.678 573.626 149.249 573.819 149.662C574.012 150.076 631.639 115.072 632.052 116.009C632.933 117.552 579.739 148.642 581.446 151.619C581.611 151.922 630.786 122.486 631.006 122.955C631.226 123.423 576.958 160.494 576.986 160.549C577.867 162.065 617.57 136.295 617.9 136.873C618.561 138.003 577.701 163.498 578.995 165.731C580.29 167.963 620.984 140.456 621.424 141.228C621.424 141.394 574.618 171.932 575.719 173.999C576.187 174.826 625.554 142.276 626.821 144.453C627.509 145.666 566.633 184.611 567.046 185.355C567.734 186.54 616.276 155.891 616.606 156.663C616.936 157.435 582.024 181 582.905 182.516C583.786 184.032 626.573 157.104 626.628 157.242C627.454 158.647 572.663 191.253 574.315 193.899C575.003 195.112 630.565 159.64 631.309 160.963C631.612 161.431 582.52 192.218 583.951 194.699C583.951 194.947 633.043 164.38 633.897 165.814C635.934 169.314 577.729 202.829 578.527 204.207C579.326 205.586 630.538 173.035 631.006 173.889C631.97 175.543 582.657 206.275 583.483 207.708C584.309 209.141 626.656 181.138 627.344 182.378C628.032 183.619 568.753 221.82 569.111 222.398C569.799 223.611 623.214 190.537 623.462 190.978C623.71 191.419 573.406 223.859 574.453 225.761C575.499 227.663 627.674 193.513 628.308 194.616C628.941 195.718 574.976 229.785 575.857 231.301C575.857 231.301 631.777 198.667 631.915 198.916C633.677 201.947 582.52 230.309 584.034 232.927C584.722 234.112 623.627 207.983 624.508 209.554C625.389 211.125 574.81 242.629 575.719 244.117C576.903 246.157 615.56 219.063 616.441 220.579C616.634 220.938 576.628 247.121 577.894 249.244C579.161 251.366 632.603 215.398 633.567 217.079C635.219 219.835 579.711 253.323 580.234 254.232C581.473 256.355 633.732 221.654 634.448 222.922C635.466 224.686 583.346 258.753 583.401 258.753C583.731 259.359 615.477 239.459 615.78 240.038C616.854 241.885 578.94 265.064 579.987 267.049C580.29 267.545 623.242 239.983 624.04 241.526C625.554 244.117 574.48 273.195 575.994 275.648C576.875 277.219 623.765 246.405 624.481 247.645C625.196 248.885 578.032 279.259 578.913 280.554C580.014 282.814 627.344 252.496 627.372 252.496C627.399 252.496 573.406 286.866 574.673 289.264C575.719 291.055 626.077 257.292 626.986 258.946C628.913 262.281 574.232 295.658 574.287 295.768C575.471 297.836 620.516 266.911 621.452 268.51C622.388 270.108 574.425 300.344 575.168 301.584C576.27 303.486 628.17 269.116 628.968 270.494C630.51 273.25 578.445 305.636 578.61 305.966C579.106 306.821 632.272 272.892 633.209 274.408C635.108 277.688 578.858 308.998 580.262 311.396C581.666 313.794 617.432 288.051 618.23 289.347C618.478 289.788 576.49 316.44 577.977 318.976C578.803 320.436 632.025 286.287 632.658 287.362C633.594 288.988 572.47 324.295 574.287 327.465C575.609 329.752 619.056 299.214 620.103 301.005" stroke="#262626" stroke-width="0.287179" stroke-linecap="round" stroke-linejoin="round"/>
<path d="M574.866 52.0931C574.866 52.0931 595.929 39.7449 596.011 39.8827C596.48 40.682 579.739 55.4831 579.822 55.5931C580.455 56.7231 603.996 40.8474 604.354 41.4262C605.758 43.8792 560.824 70.1461 562.035 72.2401C562.751 73.4811 612.173 42.9146 612.339 43.1626C612.504 43.4107 568.533 72.9851 569.332 74.3901C569.745 75.1071 624.123 42.0326 624.398 42.5563C624.674 43.0799 571.947 78.3871 572.36 78.9931C572.773 79.6001 624.839 46.6906 625.72 48.1789C626.601 49.6673 578.445 78.1111 580.07 80.9221C580.235 81.2261 632.768 50.4111 632.796 50.6041C633.705 52.1751 579.023 87.1791 579.409 87.8131C579.794 88.4471 628.225 57.4951 629.162 59.0661C630.098 60.6371 585.108 89.9631 585.494 90.6521C585.879 91.3411 628.776 65.0741 629.024 65.3501C630.18 67.3901 590.257 91.6721 591.331 93.5181C591.771 94.2901 639.321 65.0471 639.624 65.5981C640.423 66.9761 592.818 97.0191 593.754 98.4801C594.001 98.8931 629.547 77.2571 629.74 77.6701" stroke="#262626" stroke-width="0.287179" stroke-linecap="round" stroke-linejoin="round"/>
<path d="M774.923 241.472C774.923 241.472 791.442 231.852 791.442 231.88C791.966 232.762 771.619 248.417 772.169 249.382C772.72 250.346 801.465 232.376 801.492 232.431" stroke="#262626" stroke-width="0.287179" stroke-linecap="round" stroke-linejoin="round"/>
<path d="M706.613 159.502C707.274 160.604 775.253 117.911 776.079 119.344C776.079 119.344 724.152 152.115 725.721 154.816C725.859 155.064 792.021 114.906 792.709 116.229C792.902 116.56 745.903 148.394 746.398 149.304C746.894 150.213 793.508 119.923 794.444 121.549C795.628 123.616 743.039 154.623 744.333 156.856C744.333 156.856 799.235 124.057 799.703 124.884C800.171 125.711 751.575 158.785 751.657 158.923C752.125 159.695 794.499 133.594 794.747 134.117C795.325 135.137 766.525 154.623 767.461 156.167C767.627 156.442 811.515 129.735 811.983 130.451C813.414 132.904 766.112 160.163 767.489 162.534C768.453 164.298 812.946 133.979 813.965 135.633C814.323 136.267 773.436 163.664 774.18 164.987C774.675 165.814 806.146 145.363 806.641 146.245C807.137 147.126 771.013 171.216 771.867 172.704C772.142 173.173 807.99 150.406 808.624 151.454C808.871 151.922 763.799 180.366 765.259 182.874C765.809 183.839 815.232 153.521 815.424 153.879C816.278 155.368 774.895 180.559 776.245 182.902C776.245 182.902 820.298 156.608 820.711 157.214C821.124 157.821 770.435 192.466 770.49 192.576C771.619 194.506 825.805 160.439 825.887 160.577" stroke="#262626" stroke-width="0.287179" stroke-linecap="round" stroke-linejoin="round"/>
<path d="M688.881 219.091C689.68 220.497 752.428 180.063 753.419 181.8C754.108 182.985 697.444 216.059 699.372 219.394C700.005 220.524 746.839 188.497 748.326 191.088C748.326 191.088 706.778 219.56 707.632 220.993C708.485 222.426 766.305 185.493 766.993 186.678C767.682 187.863 716.965 221.516 717.158 221.847C718.232 223.694 780.485 182.296 781.669 184.556C782.274 185.631 729.355 220.662 729.493 221.075C729.989 221.957 795.325 181.552 795.958 182.654C796.592 183.756 746.536 213.909 748.161 216.666C748.491 217.217 830.76 167.715 831.366 168.57C831.972 169.424 754.741 219.146 754.769 219.201C756.2 221.682 819.114 180.78 819.637 181.717C820.491 183.178 766.167 215.122 767.819 218.016C769.471 220.91 823.657 184.363 824.263 185.41C824.263 185.603 774.317 217.713 775.584 219.89C776.107 220.8 828.751 185.989 830.127 188.387C830.733 189.434 777.594 224.218 777.979 224.879C778.365 225.541 820.105 199.687 820.491 200.321C820.876 200.955 804.521 214.874 804.962 215.646C805.402 216.417 830.485 200.817 830.54 200.872C830.926 201.562 806.586 219.394 807.302 220.662C807.495 220.965 834.615 204.456 834.835 204.786" stroke="#262626" stroke-width="0.287179" stroke-linecap="round" stroke-linejoin="round"/>
<path d="M678.914 136.157C678.914 136.295 700.583 123.396 700.665 123.561C701.381 124.774 674.344 144.894 674.454 145.087C675.665 147.182 722.114 116.092 722.747 117.167C725.087 121.218 649.178 161.431 651.16 164.904C652.537 167.302 735.578 115.43 735.881 115.926C736.183 116.422 652.537 167.054 654.051 169.617C654.905 171.078 752.979 110.965 753.612 112.068C754.493 113.611 652.014 175.46 652.757 176.701C653.501 177.941 758.733 110.993 760.633 114.355C762.147 116.974 652.042 175.129 655.621 181.386C656.034 182.103 772.252 113.859 772.307 113.942C774.4 117.442 649.123 189.655 649.949 191.06C651.573 193.817 772.169 114.465 774.758 118.931C777.511 123.864 649.426 195.14 650.555 197.096C651.298 198.364 701.657 166.778 701.959 167.385C703.584 170.141 647.719 201.727 649.178 204.235C649.811 205.365 709.201 168.404 709.751 169.314C710.935 171.353 639.541 213.413 640.918 215.535C641.606 216.721 702.785 178.244 703.446 179.402C705.208 182.433 644.057 217.988 645.021 219.504C645.268 219.918 703.143 183.178 704.327 185.245C705.511 187.312 652.702 219.063 653.749 220.855C653.914 221.158 721.453 181.414 721.591 181.634C722.857 183.839 653.638 221.847 655.979 225.899C655.979 226.119 725.032 185.879 725.087 185.989C727.07 189.407 651.959 232.183 653.005 234.002C654.051 235.821 737.45 182.048 738.799 184.39C741.057 188.304 643.258 242.271 644.883 245.027C644.883 245.275 705.291 209.003 705.759 209.83C706.227 210.657 645.874 249.216 646.562 250.401C647.664 252.358 694.636 220.717 695.462 222.15C695.957 222.977 654.162 249.023 655.703 251.476C656.144 252.248 707.741 219.008 708.788 220.8C709.834 222.591 658.594 254.481 659.228 255.748C660.329 257.65 706.502 226.037 707.549 227.828C708.292 229.151 662.917 256.3 664.514 259.056C665.395 260.627 705.539 233.368 706.392 234.856C706.585 235.187 672.526 259.855 672.912 260.572C673.105 260.847 709.559 239.211 709.641 239.349C709.724 239.487 663.55 270.246 664.459 271.79C665.368 273.333 716.057 240.644 716.772 241.637C716.772 241.637 672.113 272.975 672.471 273.609C673.518 275.4 719.718 245.137 720.214 246.047C720.71 246.956 673.683 279.121 673.793 279.121C673.903 279.121 716.635 252.937 717.24 253.984C717.571 254.536 673.683 284.137 674.288 285.185C675.362 287.031 718.81 258.532 719.195 259.221C719.581 259.91 686.321 284.027 686.568 284.44C687.78 286.508 722.362 263.714 722.362 263.769C723.435 265.616 690.616 288.299 690.698 288.575C690.781 288.85 739.019 259.58 739.487 260.379C739.955 261.178 704.272 284.606 705.346 286.48C706.42 288.354 741.8 263.19 742.764 264.844C743.728 266.498 708.788 289.953 709.173 290.614C711.541 294.694 795.27 240.782 795.325 240.837C798.078 245.771 702.235 298.552 703.309 300.399C705.071 303.458 814.213 230.722 816.636 234.884C816.636 235.022 720.407 291.882 722.554 295.52C724.344 298.58 812.726 238.743 814.736 242.243C815.975 244.393 728.199 297.532 728.667 298.359C730.952 302.328 819.086 245.385 819.389 245.991C821.867 250.319 729.768 301.474 730.925 303.486C731.2 303.982 811.68 252.965 813.332 255.859C814.984 258.753 745.022 299.765 745.875 301.226C746.426 302.19 804.879 265.946 805.375 266.828" stroke="#262626" stroke-width="0.287179" stroke-linecap="round" stroke-linejoin="round"/>
<path d="M958.68 243.235C958.68 243.235 975.833 233.285 975.861 233.313C975.888 233.34 955.569 249.85 956.23 251.008C956.23 251.008 997.144 226.753 997.53 227.222" stroke="#262626" stroke-width="0.287179" stroke-linecap="round" stroke-linejoin="round"/>
<path d="M906.56 156.911C907.523 158.62 979.578 111.957 980.762 114.025C981.45 115.21 925.2 148.091 927.099 151.399C927.678 152.391 969.473 123.837 970.795 126.152C970.795 126.152 932.881 152.667 933.652 153.989C934.423 155.312 983.377 123.947 983.956 124.912C984.534 125.876 939.902 156.332 940.095 156.635C940.921 158.041 992.133 124.25 993.124 125.986C993.675 126.924 947.144 158.427 947.336 158.813C947.529 159.199 1000.28 127.144 1000.75 127.943C1001.47 129.211 958.818 155.312 960.222 157.738C960.222 157.986 1003.67 132.105 1003.89 132.491C1004.11 132.877 959.699 164.298 959.699 164.298C960.47 165.621 994.611 143.488 994.886 143.984C995.162 144.481 964.352 165.676 965.343 167.412C966.334 169.149 1001.14 145.859 1001.55 146.493C1001.55 146.493 963.361 172.649 964.324 174.358C964.737 175.074 1008.79 146.162 1009.86 148.036C1010.47 149.083 957.772 183.646 958.157 184.308C958.542 184.969 1002.21 157.876 1002.71 158.565C1002.84 158.813 984.617 174.22 985.112 175.102C985.608 175.984 1014.96 157.765 1014.99 157.848C1015.45 158.62 986.626 178.657 987.452 180.118C987.755 180.614 1021.13 159.943 1021.43 160.494C1021.43 160.494 1007.66 173.696 1008.13 174.523C1008.13 174.523 1025.75 164.022 1025.89 164.27" stroke="#262626" stroke-width="0.287179" stroke-linecap="round" stroke-linejoin="round"/>
<path d="M872.143 136.24C872.143 136.24 893.812 123.478 893.922 123.644C894.61 124.856 868.068 144.701 868.178 144.894C869.39 147.016 915.783 115.926 916.416 117.001C918.757 121.053 843.15 161.1 845.133 164.573C846.509 166.971 929.247 115.292 929.55 115.788C929.853 116.285 846.262 166.861 847.748 169.424C848.602 170.913 946.29 111.02 946.868 112.123C947.749 113.639 845.491 175.295 846.234 176.645C846.977 177.996 951.852 111.131 953.779 114.493C955.293 117.111 845.573 175.13 849.153 181.303C849.566 182.02 965.673 113.859 965.729 113.942C967.738 117.442 842.572 189.6 843.371 191.115C844.995 193.872 965.288 114.714 967.849 119.179C970.409 123.644 842.792 195.222 843.949 197.152C844.747 198.557 899.594 164.243 899.924 164.794C901.686 167.826 840.975 201.589 842.545 204.318C843.233 205.475 906.56 166.227 906.945 167.054C908.212 169.204 832.77 213.275 834.064 215.535C834.808 216.803 898.63 176.59 899.318 177.803C901.053 181 837.176 217.768 838.194 219.422C838.415 219.808 894.28 184.418 895.409 186.347C896.537 188.277 845.848 219.008 846.895 220.745C847.032 220.965 900.915 189.296 901.025 189.462C902.044 191.226 847.253 222.536 849.125 225.816C849.125 225.816 892.875 200.459 892.903 200.514C894.225 202.774 845.463 232.679 846.096 233.892C846.509 234.608 895.106 203.959 895.822 205.172C897.226 207.625 836.955 243.208 838.002 244.972C838.139 245.22 900.062 207.956 900.557 208.81C901.053 209.665 838.938 249.161 839.654 250.374C840.81 252.386 889.214 219.752 890.04 221.241C890.563 222.123 847.363 248.803 848.74 251.559C849.208 252.386 902.705 217.823 903.806 219.725C904.907 221.627 851.493 254.536 852.319 255.859C853.475 257.871 901.163 225.127 902.237 227.001C903.035 228.379 855.953 256.3 857.605 259.166C858.569 260.82 900.475 232.293 901.383 233.864C901.576 234.195 865.59 259.91 866.058 260.654C866.223 260.958 904.357 238.329 904.412 238.605C904.467 238.88 856.999 270.219 857.825 271.79C858.651 273.361 910.965 239.68 911.571 240.727C911.571 240.865 865.37 272.947 865.728 273.581C866.829 275.455 914.462 244.2 914.985 245.11C915.508 246.019 866.967 278.983 867.077 279.176C867.187 279.369 910.992 252.358 911.598 253.433C911.928 254.012 866.911 284.192 867.545 285.267C868.674 287.197 913.305 257.898 913.718 258.615C914.131 259.332 879.604 284.055 879.88 284.523C881.119 286.673 916.829 263.108 916.857 263.163C917.958 265.064 883.817 288.409 883.817 288.547C883.817 288.685 933.377 258.78 933.9 259.635C934.423 260.489 897.391 284.441 898.52 286.425C899.649 288.409 936.791 262.005 937.782 263.741C938.773 265.478 901.989 289.898 902.292 290.614C904.825 294.997 995.244 236.813 995.272 236.868C998.328 242.133 895.271 298.414 896.4 300.261C898.299 303.706 1013.94 226.478 1016.69 230.943C1016.69 230.943 913.388 291.579 915.728 295.686C917.463 298.718 1005.13 239.377 1007.11 242.849C1008.35 244.999 921.345 297.698 921.758 298.525C924.043 302.494 1012.26 245.523 1012.62 246.157C1015.12 250.457 922.887 301.667 924.071 303.706C924.346 304.175 1005.27 252.882 1006.95 255.776C1008.63 258.67 938.113 299.875 938.911 301.474C939.489 302.494 999.182 265.45 999.705 266.332" stroke="#262626" stroke-width="0.287179" stroke-linecap="round" stroke-linejoin="round"/>
<path d="M1081.92 160.219C1082.41 161.101 1139.44 125.463 1140.07 126.593C1140.07 126.593 1093.07 156.911 1094.5 159.309C1094.5 159.474 1150.09 126.014 1150.59 126.896C1150.72 127.144 1116.01 152.253 1116.42 152.997C1116.61 153.301 1145.88 134.834 1146.37 135.688C1146.87 136.543 1116.86 157.325 1117.63 158.785C1117.63 158.785 1146.57 141.78 1146.7 141.973" stroke="#262626" stroke-width="0.287179" stroke-linecap="round" stroke-linejoin="round"/>
<path d="M1026.71 122.211C1026.71 122.211 1044.36 111.93 1044.39 111.93C1044.64 112.371 1025.45 127.558 1026.16 128.825C1026.33 129.101 1038.97 120.557 1039.32 121.218C1039.32 121.218 1023.03 136.157 1023.41 136.791C1023.8 137.425 1057.69 116.202 1058.02 116.781C1058.35 117.36 1021.76 143.764 1021.92 144.012C1023.38 146.52 1101.44 93.9321 1103.23 97.1571C1104.14 98.7551 1022.86 149.111 1023.22 149.745C1023.91 150.958 1105.63 100.133 1106.51 101.622C1107.83 103.909 1028.37 147.347 1030.87 151.702C1031.15 152.198 1105.21 107.823 1105.52 108.567C1105.82 109.312 1035.97 154.982 1035.97 155.037C1037.26 157.269 1094.25 120.199 1094.75 121.053C1095.49 122.348 1047.56 151.233 1049.04 153.824C1050.92 157.077 1108.65 117.994 1109.31 119.013C1109.45 119.234 1048.14 157.187 1049.68 159.833C1050.45 161.183 1123.69 112.261 1125.75 115.733C1126.72 117.387 1040.4 170.003 1041.03 171.05C1042.33 173.311 1125.83 120.033 1126.69 121.439C1127.21 122.321 1055.24 165.07 1056.97 168.074C1058.71 171.078 1142.96 118.049 1143.1 118.462C1144.53 120.915 1045.6 174.937 1048.3 179.622C1048.99 180.835 1104.94 145.087 1105.71 146.548C1106.01 147.016 1056.48 177.996 1057.94 180.504C1058.08 180.752 1107.5 149.883 1108.3 151.399C1110.33 154.927 1051.71 188.607 1052.54 189.986C1053.37 191.364 1104.85 158.592 1105.4 159.419C1106.37 161.073 1056.67 192.025 1057.5 193.458C1058.32 194.892 1101.05 166.668 1101.74 167.881C1102.43 169.094 1042.79 207.57 1043.15 208.177C1043.87 209.417 1097.64 176.094 1097.89 176.535C1098.14 176.976 1047.31 209.61 1048.33 211.484C1049.35 213.358 1102.05 179.043 1102.65 180.146C1103.26 181.248 1048.96 215.508 1049.73 217.024C1049.73 217.162 1106.01 184.198 1106.15 184.418C1107.91 187.477 1056.4 216.032 1057.91 218.678C1058.6 219.863 1097.83 193.486 1098.74 195.057C1099.65 196.628 1048.66 228.131 1049.59 229.84C1050.78 231.907 1089.77 204.566 1090.67 206.109C1090.87 206.468 1050.5 232.817 1051.74 234.967C1052.98 237.117 1106.81 200.928 1107.77 202.581C1109.42 205.338 1053.7 238.991 1054.22 239.9C1055.46 242.023 1107.94 207.184 1108.65 208.452C1109.67 210.189 1057.85 244.035 1057.91 244.283C1058.24 244.862 1089.71 225.237 1089.99 225.734C1091.03 227.553 1054.06 250.291 1055.16 252.221C1055.43 252.717 1097.59 225.706 1098.44 227.222C1099.9 229.702 1050.92 257.871 1052.29 260.296C1053.15 261.785 1098.22 232.211 1098.88 233.368C1099.54 234.526 1056.01 262.942 1056.7 264.127C1057.85 266.112 1102.05 237.833 1102.07 237.888C1102.1 237.944 1053.15 269.612 1054.44 271.79C1055.35 273.416 1101.74 242.436 1102.6 243.952C1104.28 246.708 1057.14 276.475 1057.19 276.558C1058.24 278.405 1099.07 250.484 1099.9 251.752C1100.72 253.02 1060.8 279.314 1061.35 280.361C1062.37 282.098 1111.3 249.795 1112.04 251.063C1113.36 253.378 1068.92 281.988 1069.06 282.263C1069.56 283.118 1122.61 249.189 1123.55 250.76C1125.28 253.737 1074.54 282.566 1075.81 284.744C1077.07 286.921 1117.52 258.532 1118.43 260.103C1118.68 260.517 1078.62 286.205 1080.02 288.658C1081.07 290.449 1143.18 250.374 1143.95 251.725C1144.72 253.075 1083.38 288.878 1085.14 292.075C1086.63 294.666 1135.17 260.462 1136.32 262.501C1137.48 264.541 1100.15 289.402 1100.28 289.677C1100.42 289.953 1134.15 268.703 1134.76 269.75C1134.76 269.75 1097.39 296.623 1097.86 297.45C1098.33 298.277 1136.74 273.609 1137.34 274.629C1137.95 275.648 1107.55 296.595 1108.24 297.863C1108.6 298.47 1134.43 281.85 1134.81 282.511C1135.2 283.173 1127.24 293.123 1127.29 293.205C1127.35 293.288 1143.81 283.118 1144.06 283.531" stroke="#262626" stroke-width="0.287179" stroke-linecap="round" stroke-linejoin="round"/>
<path d="M1041.61 86.2141L1059.95 75.6031C1060.09 75.9061 1057.99 83.0452 1058.02 83.1002C1058.3 83.5682 1066.28 78.0011 1066.28 78.2491C1067.16 79.7651 1040.73 97.5421 1041.5 98.9481C1041.94 99.7201 1077.65 77.8362 1077.73 78.0012C1077.82 78.1662 1047.78 100.354 1048.36 101.346C1048.93 102.338 1095.55 73.5081 1095.8 73.9221C1096.04 74.3351 1049.95 105.976 1050.31 106.583C1050.67 107.189 1098.19 77.1191 1098.96 78.4691C1099.73 79.8201 1053.34 107.575 1054.91 110.304C1055.07 110.552 1102.95 82.4941 1102.95 82.5211C1103.86 84.0651 1050.45 118.352 1050.83 119.041C1051.22 119.73 1096.98 90.3492 1097.83 91.8372" stroke="#262626" stroke-width="0.287179" stroke-linecap="round" stroke-linejoin="round"/>
</g>
<g opacity="0.46">
<path d="M101.375 162.341C101.375 162.341 177.45 119.234 177.835 119.923C178.661 121.439 127.559 153.218 127.945 153.907C127.945 154.045 187.142 121.053 187.142 121.053C187.142 121.053 135.847 155.754 135.874 155.809C135.902 155.864 185.434 126.869 186.15 127.916C186.866 128.963 138.38 160.687 138.38 160.687C138.765 161.376 205.314 123.561 205.314 123.561C205.754 124.333 158.039 153.879 158.975 155.588C159.526 156.553 196.943 134.503 196.943 134.503C197.356 135.192 161.15 160.604 161.15 160.604C161.15 160.604 204.074 135.799 204.487 136.543C204.487 136.736 170.897 161.349 170.897 161.349C171.227 161.927 211.674 138.72 211.674 138.72C212.61 140.402 162.114 172.566 162.114 172.566C162.444 173.173 222.467 139.079 222.467 139.079C222.467 139.079 176.679 170.472 176.927 170.858C177.174 171.243 224.89 142.882 225.44 143.902C225.991 144.922 175.385 178.079 175.385 178.079C175.385 178.079 211.343 156.884 211.866 157.821C211.866 157.821 183.81 179.512 183.893 179.65C184.526 180.78 225.193 155.809 225.468 156.58L182.075 186.899C182.433 187.588 220.787 165.4 220.787 165.4C220.787 165.4 183.7 190.675 184.361 191.86C184.361 191.86 216.988 173.035 217.401 173.586L174.669 203.601L229.736 173.063C230.562 174.578 188.986 201.975 188.986 201.975L226.817 180.973C227.505 182.186 185.517 210.133 185.517 210.133C185.517 210.133 223.458 189.104 223.513 189.104C223.568 189.104 185.82 216.059 185.93 216.252C186.04 216.445 238.243 185.493 238.959 186.844C239.427 187.726 174.173 227.305 174.999 228.628L226.487 200.128C227.56 202.058 173.76 235.711 173.76 235.711C174.586 237.227 226.652 205.751 226.9 206.22C226.9 206.22 175.798 238.467 176.817 240.314C177.367 241.279 225.413 213.331 225.413 213.331" stroke="#262626" stroke-width="0.287179" stroke-linecap="round" stroke-linejoin="round"/>
<path d="M82.8181 267.986C82.8181 267.986 120.621 246.377 120.869 246.984C120.869 246.984 89.2884 269.888 89.6739 270.605C90.0593 271.321 122.301 252.193 122.438 252.441C123.319 254.012 77.2839 282.759 77.6694 283.586C77.6694 283.586 133.644 252.276 133.755 252.469C133.865 252.662 84.1947 284.799 84.7179 285.957C84.7179 285.957 140.5 254.453 140.748 254.867C140.996 255.28 104.432 281.326 104.432 281.326C104.872 282.125 151.541 255.087 151.596 255.17C151.982 255.859 103.137 288.244 103.137 288.244C103.137 288.244 225.881 218.65 226.487 219.753C228.001 222.454 114.399 288.327 114.399 288.327C114.399 288.327 236.316 219.697 236.729 220.442C236.729 220.442 106.249 298.222 106.634 298.938L218.227 236.924C219.356 238.936 127.725 292.048 128.275 293.15C129.267 294.942 222.192 241.03 222.192 241.03C223.458 243.291 131.855 295.741 132.598 297.064L227.285 244.531C228.442 246.598 137.003 300.923 137.003 300.923C137.003 300.923 220.705 253.902 220.98 254.343C221.806 255.831 142.978 300.344 144.493 303.1C144.493 303.1 207.626 267.518 207.819 267.931" stroke="#262626" stroke-width="0.287179" stroke-linecap="round" stroke-linejoin="round"/>
<path d="M95.7859 132.326C95.7859 132.326 114.564 121.797 114.619 121.88C114.674 121.962 75.5765 148.312 76.2373 149.442L145.071 111.241" stroke="#262626" stroke-width="0.287179" stroke-linecap="round" stroke-linejoin="round"/>
<path d="M43.28 122.128L60.0754 112.812C60.4333 113.473 42.2613 129.018 42.2613 129.018L71.2814 112.894C71.6944 113.666 37.5256 137.948 37.5256 137.948C37.5256 137.948 72.8233 117.442 73.3189 118.131C73.9246 119.261 37.9386 143.543 38.1588 143.957C38.3791 144.37 89.7838 115.127 89.8389 115.21C89.8939 115.292 34.9374 151.977 34.9374 151.977C34.9374 151.977 80.9731 125.325 81.4412 126.179C81.5513 126.372 42.0135 154.43 42.0135 154.43L81.0557 132.767C81.0557 132.767 48.0158 156.911 48.0158 157.352C48.6766 158.51 89.5911 134.283 89.5911 134.283C89.8389 134.724 32.0464 172.566 32.0464 172.566C32.0464 172.566 82.3223 142.965 83.0106 144.205C83.0106 144.205 30.9176 178.216 31.4132 179.154C33.0652 182.13 141.684 113.528 143.584 116.919L46.6116 177.004L153 117.966C153 117.966 33.7535 186.954 35.1852 189.655C36.0388 191.198 175.605 111.764 175.605 111.764C175.605 111.764 43.8307 190.178 44.2437 190.923C44.6567 191.667 180.809 113.584 181.47 114.686C181.47 114.686 38.7646 200.128 38.8472 200.128C38.9298 200.128 110.434 158.785 110.984 160.108C110.984 160.329 31.9088 210.271 31.9088 210.271C32.3218 211.153 92.3169 174.992 93.1153 176.425L40.389 211.98C41.1324 213.303 90.3069 183.398 90.6924 184.06C91.0779 184.721 40.7745 217.299 41.1049 217.878C41.7657 219.063 99.9711 185.217 99.9711 185.217C99.9711 185.217 47.1072 220.304 47.355 220.717C47.6028 221.131 98.4017 192.383 98.4017 192.383C98.4017 192.383 37.3879 231.742 37.8284 232.348C37.8284 232.348 83.5062 206.302 83.8091 206.853C83.8091 206.853 40.6368 236.896 40.7194 237.172C41.4628 238.495 96.3092 204.648 96.9975 205.944C97.9887 207.735 32.6797 247.783 32.6797 247.783C32.9275 248.224 83.5613 219.422 83.5613 219.422C84.2496 220.662 39.6732 249.74 39.8384 249.988C40.389 250.98 98.3742 217.52 98.3742 217.52C99.2553 219.118 49.7228 250.815 49.7228 250.815C50.2735 251.89 86.4247 230.446 86.4247 230.446C86.9203 231.356 46.1435 258.89 46.2536 259.056L90.7199 234.25L38.0212 270.026C38.0212 270.026 90.4997 240.396 90.7199 240.782C90.9402 241.168 35.2954 277.302 35.5982 277.688L94.3268 245.137C94.3268 245.137 46.0334 277.743 46.2261 278.074C46.4188 278.404 111.15 240.589 111.755 241.719C111.755 241.719 36.8097 286.921 37.9386 288.961C37.9386 288.961 104.019 249.685 105.092 251.724C105.753 252.937 46.529 290.504 46.529 290.504C46.9695 291.331 85.5437 267.242 86.232 268.455C86.3972 268.785 44.7668 297.836 44.7668 297.836C44.9871 298.277 82.2672 276.999 82.2672 276.999L31.9363 311.203L93.5008 277.054C93.666 277.33 37.0575 313.987 37.3604 314.511C37.6632 315.034 83.3135 288.161 83.7265 288.768C84.5525 290.284 39.6732 318.535 40.0311 319.334C40.389 320.133 97.0801 286.039 97.7685 287.279C98.1539 287.996 49.1171 320.602 49.1171 320.602L94.7398 295.272C95.2905 296.237 41.0223 330.662 41.3252 331.103L93.5834 302.108L37.2778 339.757C37.2778 339.757 91.8763 309.191 91.9865 309.439L36.2315 346.648C36.2315 346.648 84.0293 319.086 84.5249 319.858L39.921 350.893C40.5818 352.105 95.5933 319.334 95.8962 319.858L47.823 352.932C47.9882 353.18 88.3245 329.752 88.6274 330.304C88.6274 330.304 46.942 358.307 47.5202 359.382C47.5202 359.382 82.4049 338.903 82.8729 339.785L44.7668 367.044L84.4699 344.994C85.1307 346.179 41.6831 375.037 41.6831 375.037C41.6831 375.037 91.7662 346.207 92.2618 347.061L50.5488 376.525C50.5488 376.525 87.9115 355.606 87.9941 355.743C88.0767 355.881 70.2351 371.895 70.2351 371.895L87.471 362.331" stroke="#262626" stroke-width="0.287179" stroke-linecap="round" stroke-linejoin="round"/>
<path d="M315.116 163.388C315.116 163.388 365.475 134.503 365.888 135.22C365.888 135.22 337.198 156.608 337.556 157.269C337.914 157.931 361.537 143.764 361.647 143.902C362.198 144.922 333.949 165.014 334.114 165.455L366.659 147.375" stroke="#262626" stroke-width="0.287179" stroke-linecap="round" stroke-linejoin="round"/>
<path d="M305.755 132.188C305.755 132.188 324.037 121.935 324.092 122.018C324.147 122.1 289.428 146.162 290.006 147.237L355.26 111.02" stroke="#262626" stroke-width="0.287179" stroke-linecap="round" stroke-linejoin="round"/>
<path d="M254.02 122.045L270.815 112.729C271.173 113.391 252.974 128.936 252.974 128.936L281.966 112.839C282.407 113.611 248.265 137.866 248.265 137.866C248.265 137.866 283.48 117.442 283.838 118.104C284.472 119.234 248.568 143.461 248.788 143.874C249.009 144.288 300.386 115.1 300.441 115.21C300.496 115.32 245.76 151.895 245.76 151.895C245.76 151.895 291.906 125.187 292.374 126.042C292.374 126.235 252.726 154.348 252.726 154.348L291.768 132.684C291.768 132.684 258.728 156.828 258.728 157.269C259.389 158.427 300.193 134.255 300.193 134.255C300.468 134.724 242.786 172.401 242.786 172.401C242.786 172.401 292.842 142.992 293.558 144.233C293.558 144.233 241.657 178.134 242.153 179.071C243.75 181.827 349.946 114.934 351.763 118.242L257.351 176.921L351.323 124.801C351.323 124.801 244.576 187.147 245.925 189.572C246.613 190.84 364.869 123.423 364.869 123.423C364.869 123.423 254.736 190.068 254.983 190.702C255.231 191.336 362.694 129.707 363.217 130.645C363.217 130.645 249.504 199.908 249.559 200.018C249.614 200.128 324.45 156.746 325.166 158.069C325.166 158.289 242.566 210.161 242.566 210.161C243.006 211.153 302.286 175.323 303.057 176.783L251.266 211.897C252.01 213.193 300.551 183.674 300.826 184.335C301.102 184.997 251.514 217.217 251.845 217.796C252.505 218.981 310.518 185.245 310.518 185.245C310.518 185.245 257.847 220.221 258.205 220.635C258.563 221.048 309.086 192.328 309.086 192.328C309.086 192.328 248.128 231.659 248.513 232.266C248.513 232.266 294.329 206.137 294.631 206.688C294.631 206.688 251.322 236.813 251.404 237.006C252.12 238.329 306.471 204.759 307.214 206.027C308.288 207.928 243.447 247.728 243.447 247.728C243.667 248.169 293.227 220.166 293.227 220.166C293.888 221.379 250.44 249.85 250.606 250.126C251.101 251.063 306.801 218.953 306.801 218.953C307.655 220.469 260.49 250.953 260.49 250.953C260.958 251.835 292.979 232.927 292.979 232.927C293.448 233.754 256.938 259.028 257.021 259.194L295.32 237.778L248.761 269.943C248.761 269.943 292.209 245.413 292.401 245.716C292.594 246.019 246.09 277.302 246.31 277.605L292.842 251.78C292.842 251.78 256.828 277.743 257.048 277.991C257.269 278.239 306.333 249.602 306.774 250.429C306.774 250.429 247.88 287.307 248.761 289.016C248.761 289.016 294.962 261.647 295.568 262.97C296.008 263.797 257.214 290.532 257.214 290.532C257.654 291.359 296.449 267.132 297.137 268.482C297.137 268.758 263.739 293.288 263.739 293.288L293.117 276.999L262.39 300.344L304.406 277.054C304.406 277.054 279.075 297.064 279.213 297.312C279.35 297.56 294.549 288.658 294.631 288.768" stroke="#262626" stroke-width="0.287179" stroke-linecap="round" stroke-linejoin="round"/>
<path d="M421.257 162.341C421.257 162.341 495.157 119.013 496.148 120.805C496.451 121.329 442.733 154.651 443.614 156.25L509.915 119.454C510.658 120.805 461.841 150.599 462.612 152.005C462.805 152.308 513.577 123.726 513.577 123.726L462.888 158.151C463.576 159.392 520.57 126.152 520.57 126.152C520.79 126.565 465.503 162.975 465.503 162.975C465.806 163.526 519.771 132.271 520.019 132.657C520.267 133.042 481.005 160.632 481.005 160.632L518.34 139.933C518.34 139.933 491.33 161.156 491.357 161.211C491.385 161.266 522.277 142.717 522.828 143.736C522.828 143.736 479.848 172.263 480.537 173.531C480.894 174.137 524.397 149.194 524.397 149.194C524.397 149.194 499.755 168.653 499.975 169.038C500.416 169.893 540.587 145.941 540.834 146.382C541.66 147.898 498.048 174.523 498.846 175.956L538.301 154.072L501.82 180.614L547.14 155.45C547.14 155.45 495.184 189.104 495.79 190.316C496.396 191.529 546.259 162.313 546.259 162.313C546.864 163.416 500.388 194.065 500.388 194.065C500.388 194.065 541.853 171.023 541.881 171.05C542.376 171.932 492.927 204.511 492.927 204.511C493.505 205.558 545.79 174.192 546.176 174.964L497.359 208.397C497.359 208.397 558.841 173.118 559.337 174C559.832 174.882 502.949 211.429 503.004 211.539C503.059 211.649 560.328 179.457 560.466 179.677C561.429 181.386 506.803 215.756 506.803 215.756C506.803 215.756 551.875 189.214 552.536 190.371C552.536 190.371 495.46 227.332 495.9 228.104C495.9 228.104 545.24 199.384 545.818 200.542C546.672 202.085 501.957 231.191 501.957 231.191C502.288 231.797 554.05 200.873 554.684 201.92C554.684 201.92 494.11 240.975 494.413 241.664C494.413 241.664 550.086 208.755 550.939 210.299C552.233 212.669 483.29 251.862 484.254 253.599C484.804 254.591 558.125 212.614 558.125 212.614" stroke="#262626" stroke-width="0.287179" stroke-linecap="round" stroke-linejoin="round"/>
<path d="M406.637 130.204L427.259 118.765C428.058 120.199 383.206 149.469 383.206 149.469C383.206 149.469 454.297 109.89 454.352 110.001C455.343 111.765 370.789 162.672 370.789 162.672C371.504 163.939 456.748 112.068 457.987 114.3C459.501 117.056 366.686 169.92 367.264 170.94C367.842 171.96 473.736 111.516 473.873 111.765C474.011 112.013 360.822 180.835 360.822 180.835C361.427 181.91 470.707 116.808 472.001 119.151C472.249 119.62 365.943 184.308 365.943 184.308L479.16 121.466C479.16 121.466 369.66 186.788 370.376 188.139C372.413 191.86 495.129 118.931 495.129 118.931C495.735 120.033 353.938 203.574 353.938 203.574C353.938 203.574 416.053 167.054 416.962 168.597C416.962 168.597 352.176 209.362 352.809 210.492C353.443 211.622 410.437 176.508 411.29 178.079L367.898 208.397L408.344 185.962C408.344 185.962 356.223 219.587 356.884 220.8C357.187 221.324 419.825 185.879 419.825 185.879C419.825 185.879 366.246 221.517 366.411 221.709C366.576 221.902 417.32 192.962 417.54 193.348C417.76 193.734 361.895 230.474 361.923 230.529C361.95 230.584 418.752 197.951 419.22 198.861C419.22 199.026 356.306 240.066 356.306 240.066C356.636 240.672 408.234 209.748 408.867 210.905L366.19 240.893C366.796 242.023 409.638 216.087 409.968 216.61C410.299 217.134 368.668 245.22 368.861 245.716C369.412 246.736 422.303 216.059 422.303 216.059C422.303 216.059 377.149 246.984 377.369 247.287C377.589 247.59 423.377 221.765 423.377 221.765C423.377 221.765 369.715 257.127 370.018 257.595C370.018 257.595 411.042 234.195 411.318 234.664C411.593 235.132 375.855 260.572 375.937 260.765C376.543 261.895 425.855 231.632 426.461 232.707C427.37 234.36 371.119 269.723 371.119 269.723L415.64 244.917C416.191 245.881 381.389 269.915 381.499 270.136C381.967 270.963 432.436 241.885 432.436 241.885C433.124 243.125 395.486 268.703 395.486 268.703C395.899 269.474 423.267 253.268 423.267 253.268C423.625 253.929 396.037 274.546 396.092 274.656L430.233 255.721L392.347 283.035C392.347 283.035 433.234 259.966 433.399 260.269C433.564 260.572 394.853 287.5 395.018 287.831L440.338 262.694C440.338 262.694 410.96 285.157 410.96 285.378C410.96 285.598 463.025 255.252 463.521 256.217C463.521 256.217 408.179 291.221 409.032 292.764C409.032 292.764 464.319 259.91 465.228 261.564C465.723 262.446 423.928 290.78 423.928 290.78C425.36 293.343 544.551 218.788 546.699 222.647C547.195 223.501 429.765 293.839 429.765 293.839C430.481 295.107 540.862 232.211 540.862 232.211C541.275 232.955 424.864 302.824 424.892 302.852C424.919 302.88 550.306 233.203 550.306 233.203C550.609 233.726 439.622 299.6 440.173 300.62C440.723 301.639 536.071 245.495 536.842 246.984C538.356 249.74 453.058 297.918 453.857 299.352C454.655 300.785 544.964 245.716 546.258 248.059C546.809 249.051 476.159 293.26 476.159 293.26L536.126 259.993" stroke="#262626" stroke-width="0.287179" stroke-linecap="round" stroke-linejoin="round"/>
<path d="M545.047 336.615L560.521 328.044C560.521 328.044 548.103 340.805 548.268 341.136C548.434 341.466 567.817 330.111 567.872 330.111C568.588 331.379 532.299 355.44 532.602 355.992C532.602 355.992 632.713 299.875 632.961 300.316C632.961 300.316 534.309 358.389 535.548 360.65C535.548 360.65 630.813 306.518 631.364 307.51C631.915 308.502 550.361 358.748 550.361 358.748C551.187 360.236 631.171 313.739 631.226 313.877C631.915 315.089 544.166 368.477 544.166 368.477C544.166 368.477 619.525 325.811 619.883 326.473C620.736 327.989 557.63 367.32 557.63 367.32C557.63 367.32 629.657 326.803 629.905 327.217C630.153 327.63 555.289 374.375 555.565 374.789L610.273 344.471C610.631 345.132 583.263 365.335 583.428 365.666C583.594 365.997 610.273 350.782 610.273 350.782" stroke="#262626" stroke-width="0.287179" stroke-linecap="round" stroke-linejoin="round"/>
<path d="M568.175 127.254L584.42 118.297C584.42 118.489 569.083 132.436 569.359 132.96L603.197 114.19C603.61 114.934 578.004 133.483 578.417 134.227C578.417 134.393 612.366 115.403 612.366 115.403L570.433 145.004C571.066 146.162 625.499 114.465 625.499 114.465L566.605 153.273C566.963 153.879 623.902 120.86 624.178 121.328C624.453 121.797 576.628 154.017 576.628 154.017L618.368 130.865C618.368 130.865 582.355 157.049 582.41 157.131C582.465 157.214 618.065 135.798 618.726 136.956C618.726 136.956 566.605 170.251 567.431 171.739C567.817 172.456 616.523 144.48 616.523 144.48C616.523 144.48 583.483 168.515 583.649 169.038C583.814 169.562 629.436 142.992 629.712 143.488C630.703 145.28 578.417 176.011 579.381 177.72L623.93 152.914L580.317 183.591L630.18 156.029C630.18 156.029 571.561 193.265 572.36 194.616C573.158 195.966 626.958 164.298 626.958 164.298C627.647 165.51 575.416 199.219 575.416 199.219L620.24 174.413C620.791 175.35 567.349 210.078 567.349 210.078C567.955 211.181 622.581 178.382 623.021 179.181L571.038 213.909C571.038 213.909 634.172 177.665 634.668 178.575C635.163 179.484 576.848 216.831 576.848 216.969C576.848 217.106 634.282 184.804 634.42 185.024C635.356 186.733 581.336 220.855 581.336 220.855C581.336 220.855 625.389 194.974 625.967 196.049C625.967 196.049 571.369 231.659 571.782 232.403C571.782 232.403 618.258 205.365 618.781 206.33C619.304 207.294 580.647 233.892 580.647 233.892C580.95 234.443 626.683 207.101 627.206 208.066C627.206 208.066 577.812 241.141 578.114 241.609C578.114 241.609 623.269 214.957 623.957 216.169C624.646 217.382 579.326 245.716 579.904 246.873C580.262 247.507 631.612 218.209 631.612 218.209C632.3 219.477 568.891 259.304 568.891 259.304C569.304 260.048 619.304 231.328 619.304 231.328C620.13 232.789 571.176 264.21 571.231 264.403C571.286 264.596 629.436 231.053 629.877 231.852C629.877 231.852 582.85 263.548 583.07 264.072C583.593 265.037 619.387 242.546 619.965 243.594C620.543 244.641 569.359 277.853 569.359 277.853C570.102 279.176 623.765 246.184 624.425 247.314C625.086 248.444 583.125 274.876 583.869 276.117C584.612 277.357 632.685 248.996 632.713 249.023C633.732 250.897 581.446 282.373 582.052 283.448L629.794 256.961C630.62 258.477 572.8 293.343 573.434 294.528C574.067 295.713 624.563 265.533 624.811 266.001C624.811 266.001 566.661 304.065 566.991 304.45C567.569 305.498 618.148 276.062 618.148 276.062C618.148 276.062 564.596 310.073 565.449 311.617L626.711 277.605L576.16 311.975C576.628 312.829 632.08 280.94 632.08 280.94L566.495 323.634C566.495 323.634 623.297 291.331 623.627 291.937C623.627 291.937 570.57 326.941 570.901 327.492C571.231 328.044 627.454 294.942 627.922 295.768" stroke="#262626" stroke-width="0.287179" stroke-linecap="round" stroke-linejoin="round"/>
<path d="M585.356 45.9189L604.409 35.3351C605.015 36.41 572.36 59.4241 572.36 59.4241C572.36 59.4241 617.46 34.3704 617.46 34.4255C618.093 35.528 566.385 69.0711 566.385 69.0711C566.716 69.7051 614.899 40.7372 615.505 41.8122C616.358 43.3281 566.854 74.3901 567.184 74.8861C567.514 75.3831 625.72 42.2807 625.72 42.391C625.72 42.5012 565.146 82.3831 565.146 82.3831C565.422 82.8521 617.46 52.0651 618.038 53.0571C618.038 53.2501 575.003 83.3761 575.003 83.3761L620.213 58.0741C620.213 58.0741 584.007 83.8721 584.255 84.3681C584.998 85.6911 629.987 58.9831 629.987 58.9831C630.235 59.5621 573.406 96.6601 573.406 96.6601C573.406 96.6601 623.269 67.3901 623.958 68.6301C623.958 68.6301 578.968 98.9481 579.409 99.6371C579.849 100.326 622.609 74.3081 623.187 75.3551L605.4 91.5061L617.653 84.7261" stroke="#262626" stroke-width="0.287179" stroke-linecap="round" stroke-linejoin="round"/>
<path d="M765.699 246.571L780.705 238.302C781.008 238.826 764.79 253.103 764.928 253.351C765.066 253.599 795.49 236.373 795.49 236.373" stroke="#262626" stroke-width="0.287179" stroke-linecap="round" stroke-linejoin="round"/>
<path d="M716.717 153.631C716.717 153.631 785.055 114.273 785.688 115.375C785.688 115.375 737.588 146.989 738.166 148.036C738.744 149.083 787.423 120.171 787.726 120.474C788.799 122.403 731.888 156.663 732.356 157.49C732.356 157.49 798.436 120.529 798.436 120.777C798.436 121.025 742.13 156.608 742.874 157.903C742.874 157.903 801.602 124.829 801.85 125.187C802.098 125.545 764.24 152.336 764.24 152.336C764.625 153.052 807.027 128.522 807.082 128.577C807.44 129.321 763.386 159.309 763.386 159.309C763.386 159.309 800.253 138.5 800.419 138.775C800.804 139.492 773.463 160.026 773.463 160.026C773.463 160.026 815.699 136.24 815.837 136.46C815.975 136.681 762.918 171.739 763.083 172.043L802.428 150.186C802.731 150.737 779.906 168.652 780.044 168.928C780.182 169.204 812.12 151.123 812.12 151.123C812.643 152.033 777.483 175.929 777.786 176.48L823.409 151.151C824.07 152.336 773.518 185.162 773.518 185.162C773.518 185.162 824.51 156.553 824.62 156.773C825.254 157.876 767.268 192.246 768.397 194.285C768.397 194.285 821.702 164.298 821.895 164.601" stroke="#262626" stroke-width="0.287179" stroke-linecap="round" stroke-linejoin="round"/>
<path d="M679.657 224.163C679.657 224.163 743.782 186.623 744.608 188.111C744.911 188.663 691.249 221.958 692.13 223.529L763.386 184.005C764.185 185.438 711.761 217.079 712.587 218.485C712.78 218.871 772.527 185.217 772.527 185.217L716.084 222.84C716.992 224.493 785.716 184.253 785.716 184.253C785.963 184.721 723.655 225.017 723.655 225.017C724.344 226.285 823.106 168.515 823.656 169.507C824.207 170.499 745.049 219.422 745.049 219.422L819.224 178.272C819.224 178.272 762.147 216.114 762.202 216.225C762.257 216.335 820.022 181.772 820.931 183.619C820.931 183.619 757.604 222.702 758.623 224.493C759.146 225.43 819.444 190.757 819.444 190.757C819.444 190.757 785.963 214.984 786.239 215.563C786.789 216.555 832.825 189.076 833.045 189.572C833.844 191.005 792.544 216.555 793.287 217.934L827.676 198.861L805.65 217.382L833.816 201.755C833.816 201.755 808.678 221.269 809.036 221.847L830.072 210.189" stroke="#262626" stroke-width="0.287179" stroke-linecap="round" stroke-linejoin="round"/>
<path d="M689.046 130.121L709.366 118.848C710.137 120.198 667.515 148.367 667.515 148.367C667.515 148.367 736.651 109.78 736.706 109.973C737.67 111.682 656.089 160.99 656.089 160.99C656.777 162.203 739.157 112.123 740.341 114.135C741.828 116.891 651.794 168.294 652.234 169.259C652.675 170.223 755.842 111.379 755.98 111.682C756.117 111.985 645.626 179.236 645.626 179.236C646.177 180.256 752.676 116.863 753.915 119.123C754.163 119.592 650.913 182.516 650.913 182.516L761.046 121.411C761.046 121.411 654.657 184.997 655.401 186.32C657.41 189.958 776.712 119.013 776.712 119.013C777.318 120.116 638.798 201.837 638.798 201.837C638.798 201.837 696.398 168.267 697.306 169.81C697.306 169.81 637.394 207.983 637.972 209.031C638.55 210.078 692.571 176.756 693.369 178.079L652.812 207.019L691.359 185.631C691.359 185.631 641.138 218.236 641.799 219.422C642.102 219.973 706.392 183.591 706.392 183.591C706.392 183.591 651.105 220.138 651.326 220.469C651.546 220.8 715.864 184.004 716.139 184.501C716.139 184.501 646.645 229.289 646.672 229.344C646.7 229.399 729.025 181.689 729.851 183.205C729.988 183.453 641.056 238.77 641.056 238.77C641.716 239.983 729.162 186.898 730.374 189.159L650.858 239.597C652.289 242.188 741.47 187.56 742.213 188.91C742.956 190.261 652.785 243.483 653.253 244.503C653.721 245.523 705.842 215.342 705.842 215.342C705.842 215.342 661.458 245.661 661.788 246.157C662.119 246.653 706.117 221.544 706.117 221.544C706.117 221.544 654.051 256.024 654.354 256.575C654.354 256.575 693.699 234.14 693.947 234.526C693.947 234.526 660.054 259.331 660.109 259.607C660.714 260.654 708.099 231.632 708.65 232.651C709.531 234.25 655.18 268.647 655.18 268.647L697.306 245.302C697.829 246.24 665.257 269.088 665.395 269.309C665.808 270.081 714.184 242.243 714.184 242.243C714.845 243.428 679.189 267.958 679.189 267.958C679.602 268.675 704.245 254.177 704.245 254.177C704.548 254.784 679.602 274.022 679.657 274.132L711.376 256.52L675.885 282.511C675.885 282.511 713.826 261.123 713.964 261.371C714.102 261.619 678.171 287.114 678.363 287.445L721.012 263.797C721.012 263.797 693.92 284.854 694.03 285.047C694.14 285.24 743.149 256.768 743.59 257.485C743.59 257.485 691.084 291.028 691.882 292.489C691.882 292.489 743.314 261.95 744.195 263.493C744.664 264.293 706.668 290.614 706.668 290.614C707.741 292.571 798.023 236.097 799.648 239.046C800.006 239.68 712.394 293.756 712.394 293.756C713 294.831 807.026 241.223 807.026 241.223C807.384 241.885 707.383 302.797 707.411 302.824C707.438 302.852 826.382 236.813 826.382 236.813C826.658 237.309 722.086 299.737 722.637 300.675C723.188 301.612 812.423 249.161 813.139 250.457C814.543 253.02 735.523 298.084 736.238 299.407C736.954 300.73 821.206 249.492 822.28 251.642C822.776 252.524 758.953 292.985 758.953 292.985L811.625 263.769" stroke="#262626" stroke-width="0.287179" stroke-linecap="round" stroke-linejoin="round"/>
<path d="M968.62 237.42L984.231 228.765C984.231 228.765 967.711 243.704 967.931 244.117C968.152 244.531 991.307 230.943 991.39 231.108" stroke="#262626" stroke-width="0.287179" stroke-linecap="round" stroke-linejoin="round"/>
<path d="M899.181 160.99C899.181 160.99 970.602 119.124 971.538 120.833C971.841 121.384 919.72 153.907 920.574 155.423L984.754 119.813C985.498 121.108 937.948 150.131 938.774 151.619C938.939 151.923 988.141 124.25 988.141 124.25L938.581 158.014C939.242 159.226 995.299 126.538 995.299 126.538C995.52 126.951 940.811 163.085 940.811 163.085C941.114 163.609 993.565 133.263 993.785 133.676C994.005 134.09 955.817 161.046 955.817 161.046L992.188 140.87C992.188 140.87 965.563 161.872 965.591 161.928C965.619 161.983 995.878 143.737 996.566 144.756C996.566 144.756 953.311 173.421 953.999 174.661C954.385 175.323 997.42 150.517 997.42 150.517C997.42 150.517 972.392 170.196 972.64 170.582C973.108 171.436 1013.33 147.457 1013.55 147.871C1014.38 149.387 971.373 175.736 972.254 177.142L1010.8 155.754L984.534 176.618L1019.01 157.49C1019.01 157.49 987.48 180.394 987.865 181.083C988.251 181.772 1017.52 164.546 1017.52 164.546C1017.77 164.959 1002.29 179.292 1002.29 179.292L1012.67 173.531" stroke="#262626" stroke-width="0.287179" stroke-linecap="round" stroke-linejoin="round"/>
<path d="M882.302 130.259L902.897 118.848C903.641 120.199 861.79 147.954 861.79 147.954C861.79 147.954 930.403 109.753 930.458 109.863C931.394 111.544 850.116 160.742 850.116 160.742C850.777 161.927 932.936 111.985 934.12 114.107C935.634 116.864 845.601 168.267 846.014 169.231C846.427 170.196 949.374 111.627 949.511 111.93C949.649 112.233 839.543 179.264 839.543 179.264C840.121 180.284 946.4 117.001 947.666 119.261C947.914 119.73 844.664 182.654 844.664 182.654L954.577 121.659C954.577 121.659 848.381 185.052 849.125 186.458C851.135 190.096 970.271 119.206 970.271 119.206C970.877 120.309 832.357 202.03 832.357 202.03C832.357 202.03 894.169 165.593 895.078 167.247C895.078 167.247 830.622 207.818 831.256 208.948C831.889 210.078 889.929 174.33 890.783 175.874L846.206 207.019L887.506 184.115C887.506 184.115 834.505 218.182 835.193 219.422C835.496 219.973 898.96 184.032 898.96 184.032C898.96 184.032 844.527 220.138 844.719 220.469C844.912 220.8 896.344 191.309 896.537 191.694C896.73 192.08 840.011 229.289 840.039 229.344C840.066 229.399 897.859 196.104 898.327 197.014C898.299 197.207 834.422 238.715 834.422 238.715C834.752 239.322 886.928 208.039 887.589 209.224L844.224 239.542C844.857 240.672 888.277 214.378 888.552 214.957C888.828 215.536 846.454 243.952 846.729 244.448C847.308 245.496 900.722 214.516 900.722 214.516C900.722 214.516 854.962 245.799 855.182 246.157C855.402 246.515 901.438 220.497 901.438 220.497C901.438 220.497 847.445 256.024 847.748 256.575C847.748 256.575 888.745 233.203 889.048 233.671C889.351 234.14 853.447 259.58 853.53 259.69C854.246 260.765 903.255 230.667 903.806 231.742C904.715 233.396 848.519 268.73 848.519 268.73L892.572 244.338C893.095 245.303 858.706 269.144 858.844 269.364C859.285 270.136 909.12 241.444 909.12 241.444C909.808 242.684 872.666 267.986 872.666 267.986C873.079 268.73 899.346 253.185 899.346 253.185C899.703 253.792 873.079 273.912 873.161 274.022L905.816 255.886L869.334 282.429C869.334 282.429 908.652 260.379 908.789 260.544C908.927 260.71 871.647 287.004 871.84 287.335L915.453 263.163C915.453 263.163 887.369 284.771 887.479 284.992C887.589 285.212 937.947 255.914 938.388 256.713C938.388 256.713 884.533 290.973 885.359 292.544C885.359 292.544 938.691 260.848 939.572 262.446C940.04 263.301 900.089 290.67 900.089 290.67C901.245 292.737 998.41 231.99 1000.14 235.16C1000.5 235.766 905.733 293.839 905.733 293.839C906.367 294.997 1007.61 237.337 1007.61 237.337C1007.99 238.054 900.805 302.88 900.832 302.907C900.86 302.935 1019.23 237.282 1019.23 237.282C1019.5 237.778 915.59 299.848 916.113 300.675C916.636 301.502 1006.09 249.051 1006.81 250.346C1008.24 252.91 928.999 298.084 929.715 299.407C930.431 300.73 1015.07 249.244 1016.25 251.394C1016.75 252.303 952.402 293.123 952.402 293.123L1006.97 262.804" stroke="#262626" stroke-width="0.287179" stroke-linecap="round" stroke-linejoin="round"/>
<path d="M1091.86 154.403C1091.86 154.403 1147.97 122.156 1148.44 122.955C1148.44 122.955 1105.96 151.619 1106.45 152.556C1106.95 153.494 1144.03 131.334 1144.2 131.609C1145.03 133.098 1101.83 160.577 1102.18 161.238C1102.18 161.238 1149.24 134.972 1149.29 135.082C1149.35 135.192 1116.06 158.785 1116.53 159.585C1116.53 159.585 1147.67 142.166 1147.72 142.276" stroke="#262626" stroke-width="0.287179" stroke-linecap="round" stroke-linejoin="round"/>
<path d="M1017.46 127.254L1033.6 118.297C1033.6 118.49 1018.26 132.409 1018.57 132.932L1052.49 114.162C1052.9 114.907 1027.29 133.456 1027.71 134.2C1027.71 134.393 1061.65 115.375 1061.65 115.375L1019.78 145.004C1020.96 147.127 1104.25 98.1491 1104.25 98.1491C1104.58 98.7831 1015.98 153.438 1015.98 153.438C1016.53 154.431 1098.14 106.803 1098.58 107.603C1099.02 108.402 1026 154.183 1026 154.183L1092.8 117.112C1092.8 117.112 1041 152.033 1041.03 152.115C1041.06 152.198 1096.59 119.041 1097.59 120.75C1097.59 120.75 1036.54 158.648 1037.51 160.384C1038.11 161.486 1106.78 121.797 1106.78 121.797C1107 122.238 1057.22 154.706 1057.58 155.423C1058.49 157.077 1130.9 113.639 1131.37 114.466C1132.88 117.222 1051.85 161.486 1053.28 164.077L1137.01 117.635L1054.25 169.81L1146.51 118.628C1146.51 118.628 1045.02 178.52 1046.18 180.587C1046.81 181.717 1101.25 150.076 1101.25 150.076C1101.94 151.289 1049.29 185.19 1049.29 185.19C1049.29 185.19 1094.53 160.053 1094.53 160.081C1095.08 161.045 1041.23 195.911 1041.23 195.911C1041.86 197.041 1096.87 164.022 1097.31 164.794L1044.97 200.128C1044.97 200.128 1108.52 163.664 1109.01 164.601C1109.51 165.538 1050.75 203.188 1050.83 203.188C1050.92 203.188 1108.65 170.802 1108.79 171.05C1109.73 172.759 1055.32 206.881 1055.32 206.881C1055.32 206.881 1099.71 180.78 1100.34 181.91C1100.34 181.91 1045.27 217.741 1045.77 218.485C1045.77 218.485 1092.57 191.226 1093.15 192.191C1093.92 193.569 1054.61 219.753 1054.61 219.753C1054.91 220.304 1100.97 192.742 1101.41 193.734C1101.41 193.734 1051.63 226.808 1051.85 227.47C1051.85 227.47 1097.37 200.597 1098.05 201.837C1098.74 203.078 1053.06 231.549 1053.7 232.734C1054.06 233.368 1105.76 203.849 1105.76 203.849C1106.45 205.145 1042.74 245.192 1042.74 245.192C1043.18 245.936 1093.46 217.051 1093.46 217.051C1094.25 218.512 1045.58 249.795 1045.63 249.878C1045.69 249.961 1103.59 216.803 1104.03 217.465C1104.03 217.465 1057.8 248.748 1058.08 249.272C1058.63 250.236 1093.62 228.214 1094.2 229.234C1094.78 230.254 1045.08 262.804 1045.08 262.804C1045.77 264.045 1097.86 232.073 1098.47 233.175C1099.07 234.278 1060.72 258.918 1061.35 260.076C1061.99 261.233 1107.55 234.857 1107.55 234.857C1108.49 236.565 1061.13 265.643 1061.65 266.636L1105.43 242.326C1106.2 243.676 1055.35 275.097 1055.87 276.117C1056.4 277.137 1103.01 249.437 1103.23 249.85C1103.23 249.85 1052.49 283.862 1052.68 284.193C1053.23 285.185 1101.11 257.32 1101.11 257.32C1101.11 257.32 1054.3 287.638 1055.18 289.126L1117.08 254.756L1070.99 286.618C1071.54 287.61 1132.58 252.469 1132.58 252.469L1067.38 294.942C1067.38 294.942 1135.14 256.355 1135.58 257.099C1135.58 257.099 1079.58 293.701 1079.88 294.308C1080.18 294.914 1143.68 257.595 1144.23 258.477C1144.39 258.753 1086.41 295.328 1086.99 296.54C1087.12 296.788 1133.79 270.577 1133.79 270.577C1134.15 271.211 1100.23 295.052 1100.42 295.383C1100.94 296.347 1133.63 276.861 1133.65 276.944C1133.68 277.026 1118.92 291.248 1119.01 291.386C1119.34 291.965 1135.39 281.492 1135.75 282.098C1135.75 282.098 1116.28 299.159 1116.31 299.186L1136.24 288.162" stroke="#262626" stroke-width="0.287179" stroke-linecap="round" stroke-linejoin="round"/>
<path d="M1051.52 80.3991L1068.32 71.0831C1068.68 71.7451 1050.5 87.2891 1050.5 87.2891C1050.5 87.2891 1079.47 71.1661 1079.5 71.1931C1079.91 71.9371 1045.77 96.2201 1045.77 96.2201C1045.77 96.2201 1080.98 75.7691 1081.37 76.4581C1081.97 77.5881 1046.07 101.787 1046.32 102.201C1046.57 102.614 1097.89 73.3431 1097.94 73.5641C1098 73.7841 1043.18 110.249 1043.18 110.249C1043.18 110.249 1090.56 82.6871 1091.06 83.6791C1091.06 83.8721 1050.12 112.702 1050.12 112.702L1090.32 90.4041C1090.32 90.4041 1055.98 115.21 1056.23 115.596C1056.92 116.808 1098.71 92.0301 1098.71 92.0301" stroke="#262626" stroke-width="0.287179" stroke-linecap="round" stroke-linejoin="round"/>
</g>
<g opacity="0.5">
<path d="M37.8286 376.884V111.93H92.1518L92.7025 125.711C96.8389 122.375 101.282 119.44 105.973 116.946C117.994 110.716 131.371 107.572 144.905 107.796C161.886 107.391 178.605 112.033 192.951 121.136C206.367 130.005 217.084 142.402 223.926 156.966C231.175 172.228 234.875 188.935 234.747 205.834C234.903 222.933 231.135 239.841 223.733 255.252C216.746 269.755 206.014 282.126 192.648 291.083C178.329 300.312 161.573 305.026 144.547 304.616C130.318 304.995 116.247 301.549 103.798 294.639C100.219 292.552 96.7883 290.222 93.5285 287.665V376.801L37.8286 376.884ZM135.874 158.565C128.248 158.411 120.738 160.448 114.233 164.436C107.79 168.457 102.579 174.179 99.1728 180.973C95.2923 188.792 93.356 197.435 93.5285 206.164C93.3998 214.662 95.287 223.069 99.0351 230.695C102.396 237.576 107.528 243.436 113.903 247.673C120.461 251.885 128.141 254.009 135.93 253.764C143.614 253.938 151.177 251.817 157.653 247.673C164.103 243.443 169.28 237.536 172.631 230.584C176.372 222.858 178.257 214.364 178.138 205.779C178.378 196.906 176.4 188.114 172.384 180.201C168.928 173.618 163.726 168.115 157.35 164.298C150.85 160.458 143.422 158.475 135.874 158.565Z" stroke="#262626" stroke-width="0.478632" stroke-miterlimit="10"/>
<path d="M248.513 300.537V111.93H303.084L303.58 125.711C307.143 122.567 311.018 119.797 315.144 117.442C326.826 110.904 340.033 107.584 353.415 107.823H361.675V165.703H342.677C329.351 165.703 319.577 168.818 313.574 174.992C307.572 181.166 304.461 191.529 304.461 206.026V300.537H248.513Z" stroke="#262626" stroke-width="0.478632" stroke-miterlimit="10"/>
<path d="M455.922 304.698C438.693 304.941 421.689 300.767 406.527 292.571C391.905 284.525 379.815 272.555 371.615 258.008C362.898 242.156 358.51 224.283 358.894 206.192C358.432 187.788 363.043 169.612 372.221 153.659C380.81 139.229 393.191 127.436 408.014 119.564C423.308 111.729 440.242 107.644 457.422 107.644C474.603 107.644 491.537 111.729 506.831 119.564C521.551 127.462 533.812 139.268 542.266 153.686C550.967 168.322 555.372 185.989 555.372 206.054C555.637 223.734 551.261 241.175 542.679 256.63C534.387 271.462 522.149 283.703 507.327 291.992C491.588 300.632 473.869 305.012 455.922 304.698ZM456.61 158.206C448.838 157.971 441.172 160.053 434.584 164.187C428.352 168.195 423.431 173.945 420.431 180.724C416.877 188.744 415.129 197.448 415.31 206.219C415.03 215.381 417.016 224.471 421.092 232.679C424.362 239.198 429.393 244.668 435.613 248.469C441.833 252.269 448.993 254.247 456.28 254.177C463.935 254.387 471.472 252.262 477.893 248.086C484.35 243.794 489.549 237.857 492.954 230.887C496.857 223.005 498.812 214.299 498.654 205.503C498.933 196.637 497.042 187.837 493.147 179.87C489.799 173.245 484.669 167.689 478.334 163.829C471.759 159.962 464.234 158.014 456.61 158.206Z" stroke="#262626" stroke-width="0.478632" stroke-miterlimit="10"/>
<path d="M539.21 376.884V326.693H558.208C566 326.693 568.836 324.902 569.689 324.13C571.259 322.724 572.14 319.058 572.14 314.125V111.93H627.84V314.235C627.84 329.063 625.086 341.273 619.8 350.507C614.574 359.772 606.418 367.034 596.617 371.151C586.393 375.223 575.459 377.21 564.458 376.994L539.21 376.884ZM600.527 100.905C595.991 100.988 591.486 100.136 587.294 98.4001C583.102 96.6641 579.312 94.0831 576.16 90.8171C572.993 87.6501 570.494 83.8781 568.811 79.7261C567.127 75.5741 566.293 71.1261 566.358 66.6451C566.271 62.1781 567.096 57.7401 568.781 53.6031C570.467 49.4662 572.977 45.7166 576.16 42.5838C580.916 37.7721 586.994 34.4853 593.622 33.1414C600.25 31.7976 607.127 32.4574 613.379 35.037C619.63 37.6166 624.975 41.9994 628.731 47.6279C632.488 53.2561 634.487 59.8761 634.475 66.6451C634.537 71.1261 633.701 75.5731 632.018 79.7241C630.334 83.8761 627.837 87.6481 624.673 90.8171C621.564 94.0781 617.813 96.6591 613.656 98.3951C609.5 100.131 605.03 100.986 600.527 100.905Z" stroke="#262626" stroke-width="0.478632" stroke-miterlimit="10"/>
<path d="M738.854 304.698C721.479 305.038 704.341 300.616 689.294 291.91C675.172 283.48 663.63 271.335 655.924 256.796C647.798 241.186 643.699 223.791 644.002 206.192C643.604 188.292 647.704 170.579 655.924 154.678C663.672 140.2 675.331 128.195 689.57 120.033C704.764 111.588 721.919 107.319 739.295 107.657C756.155 107.29 772.804 111.459 787.506 119.73C801.106 127.634 812.329 139.059 819.995 152.804C827.985 167.319 832.056 183.668 831.807 200.238C831.807 203.518 831.807 206.55 831.642 209.306C831.475 212.389 831.153 215.462 830.678 218.512L829.466 225.568H701.326C702.291 229.699 703.82 233.678 705.869 237.392C708.872 242.975 713.385 247.599 718.893 250.732C724.771 254.032 731.428 255.688 738.166 255.528C745.074 255.776 751.91 254.055 757.88 250.567C763.339 247.02 767.63 241.938 770.215 235.959L772.445 231.218H830.265L826.933 241.94C823.365 253.358 817.614 263.973 810 273.195C801.942 282.861 791.88 290.657 780.512 296.044C767.461 302.051 753.216 305.01 738.854 304.698ZM773.987 181.606C772.588 175.487 769.222 169.997 764.405 165.979C757.072 159.818 747.736 156.562 738.166 156.828C729.117 156.736 720.301 159.698 713.138 165.235C707.792 169.354 703.928 175.099 702.125 181.606H773.987Z" stroke="#262626" stroke-width="0.478632" stroke-miterlimit="10"/>
<path d="M932 304.698C914.855 304.992 897.95 300.64 883.073 292.103C868.913 283.746 857.306 271.669 849.51 257.181C841.228 241.484 837.06 223.941 837.396 206.192C837.083 188.623 841.112 171.249 849.125 155.615C856.719 141.042 868.217 128.874 882.33 120.474C897.372 111.754 914.511 107.322 931.89 107.657C954.412 107.657 973.741 113.528 989.352 125.077C1004.96 136.625 1015.65 153.466 1020.71 174.688L1023.14 184.859H964.792L963.195 178.657C961.653 172.512 957.96 167.124 952.788 163.471C946.591 159.215 939.177 157.096 931.67 157.434C924.311 157.047 917.042 159.197 911.075 163.526C905.385 168.01 901.071 174.009 898.63 180.835C895.581 188.927 894.059 197.516 894.142 206.164C894.005 214.944 895.566 223.666 898.74 231.852C901.295 238.592 905.705 244.469 911.46 248.803C917.34 253.002 924.453 255.117 931.67 254.811C938.994 255.183 946.252 253.255 952.43 249.299C957.807 245.498 961.645 239.895 963.25 233.506L964.985 227.525H1023.11L1020.85 237.585C1018.07 250.718 1012.21 263.001 1003.75 273.415C995.372 283.511 984.706 291.458 972.639 296.595C959.801 302.088 945.961 304.848 932 304.698Z" stroke="#262626" stroke-width="0.478632" stroke-miterlimit="10"/>
<path d="M1108.49 300.537C1088.86 300.537 1073.44 295.465 1062.67 285.488C1051.91 275.51 1046.15 259.524 1046.15 238.467V161.293H1021.51V111.93H1046.15V70.1732H1102.18V111.93H1144.14V161.541H1102.18V238.715C1102.18 245.936 1104 247.921 1104.55 248.362C1106.07 249.547 1109.29 250.925 1116.12 250.925H1144.14V300.537H1108.49Z" stroke="#262626" stroke-width="0.478632" stroke-miterlimit="10"/>
</g>
</g>
<path d="M984.688 24.0001H1150.8V172.018" stroke="#737373" stroke-width="0.795455" stroke-miterlimit="10"/>
<path opacity="0.6" d="M1150.8 24.0001L995.459 155.711" stroke="#737373" stroke-width="0.795455" stroke-miterlimit="10" stroke-dasharray="19.09 19.09"/>
<path opacity="0.6" d="M306 82.0001V382" stroke="#737373" stroke-width="0.795455" stroke-miterlimit="10"/>
<g opacity="0.6">
<path d="M865.243 25.1227H594.009" stroke="#737373" stroke-width="0.795455" stroke-miterlimit="10" stroke-dasharray="19.09 19.09"/>
<path d="M596.65 21.8615L597.191 22.4501L594.311 25.1227L597.191 27.7956L596.65 28.3683L593.15 25.1227L596.65 21.8615Z" fill="#737373"/>
</g>
<g opacity="0.6">
<path d="M271.234 206.246H0" stroke="#737373" stroke-width="0.795455" stroke-miterlimit="10" stroke-dasharray="19.09 19.09"/>
<path d="M268.593 203L268.052 203.573L270.932 206.245L268.052 208.918L268.593 209.491L272.093 206.245L268.593 203Z" fill="#737373"/>
</g>
<g opacity="0.6">
<path d="M83.3008 312.916L87.3735 304.277" stroke="#737373" stroke-width="0.795455" stroke-miterlimit="10"/>
<path d="M266 370.848L392.62 102" stroke="#737373" stroke-width="0.795455" stroke-miterlimit="10" stroke-dasharray="19.17 19.17"/>
<path d="M226.244 9.40218L230.317 0.77948" stroke="#737373" stroke-width="0.795455" stroke-miterlimit="10"/>
<path d="M232.13 4.55L231.383 4.7886L230.19 1.05L226.546 2.5136L226.244 1.7659L230.683 0L232.13 4.55Z" fill="#737373"/>
</g>
<g opacity="0.6">
<path d="M1051.25 205.727C1051.27 228.365 1044.58 250.5 1032.03 269.341C1019.48 288.182 1001.63 302.886 980.741 311.599C959.848 320.311 936.842 322.642 914.626 318.298C892.409 313.953 871.977 303.127 855.904 287.186C839.832 271.244 828.84 250.901 824.314 228.72C819.788 206.54 821.931 183.516 830.473 162.552C839.015 141.588 853.573 123.623 872.311 110.921C891.05 98.2201 913.129 91.3511 935.766 91.1821" stroke="#737373" stroke-width="0.795455" stroke-miterlimit="10"/>
<path d="M933.221 94.5071L932.664 93.9341L935.464 91.1981L932.521 88.5891L933.045 88.0001L936.625 91.1661L933.221 94.5071Z" fill="#737373"/>
</g>
<path d="M314.12 284.668H317.08V294H316.4V285.281H314.12V284.668ZM322.273 288.734C324.393 288.787 325.433 289.854 325.433 291.374C325.433 292.92 324.313 294.067 322.166 294.067C320.793 294.067 319.527 293.56 318.873 292.813L319.22 292.294C319.793 292.947 320.886 293.44 322.166 293.44C323.846 293.44 324.739 292.64 324.739 291.374C324.739 290.12 323.886 289.307 322.02 289.307H321.433V288.814L324.193 285.281H319.22V284.668H325.073V285.148L322.273 288.734ZM329.017 288.574C331.857 288.574 332.896 289.654 332.896 291.307C332.896 292.867 331.817 294.067 329.63 294.067C328.27 294.067 327.004 293.56 326.35 292.813L326.697 292.294C327.257 292.947 328.364 293.44 329.617 293.44C331.337 293.44 332.216 292.573 332.216 291.334C332.216 290 331.403 289.187 328.87 289.187H326.977L327.47 284.668H332.416V285.281H328.044L327.684 288.574H329.017ZM336.016 288.747C334.856 288.747 333.936 287.827 333.936 286.681C333.936 285.521 334.856 284.614 336.016 284.614C337.163 284.614 338.083 285.521 338.083 286.681C338.083 287.827 337.163 288.747 336.016 288.747ZM336.016 288.321C336.936 288.321 337.643 287.587 337.643 286.681C337.643 285.761 336.936 285.041 336.016 285.041C335.096 285.041 334.39 285.761 334.39 286.681C334.39 287.601 335.096 288.321 336.016 288.321Z" fill="#737373"/>
<path d="M947.956 276.168H953.368V276.782H946.956V276.302L950.902 272.382C952.009 271.276 952.222 270.622 952.222 269.916C952.222 268.743 951.409 268.009 949.862 268.009C948.689 268.009 947.822 268.356 947.182 269.089L946.702 268.663C947.409 267.849 948.516 267.383 949.915 267.383C951.742 267.383 952.915 268.329 952.915 269.849C952.915 270.742 952.622 271.529 951.395 272.742L947.956 276.168ZM954.323 267.449H961.015V267.929L957.002 276.782H956.256L960.229 268.063H954.989V269.849H954.323V267.449ZM965.742 276.848C963.595 276.848 962.089 275.035 962.089 272.116C962.089 269.196 963.595 267.383 965.742 267.383C967.888 267.383 969.394 269.196 969.394 272.116C969.394 275.035 967.888 276.848 965.742 276.848ZM965.742 276.222C967.501 276.222 968.715 274.715 968.715 272.116C968.715 269.516 967.501 268.009 965.742 268.009C963.982 268.009 962.769 269.516 962.769 272.116C962.769 274.715 963.982 276.222 965.742 276.222ZM972.982 271.529C971.822 271.529 970.902 270.609 970.902 269.463C970.902 268.303 971.822 267.396 972.982 267.396C974.129 267.396 975.049 268.303 975.049 269.463C975.049 270.609 974.129 271.529 972.982 271.529ZM972.982 271.102C973.902 271.102 974.609 270.369 974.609 269.463C974.609 268.543 973.902 267.823 972.982 267.823C972.062 267.823 971.356 268.543 971.356 269.463C971.356 270.382 972.062 271.102 972.982 271.102Z" fill="#737373"/>
<g opacity="0.6">
<path d="M136.261 71.8591V343.093" stroke="#737373" stroke-width="0.795455" stroke-miterlimit="10" stroke-dasharray="19.09 19.09"/>
<path d="M133 74.5001L133.589 75.0411L136.245 72.1771L138.918 75.0411L139.507 74.5001L136.245 71.0001L133 74.5001Z" fill="#737373"/>
</g>
<g opacity="0.6">
<path d="M76.762 305.263C57.3404 293.64 41.7946 276.527 32.0843 256.082C22.3741 235.636 18.9342 212.774 22.1982 190.377C25.4622 167.979 35.2841 147.049 50.4256 130.226C65.5671 113.402 85.3504 101.438 107.282 95.8412C129.213 90.2442 152.31 91.2662 173.661 98.7762C195.013 106.287 213.663 119.951 227.26 138.045C240.858 156.14 248.794 177.855 250.068 200.453C251.343 223.051 245.898 245.521 234.421 265.029" stroke="#737373" stroke-width="0.795455" stroke-miterlimit="10"/>
<path d="M232.862 261.115L233.641 260.94L234.548 264.743L238.287 263.565L238.525 264.313L233.975 265.761L232.862 261.115Z" fill="#737373"/>
</g>
<path d="M135.626 268.895C169.655 268.895 197.242 241.309 197.242 207.279C197.242 173.25 169.655 145.663 135.626 145.663C101.596 145.663 74.0098 173.25 74.0098 207.279C74.0098 241.309 101.596 268.895 135.626 268.895Z" stroke="#737373" stroke-width="0.397727" stroke-miterlimit="10"/>
<path opacity="0.6" d="M730.393 305.614H557" stroke="#737373" stroke-width="0.795455" stroke-miterlimit="10"/>
<g opacity="0.6">
<path d="M629.323 443.895V434.35" stroke="#737373" stroke-width="0.795455" stroke-miterlimit="10"/>
<path d="M629.323 415.116V117.155" stroke="#737373" stroke-width="0.795455" stroke-miterlimit="10" stroke-dasharray="19.22 19.22"/>
<path d="M629.323 107.545V98.0001" stroke="#737373" stroke-width="0.795455" stroke-miterlimit="10"/>
</g>
<g opacity="0.6">
<path d="M643.705 231.748C660.374 231.751 676.372 238.315 688.239 250.021C700.106 261.728 706.888 277.635 707.118 294.303" stroke="#737373" stroke-width="0.795455" stroke-miterlimit="10"/>
<path d="M703.698 291.837L704.255 291.264L707.055 294L709.584 291.009L710.189 291.518L707.118 295.178L703.698 291.837Z" fill="#737373"/>
</g>
<path d="M651.737 287.881C654.19 287.881 655.483 289.641 655.483 292.56C655.483 295.72 653.804 297.346 651.337 297.346C650.537 297.346 649.791 297.213 649.217 296.866L649.497 296.32C649.977 296.627 650.631 296.747 651.337 296.747C653.43 296.747 654.804 295.373 654.804 292.667C654.804 292.387 654.79 291.974 654.724 291.547C654.337 292.774 653.164 293.467 651.751 293.467C649.884 293.467 648.631 292.374 648.631 290.694C648.631 288.987 649.951 287.881 651.737 287.881ZM651.844 292.88C653.377 292.88 654.43 291.907 654.43 290.654C654.43 289.561 653.51 288.467 651.764 288.467C650.311 288.467 649.311 289.334 649.311 290.681C649.311 292.014 650.271 292.88 651.844 292.88ZM660.597 297.346C658.451 297.346 656.944 295.533 656.944 292.614C656.944 289.694 658.451 287.881 660.597 287.881C662.743 287.881 664.25 289.694 664.25 292.614C664.25 295.533 662.743 297.346 660.597 297.346ZM660.597 296.72C662.357 296.72 663.57 295.213 663.57 292.614C663.57 290.014 662.357 288.507 660.597 288.507C658.837 288.507 657.624 290.014 657.624 292.614C657.624 295.213 658.837 296.72 660.597 296.72ZM667.838 292.027C666.678 292.027 665.758 291.107 665.758 289.961C665.758 288.801 666.678 287.894 667.838 287.894C668.984 287.894 669.904 288.801 669.904 289.961C669.904 291.107 668.984 292.027 667.838 292.027ZM667.838 291.6C668.758 291.6 669.464 290.867 669.464 289.961C669.464 289.041 668.758 288.321 667.838 288.321C666.918 288.321 666.211 289.041 666.211 289.961C666.211 290.881 666.918 291.6 667.838 291.6Z" fill="#737373"/>
<g opacity="0.6">
<path d="M833.754 206H824.209" stroke="#737373" stroke-width="0.795455" stroke-miterlimit="10"/>
<path d="M805.42 206H288.948" stroke="#737373" stroke-width="0.795455" stroke-miterlimit="10" stroke-dasharray="18.79 18.79"/>
<path d="M279.545 206H270" stroke="#737373" stroke-width="0.795455" stroke-miterlimit="10"/>
</g>
</g>
<defs>
<clipPath id="clip0_44_26">
<rect width="1153" height="443.895" fill="white"/>
</clipPath>
</defs>
</svg>
