<svg width="665" height="278" viewBox="0 0 665 278" fill="none" xmlns="http://www.w3.org/2000/svg">
<g opacity="0.25" filter="url(#filter0_d_42_15)">
<mask id="path-1-inside-1_42_15" fill="white">
<path d="M4.02821 40.268V4.01229H174.846V40.268H111.17V212H67.7041V40.268H4.02821ZM225.421 214.945C215.469 214.945 206.6 213.219 198.814 209.766C191.028 206.245 184.866 201.066 180.33 194.228C175.862 187.322 173.628 178.723 173.628 168.432C173.628 159.766 175.219 152.488 178.401 146.598C181.583 140.707 185.916 135.968 191.4 132.38C196.884 128.791 203.113 126.083 210.086 124.255C217.128 122.427 224.507 121.141 232.226 120.396C241.298 119.448 248.61 118.568 254.162 117.756C259.714 116.875 263.742 115.589 266.247 113.896C268.752 112.204 270.005 109.699 270.005 106.381V105.772C270.005 99.34 267.974 94.3637 263.911 90.8431C259.917 87.3225 254.23 85.5622 246.85 85.5622C239.064 85.5622 232.869 87.2886 228.265 90.7415C223.661 94.1268 220.614 98.3921 219.125 103.538L179.112 100.288C181.143 90.8092 185.137 82.617 191.095 75.7112C197.053 68.7376 204.738 63.389 214.149 59.6652C223.627 55.8738 234.595 53.9781 247.053 53.9781C255.719 53.9781 264.013 54.9937 271.934 57.0248C279.923 59.0559 286.998 62.2042 293.16 66.4695C299.388 70.7349 304.297 76.219 307.885 82.9217C311.474 89.5567 313.268 97.512 313.268 106.787V212H272.239V190.368H271.02C268.515 195.243 265.164 199.542 260.966 203.266C256.768 206.922 251.724 209.8 245.834 211.898C239.944 213.93 233.14 214.945 225.421 214.945ZM237.811 185.088C244.175 185.088 249.795 183.835 254.67 181.33C259.544 178.757 263.37 175.304 266.146 170.971C268.921 166.638 270.309 161.73 270.309 156.245V139.692C268.955 140.572 267.093 141.384 264.724 142.129C262.422 142.806 259.815 143.449 256.904 144.059C253.993 144.6 251.081 145.108 248.17 145.582C245.259 145.988 242.618 146.361 240.249 146.699C235.171 147.444 230.736 148.629 226.945 150.254C223.153 151.879 220.208 154.079 218.109 156.855C216.01 159.563 214.961 162.948 214.961 167.01C214.961 172.901 217.094 177.403 221.359 180.517C225.692 183.564 231.176 185.088 237.811 185.088ZM417.109 273.746C403.094 273.746 391.077 271.817 381.057 267.958C371.104 264.166 363.183 258.987 357.292 252.419C351.402 245.852 347.577 238.472 345.817 230.28L385.83 224.898C387.049 228.012 388.978 230.923 391.619 233.632C394.259 236.34 397.746 238.506 402.079 240.131C406.48 241.824 411.828 242.67 418.125 242.67C427.536 242.67 435.288 240.368 441.381 235.764C447.542 231.228 450.623 223.611 450.623 212.914V184.377H448.795C446.899 188.71 444.056 192.806 440.264 196.665C436.473 200.524 431.598 203.672 425.64 206.11C419.682 208.547 412.573 209.766 404.313 209.766C392.6 209.766 381.937 207.058 372.323 201.641C362.777 196.157 355.16 187.796 349.473 176.557C343.853 165.25 341.043 150.965 341.043 133.7C341.043 116.029 343.921 101.27 349.676 89.4213C355.431 77.573 363.081 68.7038 372.628 62.8135C382.242 56.9232 392.77 53.9781 404.212 53.9781C412.945 53.9781 420.258 55.4676 426.148 58.4466C432.038 61.3579 436.777 65.0139 440.366 69.4147C444.022 73.7478 446.831 78.0131 448.795 82.2108H450.42V56.0092H493.378V213.523C493.378 226.793 490.128 237.897 483.629 246.834C477.129 255.771 468.124 262.474 456.615 266.942C445.173 271.478 432.004 273.746 417.109 273.746ZM418.023 177.268C424.997 177.268 430.887 175.541 435.694 172.088C440.569 168.568 444.293 163.558 446.865 157.058C449.506 150.491 450.826 142.637 450.826 133.497C450.826 124.357 449.54 116.435 446.967 109.733C444.394 102.962 440.67 97.7151 435.796 93.9913C430.921 90.2676 424.997 88.4057 418.023 88.4057C410.914 88.4057 404.922 90.3353 400.048 94.1945C395.173 97.9859 391.483 103.267 388.978 110.037C386.473 116.808 385.221 124.628 385.221 133.497C385.221 142.502 386.473 150.288 388.978 156.855C391.551 163.354 395.241 168.398 400.048 171.987C404.922 175.507 410.914 177.268 418.023 177.268ZM657.595 100.491L617.988 102.928C617.311 99.5431 615.855 96.4964 613.621 93.7882C611.387 91.0124 608.442 88.812 604.786 87.1871C601.197 85.4945 596.898 84.6482 591.888 84.6482C585.185 84.6482 579.532 86.0699 574.928 88.9135C570.324 91.6894 568.022 95.4131 568.022 100.085C568.022 103.808 569.512 106.957 572.491 109.529C575.47 112.102 580.581 114.167 587.826 115.724L616.058 121.412C631.224 124.526 642.531 129.536 649.978 136.442C657.426 143.348 661.15 152.42 661.15 163.659C661.15 173.882 658.137 182.853 652.111 190.572C646.153 198.29 637.961 204.316 627.534 208.649C617.176 212.914 605.226 215.047 591.685 215.047C571.035 215.047 554.583 210.747 542.328 202.149C530.142 193.483 522.999 181.702 520.9 166.807L563.452 164.573C564.739 170.87 567.853 175.677 572.795 178.994C577.738 182.244 584.068 183.869 591.786 183.869C599.369 183.869 605.463 182.413 610.067 179.502C614.738 176.523 617.108 172.698 617.176 168.026C617.108 164.099 615.449 160.883 612.199 158.378C608.95 155.805 603.939 153.842 597.169 152.488L570.155 147.105C554.921 144.059 543.581 138.778 536.133 131.263C528.754 123.747 525.064 114.167 525.064 102.522C525.064 92.5019 527.772 83.8695 533.188 76.6252C538.672 69.3808 546.357 63.7952 556.242 59.8684C566.194 55.9415 577.839 53.9781 591.177 53.9781C610.879 53.9781 626.383 58.1419 637.69 66.4695C649.064 74.7972 655.699 86.1376 657.595 100.491Z"/>
</mask>
<path d="M4.02821 40.268V4.01229H174.846V40.268H111.17V212H67.7041V40.268H4.02821ZM225.421 214.945C215.469 214.945 206.6 213.219 198.814 209.766C191.028 206.245 184.866 201.066 180.33 194.228C175.862 187.322 173.628 178.723 173.628 168.432C173.628 159.766 175.219 152.488 178.401 146.598C181.583 140.707 185.916 135.968 191.4 132.38C196.884 128.791 203.113 126.083 210.086 124.255C217.128 122.427 224.507 121.141 232.226 120.396C241.298 119.448 248.61 118.568 254.162 117.756C259.714 116.875 263.742 115.589 266.247 113.896C268.752 112.204 270.005 109.699 270.005 106.381V105.772C270.005 99.34 267.974 94.3637 263.911 90.8431C259.917 87.3225 254.23 85.5622 246.85 85.5622C239.064 85.5622 232.869 87.2886 228.265 90.7415C223.661 94.1268 220.614 98.3921 219.125 103.538L179.112 100.288C181.143 90.8092 185.137 82.617 191.095 75.7112C197.053 68.7376 204.738 63.389 214.149 59.6652C223.627 55.8738 234.595 53.9781 247.053 53.9781C255.719 53.9781 264.013 54.9937 271.934 57.0248C279.923 59.0559 286.998 62.2042 293.16 66.4695C299.388 70.7349 304.297 76.219 307.885 82.9217C311.474 89.5567 313.268 97.512 313.268 106.787V212H272.239V190.368H271.02C268.515 195.243 265.164 199.542 260.966 203.266C256.768 206.922 251.724 209.8 245.834 211.898C239.944 213.93 233.14 214.945 225.421 214.945ZM237.811 185.088C244.175 185.088 249.795 183.835 254.67 181.33C259.544 178.757 263.37 175.304 266.146 170.971C268.921 166.638 270.309 161.73 270.309 156.245V139.692C268.955 140.572 267.093 141.384 264.724 142.129C262.422 142.806 259.815 143.449 256.904 144.059C253.993 144.6 251.081 145.108 248.17 145.582C245.259 145.988 242.618 146.361 240.249 146.699C235.171 147.444 230.736 148.629 226.945 150.254C223.153 151.879 220.208 154.079 218.109 156.855C216.01 159.563 214.961 162.948 214.961 167.01C214.961 172.901 217.094 177.403 221.359 180.517C225.692 183.564 231.176 185.088 237.811 185.088ZM417.109 273.746C403.094 273.746 391.077 271.817 381.057 267.958C371.104 264.166 363.183 258.987 357.292 252.419C351.402 245.852 347.577 238.472 345.817 230.28L385.83 224.898C387.049 228.012 388.978 230.923 391.619 233.632C394.259 236.34 397.746 238.506 402.079 240.131C406.48 241.824 411.828 242.67 418.125 242.67C427.536 242.67 435.288 240.368 441.381 235.764C447.542 231.228 450.623 223.611 450.623 212.914V184.377H448.795C446.899 188.71 444.056 192.806 440.264 196.665C436.473 200.524 431.598 203.672 425.64 206.11C419.682 208.547 412.573 209.766 404.313 209.766C392.6 209.766 381.937 207.058 372.323 201.641C362.777 196.157 355.16 187.796 349.473 176.557C343.853 165.25 341.043 150.965 341.043 133.7C341.043 116.029 343.921 101.27 349.676 89.4213C355.431 77.573 363.081 68.7038 372.628 62.8135C382.242 56.9232 392.77 53.9781 404.212 53.9781C412.945 53.9781 420.258 55.4676 426.148 58.4466C432.038 61.3579 436.777 65.0139 440.366 69.4147C444.022 73.7478 446.831 78.0131 448.795 82.2108H450.42V56.0092H493.378V213.523C493.378 226.793 490.128 237.897 483.629 246.834C477.129 255.771 468.124 262.474 456.615 266.942C445.173 271.478 432.004 273.746 417.109 273.746ZM418.023 177.268C424.997 177.268 430.887 175.541 435.694 172.088C440.569 168.568 444.293 163.558 446.865 157.058C449.506 150.491 450.826 142.637 450.826 133.497C450.826 124.357 449.54 116.435 446.967 109.733C444.394 102.962 440.67 97.7151 435.796 93.9913C430.921 90.2676 424.997 88.4057 418.023 88.4057C410.914 88.4057 404.922 90.3353 400.048 94.1945C395.173 97.9859 391.483 103.267 388.978 110.037C386.473 116.808 385.221 124.628 385.221 133.497C385.221 142.502 386.473 150.288 388.978 156.855C391.551 163.354 395.241 168.398 400.048 171.987C404.922 175.507 410.914 177.268 418.023 177.268ZM657.595 100.491L617.988 102.928C617.311 99.5431 615.855 96.4964 613.621 93.7882C611.387 91.0124 608.442 88.812 604.786 87.1871C601.197 85.4945 596.898 84.6482 591.888 84.6482C585.185 84.6482 579.532 86.0699 574.928 88.9135C570.324 91.6894 568.022 95.4131 568.022 100.085C568.022 103.808 569.512 106.957 572.491 109.529C575.47 112.102 580.581 114.167 587.826 115.724L616.058 121.412C631.224 124.526 642.531 129.536 649.978 136.442C657.426 143.348 661.15 152.42 661.15 163.659C661.15 173.882 658.137 182.853 652.111 190.572C646.153 198.29 637.961 204.316 627.534 208.649C617.176 212.914 605.226 215.047 591.685 215.047C571.035 215.047 554.583 210.747 542.328 202.149C530.142 193.483 522.999 181.702 520.9 166.807L563.452 164.573C564.739 170.87 567.853 175.677 572.795 178.994C577.738 182.244 584.068 183.869 591.786 183.869C599.369 183.869 605.463 182.413 610.067 179.502C614.738 176.523 617.108 172.698 617.176 168.026C617.108 164.099 615.449 160.883 612.199 158.378C608.95 155.805 603.939 153.842 597.169 152.488L570.155 147.105C554.921 144.059 543.581 138.778 536.133 131.263C528.754 123.747 525.064 114.167 525.064 102.522C525.064 92.5019 527.772 83.8695 533.188 76.6252C538.672 69.3808 546.357 63.7952 556.242 59.8684C566.194 55.9415 577.839 53.9781 591.177 53.9781C610.879 53.9781 626.383 58.1419 637.69 66.4695C649.064 74.7972 655.699 86.1376 657.595 100.491Z" fill="url(#paint0_linear_42_15)" shape-rendering="crispEdges"/>
<path d="M4.02821 40.268H3.08197V41.2142H4.02821V40.268ZM4.02821 4.01229V3.06605H3.08197V4.01229H4.02821ZM174.846 4.01229H175.792V3.06605H174.846V4.01229ZM174.846 40.268V41.2142H175.792V40.268H174.846ZM111.17 40.268V39.3217H110.224V40.268H111.17ZM111.17 212V212.946H112.117V212H111.17ZM67.7041 212H66.7579V212.946H67.7041V212ZM67.7041 40.268H68.6504V39.3217H67.7041V40.268ZM4.97444 40.268V4.01229H3.08197V40.268H4.97444ZM4.02821 4.95853H174.846V3.06605H4.02821V4.95853ZM173.9 4.01229V40.268H175.792V4.01229H173.9ZM174.846 39.3217H111.17V41.2142H174.846V39.3217ZM110.224 40.268V212H112.117V40.268H110.224ZM111.17 211.054H67.7041V212.946H111.17V211.054ZM68.6504 212V40.268H66.7579V212H68.6504ZM67.7041 39.3217H4.02821V41.2142H67.7041V39.3217ZM198.814 209.766L198.424 210.628L198.43 210.631L198.814 209.766ZM180.33 194.228L179.536 194.742L179.542 194.751L180.33 194.228ZM178.401 146.598L177.568 146.148L177.568 146.148L178.401 146.598ZM191.4 132.38L190.882 131.588L190.882 131.588L191.4 132.38ZM210.086 124.255L209.849 123.339L209.846 123.34L210.086 124.255ZM232.226 120.396L232.317 121.338L232.324 121.337L232.226 120.396ZM254.162 117.756L254.299 118.692L254.31 118.69L254.162 117.756ZM266.247 113.896L265.717 113.112L265.717 113.112L266.247 113.896ZM263.911 90.8431L263.286 91.553L263.292 91.5582L263.911 90.8431ZM228.265 90.7415L228.826 91.5039L228.833 91.4985L228.265 90.7415ZM219.125 103.538L219.048 104.481L219.819 104.543L220.034 103.801L219.125 103.538ZM179.112 100.288L178.186 100.09L177.96 101.144L179.035 101.231L179.112 100.288ZM191.095 75.7112L191.812 76.3293L191.815 76.3258L191.095 75.7112ZM214.149 59.6652L214.497 60.5451L214.5 60.5438L214.149 59.6652ZM271.934 57.0248L271.699 57.9414L271.701 57.9418L271.934 57.0248ZM293.16 66.4695L292.621 67.2475L292.625 67.2503L293.16 66.4695ZM307.885 82.9217L307.051 83.3683L307.053 83.3718L307.885 82.9217ZM313.268 212V212.946H314.214V212H313.268ZM272.239 212H271.293V212.946H272.239V212ZM272.239 190.368H273.185V189.422H272.239V190.368ZM271.02 190.368V189.422H270.443L270.179 189.936L271.02 190.368ZM260.966 203.266L261.588 203.98L261.594 203.974L260.966 203.266ZM245.834 211.898L246.143 212.793L246.152 212.79L245.834 211.898ZM254.67 181.33L255.102 182.172L255.111 182.167L254.67 181.33ZM266.146 170.971L265.349 170.461L265.349 170.461L266.146 170.971ZM270.309 139.692H271.256V137.948L269.794 138.898L270.309 139.692ZM264.724 142.129L264.991 143.037L264.999 143.034L265.007 143.032L264.724 142.129ZM256.904 144.059L257.077 144.989L257.087 144.987L257.098 144.985L256.904 144.059ZM248.17 145.582L248.301 146.519L248.311 146.518L248.322 146.516L248.17 145.582ZM240.249 146.699L240.115 145.762L240.111 145.763L240.249 146.699ZM226.945 150.254L227.317 151.123L227.317 151.123L226.945 150.254ZM218.109 156.855L218.857 157.435L218.864 157.426L218.109 156.855ZM221.359 180.517L220.801 181.282L220.808 181.287L220.815 181.292L221.359 180.517ZM225.421 213.999C215.579 213.999 206.844 212.292 199.197 208.901L198.43 210.631C206.355 214.146 215.359 215.891 225.421 215.891V213.999ZM199.203 208.904C191.573 205.453 185.552 200.388 181.119 193.705L179.542 194.751C184.181 201.743 190.483 207.037 198.424 210.628L199.203 208.904ZM181.125 193.714C176.778 186.995 174.574 178.587 174.574 168.432H172.681C172.681 178.86 174.946 187.648 179.536 194.742L181.125 193.714ZM174.574 168.432C174.574 159.878 176.145 152.765 179.233 147.047L177.568 146.148C174.293 152.211 172.681 159.654 172.681 168.432H174.574ZM179.233 147.047C182.342 141.292 186.569 136.672 191.918 133.172L190.882 131.588C185.263 135.264 180.823 140.122 177.568 146.148L179.233 147.047ZM191.918 133.172C197.309 129.644 203.442 126.975 210.326 125.17L209.846 123.34C202.784 125.191 196.459 127.938 190.882 131.588L191.918 133.172ZM210.324 125.171C217.314 123.356 224.645 122.078 232.317 121.338L232.135 119.454C224.37 120.203 216.941 121.498 209.849 123.339L210.324 125.171ZM232.324 121.337C241.402 120.389 248.729 119.507 254.299 118.692L254.025 116.819C248.491 117.629 241.194 118.508 232.127 119.455L232.324 121.337ZM254.31 118.69C259.901 117.804 264.097 116.491 266.777 114.68L265.717 113.112C263.388 114.687 259.527 115.947 254.014 116.821L254.31 118.69ZM266.777 114.68C269.571 112.793 270.951 109.977 270.951 106.381H269.058C269.058 109.42 267.933 111.615 265.717 113.112L266.777 114.68ZM270.951 106.381V105.772H269.058V106.381H270.951ZM270.951 105.772C270.951 99.1247 268.842 93.8638 264.531 90.128L263.292 91.5582C267.106 94.8636 269.058 99.5553 269.058 105.772H270.951ZM264.537 90.1332C260.313 86.4103 254.371 84.6159 246.85 84.6159V86.5084C254.088 86.5084 259.521 88.2347 263.286 91.553L264.537 90.1332ZM246.85 84.6159C238.93 84.6159 232.514 86.3719 227.697 89.9846L228.833 91.4985C233.224 88.2053 239.197 86.5084 246.85 86.5084V84.6159ZM227.704 89.9792C222.945 93.4791 219.767 97.915 218.216 103.275L220.034 103.801C221.461 98.8693 224.378 94.7744 228.825 91.5039L227.704 89.9792ZM219.201 102.595L179.188 99.3447L179.035 101.231L219.048 104.481L219.201 102.595ZM180.037 100.486C182.037 91.1527 185.964 83.1074 191.812 76.3293L190.379 75.0931C184.311 82.1267 180.249 90.4658 178.186 100.09L180.037 100.486ZM191.815 76.3258C197.662 69.4814 205.214 64.218 214.497 60.5451L213.8 58.7854C204.261 62.5599 196.444 67.9938 190.376 75.0965L191.815 76.3258ZM214.5 60.5438C223.845 56.8057 234.69 54.9243 247.053 54.9243V53.0319C234.501 53.0319 223.409 54.9419 213.797 58.7867L214.5 60.5438ZM247.053 54.9243C255.645 54.9243 263.859 55.9311 271.699 57.9414L272.169 56.1082C264.167 54.0562 255.794 53.0319 247.053 53.0319V54.9243ZM271.701 57.9418C279.592 59.948 286.561 63.0525 292.621 67.2475L293.698 65.6915C287.436 61.3559 280.255 58.1639 272.167 56.1077L271.701 57.9418ZM292.625 67.2503C298.728 71.4293 303.534 76.7984 307.051 83.3683L308.719 82.4751C305.06 75.6396 300.049 70.0406 293.694 65.6888L292.625 67.2503ZM307.053 83.3718C310.551 89.8403 312.321 97.6335 312.321 106.787H314.214C314.214 97.3905 312.396 89.2731 308.718 82.4716L307.053 83.3718ZM312.321 106.787V212H314.214V106.787H312.321ZM313.268 211.054H272.239V212.946H313.268V211.054ZM273.185 212V190.368H271.293V212H273.185ZM272.239 189.422H271.02V191.315H272.239V189.422ZM270.179 189.936C267.728 194.704 264.45 198.91 260.338 202.558L261.594 203.974C265.877 200.174 269.302 195.782 271.862 190.801L270.179 189.936ZM260.345 202.553C256.247 206.122 251.309 208.943 245.517 211.007L246.152 212.79C252.14 210.656 257.29 207.722 261.588 203.98L260.345 202.553ZM245.526 211.004C239.755 212.994 233.059 213.999 225.421 213.999V215.891C233.221 215.891 240.133 214.865 246.143 212.793L245.526 211.004ZM237.811 186.034C244.302 186.034 250.074 184.756 255.102 182.172L254.237 180.488C249.516 182.914 244.049 184.141 237.811 184.141V186.034ZM255.111 182.167C260.12 179.523 264.072 175.962 266.942 171.482L265.349 170.461C262.667 174.646 258.969 177.991 254.228 180.493L255.111 182.167ZM266.942 171.482C269.822 166.986 271.256 161.898 271.256 156.245H269.363C269.363 161.561 268.021 166.29 265.349 170.461L266.942 171.482ZM271.256 156.245V139.692H269.363V156.245H271.256ZM269.794 138.898C268.539 139.714 266.767 140.495 264.44 141.226L265.007 143.032C267.42 142.274 269.371 141.43 270.825 140.485L269.794 138.898ZM264.457 141.221C262.184 141.89 259.602 142.527 256.71 143.133L257.098 144.985C260.028 144.372 262.66 143.722 264.991 143.037L264.457 141.221ZM256.731 143.128C253.826 143.669 250.922 144.175 248.018 144.648L248.322 146.516C251.24 146.041 254.159 145.532 257.077 144.989L256.731 143.128ZM248.039 144.645C245.127 145.051 242.486 145.424 240.115 145.762L240.382 147.636C242.751 147.298 245.39 146.925 248.301 146.519L248.039 144.645ZM240.111 145.763C234.971 146.517 230.454 147.72 226.572 149.384L227.317 151.123C231.018 149.537 235.37 148.371 240.386 147.635L240.111 145.763ZM226.572 149.384C222.657 151.062 219.57 153.355 217.355 156.284L218.864 157.426C220.847 154.803 223.649 152.696 227.317 151.123L226.572 149.384ZM217.361 156.275C215.111 159.179 214.015 162.779 214.015 167.01H215.907C215.907 163.118 216.91 159.947 218.857 157.434L217.361 156.275ZM214.015 167.01C214.015 173.163 216.261 177.967 220.801 181.282L221.917 179.753C217.926 176.84 215.907 172.639 215.907 167.01H214.015ZM220.815 181.292C225.344 184.476 231.031 186.034 237.811 186.034V184.141C231.322 184.141 226.041 182.653 221.903 179.743L220.815 181.292ZM381.057 267.958L381.397 267.075L381.394 267.073L381.057 267.958ZM357.292 252.419L356.588 253.051L356.588 253.051L357.292 252.419ZM345.817 230.28L345.69 229.342L344.677 229.479L344.891 230.479L345.817 230.28ZM385.83 224.898L386.711 224.553L386.44 223.861L385.704 223.96L385.83 224.898ZM391.619 233.632L392.296 232.971L392.296 232.971L391.619 233.632ZM402.079 240.131L402.419 239.248L402.411 239.245L402.079 240.131ZM441.381 235.764L440.82 235.002L440.811 235.009L441.381 235.764ZM450.623 184.377H451.569V183.43H450.623V184.377ZM448.795 184.377V183.43H448.176L447.928 183.997L448.795 184.377ZM440.264 196.665L440.939 197.328L440.939 197.328L440.264 196.665ZM372.323 201.641L371.851 202.462L371.858 202.466L372.323 201.641ZM349.473 176.557L348.625 176.978L348.628 176.984L349.473 176.557ZM349.676 89.4213L348.825 89.0079L348.825 89.0079L349.676 89.4213ZM372.628 62.8135L372.133 62.0067L372.131 62.0082L372.628 62.8135ZM426.148 58.4466L425.721 59.291L425.729 59.2949L426.148 58.4466ZM440.366 69.4147L439.632 70.0126L439.637 70.0188L439.643 70.0249L440.366 69.4147ZM448.795 82.2108L447.938 82.6117L448.193 83.157H448.795V82.2108ZM450.42 82.2108V83.157H451.366V82.2108H450.42ZM450.42 56.0092V55.063H449.474V56.0092H450.42ZM493.378 56.0092H494.324V55.063H493.378V56.0092ZM483.629 246.834L482.864 246.277L482.864 246.277L483.629 246.834ZM456.615 266.942L456.272 266.06L456.266 266.062L456.615 266.942ZM435.694 172.088L436.246 172.857L436.248 172.855L435.694 172.088ZM446.865 157.058L445.987 156.705L445.986 156.71L446.865 157.058ZM446.967 109.733L446.082 110.069L446.083 110.072L446.967 109.733ZM400.048 94.1945L400.629 94.9414L400.635 94.9364L400.048 94.1945ZM388.978 110.037L389.866 110.366L389.866 110.366L388.978 110.037ZM388.978 156.855L388.094 157.192L388.098 157.203L388.978 156.855ZM400.048 171.987L399.482 172.745L399.488 172.749L399.494 172.754L400.048 171.987ZM417.109 272.8C403.177 272.8 391.281 270.881 381.397 267.075L380.717 268.841C390.873 272.752 403.012 274.693 417.109 274.693V272.8ZM381.394 267.073C371.553 263.325 363.768 258.222 357.997 251.788L356.588 253.051C362.598 259.752 370.655 265.008 380.72 268.842L381.394 267.073ZM357.997 251.788C352.211 245.336 348.466 238.104 346.742 230.081L344.891 230.479C346.688 238.841 350.594 246.368 356.588 253.051L357.997 251.788ZM345.943 231.218L385.956 225.835L385.704 223.96L345.69 229.342L345.943 231.218ZM384.949 225.242C386.219 228.489 388.224 231.505 390.941 234.292L392.296 232.971C389.732 230.342 387.878 227.535 386.711 224.553L384.949 225.242ZM390.941 234.292C393.698 237.12 397.312 239.354 401.747 241.017L402.411 239.245C398.18 237.658 394.82 235.56 392.296 232.971L390.941 234.292ZM401.739 241.014C406.278 242.76 411.749 243.616 418.125 243.616V241.724C411.908 241.724 406.681 240.888 402.419 239.248L401.739 241.014ZM418.125 243.616C427.693 243.616 435.659 241.274 441.952 236.519L440.811 235.009C434.917 239.463 427.379 241.724 418.125 241.724V243.616ZM441.942 236.526C448.433 231.747 451.569 223.784 451.569 212.914H449.677C449.677 223.439 446.652 230.709 440.82 235.002L441.942 236.526ZM451.569 212.914V184.377H449.677V212.914H451.569ZM450.623 183.43H448.795V185.323H450.623V183.43ZM447.928 183.997C446.085 188.211 443.311 192.213 439.589 196.002L440.939 197.328C444.8 193.398 447.714 189.209 449.662 184.756L447.928 183.997ZM439.589 196.002C435.903 199.754 431.143 202.836 425.282 205.234L425.998 206.986C432.053 204.509 437.042 201.295 440.939 197.328L439.589 196.002ZM425.282 205.234C419.465 207.614 412.484 208.82 404.313 208.82V210.712C412.663 210.712 419.899 209.481 425.998 206.986L425.282 205.234ZM404.313 208.82C392.753 208.82 382.251 206.148 372.787 200.817L371.858 202.466C381.623 207.967 392.448 210.712 404.313 210.712V208.82ZM372.794 200.821C363.43 195.441 355.933 187.228 350.317 176.13L348.628 176.984C354.386 188.363 362.123 196.873 371.852 202.462L372.794 200.821ZM350.32 176.136C344.785 164.999 341.99 150.869 341.99 133.7H340.097C340.097 151.06 342.921 165.501 348.625 176.978L350.32 176.136ZM341.99 133.7C341.99 116.126 344.852 101.518 350.527 89.8347L348.825 89.0079C342.99 101.021 340.097 115.932 340.097 133.7H341.99ZM350.527 89.8347C356.217 78.1194 363.756 69.3993 373.124 63.6188L372.131 62.0082C362.406 68.0083 354.644 77.0267 348.825 89.0079L350.527 89.8347ZM373.122 63.6203C382.585 57.8226 392.941 54.9243 404.212 54.9243V53.0319C392.598 53.0319 381.898 56.0238 372.133 62.0067L373.122 63.6203ZM404.212 54.9243C412.843 54.9243 419.999 56.397 425.721 59.291L426.575 57.6022C420.516 54.5382 413.048 53.0319 404.212 53.0319V54.9243ZM425.729 59.2949C431.516 62.1555 436.142 65.7321 439.632 70.0126L441.099 68.8167C437.413 64.2957 432.56 60.5602 426.567 57.5983L425.729 59.2949ZM439.643 70.0249C443.256 74.308 446.016 78.5039 447.938 82.6117L449.652 81.8099C447.647 77.5223 444.787 73.1875 441.089 68.8045L439.643 70.0249ZM448.795 83.157H450.42V81.2646H448.795V83.157ZM451.366 82.2108V56.0092H449.474V82.2108H451.366ZM450.42 56.9555H493.378V55.063H450.42V56.9555ZM492.432 56.0092V213.523H494.324V56.0092H492.432ZM492.432 213.523C492.432 226.635 489.223 237.532 482.864 246.277L484.394 247.39C491.033 238.261 494.324 226.952 494.324 213.523H492.432ZM482.864 246.277C476.483 255.051 467.633 261.649 456.272 266.06L456.957 267.824C468.616 263.298 477.775 256.491 484.394 247.39L482.864 246.277ZM456.266 266.062C444.956 270.546 431.909 272.8 417.109 272.8V274.693C432.099 274.693 445.39 272.41 456.963 267.822L456.266 266.062ZM418.023 178.214C425.159 178.214 431.251 176.445 436.246 172.857L435.142 171.32C430.523 174.638 424.835 176.321 418.023 176.321V178.214ZM436.248 172.855C441.292 169.213 445.117 164.046 447.745 157.406L445.986 156.71C443.468 163.069 439.846 167.923 435.14 171.321L436.248 172.855ZM447.743 157.411C450.44 150.704 451.772 142.724 451.772 133.497H449.88C449.88 142.55 448.572 150.277 445.987 156.705L447.743 157.411ZM451.772 133.497C451.772 124.271 450.474 116.23 447.85 109.394L446.083 110.072C448.605 116.641 449.88 124.442 449.88 133.497H451.772ZM447.851 109.396C445.227 102.491 441.408 97.0882 436.37 93.2394L435.221 94.7433C439.932 98.342 443.561 103.433 446.082 110.069L447.851 109.396ZM436.37 93.2394C431.308 89.3727 425.175 87.4595 418.023 87.4595V89.352C424.819 89.352 430.534 91.1625 435.221 94.7433L436.37 93.2394ZM418.023 87.4595C410.733 87.4595 404.526 89.4424 399.46 93.4526L400.635 94.9364C405.319 91.2282 411.095 89.352 418.023 89.352V87.4595ZM399.467 93.4475C394.431 97.3644 390.646 102.802 388.091 109.709L389.866 110.366C392.32 103.732 395.915 98.6074 400.629 94.9414L399.467 93.4475ZM388.091 109.709C385.539 116.605 384.274 124.54 384.274 133.497H386.167C386.167 124.715 387.407 117.01 389.866 110.366L388.091 109.709ZM384.274 133.497C384.274 142.586 385.538 150.492 388.094 157.192L389.862 156.518C387.408 150.083 386.167 142.417 386.167 133.497H384.274ZM388.098 157.203C390.725 163.838 394.512 169.035 399.482 172.745L400.614 171.228C395.969 167.761 392.377 162.87 389.858 156.507L388.098 157.203ZM399.494 172.754C404.558 176.411 410.753 178.214 418.023 178.214V176.321C411.076 176.321 405.287 174.604 400.602 171.22L399.494 172.754ZM657.595 100.491L657.653 101.435L658.666 101.373L658.533 100.367L657.595 100.491ZM617.988 102.928L617.06 103.114L617.222 103.923L618.046 103.873L617.988 102.928ZM613.621 93.7882L612.884 94.3816L612.891 94.3904L613.621 93.7882ZM604.786 87.1871L604.382 88.0429L604.392 88.0474L604.401 88.0517L604.786 87.1871ZM574.928 88.9135L575.417 89.7239L575.425 89.7186L574.928 88.9135ZM572.491 109.529L571.872 110.246L571.872 110.246L572.491 109.529ZM587.826 115.724L587.627 116.65L587.639 116.652L587.826 115.724ZM616.058 121.412L616.249 120.485L616.245 120.484L616.058 121.412ZM649.978 136.442L649.335 137.136L649.335 137.136L649.978 136.442ZM652.111 190.572L651.365 189.989L651.362 189.993L652.111 190.572ZM627.534 208.649L627.895 209.524L627.897 209.522L627.534 208.649ZM542.328 202.149L541.78 202.92L541.785 202.924L542.328 202.149ZM520.9 166.807L520.85 165.862L519.819 165.917L519.963 166.939L520.9 166.807ZM563.452 164.573L564.379 164.384L564.216 163.585L563.403 163.628L563.452 164.573ZM572.795 178.994L572.268 179.78L572.276 179.785L572.795 178.994ZM610.067 179.502L610.572 180.302L610.575 180.3L610.067 179.502ZM617.176 168.026L618.122 168.04L618.122 168.025L618.122 168.01L617.176 168.026ZM612.199 158.378L611.612 159.12L611.622 159.128L612.199 158.378ZM597.169 152.488L597.355 151.56L597.354 151.56L597.169 152.488ZM570.155 147.105L569.969 148.033L569.97 148.033L570.155 147.105ZM536.133 131.263L535.458 131.926L535.461 131.929L536.133 131.263ZM533.188 76.6252L532.434 76.0541L532.431 76.0586L533.188 76.6252ZM556.242 59.8684L555.894 58.9882L555.892 58.989L556.242 59.8684ZM637.69 66.4695L637.129 67.2314L637.131 67.233L637.69 66.4695ZM657.537 99.5465L617.93 101.984L618.046 103.873L657.653 101.435L657.537 99.5465ZM618.916 102.743C618.208 99.2018 616.683 96.0125 614.351 93.1861L612.891 94.3904C615.028 96.9803 616.414 99.8844 617.06 103.114L618.916 102.743ZM614.358 93.1949C612.019 90.2881 608.946 88.0008 605.17 86.3224L604.401 88.0517C607.937 89.6231 610.755 91.7366 612.884 94.3815L614.358 93.1949ZM605.189 86.3313C601.446 84.5656 597.002 83.7019 591.888 83.7019V85.5944C596.794 85.5944 600.949 86.4233 604.382 88.0429L605.189 86.3313ZM591.888 83.7019C585.051 83.7019 579.216 85.1528 574.431 88.1085L575.425 89.7186C579.848 86.987 585.319 85.5944 591.888 85.5944V83.7019ZM574.439 88.1032C569.602 91.0197 567.076 95.0262 567.076 100.085H568.968C568.968 95.8001 571.046 92.3591 575.417 89.7239L574.439 88.1032ZM567.076 100.085C567.076 104.101 568.699 107.505 571.872 110.246L573.109 108.813C570.325 106.409 568.968 103.516 568.968 100.085H567.076ZM571.872 110.246C575.037 112.978 580.342 115.084 587.627 116.65L588.025 114.799C580.821 113.251 575.903 111.226 573.109 108.813L571.872 110.246ZM587.639 116.652L615.872 122.339L616.245 120.484L588.013 114.797L587.639 116.652ZM615.868 122.338C630.947 125.435 642.064 130.394 649.335 137.136L650.622 135.748C642.997 128.678 631.502 123.617 616.249 120.485L615.868 122.338ZM649.335 137.136C656.568 143.842 660.203 152.652 660.203 163.659H662.096C662.096 152.188 658.284 142.853 650.622 135.748L649.335 137.136ZM660.203 163.659C660.203 173.681 657.255 182.445 651.365 189.989L652.857 191.154C659.018 183.262 662.096 174.083 662.096 163.659H660.203ZM651.362 189.993C645.52 197.562 637.47 203.495 627.171 207.775L627.897 209.522C638.452 205.136 646.786 199.018 652.86 191.15L651.362 189.993ZM627.174 207.774C616.951 211.983 605.127 214.1 591.685 214.1V215.993C605.324 215.993 617.4 213.845 627.895 209.524L627.174 207.774ZM591.685 214.1C571.158 214.1 554.917 209.826 542.872 201.374L541.785 202.924C554.249 211.669 570.912 215.993 591.685 215.993V214.1ZM542.877 201.378C530.903 192.863 523.9 181.315 521.837 166.675L519.963 166.939C522.098 182.09 529.38 194.102 541.78 202.92L542.877 201.378ZM520.95 167.752L563.502 165.518L563.403 163.628L520.85 165.862L520.95 167.752ZM562.525 164.763C563.857 171.281 567.102 176.312 572.268 179.78L573.323 178.208C568.604 175.041 565.62 170.458 564.379 164.384L562.525 164.763ZM572.276 179.785C577.413 183.163 583.939 184.815 591.786 184.815V182.923C584.197 182.923 578.063 181.325 573.315 178.204L572.276 179.785ZM591.786 184.815C599.481 184.815 605.769 183.339 610.572 180.302L609.561 178.702C605.157 181.487 599.258 182.923 591.786 182.923V184.815ZM610.575 180.3C615.458 177.186 618.048 173.092 618.122 168.04L616.229 168.012C616.167 172.303 614.019 175.859 609.558 178.704L610.575 180.3ZM618.122 168.01C618.049 163.781 616.243 160.3 612.777 157.629L611.622 159.128C614.655 161.466 616.167 164.418 616.229 168.042L618.122 168.01ZM612.787 157.636C609.366 154.928 604.186 152.926 597.355 151.56L596.983 153.416C603.693 154.758 608.533 156.682 611.612 159.12L612.787 157.636ZM597.354 151.56L570.34 146.177L569.97 148.033L596.984 153.416L597.354 151.56ZM570.34 146.178C555.21 143.151 544.072 137.929 536.806 130.597L535.461 131.929C543.09 139.627 554.633 144.966 569.969 148.033L570.34 146.178ZM536.809 130.6C529.622 123.281 526.01 113.948 526.01 102.522H524.118C524.118 114.387 527.886 124.214 535.458 131.926L536.809 130.6ZM526.01 102.522C526.01 92.6829 528.665 84.2549 533.946 77.1918L532.431 76.0586C526.879 83.4842 524.118 92.3208 524.118 102.522H526.01ZM533.943 77.1963C539.306 70.1118 546.839 64.6218 556.591 60.7477L555.892 58.989C545.875 62.9686 538.039 68.6499 532.434 76.0541L533.943 77.1963ZM556.589 60.7486C566.407 56.8746 577.93 54.9243 591.177 54.9243V53.0319C577.749 53.0319 565.981 55.0084 555.894 58.9882L556.589 60.7486ZM591.177 54.9243C610.756 54.9243 626.039 59.0632 637.129 67.2314L638.251 65.7076C626.728 57.2206 611.002 53.0319 591.177 53.0319V54.9243ZM637.131 67.233C648.291 75.4035 654.794 86.5097 656.657 100.615L658.533 100.367C656.605 85.7656 649.838 74.1908 638.249 65.706L637.131 67.233Z" fill="url(#paint1_linear_42_15)" fill-opacity="0.25" mask="url(#path-1-inside-1_42_15)"/>
</g>
<defs>
<filter id="filter0_d_42_15" x="0.215212" y="0.199099" width="664.748" height="277.36" filterUnits="userSpaceOnUse" color-interpolation-filters="sRGB">
<feFlood flood-opacity="0" result="BackgroundImageFix"/>
<feColorMatrix in="SourceAlpha" type="matrix" values="0 0 0 0 0 0 0 0 0 0 0 0 0 0 0 0 0 0 127 0" result="hardAlpha"/>
<feOffset/>
<feGaussianBlur stdDeviation="1.90655"/>
<feComposite in2="hardAlpha" operator="out"/>
<feColorMatrix type="matrix" values="0 0 0 0 1 0 0 0 0 1 0 0 0 0 1 0 0 0 0.06 0"/>
<feBlend mode="normal" in2="BackgroundImageFix" result="effect1_dropShadow_42_15"/>
<feBlend mode="normal" in="SourceGraphic" in2="effect1_dropShadow_42_15" result="shape"/>
</filter>
<linearGradient id="paint0_linear_42_15" x1="332.5" y1="-73" x2="332.5" y2="290" gradientUnits="userSpaceOnUse">
<stop stop-color="#D9D9D9" stop-opacity="0.1"/>
<stop offset="1" stop-color="#737373" stop-opacity="0"/>
</linearGradient>
<linearGradient id="paint1_linear_42_15" x1="332.5" y1="-73" x2="332.5" y2="290" gradientUnits="userSpaceOnUse">
<stop offset="0.33217" stop-color="#A4A4A4" stop-opacity="0"/>
<stop offset="1" stop-color="white"/>
</linearGradient>
</defs>
</svg>
